<?xml version="1.0" encoding="utf-8" standalone="no"?>
<!DOCTYPE svg PUBLIC "-//W3C//DTD SVG 1.1//EN"
  "http://www.w3.org/Graphics/SVG/1.1/DTD/svg11.dtd">
<svg xmlns:xlink="http://www.w3.org/1999/xlink" width="432pt" height="324pt" viewBox="0 0 432 324" xmlns="http://www.w3.org/2000/svg" version="1.1">
 <metadata>
  <rdf:RDF xmlns:dc="http://purl.org/dc/elements/1.1/" xmlns:cc="http://creativecommons.org/ns#" xmlns:rdf="http://www.w3.org/1999/02/22-rdf-syntax-ns#">
   <cc:Work>
    <dc:type rdf:resource="http://purl.org/dc/dcmitype/StillImage"/>
    <dc:date>2024-06-08T00:19:54.254401</dc:date>
    <dc:format>image/svg+xml</dc:format>
    <dc:creator>
     <cc:Agent>
      <dc:title>Matplotlib v3.7.1, https://matplotlib.org/</dc:title>
     </cc:Agent>
    </dc:creator>
   </cc:Work>
  </rdf:RDF>
 </metadata>
 <defs>
  <style type="text/css">*{stroke-linejoin: round; stroke-linecap: butt}</style>
 </defs>
 <g id="figure_1">
  <g id="patch_1">
   <path d="M 0 324 
L 432 324 
L 432 0 
L 0 0 
z
" style="fill: #ffffff"/>
  </g>
  <g id="axes_1">
   <g id="patch_2">
    <path d="M 77.33 269.656 
L 419.04 269.656 
L 419.04 12.96 
L 77.33 12.96 
z
" style="fill: #ffffff"/>
   </g>
   <g id="PathCollection_1">
    <defs>
     <path id="m6b43543e77" d="M 0 3 
C 0.795609 3 1.55874 2.683901 2.12132 2.12132 
C 2.683901 1.55874 3 0.795609 3 0 
C 3 -0.795609 2.683901 -1.55874 2.12132 -2.12132 
C 1.55874 -2.683901 0.795609 -3 0 -3 
C -0.795609 -3 -1.55874 -2.683901 -2.12132 -2.12132 
C -2.683901 -1.55874 -3 -0.795609 -3 0 
C -3 0.795609 -2.683901 1.55874 -2.12132 2.12132 
C -1.55874 2.683901 -0.795609 3 0 3 
z
" style="stroke: #000000; stroke-opacity: 0.8"/>
    </defs>
    <g clip-path="url(#pb56d9b6471)">
     <use xlink:href="#m6b43543e77" x="286.610767" y="200.005451" style="fill-opacity: 0.8; stroke: #000000; stroke-opacity: 0.8"/>
     <use xlink:href="#m6b43543e77" x="299.239838" y="205.908653" style="fill-opacity: 0.8; stroke: #000000; stroke-opacity: 0.8"/>
     <use xlink:href="#m6b43543e77" x="349.595591" y="212.224252" style="fill-opacity: 0.8; stroke: #000000; stroke-opacity: 0.8"/>
     <use xlink:href="#m6b43543e77" x="129.361226" y="192.3228" style="fill-opacity: 0.8; stroke: #000000; stroke-opacity: 0.8"/>
     <use xlink:href="#m6b43543e77" x="140.211716" y="201.398516" style="fill-opacity: 0.8; stroke: #000000; stroke-opacity: 0.8"/>
     <use xlink:href="#m6b43543e77" x="111.565196" y="167.667539" style="fill-opacity: 0.8; stroke: #000000; stroke-opacity: 0.8"/>
     <use xlink:href="#m6b43543e77" x="155.240099" y="118.686728" style="fill-opacity: 0.8; stroke: #000000; stroke-opacity: 0.8"/>
     <use xlink:href="#m6b43543e77" x="266.854548" y="231.38595" style="fill-opacity: 0.8; stroke: #000000; stroke-opacity: 0.8"/>
     <use xlink:href="#m6b43543e77" x="142.397702" y="194.71099" style="fill-opacity: 0.8; stroke: #000000; stroke-opacity: 0.8"/>
     <use xlink:href="#m6b43543e77" x="403.507727" y="220.291385" style="fill-opacity: 0.8; stroke: #000000; stroke-opacity: 0.8"/>
     <use xlink:href="#m6b43543e77" x="194.457988" y="186.18986" style="fill-opacity: 0.8; stroke: #000000; stroke-opacity: 0.8"/>
     <use xlink:href="#m6b43543e77" x="330.236781" y="186.621445" style="fill-opacity: 0.8; stroke: #000000; stroke-opacity: 0.8"/>
     <use xlink:href="#m6b43543e77" x="92.862273" y="190.955236" style="fill-opacity: 0.8; stroke: #000000; stroke-opacity: 0.8"/>
     <use xlink:href="#m6b43543e77" x="210.037536" y="210.046062" style="fill-opacity: 0.8; stroke: #000000; stroke-opacity: 0.8"/>
     <use xlink:href="#m6b43543e77" x="296.088316" y="187.777645" style="fill-opacity: 0.8; stroke: #000000; stroke-opacity: 0.8"/>
     <use xlink:href="#m6b43543e77" x="278.35822" y="206.99208" style="fill-opacity: 0.8; stroke: #000000; stroke-opacity: 0.8"/>
     <use xlink:href="#m6b43543e77" x="165.513271" y="213.673587" style="fill-opacity: 0.8; stroke: #000000; stroke-opacity: 0.8"/>
     <use xlink:href="#m6b43543e77" x="189.447202" y="193.908999" style="fill-opacity: 0.8; stroke: #000000; stroke-opacity: 0.8"/>
     <use xlink:href="#m6b43543e77" x="252.421843" y="165.043472" style="fill-opacity: 0.8; stroke: #000000; stroke-opacity: 0.8"/>
     <use xlink:href="#m6b43543e77" x="296.546348" y="182.645178" style="fill-opacity: 0.8; stroke: #000000; stroke-opacity: 0.8"/>
     <use xlink:href="#m6b43543e77" x="278.35822" y="201.149017" style="fill-opacity: 0.8; stroke: #000000; stroke-opacity: 0.8"/>
     <use xlink:href="#m6b43543e77" x="135.936141" y="167.379768" style="fill-opacity: 0.8; stroke: #000000; stroke-opacity: 0.8"/>
     <use xlink:href="#m6b43543e77" x="158.327372" y="212.947634" style="fill-opacity: 0.8; stroke: #000000; stroke-opacity: 0.8"/>
     <use xlink:href="#m6b43543e77" x="168.31437" y="101.731962" style="fill-opacity: 0.8; stroke: #000000; stroke-opacity: 0.8"/>
     <use xlink:href="#m6b43543e77" x="174.543499" y="232.576657" style="fill-opacity: 0.8; stroke: #000000; stroke-opacity: 0.8"/>
     <use xlink:href="#m6b43543e77" x="127.141286" y="27.799037" style="fill-opacity: 0.8; stroke: #000000; stroke-opacity: 0.8"/>
     <use xlink:href="#m6b43543e77" x="236.975151" y="159.827943" style="fill-opacity: 0.8; stroke: #000000; stroke-opacity: 0.8"/>
     <use xlink:href="#m6b43543e77" x="148.43057" y="82.778143" style="fill-opacity: 0.8; stroke: #000000; stroke-opacity: 0.8"/>
     <use xlink:href="#m6b43543e77" x="220.528897" y="247.318399" style="fill-opacity: 0.8; stroke: #000000; stroke-opacity: 0.8"/>
     <use xlink:href="#m6b43543e77" x="239.42818" y="188.840924" style="fill-opacity: 0.8; stroke: #000000; stroke-opacity: 0.8"/>
    </g>
   </g>
   <g id="PolyCollection_1">
    <path d="M 92.862273 116.560699 
L 92.862273 186.389584 
L 96.000106 186.654942 
L 99.137938 186.872168 
L 102.275771 187.189348 
L 105.413604 187.456561 
L 108.551437 187.688725 
L 111.68927 187.963674 
L 114.827103 188.238623 
L 117.964936 188.513572 
L 121.102769 188.788521 
L 124.240601 189.063469 
L 127.378434 189.334685 
L 130.516267 189.57017 
L 133.6541 189.683294 
L 136.791933 189.979334 
L 139.929766 190.28741 
L 143.067599 190.568131 
L 146.205432 190.713902 
L 149.343264 190.903354 
L 152.481097 191.181718 
L 155.61893 191.421874 
L 158.756763 191.690452 
L 161.894596 191.999477 
L 165.032429 192.072802 
L 168.170262 192.247912 
L 171.308095 192.628547 
L 174.445927 193.009181 
L 177.58376 193.389815 
L 180.721593 193.732054 
L 183.859426 194.023066 
L 186.997259 194.309658 
L 190.135092 194.55649 
L 193.272925 194.883821 
L 196.410758 195.1748 
L 199.54859 195.375337 
L 202.686423 195.742947 
L 205.824256 196.041179 
L 208.962089 196.307508 
L 212.099922 196.58093 
L 215.237755 196.844868 
L 218.375588 197.167957 
L 221.513421 197.510373 
L 224.651253 197.777164 
L 227.789086 198.201959 
L 230.926919 198.639807 
L 234.064752 199.076872 
L 237.202585 199.513937 
L 240.340418 200.010644 
L 243.478251 200.387048 
L 246.616084 200.825132 
L 249.753916 201.398986 
L 252.891749 202.016634 
L 256.029582 202.58854 
L 259.167415 203.237109 
L 262.305248 203.760335 
L 265.443081 204.52366 
L 268.580914 205.186944 
L 271.718747 205.957158 
L 274.856579 206.789959 
L 277.994412 207.630422 
L 281.132245 208.778106 
L 284.270078 209.842998 
L 287.407911 210.905727 
L 290.545744 211.738665 
L 293.683577 213.031483 
L 296.82141 214.263178 
L 299.959242 215.174104 
L 303.097075 216.203082 
L 306.234908 217.283591 
L 309.372741 218.194755 
L 312.510574 219.252217 
L 315.648407 220.02907 
L 318.78624 221.125837 
L 321.924073 222.502206 
L 325.061905 223.76795 
L 328.199738 225.104499 
L 331.337571 226.260474 
L 334.475404 227.452036 
L 337.613237 228.622325 
L 340.75107 229.796875 
L 343.888903 230.97259 
L 347.026736 232.148306 
L 350.164568 233.324022 
L 353.302401 234.499737 
L 356.440234 235.675453 
L 359.578067 236.84877 
L 362.7159 238.017836 
L 365.853733 239.163819 
L 368.991566 240.36345 
L 372.129399 241.681202 
L 375.267231 242.946321 
L 378.405064 244.202199 
L 381.542897 245.456652 
L 384.68073 246.624841 
L 387.818563 247.607161 
L 390.956396 248.885165 
L 394.094229 250.000574 
L 397.232062 251.110322 
L 400.369894 252.22007 
L 403.507727 253.44946 
L 403.507727 202.415459 
L 403.507727 202.415459 
L 400.369894 202.176414 
L 397.232062 202.031465 
L 394.094229 201.887797 
L 390.956396 201.722285 
L 387.818563 201.487467 
L 384.68073 201.252649 
L 381.542897 201.011298 
L 378.405064 200.602392 
L 375.267231 200.553089 
L 372.129399 200.330232 
L 368.991566 200.198502 
L 365.853733 200.066773 
L 362.7159 199.764908 
L 359.578067 199.376605 
L 356.440234 199.069106 
L 353.302401 198.75281 
L 350.164568 198.391614 
L 347.026736 198.056069 
L 343.888903 197.671066 
L 340.75107 197.385983 
L 337.613237 197.247463 
L 334.475404 196.909281 
L 331.337571 196.695466 
L 328.199738 196.450831 
L 325.061905 196.25612 
L 321.924073 195.776398 
L 318.78624 195.242767 
L 315.648407 194.667655 
L 312.510574 194.08072 
L 309.372741 193.633348 
L 306.234908 193.186957 
L 303.097075 192.570943 
L 299.959242 191.968048 
L 296.82141 191.295673 
L 293.683577 190.888704 
L 290.545744 190.162541 
L 287.407911 189.56008 
L 284.270078 188.872275 
L 281.132245 188.129244 
L 277.994412 187.253683 
L 274.856579 186.401995 
L 271.718747 185.453574 
L 268.580914 184.600526 
L 265.443081 183.865569 
L 262.305248 182.908307 
L 259.167415 182.095703 
L 256.029582 181.036372 
L 252.891749 179.875113 
L 249.753916 178.862183 
L 246.616084 177.701589 
L 243.478251 176.855416 
L 240.340418 175.870096 
L 237.202585 174.919541 
L 234.064752 173.983144 
L 230.926919 172.872155 
L 227.789086 171.872841 
L 224.651253 170.800496 
L 221.513421 169.492499 
L 218.375588 168.291549 
L 215.237755 167.145779 
L 212.099922 166.029442 
L 208.962089 164.842715 
L 205.824256 163.73883 
L 202.686423 162.614061 
L 199.54859 161.396068 
L 196.410758 160.510793 
L 193.272925 159.30653 
L 190.135092 157.797827 
L 186.997259 156.677495 
L 183.859426 155.474475 
L 180.721593 154.118371 
L 177.58376 152.803067 
L 174.445927 151.46516 
L 171.308095 150.128203 
L 168.170262 148.682755 
L 165.032429 147.529151 
L 161.894596 146.372383 
L 158.756763 145.215615 
L 155.61893 144.05937 
L 152.481097 142.904449 
L 149.343264 141.473019 
L 146.205432 139.982402 
L 143.067599 138.444649 
L 139.929766 137.103469 
L 136.791933 135.758073 
L 133.6541 134.249045 
L 130.516267 132.781883 
L 127.378434 131.442407 
L 124.240601 130.110071 
L 121.102769 128.780819 
L 117.964936 127.44191 
L 114.827103 126.102063 
L 111.68927 124.762216 
L 108.551437 123.422369 
L 105.413604 121.970142 
L 102.275771 120.457176 
L 99.137938 118.964065 
L 96.000106 117.762382 
L 92.862273 116.560699 
z
" clip-path="url(#pb56d9b6471)" style="fill-opacity: 0.15"/>
   </g>
   <g id="PathCollection_2">
    <defs>
     <path id="m9b5500d7e0" d="M 0 3.872983 
C 1.027127 3.872983 2.012324 3.464901 2.738613 2.738613 
C 3.464901 2.012324 3.872983 1.027127 3.872983 0 
C 3.872983 -1.027127 3.464901 -2.012324 2.738613 -2.738613 
C 2.012324 -3.464901 1.027127 -3.872983 0 -3.872983 
C -1.027127 -3.872983 -2.012324 -3.464901 -2.738613 -2.738613 
C -3.464901 -2.012324 -3.872983 -1.027127 -3.872983 0 
C -3.872983 1.027127 -3.464901 2.012324 -2.738613 2.738613 
C -2.012324 3.464901 -1.027127 3.872983 0 3.872983 
z
" style="stroke: #ffffff; stroke-width: 0.619677"/>
    </defs>
    <g clip-path="url(#pb56d9b6471)">
     <use xlink:href="#m9b5500d7e0" x="129.361226" y="192.3228" style="fill: #ff0000; stroke: #ffffff; stroke-width: 0.619677"/>
     <use xlink:href="#m9b5500d7e0" x="111.565196" y="167.667539" style="fill: #ff0000; stroke: #ffffff; stroke-width: 0.619677"/>
     <use xlink:href="#m9b5500d7e0" x="92.862273" y="190.955236" style="fill: #ff0000; stroke: #ffffff; stroke-width: 0.619677"/>
     <use xlink:href="#m9b5500d7e0" x="135.936141" y="167.379768" style="fill: #ff0000; stroke: #ffffff; stroke-width: 0.619677"/>
     <use xlink:href="#m9b5500d7e0" x="127.141286" y="27.799037" style="fill: #ff0000; stroke: #ffffff; stroke-width: 0.619677"/>
    </g>
   </g>
   <g id="matplotlib.axis_1">
    <g id="xtick_1">
     <g id="line2d_1">
      <defs>
       <path id="mbf3bdaeddc" d="M 0 0 
L 0 3.5 
" style="stroke: #000000; stroke-width: 0.8"/>
      </defs>
      <g>
       <use xlink:href="#mbf3bdaeddc" x="119.199519" y="269.656" style="stroke: #000000; stroke-width: 0.8"/>
      </g>
     </g>
     <g id="text_1">
      <!-- 0 -->
      <g transform="translate(115.382019 285.774125) scale(0.12 -0.12)">
       <defs>
        <path id="DejaVuSans-30" d="M 2034 4250 
Q 1547 4250 1301 3770 
Q 1056 3291 1056 2328 
Q 1056 1369 1301 889 
Q 1547 409 2034 409 
Q 2525 409 2770 889 
Q 3016 1369 3016 2328 
Q 3016 3291 2770 3770 
Q 2525 4250 2034 4250 
z
M 2034 4750 
Q 2819 4750 3233 4129 
Q 3647 3509 3647 2328 
Q 3647 1150 3233 529 
Q 2819 -91 2034 -91 
Q 1250 -91 836 529 
Q 422 1150 422 2328 
Q 422 3509 836 4129 
Q 1250 4750 2034 4750 
z
" transform="scale(0.015625)"/>
       </defs>
       <use xlink:href="#DejaVuSans-30"/>
      </g>
     </g>
    </g>
    <g id="xtick_2">
     <g id="line2d_2">
      <g>
       <use xlink:href="#mbf3bdaeddc" x="179.931599" y="269.656" style="stroke: #000000; stroke-width: 0.8"/>
      </g>
     </g>
     <g id="text_2">
      <!-- 1 -->
      <g transform="translate(176.114099 285.774125) scale(0.12 -0.12)">
       <defs>
        <path id="DejaVuSans-31" d="M 794 531 
L 1825 531 
L 1825 4091 
L 703 3866 
L 703 4441 
L 1819 4666 
L 2450 4666 
L 2450 531 
L 3481 531 
L 3481 0 
L 794 0 
L 794 531 
z
" transform="scale(0.015625)"/>
       </defs>
       <use xlink:href="#DejaVuSans-31"/>
      </g>
     </g>
    </g>
    <g id="xtick_3">
     <g id="line2d_3">
      <g>
       <use xlink:href="#mbf3bdaeddc" x="240.66368" y="269.656" style="stroke: #000000; stroke-width: 0.8"/>
      </g>
     </g>
     <g id="text_3">
      <!-- 2 -->
      <g transform="translate(236.84618 285.774125) scale(0.12 -0.12)">
       <defs>
        <path id="DejaVuSans-32" d="M 1228 531 
L 3431 531 
L 3431 0 
L 469 0 
L 469 531 
Q 828 903 1448 1529 
Q 2069 2156 2228 2338 
Q 2531 2678 2651 2914 
Q 2772 3150 2772 3378 
Q 2772 3750 2511 3984 
Q 2250 4219 1831 4219 
Q 1534 4219 1204 4116 
Q 875 4013 500 3803 
L 500 4441 
Q 881 4594 1212 4672 
Q 1544 4750 1819 4750 
Q 2544 4750 2975 4387 
Q 3406 4025 3406 3419 
Q 3406 3131 3298 2873 
Q 3191 2616 2906 2266 
Q 2828 2175 2409 1742 
Q 1991 1309 1228 531 
z
" transform="scale(0.015625)"/>
       </defs>
       <use xlink:href="#DejaVuSans-32"/>
      </g>
     </g>
    </g>
    <g id="xtick_4">
     <g id="line2d_4">
      <g>
       <use xlink:href="#mbf3bdaeddc" x="301.39576" y="269.656" style="stroke: #000000; stroke-width: 0.8"/>
      </g>
     </g>
     <g id="text_4">
      <!-- 3 -->
      <g transform="translate(297.57826 285.774125) scale(0.12 -0.12)">
       <defs>
        <path id="DejaVuSans-33" d="M 2597 2516 
Q 3050 2419 3304 2112 
Q 3559 1806 3559 1356 
Q 3559 666 3084 287 
Q 2609 -91 1734 -91 
Q 1441 -91 1130 -33 
Q 819 25 488 141 
L 488 750 
Q 750 597 1062 519 
Q 1375 441 1716 441 
Q 2309 441 2620 675 
Q 2931 909 2931 1356 
Q 2931 1769 2642 2001 
Q 2353 2234 1838 2234 
L 1294 2234 
L 1294 2753 
L 1863 2753 
Q 2328 2753 2575 2939 
Q 2822 3125 2822 3475 
Q 2822 3834 2567 4026 
Q 2313 4219 1838 4219 
Q 1578 4219 1281 4162 
Q 984 4106 628 3988 
L 628 4550 
Q 988 4650 1302 4700 
Q 1616 4750 1894 4750 
Q 2613 4750 3031 4423 
Q 3450 4097 3450 3541 
Q 3450 3153 3228 2886 
Q 3006 2619 2597 2516 
z
" transform="scale(0.015625)"/>
       </defs>
       <use xlink:href="#DejaVuSans-33"/>
      </g>
     </g>
    </g>
    <g id="xtick_5">
     <g id="line2d_5">
      <g>
       <use xlink:href="#mbf3bdaeddc" x="362.127841" y="269.656" style="stroke: #000000; stroke-width: 0.8"/>
      </g>
     </g>
     <g id="text_5">
      <!-- 4 -->
      <g transform="translate(358.310341 285.774125) scale(0.12 -0.12)">
       <defs>
        <path id="DejaVuSans-34" d="M 2419 4116 
L 825 1625 
L 2419 1625 
L 2419 4116 
z
M 2253 4666 
L 3047 4666 
L 3047 1625 
L 3713 1625 
L 3713 1100 
L 3047 1100 
L 3047 0 
L 2419 0 
L 2419 1100 
L 313 1100 
L 313 1709 
L 2253 4666 
z
" transform="scale(0.015625)"/>
       </defs>
       <use xlink:href="#DejaVuSans-34"/>
      </g>
     </g>
    </g>
    <g id="text_6">
     <!-- Sensitivity ($d^\prime$) -->
     <g transform="translate(190.265 304.74975) scale(0.16 -0.16)">
      <defs>
       <path id="DejaVuSans-53" d="M 3425 4513 
L 3425 3897 
Q 3066 4069 2747 4153 
Q 2428 4238 2131 4238 
Q 1616 4238 1336 4038 
Q 1056 3838 1056 3469 
Q 1056 3159 1242 3001 
Q 1428 2844 1947 2747 
L 2328 2669 
Q 3034 2534 3370 2195 
Q 3706 1856 3706 1288 
Q 3706 609 3251 259 
Q 2797 -91 1919 -91 
Q 1588 -91 1214 -16 
Q 841 59 441 206 
L 441 856 
Q 825 641 1194 531 
Q 1563 422 1919 422 
Q 2459 422 2753 634 
Q 3047 847 3047 1241 
Q 3047 1584 2836 1778 
Q 2625 1972 2144 2069 
L 1759 2144 
Q 1053 2284 737 2584 
Q 422 2884 422 3419 
Q 422 4038 858 4394 
Q 1294 4750 2059 4750 
Q 2388 4750 2728 4690 
Q 3069 4631 3425 4513 
z
" transform="scale(0.015625)"/>
       <path id="DejaVuSans-65" d="M 3597 1894 
L 3597 1613 
L 953 1613 
Q 991 1019 1311 708 
Q 1631 397 2203 397 
Q 2534 397 2845 478 
Q 3156 559 3463 722 
L 3463 178 
Q 3153 47 2828 -22 
Q 2503 -91 2169 -91 
Q 1331 -91 842 396 
Q 353 884 353 1716 
Q 353 2575 817 3079 
Q 1281 3584 2069 3584 
Q 2775 3584 3186 3129 
Q 3597 2675 3597 1894 
z
M 3022 2063 
Q 3016 2534 2758 2815 
Q 2500 3097 2075 3097 
Q 1594 3097 1305 2825 
Q 1016 2553 972 2059 
L 3022 2063 
z
" transform="scale(0.015625)"/>
       <path id="DejaVuSans-6e" d="M 3513 2113 
L 3513 0 
L 2938 0 
L 2938 2094 
Q 2938 2591 2744 2837 
Q 2550 3084 2163 3084 
Q 1697 3084 1428 2787 
Q 1159 2491 1159 1978 
L 1159 0 
L 581 0 
L 581 3500 
L 1159 3500 
L 1159 2956 
Q 1366 3272 1645 3428 
Q 1925 3584 2291 3584 
Q 2894 3584 3203 3211 
Q 3513 2838 3513 2113 
z
" transform="scale(0.015625)"/>
       <path id="DejaVuSans-73" d="M 2834 3397 
L 2834 2853 
Q 2591 2978 2328 3040 
Q 2066 3103 1784 3103 
Q 1356 3103 1142 2972 
Q 928 2841 928 2578 
Q 928 2378 1081 2264 
Q 1234 2150 1697 2047 
L 1894 2003 
Q 2506 1872 2764 1633 
Q 3022 1394 3022 966 
Q 3022 478 2636 193 
Q 2250 -91 1575 -91 
Q 1294 -91 989 -36 
Q 684 19 347 128 
L 347 722 
Q 666 556 975 473 
Q 1284 391 1588 391 
Q 1994 391 2212 530 
Q 2431 669 2431 922 
Q 2431 1156 2273 1281 
Q 2116 1406 1581 1522 
L 1381 1569 
Q 847 1681 609 1914 
Q 372 2147 372 2553 
Q 372 3047 722 3315 
Q 1072 3584 1716 3584 
Q 2034 3584 2315 3537 
Q 2597 3491 2834 3397 
z
" transform="scale(0.015625)"/>
       <path id="DejaVuSans-69" d="M 603 3500 
L 1178 3500 
L 1178 0 
L 603 0 
L 603 3500 
z
M 603 4863 
L 1178 4863 
L 1178 4134 
L 603 4134 
L 603 4863 
z
" transform="scale(0.015625)"/>
       <path id="DejaVuSans-74" d="M 1172 4494 
L 1172 3500 
L 2356 3500 
L 2356 3053 
L 1172 3053 
L 1172 1153 
Q 1172 725 1289 603 
Q 1406 481 1766 481 
L 2356 481 
L 2356 0 
L 1766 0 
Q 1100 0 847 248 
Q 594 497 594 1153 
L 594 3053 
L 172 3053 
L 172 3500 
L 594 3500 
L 594 4494 
L 1172 4494 
z
" transform="scale(0.015625)"/>
       <path id="DejaVuSans-76" d="M 191 3500 
L 800 3500 
L 1894 563 
L 2988 3500 
L 3597 3500 
L 2284 0 
L 1503 0 
L 191 3500 
z
" transform="scale(0.015625)"/>
       <path id="DejaVuSans-79" d="M 2059 -325 
Q 1816 -950 1584 -1140 
Q 1353 -1331 966 -1331 
L 506 -1331 
L 506 -850 
L 844 -850 
Q 1081 -850 1212 -737 
Q 1344 -625 1503 -206 
L 1606 56 
L 191 3500 
L 800 3500 
L 1894 763 
L 2988 3500 
L 3597 3500 
L 2059 -325 
z
" transform="scale(0.015625)"/>
       <path id="DejaVuSans-20" transform="scale(0.015625)"/>
       <path id="DejaVuSans-28" d="M 1984 4856 
Q 1566 4138 1362 3434 
Q 1159 2731 1159 2009 
Q 1159 1288 1364 580 
Q 1569 -128 1984 -844 
L 1484 -844 
Q 1016 -109 783 600 
Q 550 1309 550 2009 
Q 550 2706 781 3412 
Q 1013 4119 1484 4856 
L 1984 4856 
z
" transform="scale(0.015625)"/>
       <path id="DejaVuSans-Oblique-64" d="M 2675 525 
Q 2444 222 2128 65 
Q 1813 -91 1428 -91 
Q 903 -91 598 267 
Q 294 625 294 1247 
Q 294 1766 478 2236 
Q 663 2706 1013 3078 
Q 1244 3325 1534 3454 
Q 1825 3584 2144 3584 
Q 2481 3584 2739 3421 
Q 2997 3259 3138 2956 
L 3513 4863 
L 4091 4863 
L 3144 0 
L 2566 0 
L 2675 525 
z
M 891 1350 
Q 891 897 1095 644 
Q 1300 391 1663 391 
Q 1931 391 2161 520 
Q 2391 650 2566 903 
Q 2750 1166 2856 1509 
Q 2963 1853 2963 2188 
Q 2963 2622 2758 2865 
Q 2553 3109 2194 3109 
Q 1922 3109 1687 2981 
Q 1453 2853 1288 2613 
Q 1106 2353 998 2009 
Q 891 1666 891 1350 
z
" transform="scale(0.015625)"/>
       <path id="Cmsy10-30" d="M 225 347 
Q 184 359 184 409 
L 966 3316 
Q 1003 3434 1093 3506 
Q 1184 3578 1300 3578 
Q 1450 3578 1564 3479 
Q 1678 3381 1678 3231 
Q 1678 3166 1644 3084 
L 488 319 
Q 466 275 428 275 
Q 394 275 320 306 
Q 247 338 225 347 
z
" transform="scale(0.015625)"/>
       <path id="DejaVuSans-29" d="M 513 4856 
L 1013 4856 
Q 1481 4119 1714 3412 
Q 1947 2706 1947 2009 
Q 1947 1309 1714 600 
Q 1481 -109 1013 -844 
L 513 -844 
Q 928 -128 1133 580 
Q 1338 1288 1338 2009 
Q 1338 2731 1133 3434 
Q 928 4138 513 4856 
z
" transform="scale(0.015625)"/>
      </defs>
      <use xlink:href="#DejaVuSans-53" transform="translate(0 0.584375)"/>
      <use xlink:href="#DejaVuSans-65" transform="translate(63.476562 0.584375)"/>
      <use xlink:href="#DejaVuSans-6e" transform="translate(125 0.584375)"/>
      <use xlink:href="#DejaVuSans-73" transform="translate(188.378906 0.584375)"/>
      <use xlink:href="#DejaVuSans-69" transform="translate(240.478516 0.584375)"/>
      <use xlink:href="#DejaVuSans-74" transform="translate(268.261719 0.584375)"/>
      <use xlink:href="#DejaVuSans-69" transform="translate(307.470703 0.584375)"/>
      <use xlink:href="#DejaVuSans-76" transform="translate(335.253906 0.584375)"/>
      <use xlink:href="#DejaVuSans-69" transform="translate(394.433594 0.584375)"/>
      <use xlink:href="#DejaVuSans-74" transform="translate(422.216797 0.584375)"/>
      <use xlink:href="#DejaVuSans-79" transform="translate(461.425781 0.584375)"/>
      <use xlink:href="#DejaVuSans-20" transform="translate(520.605469 0.584375)"/>
      <use xlink:href="#DejaVuSans-28" transform="translate(552.392578 0.584375)"/>
      <use xlink:href="#DejaVuSans-Oblique-64" transform="translate(591.40625 0.584375)"/>
      <use xlink:href="#Cmsy10-30" transform="translate(662.330521 38.865625) scale(0.7)"/>
      <use xlink:href="#DejaVuSans-29" transform="translate(684.30806 0.584375)"/>
     </g>
    </g>
   </g>
   <g id="matplotlib.axis_2">
    <g id="ytick_1">
     <g id="line2d_6">
      <defs>
       <path id="m7b3cb8c606" d="M 0 0 
L -3.5 0 
" style="stroke: #000000; stroke-width: 0.8"/>
      </defs>
      <g>
       <use xlink:href="#m7b3cb8c606" x="77.33" y="259.783077" style="stroke: #000000; stroke-width: 0.8"/>
      </g>
     </g>
     <g id="text_7">
      <!-- −0.02 -->
      <g transform="translate(33.555625 264.342139) scale(0.12 -0.12)">
       <defs>
        <path id="DejaVuSans-2212" d="M 678 2272 
L 4684 2272 
L 4684 1741 
L 678 1741 
L 678 2272 
z
" transform="scale(0.015625)"/>
        <path id="DejaVuSans-2e" d="M 684 794 
L 1344 794 
L 1344 0 
L 684 0 
L 684 794 
z
" transform="scale(0.015625)"/>
       </defs>
       <use xlink:href="#DejaVuSans-2212"/>
       <use xlink:href="#DejaVuSans-30" x="83.789062"/>
       <use xlink:href="#DejaVuSans-2e" x="147.412109"/>
       <use xlink:href="#DejaVuSans-30" x="179.199219"/>
       <use xlink:href="#DejaVuSans-32" x="242.822266"/>
      </g>
     </g>
    </g>
    <g id="ytick_2">
     <g id="line2d_7">
      <g>
       <use xlink:href="#m7b3cb8c606" x="77.33" y="220.291385" style="stroke: #000000; stroke-width: 0.8"/>
      </g>
     </g>
     <g id="text_8">
      <!-- 0.00 -->
      <g transform="translate(43.61125 224.850447) scale(0.12 -0.12)">
       <use xlink:href="#DejaVuSans-30"/>
       <use xlink:href="#DejaVuSans-2e" x="63.623047"/>
       <use xlink:href="#DejaVuSans-30" x="95.410156"/>
       <use xlink:href="#DejaVuSans-30" x="159.033203"/>
      </g>
     </g>
    </g>
    <g id="ytick_3">
     <g id="line2d_8">
      <g>
       <use xlink:href="#m7b3cb8c606" x="77.33" y="180.799692" style="stroke: #000000; stroke-width: 0.8"/>
      </g>
     </g>
     <g id="text_9">
      <!-- 0.02 -->
      <g transform="translate(43.61125 185.358755) scale(0.12 -0.12)">
       <use xlink:href="#DejaVuSans-30"/>
       <use xlink:href="#DejaVuSans-2e" x="63.623047"/>
       <use xlink:href="#DejaVuSans-30" x="95.410156"/>
       <use xlink:href="#DejaVuSans-32" x="159.033203"/>
      </g>
     </g>
    </g>
    <g id="ytick_4">
     <g id="line2d_9">
      <g>
       <use xlink:href="#m7b3cb8c606" x="77.33" y="141.308" style="stroke: #000000; stroke-width: 0.8"/>
      </g>
     </g>
     <g id="text_10">
      <!-- 0.04 -->
      <g transform="translate(43.61125 145.867063) scale(0.12 -0.12)">
       <use xlink:href="#DejaVuSans-30"/>
       <use xlink:href="#DejaVuSans-2e" x="63.623047"/>
       <use xlink:href="#DejaVuSans-30" x="95.410156"/>
       <use xlink:href="#DejaVuSans-34" x="159.033203"/>
      </g>
     </g>
    </g>
    <g id="ytick_5">
     <g id="line2d_10">
      <g>
       <use xlink:href="#m7b3cb8c606" x="77.33" y="101.816308" style="stroke: #000000; stroke-width: 0.8"/>
      </g>
     </g>
     <g id="text_11">
      <!-- 0.06 -->
      <g transform="translate(43.61125 106.37537) scale(0.12 -0.12)">
       <defs>
        <path id="DejaVuSans-36" d="M 2113 2584 
Q 1688 2584 1439 2293 
Q 1191 2003 1191 1497 
Q 1191 994 1439 701 
Q 1688 409 2113 409 
Q 2538 409 2786 701 
Q 3034 994 3034 1497 
Q 3034 2003 2786 2293 
Q 2538 2584 2113 2584 
z
M 3366 4563 
L 3366 3988 
Q 3128 4100 2886 4159 
Q 2644 4219 2406 4219 
Q 1781 4219 1451 3797 
Q 1122 3375 1075 2522 
Q 1259 2794 1537 2939 
Q 1816 3084 2150 3084 
Q 2853 3084 3261 2657 
Q 3669 2231 3669 1497 
Q 3669 778 3244 343 
Q 2819 -91 2113 -91 
Q 1303 -91 875 529 
Q 447 1150 447 2328 
Q 447 3434 972 4092 
Q 1497 4750 2381 4750 
Q 2619 4750 2861 4703 
Q 3103 4656 3366 4563 
z
" transform="scale(0.015625)"/>
       </defs>
       <use xlink:href="#DejaVuSans-30"/>
       <use xlink:href="#DejaVuSans-2e" x="63.623047"/>
       <use xlink:href="#DejaVuSans-30" x="95.410156"/>
       <use xlink:href="#DejaVuSans-36" x="159.033203"/>
      </g>
     </g>
    </g>
    <g id="ytick_6">
     <g id="line2d_11">
      <g>
       <use xlink:href="#m7b3cb8c606" x="77.33" y="62.324615" style="stroke: #000000; stroke-width: 0.8"/>
      </g>
     </g>
     <g id="text_12">
      <!-- 0.08 -->
      <g transform="translate(43.61125 66.883678) scale(0.12 -0.12)">
       <defs>
        <path id="DejaVuSans-38" d="M 2034 2216 
Q 1584 2216 1326 1975 
Q 1069 1734 1069 1313 
Q 1069 891 1326 650 
Q 1584 409 2034 409 
Q 2484 409 2743 651 
Q 3003 894 3003 1313 
Q 3003 1734 2745 1975 
Q 2488 2216 2034 2216 
z
M 1403 2484 
Q 997 2584 770 2862 
Q 544 3141 544 3541 
Q 544 4100 942 4425 
Q 1341 4750 2034 4750 
Q 2731 4750 3128 4425 
Q 3525 4100 3525 3541 
Q 3525 3141 3298 2862 
Q 3072 2584 2669 2484 
Q 3125 2378 3379 2068 
Q 3634 1759 3634 1313 
Q 3634 634 3220 271 
Q 2806 -91 2034 -91 
Q 1263 -91 848 271 
Q 434 634 434 1313 
Q 434 1759 690 2068 
Q 947 2378 1403 2484 
z
M 1172 3481 
Q 1172 3119 1398 2916 
Q 1625 2713 2034 2713 
Q 2441 2713 2670 2916 
Q 2900 3119 2900 3481 
Q 2900 3844 2670 4047 
Q 2441 4250 2034 4250 
Q 1625 4250 1398 4047 
Q 1172 3844 1172 3481 
z
" transform="scale(0.015625)"/>
       </defs>
       <use xlink:href="#DejaVuSans-30"/>
       <use xlink:href="#DejaVuSans-2e" x="63.623047"/>
       <use xlink:href="#DejaVuSans-30" x="95.410156"/>
       <use xlink:href="#DejaVuSans-38" x="159.033203"/>
      </g>
     </g>
    </g>
    <g id="ytick_7">
     <g id="line2d_12">
      <g>
       <use xlink:href="#m7b3cb8c606" x="77.33" y="22.832923" style="stroke: #000000; stroke-width: 0.8"/>
      </g>
     </g>
     <g id="text_13">
      <!-- 0.10 -->
      <g transform="translate(43.61125 27.391986) scale(0.12 -0.12)">
       <use xlink:href="#DejaVuSans-30"/>
       <use xlink:href="#DejaVuSans-2e" x="63.623047"/>
       <use xlink:href="#DejaVuSans-31" x="95.410156"/>
       <use xlink:href="#DejaVuSans-30" x="159.033203"/>
      </g>
     </g>
    </g>
    <g id="text_14">
     <!-- Timing-Induced Bias -->
     <g transform="translate(26.228125 222.51925) rotate(-90) scale(0.16 -0.16)">
      <defs>
       <path id="DejaVuSans-54" d="M -19 4666 
L 3928 4666 
L 3928 4134 
L 2272 4134 
L 2272 0 
L 1638 0 
L 1638 4134 
L -19 4134 
L -19 4666 
z
" transform="scale(0.015625)"/>
       <path id="DejaVuSans-6d" d="M 3328 2828 
Q 3544 3216 3844 3400 
Q 4144 3584 4550 3584 
Q 5097 3584 5394 3201 
Q 5691 2819 5691 2113 
L 5691 0 
L 5113 0 
L 5113 2094 
Q 5113 2597 4934 2840 
Q 4756 3084 4391 3084 
Q 3944 3084 3684 2787 
Q 3425 2491 3425 1978 
L 3425 0 
L 2847 0 
L 2847 2094 
Q 2847 2600 2669 2842 
Q 2491 3084 2119 3084 
Q 1678 3084 1418 2786 
Q 1159 2488 1159 1978 
L 1159 0 
L 581 0 
L 581 3500 
L 1159 3500 
L 1159 2956 
Q 1356 3278 1631 3431 
Q 1906 3584 2284 3584 
Q 2666 3584 2933 3390 
Q 3200 3197 3328 2828 
z
" transform="scale(0.015625)"/>
       <path id="DejaVuSans-67" d="M 2906 1791 
Q 2906 2416 2648 2759 
Q 2391 3103 1925 3103 
Q 1463 3103 1205 2759 
Q 947 2416 947 1791 
Q 947 1169 1205 825 
Q 1463 481 1925 481 
Q 2391 481 2648 825 
Q 2906 1169 2906 1791 
z
M 3481 434 
Q 3481 -459 3084 -895 
Q 2688 -1331 1869 -1331 
Q 1566 -1331 1297 -1286 
Q 1028 -1241 775 -1147 
L 775 -588 
Q 1028 -725 1275 -790 
Q 1522 -856 1778 -856 
Q 2344 -856 2625 -561 
Q 2906 -266 2906 331 
L 2906 616 
Q 2728 306 2450 153 
Q 2172 0 1784 0 
Q 1141 0 747 490 
Q 353 981 353 1791 
Q 353 2603 747 3093 
Q 1141 3584 1784 3584 
Q 2172 3584 2450 3431 
Q 2728 3278 2906 2969 
L 2906 3500 
L 3481 3500 
L 3481 434 
z
" transform="scale(0.015625)"/>
       <path id="DejaVuSans-2d" d="M 313 2009 
L 1997 2009 
L 1997 1497 
L 313 1497 
L 313 2009 
z
" transform="scale(0.015625)"/>
       <path id="DejaVuSans-49" d="M 628 4666 
L 1259 4666 
L 1259 0 
L 628 0 
L 628 4666 
z
" transform="scale(0.015625)"/>
       <path id="DejaVuSans-64" d="M 2906 2969 
L 2906 4863 
L 3481 4863 
L 3481 0 
L 2906 0 
L 2906 525 
Q 2725 213 2448 61 
Q 2172 -91 1784 -91 
Q 1150 -91 751 415 
Q 353 922 353 1747 
Q 353 2572 751 3078 
Q 1150 3584 1784 3584 
Q 2172 3584 2448 3432 
Q 2725 3281 2906 2969 
z
M 947 1747 
Q 947 1113 1208 752 
Q 1469 391 1925 391 
Q 2381 391 2643 752 
Q 2906 1113 2906 1747 
Q 2906 2381 2643 2742 
Q 2381 3103 1925 3103 
Q 1469 3103 1208 2742 
Q 947 2381 947 1747 
z
" transform="scale(0.015625)"/>
       <path id="DejaVuSans-75" d="M 544 1381 
L 544 3500 
L 1119 3500 
L 1119 1403 
Q 1119 906 1312 657 
Q 1506 409 1894 409 
Q 2359 409 2629 706 
Q 2900 1003 2900 1516 
L 2900 3500 
L 3475 3500 
L 3475 0 
L 2900 0 
L 2900 538 
Q 2691 219 2414 64 
Q 2138 -91 1772 -91 
Q 1169 -91 856 284 
Q 544 659 544 1381 
z
M 1991 3584 
L 1991 3584 
z
" transform="scale(0.015625)"/>
       <path id="DejaVuSans-63" d="M 3122 3366 
L 3122 2828 
Q 2878 2963 2633 3030 
Q 2388 3097 2138 3097 
Q 1578 3097 1268 2742 
Q 959 2388 959 1747 
Q 959 1106 1268 751 
Q 1578 397 2138 397 
Q 2388 397 2633 464 
Q 2878 531 3122 666 
L 3122 134 
Q 2881 22 2623 -34 
Q 2366 -91 2075 -91 
Q 1284 -91 818 406 
Q 353 903 353 1747 
Q 353 2603 823 3093 
Q 1294 3584 2113 3584 
Q 2378 3584 2631 3529 
Q 2884 3475 3122 3366 
z
" transform="scale(0.015625)"/>
       <path id="DejaVuSans-42" d="M 1259 2228 
L 1259 519 
L 2272 519 
Q 2781 519 3026 730 
Q 3272 941 3272 1375 
Q 3272 1813 3026 2020 
Q 2781 2228 2272 2228 
L 1259 2228 
z
M 1259 4147 
L 1259 2741 
L 2194 2741 
Q 2656 2741 2882 2914 
Q 3109 3088 3109 3444 
Q 3109 3797 2882 3972 
Q 2656 4147 2194 4147 
L 1259 4147 
z
M 628 4666 
L 2241 4666 
Q 2963 4666 3353 4366 
Q 3744 4066 3744 3513 
Q 3744 3084 3544 2831 
Q 3344 2578 2956 2516 
Q 3422 2416 3680 2098 
Q 3938 1781 3938 1306 
Q 3938 681 3513 340 
Q 3088 0 2303 0 
L 628 0 
L 628 4666 
z
" transform="scale(0.015625)"/>
       <path id="DejaVuSans-61" d="M 2194 1759 
Q 1497 1759 1228 1600 
Q 959 1441 959 1056 
Q 959 750 1161 570 
Q 1363 391 1709 391 
Q 2188 391 2477 730 
Q 2766 1069 2766 1631 
L 2766 1759 
L 2194 1759 
z
M 3341 1997 
L 3341 0 
L 2766 0 
L 2766 531 
Q 2569 213 2275 61 
Q 1981 -91 1556 -91 
Q 1019 -91 701 211 
Q 384 513 384 1019 
Q 384 1609 779 1909 
Q 1175 2209 1959 2209 
L 2766 2209 
L 2766 2266 
Q 2766 2663 2505 2880 
Q 2244 3097 1772 3097 
Q 1472 3097 1187 3025 
Q 903 2953 641 2809 
L 641 3341 
Q 956 3463 1253 3523 
Q 1550 3584 1831 3584 
Q 2591 3584 2966 3190 
Q 3341 2797 3341 1997 
z
" transform="scale(0.015625)"/>
      </defs>
      <use xlink:href="#DejaVuSans-54"/>
      <use xlink:href="#DejaVuSans-69" x="57.958984"/>
      <use xlink:href="#DejaVuSans-6d" x="85.742188"/>
      <use xlink:href="#DejaVuSans-69" x="183.154297"/>
      <use xlink:href="#DejaVuSans-6e" x="210.9375"/>
      <use xlink:href="#DejaVuSans-67" x="274.316406"/>
      <use xlink:href="#DejaVuSans-2d" x="337.792969"/>
      <use xlink:href="#DejaVuSans-49" x="373.876953"/>
      <use xlink:href="#DejaVuSans-6e" x="403.369141"/>
      <use xlink:href="#DejaVuSans-64" x="466.748047"/>
      <use xlink:href="#DejaVuSans-75" x="530.224609"/>
      <use xlink:href="#DejaVuSans-63" x="593.603516"/>
      <use xlink:href="#DejaVuSans-65" x="648.583984"/>
      <use xlink:href="#DejaVuSans-64" x="710.107422"/>
      <use xlink:href="#DejaVuSans-20" x="773.583984"/>
      <use xlink:href="#DejaVuSans-42" x="805.371094"/>
      <use xlink:href="#DejaVuSans-69" x="873.974609"/>
      <use xlink:href="#DejaVuSans-61" x="901.757812"/>
      <use xlink:href="#DejaVuSans-73" x="963.037109"/>
     </g>
    </g>
   </g>
   <g id="line2d_13">
    <path d="M 92.862273 155.660345 
L 96.000106 156.357982 
L 99.137938 157.05562 
L 102.275771 157.753257 
L 105.413604 158.450895 
L 108.551437 159.148532 
L 111.68927 159.84617 
L 114.827103 160.543807 
L 117.964936 161.241445 
L 121.102769 161.939082 
L 124.240601 162.63672 
L 127.378434 163.334358 
L 130.516267 164.031995 
L 133.6541 164.729633 
L 136.791933 165.42727 
L 139.929766 166.124908 
L 143.067599 166.822545 
L 146.205432 167.520183 
L 149.343264 168.21782 
L 152.481097 168.915458 
L 155.61893 169.613095 
L 158.756763 170.310733 
L 161.894596 171.008371 
L 165.032429 171.706008 
L 168.170262 172.403646 
L 171.308095 173.101283 
L 174.445927 173.798921 
L 177.58376 174.496558 
L 180.721593 175.194196 
L 183.859426 175.891833 
L 186.997259 176.589471 
L 190.135092 177.287108 
L 193.272925 177.984746 
L 196.410758 178.682384 
L 199.54859 179.380021 
L 202.686423 180.077659 
L 205.824256 180.775296 
L 208.962089 181.472934 
L 212.099922 182.170571 
L 215.237755 182.868209 
L 218.375588 183.565846 
L 221.513421 184.263484 
L 224.651253 184.961121 
L 227.789086 185.658759 
L 230.926919 186.356397 
L 234.064752 187.054034 
L 237.202585 187.751672 
L 240.340418 188.449309 
L 243.478251 189.146947 
L 246.616084 189.844584 
L 249.753916 190.542222 
L 252.891749 191.239859 
L 256.029582 191.937497 
L 259.167415 192.635134 
L 262.305248 193.332772 
L 265.443081 194.03041 
L 268.580914 194.728047 
L 271.718747 195.425685 
L 274.856579 196.123322 
L 277.994412 196.82096 
L 281.132245 197.518597 
L 284.270078 198.216235 
L 287.407911 198.913872 
L 290.545744 199.61151 
L 293.683577 200.309147 
L 296.82141 201.006785 
L 299.959242 201.704423 
L 303.097075 202.40206 
L 306.234908 203.099698 
L 309.372741 203.797335 
L 312.510574 204.494973 
L 315.648407 205.19261 
L 318.78624 205.890248 
L 321.924073 206.587885 
L 325.061905 207.285523 
L 328.199738 207.98316 
L 331.337571 208.680798 
L 334.475404 209.378436 
L 337.613237 210.076073 
L 340.75107 210.773711 
L 343.888903 211.471348 
L 347.026736 212.168986 
L 350.164568 212.866623 
L 353.302401 213.564261 
L 356.440234 214.261898 
L 359.578067 214.959536 
L 362.7159 215.657173 
L 365.853733 216.354811 
L 368.991566 217.052449 
L 372.129399 217.750086 
L 375.267231 218.447724 
L 378.405064 219.145361 
L 381.542897 219.842999 
L 384.68073 220.540636 
L 387.818563 221.238274 
L 390.956396 221.935911 
L 394.094229 222.633549 
L 397.232062 223.331186 
L 400.369894 224.028824 
L 403.507727 224.726462 
" clip-path="url(#pb56d9b6471)" style="fill: none; stroke: #000000; stroke-width: 2.25; stroke-linecap: square"/>
   </g>
   <g id="line2d_14">
    <path d="M 77.33 220.291385 
L 419.04 220.291385 
" clip-path="url(#pb56d9b6471)" style="fill: none; stroke-dasharray: 5.55,2.4; stroke-dashoffset: 0; stroke: #000000; stroke-opacity: 0.5; stroke-width: 1.5"/>
   </g>
   <g id="line2d_15">
    <path d="M 119.199519 269.656 
L 119.199519 12.96 
" clip-path="url(#pb56d9b6471)" style="fill: none; stroke-dasharray: 5.55,2.4; stroke-dashoffset: 0; stroke: #000000; stroke-opacity: 0.5; stroke-width: 1.5"/>
   </g>
   <g id="patch_3">
    <path d="M 77.33 269.656 
L 77.33 12.96 
" style="fill: none; stroke: #000000; stroke-width: 0.8; stroke-linejoin: miter; stroke-linecap: square"/>
   </g>
   <g id="patch_4">
    <path d="M 77.33 269.656 
L 419.04 269.656 
" style="fill: none; stroke: #000000; stroke-width: 0.8; stroke-linejoin: miter; stroke-linecap: square"/>
   </g>
   <g id="text_15">
    <!-- $r(28)=-0.379$, $p=0.039$ -->
    <g transform="translate(240.66368 32.705846) scale(0.12 -0.12)">
     <defs>
      <path id="DejaVuSans-Oblique-72" d="M 2853 2969 
Q 2766 3016 2653 3041 
Q 2541 3066 2413 3066 
Q 1953 3066 1609 2717 
Q 1266 2369 1153 1784 
L 800 0 
L 225 0 
L 909 3500 
L 1484 3500 
L 1375 2956 
Q 1603 3259 1920 3421 
Q 2238 3584 2597 3584 
Q 2691 3584 2781 3573 
Q 2872 3563 2963 3538 
L 2853 2969 
z
" transform="scale(0.015625)"/>
      <path id="DejaVuSans-3d" d="M 678 2906 
L 4684 2906 
L 4684 2381 
L 678 2381 
L 678 2906 
z
M 678 1631 
L 4684 1631 
L 4684 1100 
L 678 1100 
L 678 1631 
z
" transform="scale(0.015625)"/>
      <path id="DejaVuSans-37" d="M 525 4666 
L 3525 4666 
L 3525 4397 
L 1831 0 
L 1172 0 
L 2766 4134 
L 525 4134 
L 525 4666 
z
" transform="scale(0.015625)"/>
      <path id="DejaVuSans-39" d="M 703 97 
L 703 672 
Q 941 559 1184 500 
Q 1428 441 1663 441 
Q 2288 441 2617 861 
Q 2947 1281 2994 2138 
Q 2813 1869 2534 1725 
Q 2256 1581 1919 1581 
Q 1219 1581 811 2004 
Q 403 2428 403 3163 
Q 403 3881 828 4315 
Q 1253 4750 1959 4750 
Q 2769 4750 3195 4129 
Q 3622 3509 3622 2328 
Q 3622 1225 3098 567 
Q 2575 -91 1691 -91 
Q 1453 -91 1209 -44 
Q 966 3 703 97 
z
M 1959 2075 
Q 2384 2075 2632 2365 
Q 2881 2656 2881 3163 
Q 2881 3666 2632 3958 
Q 2384 4250 1959 4250 
Q 1534 4250 1286 3958 
Q 1038 3666 1038 3163 
Q 1038 2656 1286 2365 
Q 1534 2075 1959 2075 
z
" transform="scale(0.015625)"/>
      <path id="DejaVuSans-2c" d="M 750 794 
L 1409 794 
L 1409 256 
L 897 -744 
L 494 -744 
L 750 256 
L 750 794 
z
" transform="scale(0.015625)"/>
      <path id="DejaVuSans-Oblique-70" d="M 3175 2156 
Q 3175 2616 2975 2859 
Q 2775 3103 2400 3103 
Q 2144 3103 1911 2972 
Q 1678 2841 1497 2591 
Q 1319 2344 1212 1994 
Q 1106 1644 1106 1300 
Q 1106 863 1306 627 
Q 1506 391 1875 391 
Q 2147 391 2380 519 
Q 2613 647 2778 891 
Q 2956 1147 3065 1494 
Q 3175 1841 3175 2156 
z
M 1394 2969 
Q 1625 3272 1939 3428 
Q 2253 3584 2638 3584 
Q 3175 3584 3472 3232 
Q 3769 2881 3769 2247 
Q 3769 1728 3584 1258 
Q 3400 788 3053 416 
Q 2822 169 2531 39 
Q 2241 -91 1919 -91 
Q 1547 -91 1294 64 
Q 1041 219 916 525 
L 556 -1331 
L -19 -1331 
L 922 3500 
L 1497 3500 
L 1394 2969 
z
" transform="scale(0.015625)"/>
     </defs>
     <use xlink:href="#DejaVuSans-Oblique-72" transform="translate(0 0.125)"/>
     <use xlink:href="#DejaVuSans-28" transform="translate(41.113281 0.125)"/>
     <use xlink:href="#DejaVuSans-32" transform="translate(80.126953 0.125)"/>
     <use xlink:href="#DejaVuSans-38" transform="translate(143.75 0.125)"/>
     <use xlink:href="#DejaVuSans-29" transform="translate(207.373047 0.125)"/>
     <use xlink:href="#DejaVuSans-3d" transform="translate(265.869141 0.125)"/>
     <use xlink:href="#DejaVuSans-2212" transform="translate(388.623047 0.125)"/>
     <use xlink:href="#DejaVuSans-30" transform="translate(491.894531 0.125)"/>
     <use xlink:href="#DejaVuSans-2e" transform="translate(555.517578 0.125)"/>
     <use xlink:href="#DejaVuSans-33" transform="translate(587.304688 0.125)"/>
     <use xlink:href="#DejaVuSans-37" transform="translate(650.927734 0.125)"/>
     <use xlink:href="#DejaVuSans-39" transform="translate(714.550781 0.125)"/>
     <use xlink:href="#DejaVuSans-2c" transform="translate(778.173828 0.125)"/>
     <use xlink:href="#DejaVuSans-20" transform="translate(809.960938 0.125)"/>
     <use xlink:href="#DejaVuSans-Oblique-70" transform="translate(841.748047 0.125)"/>
     <use xlink:href="#DejaVuSans-3d" transform="translate(924.707031 0.125)"/>
     <use xlink:href="#DejaVuSans-30" transform="translate(1027.978516 0.125)"/>
     <use xlink:href="#DejaVuSans-2e" transform="translate(1091.601562 0.125)"/>
     <use xlink:href="#DejaVuSans-30" transform="translate(1123.388672 0.125)"/>
     <use xlink:href="#DejaVuSans-33" transform="translate(1187.011719 0.125)"/>
     <use xlink:href="#DejaVuSans-39" transform="translate(1250.634766 0.125)"/>
    </g>
   </g>
  </g>
 </g>
 <defs>
  <clipPath id="pb56d9b6471">
   <rect x="77.33" y="12.96" width="341.71" height="256.696"/>
  </clipPath>
 </defs>
</svg>
