<?xml version="1.0" encoding="utf-8" standalone="no"?>
<!DOCTYPE svg PUBLIC "-//W3C//DTD SVG 1.1//EN"
  "http://www.w3.org/Graphics/SVG/1.1/DTD/svg11.dtd">
<svg xmlns:xlink="http://www.w3.org/1999/xlink" width="432pt" height="324pt" viewBox="0 0 432 324" xmlns="http://www.w3.org/2000/svg" version="1.1">
 <metadata>
  <rdf:RDF xmlns:dc="http://purl.org/dc/elements/1.1/" xmlns:cc="http://creativecommons.org/ns#" xmlns:rdf="http://www.w3.org/1999/02/22-rdf-syntax-ns#">
   <cc:Work>
    <dc:type rdf:resource="http://purl.org/dc/dcmitype/StillImage"/>
    <dc:date>2024-06-06T17:02:17.783740</dc:date>
    <dc:format>image/svg+xml</dc:format>
    <dc:creator>
     <cc:Agent>
      <dc:title>Matplotlib v3.7.1, https://matplotlib.org/</dc:title>
     </cc:Agent>
    </dc:creator>
   </cc:Work>
  </rdf:RDF>
 </metadata>
 <defs>
  <style type="text/css">*{stroke-linejoin: round; stroke-linecap: butt}</style>
 </defs>
 <g id="figure_1">
  <g id="patch_1">
   <path d="M 0 324 
L 432 324 
L 432 0 
L 0 0 
z
" style="fill: #ffffff"/>
  </g>
  <g id="axes_1">
   <g id="patch_2">
    <path d="M 77.33 269.8 
L 419.04 269.8 
L 419.04 17.28 
L 77.33 17.28 
z
" style="fill: #ffffff"/>
   </g>
   <g id="PathCollection_1">
    <defs>
     <path id="mbc397f41d1" d="M 0 3 
C 0.795609 3 1.55874 2.683901 2.12132 2.12132 
C 2.683901 1.55874 3 0.795609 3 0 
C 3 -0.795609 2.683901 -1.55874 2.12132 -2.12132 
C 1.55874 -2.683901 0.795609 -3 0 -3 
C -0.795609 -3 -1.55874 -2.683901 -2.12132 -2.12132 
C -2.683901 -1.55874 -3 -0.795609 -3 0 
C -3 0.795609 -2.683901 1.55874 -2.12132 2.12132 
C -1.55874 2.683901 -0.795609 3 0 3 
z
" style="stroke: #000000; stroke-opacity: 0.8"/>
    </defs>
    <g clip-path="url(#pefe65713b3)">
     <use xlink:href="#mbc397f41d1" x="265.588777" y="177.346644" style="fill-opacity: 0.8; stroke: #000000; stroke-opacity: 0.8"/>
     <use xlink:href="#mbc397f41d1" x="280.488978" y="184.20966" style="fill-opacity: 0.8; stroke: #000000; stroke-opacity: 0.8"/>
     <use xlink:href="#mbc397f41d1" x="339.900383" y="191.552124" style="fill-opacity: 0.8; stroke: #000000; stroke-opacity: 0.8"/>
     <use xlink:href="#mbc397f41d1" x="92.862273" y="178.966211" style="fill-opacity: 0.8; stroke: #000000; stroke-opacity: 0.8"/>
     <use xlink:href="#mbc397f41d1" x="110.593262" y="82.806143" style="fill-opacity: 0.8; stroke: #000000; stroke-opacity: 0.8"/>
     <use xlink:href="#mbc397f41d1" x="242.279728" y="213.829363" style="fill-opacity: 0.8; stroke: #000000; stroke-opacity: 0.8"/>
     <use xlink:href="#mbc397f41d1" x="95.441372" y="171.191346" style="fill-opacity: 0.8; stroke: #000000; stroke-opacity: 0.8"/>
     <use xlink:href="#mbc397f41d1" x="403.507727" y="200.930909" style="fill-opacity: 0.8; stroke: #000000; stroke-opacity: 0.8"/>
     <use xlink:href="#mbc397f41d1" x="156.863842" y="161.284748" style="fill-opacity: 0.8; stroke: #000000; stroke-opacity: 0.8"/>
     <use xlink:href="#mbc397f41d1" x="317.06021" y="161.786505" style="fill-opacity: 0.8; stroke: #000000; stroke-opacity: 0.8"/>
     <use xlink:href="#mbc397f41d1" x="175.245114" y="189.019779" style="fill-opacity: 0.8; stroke: #000000; stroke-opacity: 0.8"/>
     <use xlink:href="#mbc397f41d1" x="276.770708" y="163.130694" style="fill-opacity: 0.8; stroke: #000000; stroke-opacity: 0.8"/>
     <use xlink:href="#mbc397f41d1" x="255.852146" y="185.469243" style="fill-opacity: 0.8; stroke: #000000; stroke-opacity: 0.8"/>
     <use xlink:href="#mbc397f41d1" x="122.713895" y="193.23711" style="fill-opacity: 0.8; stroke: #000000; stroke-opacity: 0.8"/>
     <use xlink:href="#mbc397f41d1" x="150.951948" y="170.258957" style="fill-opacity: 0.8; stroke: #000000; stroke-opacity: 0.8"/>
     <use xlink:href="#mbc397f41d1" x="225.25154" y="136.700125" style="fill-opacity: 0.8; stroke: #000000; stroke-opacity: 0.8"/>
     <use xlink:href="#mbc397f41d1" x="277.311109" y="157.163729" style="fill-opacity: 0.8; stroke: #000000; stroke-opacity: 0.8"/>
     <use xlink:href="#mbc397f41d1" x="255.852146" y="178.676145" style="fill-opacity: 0.8; stroke: #000000; stroke-opacity: 0.8"/>
     <use xlink:href="#mbc397f41d1" x="114.23573" y="192.393124" style="fill-opacity: 0.8; stroke: #000000; stroke-opacity: 0.8"/>
     <use xlink:href="#mbc397f41d1" x="126.018725" y="63.094667" style="fill-opacity: 0.8; stroke: #000000; stroke-opacity: 0.8"/>
     <use xlink:href="#mbc397f41d1" x="133.36806" y="215.213669" style="fill-opacity: 0.8; stroke: #000000; stroke-opacity: 0.8"/>
     <use xlink:href="#mbc397f41d1" x="207.027015" y="130.636593" style="fill-opacity: 0.8; stroke: #000000; stroke-opacity: 0.8"/>
     <use xlink:href="#mbc397f41d1" x="102.559152" y="41.059109" style="fill-opacity: 0.8; stroke: #000000; stroke-opacity: 0.8"/>
     <use xlink:href="#mbc397f41d1" x="187.623173" y="232.352302" style="fill-opacity: 0.8; stroke: #000000; stroke-opacity: 0.8"/>
     <use xlink:href="#mbc397f41d1" x="209.921181" y="164.366853" style="fill-opacity: 0.8; stroke: #000000; stroke-opacity: 0.8"/>
    </g>
   </g>
   <g id="PolyCollection_1">
    <path d="M 92.862273 105.165854 
L 92.862273 181.524683 
L 96.000106 181.350636 
L 99.137938 181.332826 
L 102.275771 181.054563 
L 105.413604 180.952885 
L 108.551437 180.858824 
L 111.68927 180.850596 
L 114.827103 180.925974 
L 117.964936 180.890377 
L 121.102769 180.77625 
L 124.240601 180.850793 
L 127.378434 180.910643 
L 130.516267 181.008952 
L 133.6541 181.089627 
L 136.791933 180.925957 
L 139.929766 180.989288 
L 143.067599 181.061767 
L 146.205432 181.020547 
L 149.343264 181.112402 
L 152.481097 181.210586 
L 155.61893 181.30896 
L 158.756763 181.266308 
L 161.894596 181.142432 
L 165.032429 181.163849 
L 168.170262 181.140305 
L 171.308095 181.076747 
L 174.445927 181.012976 
L 177.58376 181.054958 
L 180.721593 181.020873 
L 183.859426 181.071518 
L 186.997259 180.983486 
L 190.135092 181.071974 
L 193.272925 181.115963 
L 196.410758 181.245397 
L 199.54859 181.363453 
L 202.686423 181.512523 
L 205.824256 181.648476 
L 208.962089 181.784429 
L 212.099922 181.918773 
L 215.237755 182.048373 
L 218.375588 182.21635 
L 221.513421 182.546143 
L 224.651253 182.770858 
L 227.789086 182.641359 
L 230.926919 183.010439 
L 234.064752 183.211314 
L 237.202585 183.463148 
L 240.340418 183.91868 
L 243.478251 184.261523 
L 246.616084 184.534294 
L 249.753916 184.942527 
L 252.891749 185.432482 
L 256.029582 185.919599 
L 259.167415 186.515546 
L 262.305248 186.975287 
L 265.443081 187.598467 
L 268.580914 188.310195 
L 271.718747 189.413302 
L 274.856579 190.396846 
L 277.994412 190.86876 
L 281.132245 191.588763 
L 284.270078 192.524146 
L 287.407911 193.493498 
L 290.545744 194.644838 
L 293.683577 195.60244 
L 296.82141 196.637092 
L 299.959242 197.681386 
L 303.097075 198.781315 
L 306.234908 199.819228 
L 309.372741 200.981174 
L 312.510574 202.081104 
L 315.648407 203.181033 
L 318.78624 204.280963 
L 321.924073 205.380892 
L 325.061905 206.488815 
L 328.199738 207.690815 
L 331.337571 208.793841 
L 334.475404 209.892185 
L 337.613237 210.988491 
L 340.75107 211.990496 
L 343.888903 213.080398 
L 347.026736 214.180328 
L 350.164568 215.393097 
L 353.302401 216.505014 
L 356.440234 217.603322 
L 359.578067 218.70163 
L 362.7159 219.848332 
L 365.853733 221.036457 
L 368.991566 222.224582 
L 372.129399 223.412707 
L 375.267231 224.60073 
L 378.405064 225.734075 
L 381.542897 226.807187 
L 384.68073 227.865169 
L 387.818563 228.925172 
L 390.956396 230.28495 
L 394.094229 231.54953 
L 397.232062 232.61606 
L 400.369894 233.682589 
L 403.507727 234.749119 
L 403.507727 169.571009 
L 403.507727 169.571009 
L 400.369894 169.586014 
L 397.232062 169.601019 
L 394.094229 169.616024 
L 390.956396 169.631028 
L 387.818563 169.646033 
L 384.68073 169.661038 
L 381.542897 169.673095 
L 378.405064 169.68736 
L 375.267231 169.778309 
L 372.129399 169.890705 
L 368.991566 170.003101 
L 365.853733 170.111587 
L 362.7159 169.997835 
L 359.578067 170.077236 
L 356.440234 170.222542 
L 353.302401 170.367849 
L 350.164568 170.368493 
L 347.026736 170.320303 
L 343.888903 170.27868 
L 340.75107 170.320677 
L 337.613237 170.616752 
L 334.475404 170.912828 
L 331.337571 171.01502 
L 328.199738 170.749375 
L 325.061905 170.486896 
L 321.924073 170.461991 
L 318.78624 170.611546 
L 315.648407 170.468691 
L 312.510574 170.284293 
L 309.372741 170.102081 
L 306.234908 170.362373 
L 303.097075 170.260203 
L 299.959242 170.347102 
L 296.82141 170.294943 
L 293.683577 169.762035 
L 290.545744 169.577139 
L 287.407911 169.279452 
L 284.270078 169.090933 
L 281.132245 168.698584 
L 277.994412 168.088408 
L 274.856579 167.310936 
L 271.718747 166.574845 
L 268.580914 166.371766 
L 265.443081 165.89801 
L 262.305248 165.239405 
L 259.167415 164.45817 
L 256.029582 163.699779 
L 252.891749 162.840361 
L 249.753916 161.790605 
L 246.616084 160.795273 
L 243.478251 159.843346 
L 240.340418 158.96467 
L 237.202585 157.789666 
L 234.064752 156.612795 
L 230.926919 155.494499 
L 227.789086 154.299012 
L 224.651253 153.103525 
L 221.513421 152.075638 
L 218.375588 151.046567 
L 215.237755 149.848132 
L 212.099922 148.874868 
L 208.962089 147.819522 
L 205.824256 146.796011 
L 202.686423 145.868092 
L 199.54859 144.873544 
L 196.410758 143.756234 
L 193.272925 142.413001 
L 190.135092 141.029417 
L 186.997259 139.652971 
L 183.859426 138.701175 
L 180.721593 137.750902 
L 177.58376 136.614362 
L 174.445927 135.623813 
L 171.308095 134.574435 
L 168.170262 133.577938 
L 165.032429 132.581442 
L 161.894596 131.509487 
L 158.756763 130.397519 
L 155.61893 129.285551 
L 152.481097 128.173584 
L 149.343264 126.989969 
L 146.205432 125.937466 
L 143.067599 124.82864 
L 139.929766 123.711694 
L 136.791933 122.594748 
L 133.6541 121.477802 
L 130.516267 120.360856 
L 127.378434 119.24391 
L 124.240601 118.129428 
L 121.102769 117.017009 
L 117.964936 115.823114 
L 114.827103 114.438605 
L 111.68927 113.266086 
L 108.551437 112.154254 
L 105.413604 110.663539 
L 102.275771 109.172824 
L 99.137938 107.685291 
L 96.000106 106.384728 
L 92.862273 105.165854 
z
" clip-path="url(#pefe65713b3)" style="fill-opacity: 0.15"/>
   </g>
   <g id="matplotlib.axis_1">
    <g id="xtick_1">
     <g id="line2d_1">
      <defs>
       <path id="mefef766d17" d="M 0 0 
L 0 3.5 
" style="stroke: #000000; stroke-width: 0.8"/>
      </defs>
      <g>
       <use xlink:href="#mefef766d17" x="139.725122" y="269.8" style="stroke: #000000; stroke-width: 0.8"/>
      </g>
     </g>
     <g id="text_1">
      <!-- 1 -->
      <g transform="translate(135.907622 285.918125) scale(0.12 -0.12)">
       <defs>
        <path id="DejaVuSans-31" d="M 794 531 
L 1825 531 
L 1825 4091 
L 703 3866 
L 703 4441 
L 1819 4666 
L 2450 4666 
L 2450 531 
L 3481 531 
L 3481 0 
L 794 0 
L 794 531 
z
" transform="scale(0.015625)"/>
       </defs>
       <use xlink:href="#DejaVuSans-31"/>
      </g>
     </g>
    </g>
    <g id="xtick_2">
     <g id="line2d_2">
      <g>
       <use xlink:href="#mefef766d17" x="211.378865" y="269.8" style="stroke: #000000; stroke-width: 0.8"/>
      </g>
     </g>
     <g id="text_2">
      <!-- 2 -->
      <g transform="translate(207.561365 285.918125) scale(0.12 -0.12)">
       <defs>
        <path id="DejaVuSans-32" d="M 1228 531 
L 3431 531 
L 3431 0 
L 469 0 
L 469 531 
Q 828 903 1448 1529 
Q 2069 2156 2228 2338 
Q 2531 2678 2651 2914 
Q 2772 3150 2772 3378 
Q 2772 3750 2511 3984 
Q 2250 4219 1831 4219 
Q 1534 4219 1204 4116 
Q 875 4013 500 3803 
L 500 4441 
Q 881 4594 1212 4672 
Q 1544 4750 1819 4750 
Q 2544 4750 2975 4387 
Q 3406 4025 3406 3419 
Q 3406 3131 3298 2873 
Q 3191 2616 2906 2266 
Q 2828 2175 2409 1742 
Q 1991 1309 1228 531 
z
" transform="scale(0.015625)"/>
       </defs>
       <use xlink:href="#DejaVuSans-32"/>
      </g>
     </g>
    </g>
    <g id="xtick_3">
     <g id="line2d_3">
      <g>
       <use xlink:href="#mefef766d17" x="283.032608" y="269.8" style="stroke: #000000; stroke-width: 0.8"/>
      </g>
     </g>
     <g id="text_3">
      <!-- 3 -->
      <g transform="translate(279.215108 285.918125) scale(0.12 -0.12)">
       <defs>
        <path id="DejaVuSans-33" d="M 2597 2516 
Q 3050 2419 3304 2112 
Q 3559 1806 3559 1356 
Q 3559 666 3084 287 
Q 2609 -91 1734 -91 
Q 1441 -91 1130 -33 
Q 819 25 488 141 
L 488 750 
Q 750 597 1062 519 
Q 1375 441 1716 441 
Q 2309 441 2620 675 
Q 2931 909 2931 1356 
Q 2931 1769 2642 2001 
Q 2353 2234 1838 2234 
L 1294 2234 
L 1294 2753 
L 1863 2753 
Q 2328 2753 2575 2939 
Q 2822 3125 2822 3475 
Q 2822 3834 2567 4026 
Q 2313 4219 1838 4219 
Q 1578 4219 1281 4162 
Q 984 4106 628 3988 
L 628 4550 
Q 988 4650 1302 4700 
Q 1616 4750 1894 4750 
Q 2613 4750 3031 4423 
Q 3450 4097 3450 3541 
Q 3450 3153 3228 2886 
Q 3006 2619 2597 2516 
z
" transform="scale(0.015625)"/>
       </defs>
       <use xlink:href="#DejaVuSans-33"/>
      </g>
     </g>
    </g>
    <g id="xtick_4">
     <g id="line2d_4">
      <g>
       <use xlink:href="#mefef766d17" x="354.686351" y="269.8" style="stroke: #000000; stroke-width: 0.8"/>
      </g>
     </g>
     <g id="text_4">
      <!-- 4 -->
      <g transform="translate(350.868851 285.918125) scale(0.12 -0.12)">
       <defs>
        <path id="DejaVuSans-34" d="M 2419 4116 
L 825 1625 
L 2419 1625 
L 2419 4116 
z
M 2253 4666 
L 3047 4666 
L 3047 1625 
L 3713 1625 
L 3713 1100 
L 3047 1100 
L 3047 0 
L 2419 0 
L 2419 1100 
L 313 1100 
L 313 1709 
L 2253 4666 
z
" transform="scale(0.015625)"/>
       </defs>
       <use xlink:href="#DejaVuSans-34"/>
      </g>
     </g>
    </g>
    <g id="text_5">
     <!-- Sensitivity ($d\prime$) -->
     <g transform="translate(190.425 304.57375) scale(0.16 -0.16)">
      <defs>
       <path id="DejaVuSans-53" d="M 3425 4513 
L 3425 3897 
Q 3066 4069 2747 4153 
Q 2428 4238 2131 4238 
Q 1616 4238 1336 4038 
Q 1056 3838 1056 3469 
Q 1056 3159 1242 3001 
Q 1428 2844 1947 2747 
L 2328 2669 
Q 3034 2534 3370 2195 
Q 3706 1856 3706 1288 
Q 3706 609 3251 259 
Q 2797 -91 1919 -91 
Q 1588 -91 1214 -16 
Q 841 59 441 206 
L 441 856 
Q 825 641 1194 531 
Q 1563 422 1919 422 
Q 2459 422 2753 634 
Q 3047 847 3047 1241 
Q 3047 1584 2836 1778 
Q 2625 1972 2144 2069 
L 1759 2144 
Q 1053 2284 737 2584 
Q 422 2884 422 3419 
Q 422 4038 858 4394 
Q 1294 4750 2059 4750 
Q 2388 4750 2728 4690 
Q 3069 4631 3425 4513 
z
" transform="scale(0.015625)"/>
       <path id="DejaVuSans-65" d="M 3597 1894 
L 3597 1613 
L 953 1613 
Q 991 1019 1311 708 
Q 1631 397 2203 397 
Q 2534 397 2845 478 
Q 3156 559 3463 722 
L 3463 178 
Q 3153 47 2828 -22 
Q 2503 -91 2169 -91 
Q 1331 -91 842 396 
Q 353 884 353 1716 
Q 353 2575 817 3079 
Q 1281 3584 2069 3584 
Q 2775 3584 3186 3129 
Q 3597 2675 3597 1894 
z
M 3022 2063 
Q 3016 2534 2758 2815 
Q 2500 3097 2075 3097 
Q 1594 3097 1305 2825 
Q 1016 2553 972 2059 
L 3022 2063 
z
" transform="scale(0.015625)"/>
       <path id="DejaVuSans-6e" d="M 3513 2113 
L 3513 0 
L 2938 0 
L 2938 2094 
Q 2938 2591 2744 2837 
Q 2550 3084 2163 3084 
Q 1697 3084 1428 2787 
Q 1159 2491 1159 1978 
L 1159 0 
L 581 0 
L 581 3500 
L 1159 3500 
L 1159 2956 
Q 1366 3272 1645 3428 
Q 1925 3584 2291 3584 
Q 2894 3584 3203 3211 
Q 3513 2838 3513 2113 
z
" transform="scale(0.015625)"/>
       <path id="DejaVuSans-73" d="M 2834 3397 
L 2834 2853 
Q 2591 2978 2328 3040 
Q 2066 3103 1784 3103 
Q 1356 3103 1142 2972 
Q 928 2841 928 2578 
Q 928 2378 1081 2264 
Q 1234 2150 1697 2047 
L 1894 2003 
Q 2506 1872 2764 1633 
Q 3022 1394 3022 966 
Q 3022 478 2636 193 
Q 2250 -91 1575 -91 
Q 1294 -91 989 -36 
Q 684 19 347 128 
L 347 722 
Q 666 556 975 473 
Q 1284 391 1588 391 
Q 1994 391 2212 530 
Q 2431 669 2431 922 
Q 2431 1156 2273 1281 
Q 2116 1406 1581 1522 
L 1381 1569 
Q 847 1681 609 1914 
Q 372 2147 372 2553 
Q 372 3047 722 3315 
Q 1072 3584 1716 3584 
Q 2034 3584 2315 3537 
Q 2597 3491 2834 3397 
z
" transform="scale(0.015625)"/>
       <path id="DejaVuSans-69" d="M 603 3500 
L 1178 3500 
L 1178 0 
L 603 0 
L 603 3500 
z
M 603 4863 
L 1178 4863 
L 1178 4134 
L 603 4134 
L 603 4863 
z
" transform="scale(0.015625)"/>
       <path id="DejaVuSans-74" d="M 1172 4494 
L 1172 3500 
L 2356 3500 
L 2356 3053 
L 1172 3053 
L 1172 1153 
Q 1172 725 1289 603 
Q 1406 481 1766 481 
L 2356 481 
L 2356 0 
L 1766 0 
Q 1100 0 847 248 
Q 594 497 594 1153 
L 594 3053 
L 172 3053 
L 172 3500 
L 594 3500 
L 594 4494 
L 1172 4494 
z
" transform="scale(0.015625)"/>
       <path id="DejaVuSans-76" d="M 191 3500 
L 800 3500 
L 1894 563 
L 2988 3500 
L 3597 3500 
L 2284 0 
L 1503 0 
L 191 3500 
z
" transform="scale(0.015625)"/>
       <path id="DejaVuSans-79" d="M 2059 -325 
Q 1816 -950 1584 -1140 
Q 1353 -1331 966 -1331 
L 506 -1331 
L 506 -850 
L 844 -850 
Q 1081 -850 1212 -737 
Q 1344 -625 1503 -206 
L 1606 56 
L 191 3500 
L 800 3500 
L 1894 763 
L 2988 3500 
L 3597 3500 
L 2059 -325 
z
" transform="scale(0.015625)"/>
       <path id="DejaVuSans-20" transform="scale(0.015625)"/>
       <path id="DejaVuSans-28" d="M 1984 4856 
Q 1566 4138 1362 3434 
Q 1159 2731 1159 2009 
Q 1159 1288 1364 580 
Q 1569 -128 1984 -844 
L 1484 -844 
Q 1016 -109 783 600 
Q 550 1309 550 2009 
Q 550 2706 781 3412 
Q 1013 4119 1484 4856 
L 1984 4856 
z
" transform="scale(0.015625)"/>
       <path id="DejaVuSans-Oblique-64" d="M 2675 525 
Q 2444 222 2128 65 
Q 1813 -91 1428 -91 
Q 903 -91 598 267 
Q 294 625 294 1247 
Q 294 1766 478 2236 
Q 663 2706 1013 3078 
Q 1244 3325 1534 3454 
Q 1825 3584 2144 3584 
Q 2481 3584 2739 3421 
Q 2997 3259 3138 2956 
L 3513 4863 
L 4091 4863 
L 3144 0 
L 2566 0 
L 2675 525 
z
M 891 1350 
Q 891 897 1095 644 
Q 1300 391 1663 391 
Q 1931 391 2161 520 
Q 2391 650 2566 903 
Q 2750 1166 2856 1509 
Q 2963 1853 2963 2188 
Q 2963 2622 2758 2865 
Q 2553 3109 2194 3109 
Q 1922 3109 1687 2981 
Q 1453 2853 1288 2613 
Q 1106 2353 998 2009 
Q 891 1666 891 1350 
z
" transform="scale(0.015625)"/>
       <path id="Cmsy10-30" d="M 225 347 
Q 184 359 184 409 
L 966 3316 
Q 1003 3434 1093 3506 
Q 1184 3578 1300 3578 
Q 1450 3578 1564 3479 
Q 1678 3381 1678 3231 
Q 1678 3166 1644 3084 
L 488 319 
Q 466 275 428 275 
Q 394 275 320 306 
Q 247 338 225 347 
z
" transform="scale(0.015625)"/>
       <path id="DejaVuSans-29" d="M 513 4856 
L 1013 4856 
Q 1481 4119 1714 3412 
Q 1947 2706 1947 2009 
Q 1947 1309 1714 600 
Q 1481 -109 1013 -844 
L 513 -844 
Q 928 -128 1133 580 
Q 1338 1288 1338 2009 
Q 1338 2731 1133 3434 
Q 928 4138 513 4856 
z
" transform="scale(0.015625)"/>
      </defs>
      <use xlink:href="#DejaVuSans-53" transform="translate(0 0.015625)"/>
      <use xlink:href="#DejaVuSans-65" transform="translate(63.476562 0.015625)"/>
      <use xlink:href="#DejaVuSans-6e" transform="translate(125 0.015625)"/>
      <use xlink:href="#DejaVuSans-73" transform="translate(188.378906 0.015625)"/>
      <use xlink:href="#DejaVuSans-69" transform="translate(240.478516 0.015625)"/>
      <use xlink:href="#DejaVuSans-74" transform="translate(268.261719 0.015625)"/>
      <use xlink:href="#DejaVuSans-69" transform="translate(307.470703 0.015625)"/>
      <use xlink:href="#DejaVuSans-76" transform="translate(335.253906 0.015625)"/>
      <use xlink:href="#DejaVuSans-69" transform="translate(394.433594 0.015625)"/>
      <use xlink:href="#DejaVuSans-74" transform="translate(422.216797 0.015625)"/>
      <use xlink:href="#DejaVuSans-79" transform="translate(461.425781 0.015625)"/>
      <use xlink:href="#DejaVuSans-20" transform="translate(520.605469 0.015625)"/>
      <use xlink:href="#DejaVuSans-28" transform="translate(552.392578 0.015625)"/>
      <use xlink:href="#DejaVuSans-Oblique-64" transform="translate(591.40625 0.015625)"/>
      <use xlink:href="#Cmsy10-30" transform="translate(654.882812 0.015625)"/>
      <use xlink:href="#DejaVuSans-29" transform="translate(682.373047 0.015625)"/>
     </g>
    </g>
   </g>
   <g id="matplotlib.axis_2">
    <g id="ytick_1">
     <g id="line2d_5">
      <defs>
       <path id="m0398221e2c" d="M 0 0 
L -3.5 0 
" style="stroke: #000000; stroke-width: 0.8"/>
      </defs>
      <g>
       <use xlink:href="#m0398221e2c" x="77.33" y="246.843636" style="stroke: #000000; stroke-width: 0.8"/>
      </g>
     </g>
     <g id="text_6">
      <!-- −0.02 -->
      <g transform="translate(33.555625 251.402699) scale(0.12 -0.12)">
       <defs>
        <path id="DejaVuSans-2212" d="M 678 2272 
L 4684 2272 
L 4684 1741 
L 678 1741 
L 678 2272 
z
" transform="scale(0.015625)"/>
        <path id="DejaVuSans-30" d="M 2034 4250 
Q 1547 4250 1301 3770 
Q 1056 3291 1056 2328 
Q 1056 1369 1301 889 
Q 1547 409 2034 409 
Q 2525 409 2770 889 
Q 3016 1369 3016 2328 
Q 3016 3291 2770 3770 
Q 2525 4250 2034 4250 
z
M 2034 4750 
Q 2819 4750 3233 4129 
Q 3647 3509 3647 2328 
Q 3647 1150 3233 529 
Q 2819 -91 2034 -91 
Q 1250 -91 836 529 
Q 422 1150 422 2328 
Q 422 3509 836 4129 
Q 1250 4750 2034 4750 
z
" transform="scale(0.015625)"/>
        <path id="DejaVuSans-2e" d="M 684 794 
L 1344 794 
L 1344 0 
L 684 0 
L 684 794 
z
" transform="scale(0.015625)"/>
       </defs>
       <use xlink:href="#DejaVuSans-2212"/>
       <use xlink:href="#DejaVuSans-30" x="83.789062"/>
       <use xlink:href="#DejaVuSans-2e" x="147.412109"/>
       <use xlink:href="#DejaVuSans-30" x="179.199219"/>
       <use xlink:href="#DejaVuSans-32" x="242.822266"/>
      </g>
     </g>
    </g>
    <g id="ytick_2">
     <g id="line2d_6">
      <g>
       <use xlink:href="#m0398221e2c" x="77.33" y="200.930909" style="stroke: #000000; stroke-width: 0.8"/>
      </g>
     </g>
     <g id="text_7">
      <!-- 0.00 -->
      <g transform="translate(43.61125 205.489972) scale(0.12 -0.12)">
       <use xlink:href="#DejaVuSans-30"/>
       <use xlink:href="#DejaVuSans-2e" x="63.623047"/>
       <use xlink:href="#DejaVuSans-30" x="95.410156"/>
       <use xlink:href="#DejaVuSans-30" x="159.033203"/>
      </g>
     </g>
    </g>
    <g id="ytick_3">
     <g id="line2d_7">
      <g>
       <use xlink:href="#m0398221e2c" x="77.33" y="155.018182" style="stroke: #000000; stroke-width: 0.8"/>
      </g>
     </g>
     <g id="text_8">
      <!-- 0.02 -->
      <g transform="translate(43.61125 159.577244) scale(0.12 -0.12)">
       <use xlink:href="#DejaVuSans-30"/>
       <use xlink:href="#DejaVuSans-2e" x="63.623047"/>
       <use xlink:href="#DejaVuSans-30" x="95.410156"/>
       <use xlink:href="#DejaVuSans-32" x="159.033203"/>
      </g>
     </g>
    </g>
    <g id="ytick_4">
     <g id="line2d_8">
      <g>
       <use xlink:href="#m0398221e2c" x="77.33" y="109.105455" style="stroke: #000000; stroke-width: 0.8"/>
      </g>
     </g>
     <g id="text_9">
      <!-- 0.04 -->
      <g transform="translate(43.61125 113.664517) scale(0.12 -0.12)">
       <use xlink:href="#DejaVuSans-30"/>
       <use xlink:href="#DejaVuSans-2e" x="63.623047"/>
       <use xlink:href="#DejaVuSans-30" x="95.410156"/>
       <use xlink:href="#DejaVuSans-34" x="159.033203"/>
      </g>
     </g>
    </g>
    <g id="ytick_5">
     <g id="line2d_9">
      <g>
       <use xlink:href="#m0398221e2c" x="77.33" y="63.192727" style="stroke: #000000; stroke-width: 0.8"/>
      </g>
     </g>
     <g id="text_10">
      <!-- 0.06 -->
      <g transform="translate(43.61125 67.75179) scale(0.12 -0.12)">
       <defs>
        <path id="DejaVuSans-36" d="M 2113 2584 
Q 1688 2584 1439 2293 
Q 1191 2003 1191 1497 
Q 1191 994 1439 701 
Q 1688 409 2113 409 
Q 2538 409 2786 701 
Q 3034 994 3034 1497 
Q 3034 2003 2786 2293 
Q 2538 2584 2113 2584 
z
M 3366 4563 
L 3366 3988 
Q 3128 4100 2886 4159 
Q 2644 4219 2406 4219 
Q 1781 4219 1451 3797 
Q 1122 3375 1075 2522 
Q 1259 2794 1537 2939 
Q 1816 3084 2150 3084 
Q 2853 3084 3261 2657 
Q 3669 2231 3669 1497 
Q 3669 778 3244 343 
Q 2819 -91 2113 -91 
Q 1303 -91 875 529 
Q 447 1150 447 2328 
Q 447 3434 972 4092 
Q 1497 4750 2381 4750 
Q 2619 4750 2861 4703 
Q 3103 4656 3366 4563 
z
" transform="scale(0.015625)"/>
       </defs>
       <use xlink:href="#DejaVuSans-30"/>
       <use xlink:href="#DejaVuSans-2e" x="63.623047"/>
       <use xlink:href="#DejaVuSans-30" x="95.410156"/>
       <use xlink:href="#DejaVuSans-36" x="159.033203"/>
      </g>
     </g>
    </g>
    <g id="ytick_6">
     <g id="line2d_10">
      <g>
       <use xlink:href="#m0398221e2c" x="77.33" y="17.28" style="stroke: #000000; stroke-width: 0.8"/>
      </g>
     </g>
     <g id="text_11">
      <!-- 0.08 -->
      <g transform="translate(43.61125 21.839063) scale(0.12 -0.12)">
       <defs>
        <path id="DejaVuSans-38" d="M 2034 2216 
Q 1584 2216 1326 1975 
Q 1069 1734 1069 1313 
Q 1069 891 1326 650 
Q 1584 409 2034 409 
Q 2484 409 2743 651 
Q 3003 894 3003 1313 
Q 3003 1734 2745 1975 
Q 2488 2216 2034 2216 
z
M 1403 2484 
Q 997 2584 770 2862 
Q 544 3141 544 3541 
Q 544 4100 942 4425 
Q 1341 4750 2034 4750 
Q 2731 4750 3128 4425 
Q 3525 4100 3525 3541 
Q 3525 3141 3298 2862 
Q 3072 2584 2669 2484 
Q 3125 2378 3379 2068 
Q 3634 1759 3634 1313 
Q 3634 634 3220 271 
Q 2806 -91 2034 -91 
Q 1263 -91 848 271 
Q 434 634 434 1313 
Q 434 1759 690 2068 
Q 947 2378 1403 2484 
z
M 1172 3481 
Q 1172 3119 1398 2916 
Q 1625 2713 2034 2713 
Q 2441 2713 2670 2916 
Q 2900 3119 2900 3481 
Q 2900 3844 2670 4047 
Q 2441 4250 2034 4250 
Q 1625 4250 1398 4047 
Q 1172 3844 1172 3481 
z
" transform="scale(0.015625)"/>
       </defs>
       <use xlink:href="#DejaVuSans-30"/>
       <use xlink:href="#DejaVuSans-2e" x="63.623047"/>
       <use xlink:href="#DejaVuSans-30" x="95.410156"/>
       <use xlink:href="#DejaVuSans-38" x="159.033203"/>
      </g>
     </g>
    </g>
    <g id="text_12">
     <!-- Timing-Induced Bias -->
     <g transform="translate(26.228125 224.75125) rotate(-90) scale(0.16 -0.16)">
      <defs>
       <path id="DejaVuSans-54" d="M -19 4666 
L 3928 4666 
L 3928 4134 
L 2272 4134 
L 2272 0 
L 1638 0 
L 1638 4134 
L -19 4134 
L -19 4666 
z
" transform="scale(0.015625)"/>
       <path id="DejaVuSans-6d" d="M 3328 2828 
Q 3544 3216 3844 3400 
Q 4144 3584 4550 3584 
Q 5097 3584 5394 3201 
Q 5691 2819 5691 2113 
L 5691 0 
L 5113 0 
L 5113 2094 
Q 5113 2597 4934 2840 
Q 4756 3084 4391 3084 
Q 3944 3084 3684 2787 
Q 3425 2491 3425 1978 
L 3425 0 
L 2847 0 
L 2847 2094 
Q 2847 2600 2669 2842 
Q 2491 3084 2119 3084 
Q 1678 3084 1418 2786 
Q 1159 2488 1159 1978 
L 1159 0 
L 581 0 
L 581 3500 
L 1159 3500 
L 1159 2956 
Q 1356 3278 1631 3431 
Q 1906 3584 2284 3584 
Q 2666 3584 2933 3390 
Q 3200 3197 3328 2828 
z
" transform="scale(0.015625)"/>
       <path id="DejaVuSans-67" d="M 2906 1791 
Q 2906 2416 2648 2759 
Q 2391 3103 1925 3103 
Q 1463 3103 1205 2759 
Q 947 2416 947 1791 
Q 947 1169 1205 825 
Q 1463 481 1925 481 
Q 2391 481 2648 825 
Q 2906 1169 2906 1791 
z
M 3481 434 
Q 3481 -459 3084 -895 
Q 2688 -1331 1869 -1331 
Q 1566 -1331 1297 -1286 
Q 1028 -1241 775 -1147 
L 775 -588 
Q 1028 -725 1275 -790 
Q 1522 -856 1778 -856 
Q 2344 -856 2625 -561 
Q 2906 -266 2906 331 
L 2906 616 
Q 2728 306 2450 153 
Q 2172 0 1784 0 
Q 1141 0 747 490 
Q 353 981 353 1791 
Q 353 2603 747 3093 
Q 1141 3584 1784 3584 
Q 2172 3584 2450 3431 
Q 2728 3278 2906 2969 
L 2906 3500 
L 3481 3500 
L 3481 434 
z
" transform="scale(0.015625)"/>
       <path id="DejaVuSans-2d" d="M 313 2009 
L 1997 2009 
L 1997 1497 
L 313 1497 
L 313 2009 
z
" transform="scale(0.015625)"/>
       <path id="DejaVuSans-49" d="M 628 4666 
L 1259 4666 
L 1259 0 
L 628 0 
L 628 4666 
z
" transform="scale(0.015625)"/>
       <path id="DejaVuSans-64" d="M 2906 2969 
L 2906 4863 
L 3481 4863 
L 3481 0 
L 2906 0 
L 2906 525 
Q 2725 213 2448 61 
Q 2172 -91 1784 -91 
Q 1150 -91 751 415 
Q 353 922 353 1747 
Q 353 2572 751 3078 
Q 1150 3584 1784 3584 
Q 2172 3584 2448 3432 
Q 2725 3281 2906 2969 
z
M 947 1747 
Q 947 1113 1208 752 
Q 1469 391 1925 391 
Q 2381 391 2643 752 
Q 2906 1113 2906 1747 
Q 2906 2381 2643 2742 
Q 2381 3103 1925 3103 
Q 1469 3103 1208 2742 
Q 947 2381 947 1747 
z
" transform="scale(0.015625)"/>
       <path id="DejaVuSans-75" d="M 544 1381 
L 544 3500 
L 1119 3500 
L 1119 1403 
Q 1119 906 1312 657 
Q 1506 409 1894 409 
Q 2359 409 2629 706 
Q 2900 1003 2900 1516 
L 2900 3500 
L 3475 3500 
L 3475 0 
L 2900 0 
L 2900 538 
Q 2691 219 2414 64 
Q 2138 -91 1772 -91 
Q 1169 -91 856 284 
Q 544 659 544 1381 
z
M 1991 3584 
L 1991 3584 
z
" transform="scale(0.015625)"/>
       <path id="DejaVuSans-63" d="M 3122 3366 
L 3122 2828 
Q 2878 2963 2633 3030 
Q 2388 3097 2138 3097 
Q 1578 3097 1268 2742 
Q 959 2388 959 1747 
Q 959 1106 1268 751 
Q 1578 397 2138 397 
Q 2388 397 2633 464 
Q 2878 531 3122 666 
L 3122 134 
Q 2881 22 2623 -34 
Q 2366 -91 2075 -91 
Q 1284 -91 818 406 
Q 353 903 353 1747 
Q 353 2603 823 3093 
Q 1294 3584 2113 3584 
Q 2378 3584 2631 3529 
Q 2884 3475 3122 3366 
z
" transform="scale(0.015625)"/>
       <path id="DejaVuSans-42" d="M 1259 2228 
L 1259 519 
L 2272 519 
Q 2781 519 3026 730 
Q 3272 941 3272 1375 
Q 3272 1813 3026 2020 
Q 2781 2228 2272 2228 
L 1259 2228 
z
M 1259 4147 
L 1259 2741 
L 2194 2741 
Q 2656 2741 2882 2914 
Q 3109 3088 3109 3444 
Q 3109 3797 2882 3972 
Q 2656 4147 2194 4147 
L 1259 4147 
z
M 628 4666 
L 2241 4666 
Q 2963 4666 3353 4366 
Q 3744 4066 3744 3513 
Q 3744 3084 3544 2831 
Q 3344 2578 2956 2516 
Q 3422 2416 3680 2098 
Q 3938 1781 3938 1306 
Q 3938 681 3513 340 
Q 3088 0 2303 0 
L 628 0 
L 628 4666 
z
" transform="scale(0.015625)"/>
       <path id="DejaVuSans-61" d="M 2194 1759 
Q 1497 1759 1228 1600 
Q 959 1441 959 1056 
Q 959 750 1161 570 
Q 1363 391 1709 391 
Q 2188 391 2477 730 
Q 2766 1069 2766 1631 
L 2766 1759 
L 2194 1759 
z
M 3341 1997 
L 3341 0 
L 2766 0 
L 2766 531 
Q 2569 213 2275 61 
Q 1981 -91 1556 -91 
Q 1019 -91 701 211 
Q 384 513 384 1019 
Q 384 1609 779 1909 
Q 1175 2209 1959 2209 
L 2766 2209 
L 2766 2266 
Q 2766 2663 2505 2880 
Q 2244 3097 1772 3097 
Q 1472 3097 1187 3025 
Q 903 2953 641 2809 
L 641 3341 
Q 956 3463 1253 3523 
Q 1550 3584 1831 3584 
Q 2591 3584 2966 3190 
Q 3341 2797 3341 1997 
z
" transform="scale(0.015625)"/>
      </defs>
      <use xlink:href="#DejaVuSans-54"/>
      <use xlink:href="#DejaVuSans-69" x="57.958984"/>
      <use xlink:href="#DejaVuSans-6d" x="85.742188"/>
      <use xlink:href="#DejaVuSans-69" x="183.154297"/>
      <use xlink:href="#DejaVuSans-6e" x="210.9375"/>
      <use xlink:href="#DejaVuSans-67" x="274.316406"/>
      <use xlink:href="#DejaVuSans-2d" x="337.792969"/>
      <use xlink:href="#DejaVuSans-49" x="373.876953"/>
      <use xlink:href="#DejaVuSans-6e" x="403.369141"/>
      <use xlink:href="#DejaVuSans-64" x="466.748047"/>
      <use xlink:href="#DejaVuSans-75" x="530.224609"/>
      <use xlink:href="#DejaVuSans-63" x="593.603516"/>
      <use xlink:href="#DejaVuSans-65" x="648.583984"/>
      <use xlink:href="#DejaVuSans-64" x="710.107422"/>
      <use xlink:href="#DejaVuSans-20" x="773.583984"/>
      <use xlink:href="#DejaVuSans-42" x="805.371094"/>
      <use xlink:href="#DejaVuSans-69" x="873.974609"/>
      <use xlink:href="#DejaVuSans-61" x="901.757812"/>
      <use xlink:href="#DejaVuSans-73" x="963.037109"/>
     </g>
    </g>
   </g>
   <g id="line2d_11">
    <path d="M 92.862273 145.693531 
L 96.000106 146.246776 
L 99.137938 146.80002 
L 102.275771 147.353264 
L 105.413604 147.906508 
L 108.551437 148.459753 
L 111.68927 149.012997 
L 114.827103 149.566241 
L 117.964936 150.119486 
L 121.102769 150.67273 
L 124.240601 151.225974 
L 127.378434 151.779218 
L 130.516267 152.332463 
L 133.6541 152.885707 
L 136.791933 153.438951 
L 139.929766 153.992196 
L 143.067599 154.54544 
L 146.205432 155.098684 
L 149.343264 155.651928 
L 152.481097 156.205173 
L 155.61893 156.758417 
L 158.756763 157.311661 
L 161.894596 157.864906 
L 165.032429 158.41815 
L 168.170262 158.971394 
L 171.308095 159.524638 
L 174.445927 160.077883 
L 177.58376 160.631127 
L 180.721593 161.184371 
L 183.859426 161.737616 
L 186.997259 162.29086 
L 190.135092 162.844104 
L 193.272925 163.397348 
L 196.410758 163.950593 
L 199.54859 164.503837 
L 202.686423 165.057081 
L 205.824256 165.610326 
L 208.962089 166.16357 
L 212.099922 166.716814 
L 215.237755 167.270058 
L 218.375588 167.823303 
L 221.513421 168.376547 
L 224.651253 168.929791 
L 227.789086 169.483036 
L 230.926919 170.03628 
L 234.064752 170.589524 
L 237.202585 171.142768 
L 240.340418 171.696013 
L 243.478251 172.249257 
L 246.616084 172.802501 
L 249.753916 173.355746 
L 252.891749 173.90899 
L 256.029582 174.462234 
L 259.167415 175.015478 
L 262.305248 175.568723 
L 265.443081 176.121967 
L 268.580914 176.675211 
L 271.718747 177.228456 
L 274.856579 177.7817 
L 277.994412 178.334944 
L 281.132245 178.888188 
L 284.270078 179.441433 
L 287.407911 179.994677 
L 290.545744 180.547921 
L 293.683577 181.101166 
L 296.82141 181.65441 
L 299.959242 182.207654 
L 303.097075 182.760898 
L 306.234908 183.314143 
L 309.372741 183.867387 
L 312.510574 184.420631 
L 315.648407 184.973876 
L 318.78624 185.52712 
L 321.924073 186.080364 
L 325.061905 186.633609 
L 328.199738 187.186853 
L 331.337571 187.740097 
L 334.475404 188.293341 
L 337.613237 188.846586 
L 340.75107 189.39983 
L 343.888903 189.953074 
L 347.026736 190.506319 
L 350.164568 191.059563 
L 353.302401 191.612807 
L 356.440234 192.166051 
L 359.578067 192.719296 
L 362.7159 193.27254 
L 365.853733 193.825784 
L 368.991566 194.379029 
L 372.129399 194.932273 
L 375.267231 195.485517 
L 378.405064 196.038761 
L 381.542897 196.592006 
L 384.68073 197.14525 
L 387.818563 197.698494 
L 390.956396 198.251739 
L 394.094229 198.804983 
L 397.232062 199.358227 
L 400.369894 199.911471 
L 403.507727 200.464716 
" clip-path="url(#pefe65713b3)" style="fill: none; stroke: #000000; stroke-width: 2.25; stroke-linecap: square"/>
   </g>
   <g id="line2d_12">
    <path d="M 77.33 200.930909 
L 419.04 200.930909 
" clip-path="url(#pefe65713b3)" style="fill: none; stroke-dasharray: 5.55,2.4; stroke-dashoffset: 0; stroke: #000000; stroke-opacity: 0.5; stroke-width: 1.5"/>
   </g>
   <g id="patch_3">
    <path d="M 77.33 269.8 
L 77.33 17.28 
" style="fill: none; stroke: #000000; stroke-width: 0.8; stroke-linejoin: miter; stroke-linecap: square"/>
   </g>
   <g id="patch_4">
    <path d="M 77.33 269.8 
L 419.04 269.8 
" style="fill: none; stroke: #000000; stroke-width: 0.8; stroke-linejoin: miter; stroke-linecap: square"/>
   </g>
   <g id="text_13">
    <!-- $r(23)=-0.330$, $p=0.107$ -->
    <g transform="translate(247.205736 28.758182) scale(0.12 -0.12)">
     <defs>
      <path id="DejaVuSans-Oblique-72" d="M 2853 2969 
Q 2766 3016 2653 3041 
Q 2541 3066 2413 3066 
Q 1953 3066 1609 2717 
Q 1266 2369 1153 1784 
L 800 0 
L 225 0 
L 909 3500 
L 1484 3500 
L 1375 2956 
Q 1603 3259 1920 3421 
Q 2238 3584 2597 3584 
Q 2691 3584 2781 3573 
Q 2872 3563 2963 3538 
L 2853 2969 
z
" transform="scale(0.015625)"/>
      <path id="DejaVuSans-3d" d="M 678 2906 
L 4684 2906 
L 4684 2381 
L 678 2381 
L 678 2906 
z
M 678 1631 
L 4684 1631 
L 4684 1100 
L 678 1100 
L 678 1631 
z
" transform="scale(0.015625)"/>
      <path id="DejaVuSans-2c" d="M 750 794 
L 1409 794 
L 1409 256 
L 897 -744 
L 494 -744 
L 750 256 
L 750 794 
z
" transform="scale(0.015625)"/>
      <path id="DejaVuSans-Oblique-70" d="M 3175 2156 
Q 3175 2616 2975 2859 
Q 2775 3103 2400 3103 
Q 2144 3103 1911 2972 
Q 1678 2841 1497 2591 
Q 1319 2344 1212 1994 
Q 1106 1644 1106 1300 
Q 1106 863 1306 627 
Q 1506 391 1875 391 
Q 2147 391 2380 519 
Q 2613 647 2778 891 
Q 2956 1147 3065 1494 
Q 3175 1841 3175 2156 
z
M 1394 2969 
Q 1625 3272 1939 3428 
Q 2253 3584 2638 3584 
Q 3175 3584 3472 3232 
Q 3769 2881 3769 2247 
Q 3769 1728 3584 1258 
Q 3400 788 3053 416 
Q 2822 169 2531 39 
Q 2241 -91 1919 -91 
Q 1547 -91 1294 64 
Q 1041 219 916 525 
L 556 -1331 
L -19 -1331 
L 922 3500 
L 1497 3500 
L 1394 2969 
z
" transform="scale(0.015625)"/>
      <path id="DejaVuSans-37" d="M 525 4666 
L 3525 4666 
L 3525 4397 
L 1831 0 
L 1172 0 
L 2766 4134 
L 525 4134 
L 525 4666 
z
" transform="scale(0.015625)"/>
     </defs>
     <use xlink:href="#DejaVuSans-Oblique-72" transform="translate(0 0.125)"/>
     <use xlink:href="#DejaVuSans-28" transform="translate(41.113281 0.125)"/>
     <use xlink:href="#DejaVuSans-32" transform="translate(80.126953 0.125)"/>
     <use xlink:href="#DejaVuSans-33" transform="translate(143.75 0.125)"/>
     <use xlink:href="#DejaVuSans-29" transform="translate(207.373047 0.125)"/>
     <use xlink:href="#DejaVuSans-3d" transform="translate(265.869141 0.125)"/>
     <use xlink:href="#DejaVuSans-2212" transform="translate(388.623047 0.125)"/>
     <use xlink:href="#DejaVuSans-30" transform="translate(491.894531 0.125)"/>
     <use xlink:href="#DejaVuSans-2e" transform="translate(555.517578 0.125)"/>
     <use xlink:href="#DejaVuSans-33" transform="translate(587.304688 0.125)"/>
     <use xlink:href="#DejaVuSans-33" transform="translate(650.927734 0.125)"/>
     <use xlink:href="#DejaVuSans-30" transform="translate(714.550781 0.125)"/>
     <use xlink:href="#DejaVuSans-2c" transform="translate(778.173828 0.125)"/>
     <use xlink:href="#DejaVuSans-20" transform="translate(809.960938 0.125)"/>
     <use xlink:href="#DejaVuSans-Oblique-70" transform="translate(841.748047 0.125)"/>
     <use xlink:href="#DejaVuSans-3d" transform="translate(924.707031 0.125)"/>
     <use xlink:href="#DejaVuSans-30" transform="translate(1027.978516 0.125)"/>
     <use xlink:href="#DejaVuSans-2e" transform="translate(1091.601562 0.125)"/>
     <use xlink:href="#DejaVuSans-31" transform="translate(1123.388672 0.125)"/>
     <use xlink:href="#DejaVuSans-30" transform="translate(1187.011719 0.125)"/>
     <use xlink:href="#DejaVuSans-37" transform="translate(1250.634766 0.125)"/>
    </g>
   </g>
  </g>
 </g>
 <defs>
  <clipPath id="pefe65713b3">
   <rect x="77.33" y="17.28" width="341.71" height="252.52"/>
  </clipPath>
 </defs>
</svg>
