<?xml version="1.0" encoding="utf-8" standalone="no"?>
<!DOCTYPE svg PUBLIC "-//W3C//DTD SVG 1.1//EN"
  "http://www.w3.org/Graphics/SVG/1.1/DTD/svg11.dtd">
<svg xmlns:xlink="http://www.w3.org/1999/xlink" width="648pt" height="252pt" viewBox="0 0 648 252" xmlns="http://www.w3.org/2000/svg" version="1.1">
 <metadata>
  <rdf:RDF xmlns:dc="http://purl.org/dc/elements/1.1/" xmlns:cc="http://creativecommons.org/ns#" xmlns:rdf="http://www.w3.org/1999/02/22-rdf-syntax-ns#">
   <cc:Work>
    <dc:type rdf:resource="http://purl.org/dc/dcmitype/StillImage"/>
    <dc:date>2023-05-24T17:54:11.788110</dc:date>
    <dc:format>image/svg+xml</dc:format>
    <dc:creator>
     <cc:Agent>
      <dc:title>Matplotlib v3.5.1, https://matplotlib.org/</dc:title>
     </cc:Agent>
    </dc:creator>
   </cc:Work>
  </rdf:RDF>
 </metadata>
 <defs>
  <style type="text/css">*{stroke-linejoin: round; stroke-linecap: butt}</style>
 </defs>
 <g id="figure_1">
  <g id="patch_1">
   <path d="M 0 252 
L 648 252 
L 648 0 
L 0 0 
L 0 252 
z
" style="fill: none"/>
  </g>
  <g id="axes_1">
   <g id="patch_2">
    <path d="M 78.585 200.04 
L 320.8325 200.04 
L 320.8325 17.96 
L 78.585 17.96 
z
" style="fill: #ffffff"/>
   </g>
   <g id="matplotlib.axis_1">
    <g id="xtick_1">
     <g id="line2d_1">
      <defs>
       <path id="m8fb9773695" d="M 0 0 
L 0 3.5 
" style="stroke: #000000; stroke-width: 0.8"/>
      </defs>
      <g>
       <use xlink:href="#m8fb9773695" x="108.865938" y="200.04" style="stroke: #000000; stroke-width: 0.8"/>
      </g>
     </g>
     <g id="text_1">
      <!-- -15 -->
      <g transform="translate(99.06625 216.158125)scale(0.12 -0.12)">
       <defs>
        <path id="DejaVuSans-2d" d="M 313 2009 
L 1997 2009 
L 1997 1497 
L 313 1497 
L 313 2009 
z
" transform="scale(0.015625)"/>
        <path id="DejaVuSans-31" d="M 794 531 
L 1825 531 
L 1825 4091 
L 703 3866 
L 703 4441 
L 1819 4666 
L 2450 4666 
L 2450 531 
L 3481 531 
L 3481 0 
L 794 0 
L 794 531 
z
" transform="scale(0.015625)"/>
        <path id="DejaVuSans-35" d="M 691 4666 
L 3169 4666 
L 3169 4134 
L 1269 4134 
L 1269 2991 
Q 1406 3038 1543 3061 
Q 1681 3084 1819 3084 
Q 2600 3084 3056 2656 
Q 3513 2228 3513 1497 
Q 3513 744 3044 326 
Q 2575 -91 1722 -91 
Q 1428 -91 1123 -41 
Q 819 9 494 109 
L 494 744 
Q 775 591 1075 516 
Q 1375 441 1709 441 
Q 2250 441 2565 725 
Q 2881 1009 2881 1497 
Q 2881 1984 2565 2268 
Q 2250 2553 1709 2553 
Q 1456 2553 1204 2497 
Q 953 2441 691 2322 
L 691 4666 
z
" transform="scale(0.015625)"/>
       </defs>
       <use xlink:href="#DejaVuSans-2d"/>
       <use xlink:href="#DejaVuSans-31" x="36.083984"/>
       <use xlink:href="#DejaVuSans-35" x="99.707031"/>
      </g>
     </g>
    </g>
    <g id="xtick_2">
     <g id="line2d_2">
      <g>
       <use xlink:href="#m8fb9773695" x="199.70875" y="200.04" style="stroke: #000000; stroke-width: 0.8"/>
      </g>
     </g>
     <g id="text_2">
      <!-- 0 -->
      <g transform="translate(195.89125 216.158125)scale(0.12 -0.12)">
       <defs>
        <path id="DejaVuSans-30" d="M 2034 4250 
Q 1547 4250 1301 3770 
Q 1056 3291 1056 2328 
Q 1056 1369 1301 889 
Q 1547 409 2034 409 
Q 2525 409 2770 889 
Q 3016 1369 3016 2328 
Q 3016 3291 2770 3770 
Q 2525 4250 2034 4250 
z
M 2034 4750 
Q 2819 4750 3233 4129 
Q 3647 3509 3647 2328 
Q 3647 1150 3233 529 
Q 2819 -91 2034 -91 
Q 1250 -91 836 529 
Q 422 1150 422 2328 
Q 422 3509 836 4129 
Q 1250 4750 2034 4750 
z
" transform="scale(0.015625)"/>
       </defs>
       <use xlink:href="#DejaVuSans-30"/>
      </g>
     </g>
    </g>
    <g id="xtick_3">
     <g id="line2d_3">
      <g>
       <use xlink:href="#m8fb9773695" x="290.551562" y="200.04" style="stroke: #000000; stroke-width: 0.8"/>
      </g>
     </g>
     <g id="text_3">
      <!-- +15 -->
      <g transform="translate(277.88875 216.158125)scale(0.12 -0.12)">
       <defs>
        <path id="DejaVuSans-2b" d="M 2944 4013 
L 2944 2272 
L 4684 2272 
L 4684 1741 
L 2944 1741 
L 2944 0 
L 2419 0 
L 2419 1741 
L 678 1741 
L 678 2272 
L 2419 2272 
L 2419 4013 
L 2944 4013 
z
" transform="scale(0.015625)"/>
       </defs>
       <use xlink:href="#DejaVuSans-2b"/>
       <use xlink:href="#DejaVuSans-31" x="83.789062"/>
       <use xlink:href="#DejaVuSans-35" x="147.412109"/>
      </g>
     </g>
    </g>
    <g id="text_4">
     <!-- Probe Timing Offset (%) -->
     <g transform="translate(104.37 234.81125)scale(0.16 -0.16)">
      <defs>
       <path id="DejaVuSans-50" d="M 1259 4147 
L 1259 2394 
L 2053 2394 
Q 2494 2394 2734 2622 
Q 2975 2850 2975 3272 
Q 2975 3691 2734 3919 
Q 2494 4147 2053 4147 
L 1259 4147 
z
M 628 4666 
L 2053 4666 
Q 2838 4666 3239 4311 
Q 3641 3956 3641 3272 
Q 3641 2581 3239 2228 
Q 2838 1875 2053 1875 
L 1259 1875 
L 1259 0 
L 628 0 
L 628 4666 
z
" transform="scale(0.015625)"/>
       <path id="DejaVuSans-72" d="M 2631 2963 
Q 2534 3019 2420 3045 
Q 2306 3072 2169 3072 
Q 1681 3072 1420 2755 
Q 1159 2438 1159 1844 
L 1159 0 
L 581 0 
L 581 3500 
L 1159 3500 
L 1159 2956 
Q 1341 3275 1631 3429 
Q 1922 3584 2338 3584 
Q 2397 3584 2469 3576 
Q 2541 3569 2628 3553 
L 2631 2963 
z
" transform="scale(0.015625)"/>
       <path id="DejaVuSans-6f" d="M 1959 3097 
Q 1497 3097 1228 2736 
Q 959 2375 959 1747 
Q 959 1119 1226 758 
Q 1494 397 1959 397 
Q 2419 397 2687 759 
Q 2956 1122 2956 1747 
Q 2956 2369 2687 2733 
Q 2419 3097 1959 3097 
z
M 1959 3584 
Q 2709 3584 3137 3096 
Q 3566 2609 3566 1747 
Q 3566 888 3137 398 
Q 2709 -91 1959 -91 
Q 1206 -91 779 398 
Q 353 888 353 1747 
Q 353 2609 779 3096 
Q 1206 3584 1959 3584 
z
" transform="scale(0.015625)"/>
       <path id="DejaVuSans-62" d="M 3116 1747 
Q 3116 2381 2855 2742 
Q 2594 3103 2138 3103 
Q 1681 3103 1420 2742 
Q 1159 2381 1159 1747 
Q 1159 1113 1420 752 
Q 1681 391 2138 391 
Q 2594 391 2855 752 
Q 3116 1113 3116 1747 
z
M 1159 2969 
Q 1341 3281 1617 3432 
Q 1894 3584 2278 3584 
Q 2916 3584 3314 3078 
Q 3713 2572 3713 1747 
Q 3713 922 3314 415 
Q 2916 -91 2278 -91 
Q 1894 -91 1617 61 
Q 1341 213 1159 525 
L 1159 0 
L 581 0 
L 581 4863 
L 1159 4863 
L 1159 2969 
z
" transform="scale(0.015625)"/>
       <path id="DejaVuSans-65" d="M 3597 1894 
L 3597 1613 
L 953 1613 
Q 991 1019 1311 708 
Q 1631 397 2203 397 
Q 2534 397 2845 478 
Q 3156 559 3463 722 
L 3463 178 
Q 3153 47 2828 -22 
Q 2503 -91 2169 -91 
Q 1331 -91 842 396 
Q 353 884 353 1716 
Q 353 2575 817 3079 
Q 1281 3584 2069 3584 
Q 2775 3584 3186 3129 
Q 3597 2675 3597 1894 
z
M 3022 2063 
Q 3016 2534 2758 2815 
Q 2500 3097 2075 3097 
Q 1594 3097 1305 2825 
Q 1016 2553 972 2059 
L 3022 2063 
z
" transform="scale(0.015625)"/>
       <path id="DejaVuSans-20" transform="scale(0.015625)"/>
       <path id="DejaVuSans-54" d="M -19 4666 
L 3928 4666 
L 3928 4134 
L 2272 4134 
L 2272 0 
L 1638 0 
L 1638 4134 
L -19 4134 
L -19 4666 
z
" transform="scale(0.015625)"/>
       <path id="DejaVuSans-69" d="M 603 3500 
L 1178 3500 
L 1178 0 
L 603 0 
L 603 3500 
z
M 603 4863 
L 1178 4863 
L 1178 4134 
L 603 4134 
L 603 4863 
z
" transform="scale(0.015625)"/>
       <path id="DejaVuSans-6d" d="M 3328 2828 
Q 3544 3216 3844 3400 
Q 4144 3584 4550 3584 
Q 5097 3584 5394 3201 
Q 5691 2819 5691 2113 
L 5691 0 
L 5113 0 
L 5113 2094 
Q 5113 2597 4934 2840 
Q 4756 3084 4391 3084 
Q 3944 3084 3684 2787 
Q 3425 2491 3425 1978 
L 3425 0 
L 2847 0 
L 2847 2094 
Q 2847 2600 2669 2842 
Q 2491 3084 2119 3084 
Q 1678 3084 1418 2786 
Q 1159 2488 1159 1978 
L 1159 0 
L 581 0 
L 581 3500 
L 1159 3500 
L 1159 2956 
Q 1356 3278 1631 3431 
Q 1906 3584 2284 3584 
Q 2666 3584 2933 3390 
Q 3200 3197 3328 2828 
z
" transform="scale(0.015625)"/>
       <path id="DejaVuSans-6e" d="M 3513 2113 
L 3513 0 
L 2938 0 
L 2938 2094 
Q 2938 2591 2744 2837 
Q 2550 3084 2163 3084 
Q 1697 3084 1428 2787 
Q 1159 2491 1159 1978 
L 1159 0 
L 581 0 
L 581 3500 
L 1159 3500 
L 1159 2956 
Q 1366 3272 1645 3428 
Q 1925 3584 2291 3584 
Q 2894 3584 3203 3211 
Q 3513 2838 3513 2113 
z
" transform="scale(0.015625)"/>
       <path id="DejaVuSans-67" d="M 2906 1791 
Q 2906 2416 2648 2759 
Q 2391 3103 1925 3103 
Q 1463 3103 1205 2759 
Q 947 2416 947 1791 
Q 947 1169 1205 825 
Q 1463 481 1925 481 
Q 2391 481 2648 825 
Q 2906 1169 2906 1791 
z
M 3481 434 
Q 3481 -459 3084 -895 
Q 2688 -1331 1869 -1331 
Q 1566 -1331 1297 -1286 
Q 1028 -1241 775 -1147 
L 775 -588 
Q 1028 -725 1275 -790 
Q 1522 -856 1778 -856 
Q 2344 -856 2625 -561 
Q 2906 -266 2906 331 
L 2906 616 
Q 2728 306 2450 153 
Q 2172 0 1784 0 
Q 1141 0 747 490 
Q 353 981 353 1791 
Q 353 2603 747 3093 
Q 1141 3584 1784 3584 
Q 2172 3584 2450 3431 
Q 2728 3278 2906 2969 
L 2906 3500 
L 3481 3500 
L 3481 434 
z
" transform="scale(0.015625)"/>
       <path id="DejaVuSans-4f" d="M 2522 4238 
Q 1834 4238 1429 3725 
Q 1025 3213 1025 2328 
Q 1025 1447 1429 934 
Q 1834 422 2522 422 
Q 3209 422 3611 934 
Q 4013 1447 4013 2328 
Q 4013 3213 3611 3725 
Q 3209 4238 2522 4238 
z
M 2522 4750 
Q 3503 4750 4090 4092 
Q 4678 3434 4678 2328 
Q 4678 1225 4090 567 
Q 3503 -91 2522 -91 
Q 1538 -91 948 565 
Q 359 1222 359 2328 
Q 359 3434 948 4092 
Q 1538 4750 2522 4750 
z
" transform="scale(0.015625)"/>
       <path id="DejaVuSans-66" d="M 2375 4863 
L 2375 4384 
L 1825 4384 
Q 1516 4384 1395 4259 
Q 1275 4134 1275 3809 
L 1275 3500 
L 2222 3500 
L 2222 3053 
L 1275 3053 
L 1275 0 
L 697 0 
L 697 3053 
L 147 3053 
L 147 3500 
L 697 3500 
L 697 3744 
Q 697 4328 969 4595 
Q 1241 4863 1831 4863 
L 2375 4863 
z
" transform="scale(0.015625)"/>
       <path id="DejaVuSans-73" d="M 2834 3397 
L 2834 2853 
Q 2591 2978 2328 3040 
Q 2066 3103 1784 3103 
Q 1356 3103 1142 2972 
Q 928 2841 928 2578 
Q 928 2378 1081 2264 
Q 1234 2150 1697 2047 
L 1894 2003 
Q 2506 1872 2764 1633 
Q 3022 1394 3022 966 
Q 3022 478 2636 193 
Q 2250 -91 1575 -91 
Q 1294 -91 989 -36 
Q 684 19 347 128 
L 347 722 
Q 666 556 975 473 
Q 1284 391 1588 391 
Q 1994 391 2212 530 
Q 2431 669 2431 922 
Q 2431 1156 2273 1281 
Q 2116 1406 1581 1522 
L 1381 1569 
Q 847 1681 609 1914 
Q 372 2147 372 2553 
Q 372 3047 722 3315 
Q 1072 3584 1716 3584 
Q 2034 3584 2315 3537 
Q 2597 3491 2834 3397 
z
" transform="scale(0.015625)"/>
       <path id="DejaVuSans-74" d="M 1172 4494 
L 1172 3500 
L 2356 3500 
L 2356 3053 
L 1172 3053 
L 1172 1153 
Q 1172 725 1289 603 
Q 1406 481 1766 481 
L 2356 481 
L 2356 0 
L 1766 0 
Q 1100 0 847 248 
Q 594 497 594 1153 
L 594 3053 
L 172 3053 
L 172 3500 
L 594 3500 
L 594 4494 
L 1172 4494 
z
" transform="scale(0.015625)"/>
       <path id="DejaVuSans-28" d="M 1984 4856 
Q 1566 4138 1362 3434 
Q 1159 2731 1159 2009 
Q 1159 1288 1364 580 
Q 1569 -128 1984 -844 
L 1484 -844 
Q 1016 -109 783 600 
Q 550 1309 550 2009 
Q 550 2706 781 3412 
Q 1013 4119 1484 4856 
L 1984 4856 
z
" transform="scale(0.015625)"/>
       <path id="DejaVuSans-25" d="M 4653 2053 
Q 4381 2053 4226 1822 
Q 4072 1591 4072 1178 
Q 4072 772 4226 539 
Q 4381 306 4653 306 
Q 4919 306 5073 539 
Q 5228 772 5228 1178 
Q 5228 1588 5073 1820 
Q 4919 2053 4653 2053 
z
M 4653 2450 
Q 5147 2450 5437 2106 
Q 5728 1763 5728 1178 
Q 5728 594 5436 251 
Q 5144 -91 4653 -91 
Q 4153 -91 3862 251 
Q 3572 594 3572 1178 
Q 3572 1766 3864 2108 
Q 4156 2450 4653 2450 
z
M 1428 4353 
Q 1159 4353 1004 4120 
Q 850 3888 850 3481 
Q 850 3069 1003 2837 
Q 1156 2606 1428 2606 
Q 1700 2606 1854 2837 
Q 2009 3069 2009 3481 
Q 2009 3884 1853 4118 
Q 1697 4353 1428 4353 
z
M 4250 4750 
L 4750 4750 
L 1831 -91 
L 1331 -91 
L 4250 4750 
z
M 1428 4750 
Q 1922 4750 2215 4408 
Q 2509 4066 2509 3481 
Q 2509 2891 2217 2550 
Q 1925 2209 1428 2209 
Q 931 2209 642 2551 
Q 353 2894 353 3481 
Q 353 4063 643 4406 
Q 934 4750 1428 4750 
z
" transform="scale(0.015625)"/>
       <path id="DejaVuSans-29" d="M 513 4856 
L 1013 4856 
Q 1481 4119 1714 3412 
Q 1947 2706 1947 2009 
Q 1947 1309 1714 600 
Q 1481 -109 1013 -844 
L 513 -844 
Q 928 -128 1133 580 
Q 1338 1288 1338 2009 
Q 1338 2731 1133 3434 
Q 928 4138 513 4856 
z
" transform="scale(0.015625)"/>
      </defs>
      <use xlink:href="#DejaVuSans-50"/>
      <use xlink:href="#DejaVuSans-72" x="58.552734"/>
      <use xlink:href="#DejaVuSans-6f" x="97.416016"/>
      <use xlink:href="#DejaVuSans-62" x="158.597656"/>
      <use xlink:href="#DejaVuSans-65" x="222.074219"/>
      <use xlink:href="#DejaVuSans-20" x="283.597656"/>
      <use xlink:href="#DejaVuSans-54" x="315.384766"/>
      <use xlink:href="#DejaVuSans-69" x="373.34375"/>
      <use xlink:href="#DejaVuSans-6d" x="401.126953"/>
      <use xlink:href="#DejaVuSans-69" x="498.539062"/>
      <use xlink:href="#DejaVuSans-6e" x="526.322266"/>
      <use xlink:href="#DejaVuSans-67" x="589.701172"/>
      <use xlink:href="#DejaVuSans-20" x="653.177734"/>
      <use xlink:href="#DejaVuSans-4f" x="684.964844"/>
      <use xlink:href="#DejaVuSans-66" x="763.675781"/>
      <use xlink:href="#DejaVuSans-66" x="798.880859"/>
      <use xlink:href="#DejaVuSans-73" x="834.085938"/>
      <use xlink:href="#DejaVuSans-65" x="886.185547"/>
      <use xlink:href="#DejaVuSans-74" x="947.708984"/>
      <use xlink:href="#DejaVuSans-20" x="986.917969"/>
      <use xlink:href="#DejaVuSans-28" x="1018.705078"/>
      <use xlink:href="#DejaVuSans-25" x="1057.71875"/>
      <use xlink:href="#DejaVuSans-29" x="1152.738281"/>
     </g>
    </g>
   </g>
   <g id="matplotlib.axis_2">
    <g id="ytick_1">
     <g id="line2d_4">
      <defs>
       <path id="maccbea35c7" d="M 0 0 
L -3.5 0 
" style="stroke: #000000; stroke-width: 0.8"/>
      </defs>
      <g>
       <use xlink:href="#maccbea35c7" x="78.585" y="188.66" style="stroke: #000000; stroke-width: 0.8"/>
      </g>
     </g>
     <g id="text_5">
      <!-- −0.50 -->
      <g transform="translate(34.810625 193.219063)scale(0.12 -0.12)">
       <defs>
        <path id="DejaVuSans-2212" d="M 678 2272 
L 4684 2272 
L 4684 1741 
L 678 1741 
L 678 2272 
z
" transform="scale(0.015625)"/>
        <path id="DejaVuSans-2e" d="M 684 794 
L 1344 794 
L 1344 0 
L 684 0 
L 684 794 
z
" transform="scale(0.015625)"/>
       </defs>
       <use xlink:href="#DejaVuSans-2212"/>
       <use xlink:href="#DejaVuSans-30" x="83.789062"/>
       <use xlink:href="#DejaVuSans-2e" x="147.412109"/>
       <use xlink:href="#DejaVuSans-35" x="179.199219"/>
       <use xlink:href="#DejaVuSans-30" x="242.822266"/>
      </g>
     </g>
    </g>
    <g id="ytick_2">
     <g id="line2d_5">
      <g>
       <use xlink:href="#maccbea35c7" x="78.585" y="160.21" style="stroke: #000000; stroke-width: 0.8"/>
      </g>
     </g>
     <g id="text_6">
      <!-- −0.25 -->
      <g transform="translate(34.810625 164.769062)scale(0.12 -0.12)">
       <defs>
        <path id="DejaVuSans-32" d="M 1228 531 
L 3431 531 
L 3431 0 
L 469 0 
L 469 531 
Q 828 903 1448 1529 
Q 2069 2156 2228 2338 
Q 2531 2678 2651 2914 
Q 2772 3150 2772 3378 
Q 2772 3750 2511 3984 
Q 2250 4219 1831 4219 
Q 1534 4219 1204 4116 
Q 875 4013 500 3803 
L 500 4441 
Q 881 4594 1212 4672 
Q 1544 4750 1819 4750 
Q 2544 4750 2975 4387 
Q 3406 4025 3406 3419 
Q 3406 3131 3298 2873 
Q 3191 2616 2906 2266 
Q 2828 2175 2409 1742 
Q 1991 1309 1228 531 
z
" transform="scale(0.015625)"/>
       </defs>
       <use xlink:href="#DejaVuSans-2212"/>
       <use xlink:href="#DejaVuSans-30" x="83.789062"/>
       <use xlink:href="#DejaVuSans-2e" x="147.412109"/>
       <use xlink:href="#DejaVuSans-32" x="179.199219"/>
       <use xlink:href="#DejaVuSans-35" x="242.822266"/>
      </g>
     </g>
    </g>
    <g id="ytick_3">
     <g id="line2d_6">
      <g>
       <use xlink:href="#maccbea35c7" x="78.585" y="131.76" style="stroke: #000000; stroke-width: 0.8"/>
      </g>
     </g>
     <g id="text_7">
      <!-- 0.00 -->
      <g transform="translate(44.86625 136.319062)scale(0.12 -0.12)">
       <use xlink:href="#DejaVuSans-30"/>
       <use xlink:href="#DejaVuSans-2e" x="63.623047"/>
       <use xlink:href="#DejaVuSans-30" x="95.410156"/>
       <use xlink:href="#DejaVuSans-30" x="159.033203"/>
      </g>
     </g>
    </g>
    <g id="ytick_4">
     <g id="line2d_7">
      <g>
       <use xlink:href="#maccbea35c7" x="78.585" y="103.31" style="stroke: #000000; stroke-width: 0.8"/>
      </g>
     </g>
     <g id="text_8">
      <!-- 0.25 -->
      <g transform="translate(44.86625 107.869063)scale(0.12 -0.12)">
       <use xlink:href="#DejaVuSans-30"/>
       <use xlink:href="#DejaVuSans-2e" x="63.623047"/>
       <use xlink:href="#DejaVuSans-32" x="95.410156"/>
       <use xlink:href="#DejaVuSans-35" x="159.033203"/>
      </g>
     </g>
    </g>
    <g id="ytick_5">
     <g id="line2d_8">
      <g>
       <use xlink:href="#maccbea35c7" x="78.585" y="74.86" style="stroke: #000000; stroke-width: 0.8"/>
      </g>
     </g>
     <g id="text_9">
      <!-- 0.50 -->
      <g transform="translate(44.86625 79.419062)scale(0.12 -0.12)">
       <use xlink:href="#DejaVuSans-30"/>
       <use xlink:href="#DejaVuSans-2e" x="63.623047"/>
       <use xlink:href="#DejaVuSans-35" x="95.410156"/>
       <use xlink:href="#DejaVuSans-30" x="159.033203"/>
      </g>
     </g>
    </g>
    <g id="ytick_6">
     <g id="line2d_9">
      <g>
       <use xlink:href="#maccbea35c7" x="78.585" y="46.41" style="stroke: #000000; stroke-width: 0.8"/>
      </g>
     </g>
     <g id="text_10">
      <!-- 0.75 -->
      <g transform="translate(44.86625 50.969062)scale(0.12 -0.12)">
       <defs>
        <path id="DejaVuSans-37" d="M 525 4666 
L 3525 4666 
L 3525 4397 
L 1831 0 
L 1172 0 
L 2766 4134 
L 525 4134 
L 525 4666 
z
" transform="scale(0.015625)"/>
       </defs>
       <use xlink:href="#DejaVuSans-30"/>
       <use xlink:href="#DejaVuSans-2e" x="63.623047"/>
       <use xlink:href="#DejaVuSans-37" x="95.410156"/>
       <use xlink:href="#DejaVuSans-35" x="159.033203"/>
      </g>
     </g>
    </g>
    <g id="ytick_7">
     <g id="line2d_10">
      <g>
       <use xlink:href="#maccbea35c7" x="78.585" y="17.96" style="stroke: #000000; stroke-width: 0.8"/>
      </g>
     </g>
     <g id="text_11">
      <!-- 1.00 -->
      <g transform="translate(44.86625 22.519062)scale(0.12 -0.12)">
       <use xlink:href="#DejaVuSans-31"/>
       <use xlink:href="#DejaVuSans-2e" x="63.623047"/>
       <use xlink:href="#DejaVuSans-30" x="95.410156"/>
       <use xlink:href="#DejaVuSans-30" x="159.033203"/>
      </g>
     </g>
    </g>
    <g id="text_12">
     <!-- Bias ($C$) Towards "Low" -->
     <g transform="translate(27.483125 202.28)rotate(-90)scale(0.16 -0.16)">
      <defs>
       <path id="DejaVuSans-42" d="M 1259 2228 
L 1259 519 
L 2272 519 
Q 2781 519 3026 730 
Q 3272 941 3272 1375 
Q 3272 1813 3026 2020 
Q 2781 2228 2272 2228 
L 1259 2228 
z
M 1259 4147 
L 1259 2741 
L 2194 2741 
Q 2656 2741 2882 2914 
Q 3109 3088 3109 3444 
Q 3109 3797 2882 3972 
Q 2656 4147 2194 4147 
L 1259 4147 
z
M 628 4666 
L 2241 4666 
Q 2963 4666 3353 4366 
Q 3744 4066 3744 3513 
Q 3744 3084 3544 2831 
Q 3344 2578 2956 2516 
Q 3422 2416 3680 2098 
Q 3938 1781 3938 1306 
Q 3938 681 3513 340 
Q 3088 0 2303 0 
L 628 0 
L 628 4666 
z
" transform="scale(0.015625)"/>
       <path id="DejaVuSans-61" d="M 2194 1759 
Q 1497 1759 1228 1600 
Q 959 1441 959 1056 
Q 959 750 1161 570 
Q 1363 391 1709 391 
Q 2188 391 2477 730 
Q 2766 1069 2766 1631 
L 2766 1759 
L 2194 1759 
z
M 3341 1997 
L 3341 0 
L 2766 0 
L 2766 531 
Q 2569 213 2275 61 
Q 1981 -91 1556 -91 
Q 1019 -91 701 211 
Q 384 513 384 1019 
Q 384 1609 779 1909 
Q 1175 2209 1959 2209 
L 2766 2209 
L 2766 2266 
Q 2766 2663 2505 2880 
Q 2244 3097 1772 3097 
Q 1472 3097 1187 3025 
Q 903 2953 641 2809 
L 641 3341 
Q 956 3463 1253 3523 
Q 1550 3584 1831 3584 
Q 2591 3584 2966 3190 
Q 3341 2797 3341 1997 
z
" transform="scale(0.015625)"/>
       <path id="DejaVuSans-Oblique-43" d="M 4447 4306 
L 4319 3641 
Q 4019 3944 3683 4091 
Q 3347 4238 2956 4238 
Q 2422 4238 2017 3981 
Q 1613 3725 1319 3200 
Q 1131 2863 1032 2486 
Q 934 2109 934 1728 
Q 934 1091 1264 756 
Q 1594 422 2222 422 
Q 2656 422 3056 561 
Q 3456 700 3834 978 
L 3688 231 
Q 3316 72 2936 -9 
Q 2556 -91 2175 -91 
Q 1278 -91 773 396 
Q 269 884 269 1753 
Q 269 2309 461 2846 
Q 653 3384 1013 3828 
Q 1394 4300 1883 4525 
Q 2372 4750 3022 4750 
Q 3422 4750 3780 4639 
Q 4138 4528 4447 4306 
z
" transform="scale(0.015625)"/>
       <path id="DejaVuSans-77" d="M 269 3500 
L 844 3500 
L 1563 769 
L 2278 3500 
L 2956 3500 
L 3675 769 
L 4391 3500 
L 4966 3500 
L 4050 0 
L 3372 0 
L 2619 2869 
L 1863 0 
L 1184 0 
L 269 3500 
z
" transform="scale(0.015625)"/>
       <path id="DejaVuSans-64" d="M 2906 2969 
L 2906 4863 
L 3481 4863 
L 3481 0 
L 2906 0 
L 2906 525 
Q 2725 213 2448 61 
Q 2172 -91 1784 -91 
Q 1150 -91 751 415 
Q 353 922 353 1747 
Q 353 2572 751 3078 
Q 1150 3584 1784 3584 
Q 2172 3584 2448 3432 
Q 2725 3281 2906 2969 
z
M 947 1747 
Q 947 1113 1208 752 
Q 1469 391 1925 391 
Q 2381 391 2643 752 
Q 2906 1113 2906 1747 
Q 2906 2381 2643 2742 
Q 2381 3103 1925 3103 
Q 1469 3103 1208 2742 
Q 947 2381 947 1747 
z
" transform="scale(0.015625)"/>
       <path id="DejaVuSans-22" d="M 1147 4666 
L 1147 2931 
L 616 2931 
L 616 4666 
L 1147 4666 
z
M 2328 4666 
L 2328 2931 
L 1797 2931 
L 1797 4666 
L 2328 4666 
z
" transform="scale(0.015625)"/>
       <path id="DejaVuSans-4c" d="M 628 4666 
L 1259 4666 
L 1259 531 
L 3531 531 
L 3531 0 
L 628 0 
L 628 4666 
z
" transform="scale(0.015625)"/>
      </defs>
      <use xlink:href="#DejaVuSans-42" transform="translate(0 0.015625)"/>
      <use xlink:href="#DejaVuSans-69" transform="translate(68.603516 0.015625)"/>
      <use xlink:href="#DejaVuSans-61" transform="translate(96.386719 0.015625)"/>
      <use xlink:href="#DejaVuSans-73" transform="translate(157.666016 0.015625)"/>
      <use xlink:href="#DejaVuSans-20" transform="translate(209.765625 0.015625)"/>
      <use xlink:href="#DejaVuSans-28" transform="translate(241.552734 0.015625)"/>
      <use xlink:href="#DejaVuSans-Oblique-43" transform="translate(280.566406 0.015625)"/>
      <use xlink:href="#DejaVuSans-29" transform="translate(350.390625 0.015625)"/>
      <use xlink:href="#DejaVuSans-20" transform="translate(389.404297 0.015625)"/>
      <use xlink:href="#DejaVuSans-54" transform="translate(421.191406 0.015625)"/>
      <use xlink:href="#DejaVuSans-6f" transform="translate(482.275391 0.015625)"/>
      <use xlink:href="#DejaVuSans-77" transform="translate(543.457031 0.015625)"/>
      <use xlink:href="#DejaVuSans-61" transform="translate(625.244141 0.015625)"/>
      <use xlink:href="#DejaVuSans-72" transform="translate(686.523438 0.015625)"/>
      <use xlink:href="#DejaVuSans-64" transform="translate(727.636719 0.015625)"/>
      <use xlink:href="#DejaVuSans-73" transform="translate(791.113281 0.015625)"/>
      <use xlink:href="#DejaVuSans-20" transform="translate(843.212891 0.015625)"/>
      <use xlink:href="#DejaVuSans-22" transform="translate(875 0.015625)"/>
      <use xlink:href="#DejaVuSans-4c" transform="translate(920.996094 0.015625)"/>
      <use xlink:href="#DejaVuSans-6f" transform="translate(976.708984 0.015625)"/>
      <use xlink:href="#DejaVuSans-77" transform="translate(1037.890625 0.015625)"/>
      <use xlink:href="#DejaVuSans-22" transform="translate(1119.677734 0.015625)"/>
     </g>
    </g>
   </g>
   <g id="line2d_11">
    <path d="M 78.585 131.76 
L 320.8325 131.76 
" clip-path="url(#pc1f2dbbcca)" style="fill: none; stroke-dasharray: 5.55,2.4; stroke-dashoffset: 0; stroke: #000000; stroke-opacity: 0.5; stroke-width: 1.5"/>
   </g>
   <g id="line2d_12">
    <path d="M 105.837844 137.296231 
L 196.680656 104.268108 
L 287.523469 72.715573 
" clip-path="url(#pc1f2dbbcca)" style="fill: none; stroke: #512d6d; stroke-width: 1.5; stroke-linecap: square"/>
    <defs>
     <path id="m8fca518ad0" d="M 0 3.5 
C 0.928211 3.5 1.81853 3.131218 2.474874 2.474874 
C 3.131218 1.81853 3.5 0.928211 3.5 0 
C 3.5 -0.928211 3.131218 -1.81853 2.474874 -2.474874 
C 1.81853 -3.131218 0.928211 -3.5 0 -3.5 
C -0.928211 -3.5 -1.81853 -3.131218 -2.474874 -2.474874 
C -3.131218 -1.81853 -3.5 -0.928211 -3.5 0 
C -3.5 0.928211 -3.131218 1.81853 -2.474874 2.474874 
C -1.81853 3.131218 -0.928211 3.5 0 3.5 
z
" style="stroke: #ffffff; stroke-width: 0.75"/>
    </defs>
    <g clip-path="url(#pc1f2dbbcca)">
     <use xlink:href="#m8fca518ad0" x="105.837844" y="137.296231" style="fill: #512d6d; stroke: #ffffff; stroke-width: 0.75"/>
     <use xlink:href="#m8fca518ad0" x="196.680656" y="104.268108" style="fill: #512d6d; stroke: #ffffff; stroke-width: 0.75"/>
     <use xlink:href="#m8fca518ad0" x="287.523469" y="72.715573" style="fill: #512d6d; stroke: #ffffff; stroke-width: 0.75"/>
    </g>
   </g>
   <g id="LineCollection_1">
    <path d="M 105.837844 154.018105 
L 105.837844 120.731069 
" clip-path="url(#pc1f2dbbcca)" style="fill: none; stroke: #512d6d; stroke-width: 1.5; stroke-linecap: square"/>
    <path d="M 196.680656 115.93677 
L 196.680656 92.0825 
" clip-path="url(#pc1f2dbbcca)" style="fill: none; stroke: #512d6d; stroke-width: 1.5; stroke-linecap: square"/>
    <path d="M 287.523469 90.616151 
L 287.523469 53.400525 
" clip-path="url(#pc1f2dbbcca)" style="fill: none; stroke: #512d6d; stroke-width: 1.5; stroke-linecap: square"/>
   </g>
   <g id="line2d_13">
    <defs>
     <path id="m6ef96d57d8" d="M 3 0 
L -3 -0 
" style="stroke: #512d6d; stroke-width: 1.5"/>
    </defs>
    <g clip-path="url(#pc1f2dbbcca)">
     <use xlink:href="#m6ef96d57d8" x="105.837844" y="154.018105" style="fill: #512d6d; stroke: #512d6d; stroke-width: 1.5"/>
     <use xlink:href="#m6ef96d57d8" x="196.680656" y="115.93677" style="fill: #512d6d; stroke: #512d6d; stroke-width: 1.5"/>
     <use xlink:href="#m6ef96d57d8" x="287.523469" y="90.616151" style="fill: #512d6d; stroke: #512d6d; stroke-width: 1.5"/>
    </g>
   </g>
   <g id="line2d_14">
    <g clip-path="url(#pc1f2dbbcca)">
     <use xlink:href="#m6ef96d57d8" x="105.837844" y="120.731069" style="fill: #512d6d; stroke: #512d6d; stroke-width: 1.5"/>
     <use xlink:href="#m6ef96d57d8" x="196.680656" y="92.0825" style="fill: #512d6d; stroke: #512d6d; stroke-width: 1.5"/>
     <use xlink:href="#m6ef96d57d8" x="287.523469" y="53.400525" style="fill: #512d6d; stroke: #512d6d; stroke-width: 1.5"/>
    </g>
   </g>
   <g id="line2d_15">
    <path d="M 111.894031 159.27727 
L 202.736844 133.309105 
L 293.579656 100.425171 
" clip-path="url(#pc1f2dbbcca)" style="fill: none; stroke: #f8485e; stroke-width: 1.5; stroke-linecap: square"/>
    <defs>
     <path id="m6f217d0c2c" d="M 0 3.5 
C 0.928211 3.5 1.81853 3.131218 2.474874 2.474874 
C 3.131218 1.81853 3.5 0.928211 3.5 0 
C 3.5 -0.928211 3.131218 -1.81853 2.474874 -2.474874 
C 1.81853 -3.131218 0.928211 -3.5 0 -3.5 
C -0.928211 -3.5 -1.81853 -3.131218 -2.474874 -2.474874 
C -3.131218 -1.81853 -3.5 -0.928211 -3.5 0 
C -3.5 0.928211 -3.131218 1.81853 -2.474874 2.474874 
C -1.81853 3.131218 -0.928211 3.5 0 3.5 
z
" style="stroke: #ffffff; stroke-width: 0.75"/>
    </defs>
    <g clip-path="url(#pc1f2dbbcca)">
     <use xlink:href="#m6f217d0c2c" x="111.894031" y="159.27727" style="fill: #f8485e; stroke: #ffffff; stroke-width: 0.75"/>
     <use xlink:href="#m6f217d0c2c" x="202.736844" y="133.309105" style="fill: #f8485e; stroke: #ffffff; stroke-width: 0.75"/>
     <use xlink:href="#m6f217d0c2c" x="293.579656" y="100.425171" style="fill: #f8485e; stroke: #ffffff; stroke-width: 0.75"/>
    </g>
   </g>
   <g id="LineCollection_2">
    <path d="M 111.894031 177.776021 
L 111.894031 142.713051 
" clip-path="url(#pc1f2dbbcca)" style="fill: none; stroke: #f8485e; stroke-width: 1.5; stroke-linecap: square"/>
    <path d="M 202.736844 144.500609 
L 202.736844 121.08736 
" clip-path="url(#pc1f2dbbcca)" style="fill: none; stroke: #f8485e; stroke-width: 1.5; stroke-linecap: square"/>
    <path d="M 293.579656 115.879199 
L 293.579656 81.586933 
" clip-path="url(#pc1f2dbbcca)" style="fill: none; stroke: #f8485e; stroke-width: 1.5; stroke-linecap: square"/>
   </g>
   <g id="line2d_16">
    <defs>
     <path id="m054d938681" d="M 3 0 
L -3 -0 
" style="stroke: #f8485e; stroke-width: 1.5"/>
    </defs>
    <g clip-path="url(#pc1f2dbbcca)">
     <use xlink:href="#m054d938681" x="111.894031" y="177.776021" style="fill: #f8485e; stroke: #f8485e; stroke-width: 1.5"/>
     <use xlink:href="#m054d938681" x="202.736844" y="144.500609" style="fill: #f8485e; stroke: #f8485e; stroke-width: 1.5"/>
     <use xlink:href="#m054d938681" x="293.579656" y="115.879199" style="fill: #f8485e; stroke: #f8485e; stroke-width: 1.5"/>
    </g>
   </g>
   <g id="line2d_17">
    <g clip-path="url(#pc1f2dbbcca)">
     <use xlink:href="#m054d938681" x="111.894031" y="142.713051" style="fill: #f8485e; stroke: #f8485e; stroke-width: 1.5"/>
     <use xlink:href="#m054d938681" x="202.736844" y="121.08736" style="fill: #f8485e; stroke: #f8485e; stroke-width: 1.5"/>
     <use xlink:href="#m054d938681" x="293.579656" y="81.586933" style="fill: #f8485e; stroke: #f8485e; stroke-width: 1.5"/>
    </g>
   </g>
   <g id="line2d_18"/>
   <g id="line2d_19"/>
   <g id="patch_3">
    <path d="M 78.585 200.04 
L 78.585 17.96 
" style="fill: none; stroke: #000000; stroke-width: 0.8; stroke-linejoin: miter; stroke-linecap: square"/>
   </g>
   <g id="patch_4">
    <path d="M 78.585 200.04 
L 320.8325 200.04 
" style="fill: none; stroke: #000000; stroke-width: 0.8; stroke-linejoin: miter; stroke-linecap: square"/>
   </g>
   <g id="legend_1">
    <g id="patch_5">
     <path d="M 86.985 62.7875 
L 196.4475 62.7875 
Q 198.8475 62.7875 198.8475 60.3875 
L 198.8475 26.36 
Q 198.8475 23.96 196.4475 23.96 
L 86.985 23.96 
Q 84.585 23.96 84.585 26.36 
L 84.585 60.3875 
Q 84.585 62.7875 86.985 62.7875 
z
" style="fill: #ffffff; opacity: 0.8; stroke: #cccccc; stroke-linejoin: miter"/>
    </g>
    <g id="line2d_20">
     <path d="M 89.385 33.678125 
L 101.385 33.678125 
L 113.385 33.678125 
" style="fill: none; stroke: #512d6d; stroke-width: 1.5; stroke-linecap: square"/>
     <g>
      <use xlink:href="#m8fca518ad0" x="101.385" y="33.678125" style="fill: #512d6d; stroke: #ffffff; stroke-width: 0.75"/>
     </g>
    </g>
    <g id="text_13">
     <!-- A3 (220 Hz) -->
     <g transform="translate(122.985 37.878125)scale(0.12 -0.12)">
      <defs>
       <path id="DejaVuSans-41" d="M 2188 4044 
L 1331 1722 
L 3047 1722 
L 2188 4044 
z
M 1831 4666 
L 2547 4666 
L 4325 0 
L 3669 0 
L 3244 1197 
L 1141 1197 
L 716 0 
L 50 0 
L 1831 4666 
z
" transform="scale(0.015625)"/>
       <path id="DejaVuSans-33" d="M 2597 2516 
Q 3050 2419 3304 2112 
Q 3559 1806 3559 1356 
Q 3559 666 3084 287 
Q 2609 -91 1734 -91 
Q 1441 -91 1130 -33 
Q 819 25 488 141 
L 488 750 
Q 750 597 1062 519 
Q 1375 441 1716 441 
Q 2309 441 2620 675 
Q 2931 909 2931 1356 
Q 2931 1769 2642 2001 
Q 2353 2234 1838 2234 
L 1294 2234 
L 1294 2753 
L 1863 2753 
Q 2328 2753 2575 2939 
Q 2822 3125 2822 3475 
Q 2822 3834 2567 4026 
Q 2313 4219 1838 4219 
Q 1578 4219 1281 4162 
Q 984 4106 628 3988 
L 628 4550 
Q 988 4650 1302 4700 
Q 1616 4750 1894 4750 
Q 2613 4750 3031 4423 
Q 3450 4097 3450 3541 
Q 3450 3153 3228 2886 
Q 3006 2619 2597 2516 
z
" transform="scale(0.015625)"/>
       <path id="DejaVuSans-48" d="M 628 4666 
L 1259 4666 
L 1259 2753 
L 3553 2753 
L 3553 4666 
L 4184 4666 
L 4184 0 
L 3553 0 
L 3553 2222 
L 1259 2222 
L 1259 0 
L 628 0 
L 628 4666 
z
" transform="scale(0.015625)"/>
       <path id="DejaVuSans-7a" d="M 353 3500 
L 3084 3500 
L 3084 2975 
L 922 459 
L 3084 459 
L 3084 0 
L 275 0 
L 275 525 
L 2438 3041 
L 353 3041 
L 353 3500 
z
" transform="scale(0.015625)"/>
      </defs>
      <use xlink:href="#DejaVuSans-41"/>
      <use xlink:href="#DejaVuSans-33" x="68.408203"/>
      <use xlink:href="#DejaVuSans-20" x="132.03125"/>
      <use xlink:href="#DejaVuSans-28" x="163.818359"/>
      <use xlink:href="#DejaVuSans-32" x="202.832031"/>
      <use xlink:href="#DejaVuSans-32" x="266.455078"/>
      <use xlink:href="#DejaVuSans-30" x="330.078125"/>
      <use xlink:href="#DejaVuSans-20" x="393.701172"/>
      <use xlink:href="#DejaVuSans-48" x="425.488281"/>
      <use xlink:href="#DejaVuSans-7a" x="500.683594"/>
      <use xlink:href="#DejaVuSans-29" x="553.173828"/>
     </g>
    </g>
    <g id="line2d_21">
     <path d="M 89.385 51.291875 
L 101.385 51.291875 
L 113.385 51.291875 
" style="fill: none; stroke: #f8485e; stroke-width: 1.5; stroke-linecap: square"/>
     <g>
      <use xlink:href="#m6f217d0c2c" x="101.385" y="51.291875" style="fill: #f8485e; stroke: #ffffff; stroke-width: 0.75"/>
     </g>
    </g>
    <g id="text_14">
     <!-- A5 (880 Hz) -->
     <g transform="translate(122.985 55.491875)scale(0.12 -0.12)">
      <defs>
       <path id="DejaVuSans-38" d="M 2034 2216 
Q 1584 2216 1326 1975 
Q 1069 1734 1069 1313 
Q 1069 891 1326 650 
Q 1584 409 2034 409 
Q 2484 409 2743 651 
Q 3003 894 3003 1313 
Q 3003 1734 2745 1975 
Q 2488 2216 2034 2216 
z
M 1403 2484 
Q 997 2584 770 2862 
Q 544 3141 544 3541 
Q 544 4100 942 4425 
Q 1341 4750 2034 4750 
Q 2731 4750 3128 4425 
Q 3525 4100 3525 3541 
Q 3525 3141 3298 2862 
Q 3072 2584 2669 2484 
Q 3125 2378 3379 2068 
Q 3634 1759 3634 1313 
Q 3634 634 3220 271 
Q 2806 -91 2034 -91 
Q 1263 -91 848 271 
Q 434 634 434 1313 
Q 434 1759 690 2068 
Q 947 2378 1403 2484 
z
M 1172 3481 
Q 1172 3119 1398 2916 
Q 1625 2713 2034 2713 
Q 2441 2713 2670 2916 
Q 2900 3119 2900 3481 
Q 2900 3844 2670 4047 
Q 2441 4250 2034 4250 
Q 1625 4250 1398 4047 
Q 1172 3844 1172 3481 
z
" transform="scale(0.015625)"/>
      </defs>
      <use xlink:href="#DejaVuSans-41"/>
      <use xlink:href="#DejaVuSans-35" x="68.408203"/>
      <use xlink:href="#DejaVuSans-20" x="132.03125"/>
      <use xlink:href="#DejaVuSans-28" x="163.818359"/>
      <use xlink:href="#DejaVuSans-38" x="202.832031"/>
      <use xlink:href="#DejaVuSans-38" x="266.455078"/>
      <use xlink:href="#DejaVuSans-30" x="330.078125"/>
      <use xlink:href="#DejaVuSans-20" x="393.701172"/>
      <use xlink:href="#DejaVuSans-48" x="425.488281"/>
      <use xlink:href="#DejaVuSans-7a" x="500.683594"/>
      <use xlink:href="#DejaVuSans-29" x="553.173828"/>
     </g>
    </g>
   </g>
  </g>
  <g id="axes_2">
   <g id="patch_6">
    <path d="M 392.7925 200.04 
L 635.04 200.04 
L 635.04 17.96 
L 392.7925 17.96 
z
" style="fill: #ffffff"/>
   </g>
   <g id="matplotlib.axis_3">
    <g id="xtick_4">
     <g id="line2d_22">
      <g>
       <use xlink:href="#m8fb9773695" x="423.073438" y="200.04" style="stroke: #000000; stroke-width: 0.8"/>
      </g>
     </g>
     <g id="text_15">
      <!-- -15 -->
      <g transform="translate(413.27375 216.158125)scale(0.12 -0.12)">
       <use xlink:href="#DejaVuSans-2d"/>
       <use xlink:href="#DejaVuSans-31" x="36.083984"/>
       <use xlink:href="#DejaVuSans-35" x="99.707031"/>
      </g>
     </g>
    </g>
    <g id="xtick_5">
     <g id="line2d_23">
      <g>
       <use xlink:href="#m8fb9773695" x="513.91625" y="200.04" style="stroke: #000000; stroke-width: 0.8"/>
      </g>
     </g>
     <g id="text_16">
      <!-- 0 -->
      <g transform="translate(510.09875 216.158125)scale(0.12 -0.12)">
       <use xlink:href="#DejaVuSans-30"/>
      </g>
     </g>
    </g>
    <g id="xtick_6">
     <g id="line2d_24">
      <g>
       <use xlink:href="#m8fb9773695" x="604.759063" y="200.04" style="stroke: #000000; stroke-width: 0.8"/>
      </g>
     </g>
     <g id="text_17">
      <!-- +15 -->
      <g transform="translate(592.09625 216.158125)scale(0.12 -0.12)">
       <use xlink:href="#DejaVuSans-2b"/>
       <use xlink:href="#DejaVuSans-31" x="83.789062"/>
       <use xlink:href="#DejaVuSans-35" x="147.412109"/>
      </g>
     </g>
    </g>
    <g id="text_18">
     <!-- Probe Timing Offset (%) -->
     <g transform="translate(418.5775 234.81125)scale(0.16 -0.16)">
      <use xlink:href="#DejaVuSans-50"/>
      <use xlink:href="#DejaVuSans-72" x="58.552734"/>
      <use xlink:href="#DejaVuSans-6f" x="97.416016"/>
      <use xlink:href="#DejaVuSans-62" x="158.597656"/>
      <use xlink:href="#DejaVuSans-65" x="222.074219"/>
      <use xlink:href="#DejaVuSans-20" x="283.597656"/>
      <use xlink:href="#DejaVuSans-54" x="315.384766"/>
      <use xlink:href="#DejaVuSans-69" x="373.34375"/>
      <use xlink:href="#DejaVuSans-6d" x="401.126953"/>
      <use xlink:href="#DejaVuSans-69" x="498.539062"/>
      <use xlink:href="#DejaVuSans-6e" x="526.322266"/>
      <use xlink:href="#DejaVuSans-67" x="589.701172"/>
      <use xlink:href="#DejaVuSans-20" x="653.177734"/>
      <use xlink:href="#DejaVuSans-4f" x="684.964844"/>
      <use xlink:href="#DejaVuSans-66" x="763.675781"/>
      <use xlink:href="#DejaVuSans-66" x="798.880859"/>
      <use xlink:href="#DejaVuSans-73" x="834.085938"/>
      <use xlink:href="#DejaVuSans-65" x="886.185547"/>
      <use xlink:href="#DejaVuSans-74" x="947.708984"/>
      <use xlink:href="#DejaVuSans-20" x="986.917969"/>
      <use xlink:href="#DejaVuSans-28" x="1018.705078"/>
      <use xlink:href="#DejaVuSans-25" x="1057.71875"/>
      <use xlink:href="#DejaVuSans-29" x="1152.738281"/>
     </g>
    </g>
   </g>
   <g id="matplotlib.axis_4">
    <g id="ytick_8">
     <g id="line2d_25">
      <g>
       <use xlink:href="#maccbea35c7" x="392.7925" y="200.04" style="stroke: #000000; stroke-width: 0.8"/>
      </g>
     </g>
     <g id="text_19">
      <!-- −0.5 -->
      <g transform="translate(356.653125 204.599062)scale(0.12 -0.12)">
       <use xlink:href="#DejaVuSans-2212"/>
       <use xlink:href="#DejaVuSans-30" x="83.789062"/>
       <use xlink:href="#DejaVuSans-2e" x="147.412109"/>
       <use xlink:href="#DejaVuSans-35" x="179.199219"/>
      </g>
     </g>
    </g>
    <g id="ytick_9">
     <g id="line2d_26">
      <g>
       <use xlink:href="#maccbea35c7" x="392.7925" y="174.028571" style="stroke: #000000; stroke-width: 0.8"/>
      </g>
     </g>
     <g id="text_20">
      <!-- 0.0 -->
      <g transform="translate(366.70875 178.587634)scale(0.12 -0.12)">
       <use xlink:href="#DejaVuSans-30"/>
       <use xlink:href="#DejaVuSans-2e" x="63.623047"/>
       <use xlink:href="#DejaVuSans-30" x="95.410156"/>
      </g>
     </g>
    </g>
    <g id="ytick_10">
     <g id="line2d_27">
      <g>
       <use xlink:href="#maccbea35c7" x="392.7925" y="148.017143" style="stroke: #000000; stroke-width: 0.8"/>
      </g>
     </g>
     <g id="text_21">
      <!-- 0.5 -->
      <g transform="translate(366.70875 152.576205)scale(0.12 -0.12)">
       <use xlink:href="#DejaVuSans-30"/>
       <use xlink:href="#DejaVuSans-2e" x="63.623047"/>
       <use xlink:href="#DejaVuSans-35" x="95.410156"/>
      </g>
     </g>
    </g>
    <g id="ytick_11">
     <g id="line2d_28">
      <g>
       <use xlink:href="#maccbea35c7" x="392.7925" y="122.005714" style="stroke: #000000; stroke-width: 0.8"/>
      </g>
     </g>
     <g id="text_22">
      <!-- 1.0 -->
      <g transform="translate(366.70875 126.564777)scale(0.12 -0.12)">
       <use xlink:href="#DejaVuSans-31"/>
       <use xlink:href="#DejaVuSans-2e" x="63.623047"/>
       <use xlink:href="#DejaVuSans-30" x="95.410156"/>
      </g>
     </g>
    </g>
    <g id="ytick_12">
     <g id="line2d_29">
      <g>
       <use xlink:href="#maccbea35c7" x="392.7925" y="95.994286" style="stroke: #000000; stroke-width: 0.8"/>
      </g>
     </g>
     <g id="text_23">
      <!-- 1.5 -->
      <g transform="translate(366.70875 100.553348)scale(0.12 -0.12)">
       <use xlink:href="#DejaVuSans-31"/>
       <use xlink:href="#DejaVuSans-2e" x="63.623047"/>
       <use xlink:href="#DejaVuSans-35" x="95.410156"/>
      </g>
     </g>
    </g>
    <g id="ytick_13">
     <g id="line2d_30">
      <g>
       <use xlink:href="#maccbea35c7" x="392.7925" y="69.982857" style="stroke: #000000; stroke-width: 0.8"/>
      </g>
     </g>
     <g id="text_24">
      <!-- 2.0 -->
      <g transform="translate(366.70875 74.54192)scale(0.12 -0.12)">
       <use xlink:href="#DejaVuSans-32"/>
       <use xlink:href="#DejaVuSans-2e" x="63.623047"/>
       <use xlink:href="#DejaVuSans-30" x="95.410156"/>
      </g>
     </g>
    </g>
    <g id="ytick_14">
     <g id="line2d_31">
      <g>
       <use xlink:href="#maccbea35c7" x="392.7925" y="43.971429" style="stroke: #000000; stroke-width: 0.8"/>
      </g>
     </g>
     <g id="text_25">
      <!-- 2.5 -->
      <g transform="translate(366.70875 48.530491)scale(0.12 -0.12)">
       <use xlink:href="#DejaVuSans-32"/>
       <use xlink:href="#DejaVuSans-2e" x="63.623047"/>
       <use xlink:href="#DejaVuSans-35" x="95.410156"/>
      </g>
     </g>
    </g>
    <g id="ytick_15">
     <g id="line2d_32">
      <g>
       <use xlink:href="#maccbea35c7" x="392.7925" y="17.96" style="stroke: #000000; stroke-width: 0.8"/>
      </g>
     </g>
     <g id="text_26">
      <!-- 3.0 -->
      <g transform="translate(366.70875 22.519062)scale(0.12 -0.12)">
       <use xlink:href="#DejaVuSans-33"/>
       <use xlink:href="#DejaVuSans-2e" x="63.623047"/>
       <use xlink:href="#DejaVuSans-30" x="95.410156"/>
      </g>
     </g>
    </g>
    <g id="text_27">
     <!-- Sensitivity ($d\prime$) -->
     <g transform="translate(349.293125 166.76)rotate(-90)scale(0.16 -0.16)">
      <defs>
       <path id="DejaVuSans-53" d="M 3425 4513 
L 3425 3897 
Q 3066 4069 2747 4153 
Q 2428 4238 2131 4238 
Q 1616 4238 1336 4038 
Q 1056 3838 1056 3469 
Q 1056 3159 1242 3001 
Q 1428 2844 1947 2747 
L 2328 2669 
Q 3034 2534 3370 2195 
Q 3706 1856 3706 1288 
Q 3706 609 3251 259 
Q 2797 -91 1919 -91 
Q 1588 -91 1214 -16 
Q 841 59 441 206 
L 441 856 
Q 825 641 1194 531 
Q 1563 422 1919 422 
Q 2459 422 2753 634 
Q 3047 847 3047 1241 
Q 3047 1584 2836 1778 
Q 2625 1972 2144 2069 
L 1759 2144 
Q 1053 2284 737 2584 
Q 422 2884 422 3419 
Q 422 4038 858 4394 
Q 1294 4750 2059 4750 
Q 2388 4750 2728 4690 
Q 3069 4631 3425 4513 
z
" transform="scale(0.015625)"/>
       <path id="DejaVuSans-76" d="M 191 3500 
L 800 3500 
L 1894 563 
L 2988 3500 
L 3597 3500 
L 2284 0 
L 1503 0 
L 191 3500 
z
" transform="scale(0.015625)"/>
       <path id="DejaVuSans-79" d="M 2059 -325 
Q 1816 -950 1584 -1140 
Q 1353 -1331 966 -1331 
L 506 -1331 
L 506 -850 
L 844 -850 
Q 1081 -850 1212 -737 
Q 1344 -625 1503 -206 
L 1606 56 
L 191 3500 
L 800 3500 
L 1894 763 
L 2988 3500 
L 3597 3500 
L 2059 -325 
z
" transform="scale(0.015625)"/>
       <path id="DejaVuSans-Oblique-64" d="M 2675 525 
Q 2444 222 2128 65 
Q 1813 -91 1428 -91 
Q 903 -91 598 267 
Q 294 625 294 1247 
Q 294 1766 478 2236 
Q 663 2706 1013 3078 
Q 1244 3325 1534 3454 
Q 1825 3584 2144 3584 
Q 2481 3584 2739 3421 
Q 2997 3259 3138 2956 
L 3513 4863 
L 4091 4863 
L 3144 0 
L 2566 0 
L 2675 525 
z
M 891 1350 
Q 891 897 1095 644 
Q 1300 391 1663 391 
Q 1931 391 2161 520 
Q 2391 650 2566 903 
Q 2750 1166 2856 1509 
Q 2963 1853 2963 2188 
Q 2963 2622 2758 2865 
Q 2553 3109 2194 3109 
Q 1922 3109 1687 2981 
Q 1453 2853 1288 2613 
Q 1106 2353 998 2009 
Q 891 1666 891 1350 
z
" transform="scale(0.015625)"/>
       <path id="Cmsy10-30" d="M 225 347 
Q 184 359 184 409 
L 966 3316 
Q 1003 3434 1093 3506 
Q 1184 3578 1300 3578 
Q 1450 3578 1564 3479 
Q 1678 3381 1678 3231 
Q 1678 3166 1644 3084 
L 488 319 
Q 466 275 428 275 
Q 394 275 320 306 
Q 247 338 225 347 
z
" transform="scale(0.015625)"/>
      </defs>
      <use xlink:href="#DejaVuSans-53" transform="translate(0 0.015625)"/>
      <use xlink:href="#DejaVuSans-65" transform="translate(63.476562 0.015625)"/>
      <use xlink:href="#DejaVuSans-6e" transform="translate(125 0.015625)"/>
      <use xlink:href="#DejaVuSans-73" transform="translate(188.378906 0.015625)"/>
      <use xlink:href="#DejaVuSans-69" transform="translate(240.478516 0.015625)"/>
      <use xlink:href="#DejaVuSans-74" transform="translate(268.261719 0.015625)"/>
      <use xlink:href="#DejaVuSans-69" transform="translate(307.470703 0.015625)"/>
      <use xlink:href="#DejaVuSans-76" transform="translate(335.253906 0.015625)"/>
      <use xlink:href="#DejaVuSans-69" transform="translate(394.433594 0.015625)"/>
      <use xlink:href="#DejaVuSans-74" transform="translate(422.216797 0.015625)"/>
      <use xlink:href="#DejaVuSans-79" transform="translate(461.425781 0.015625)"/>
      <use xlink:href="#DejaVuSans-20" transform="translate(520.605469 0.015625)"/>
      <use xlink:href="#DejaVuSans-28" transform="translate(552.392578 0.015625)"/>
      <use xlink:href="#DejaVuSans-Oblique-64" transform="translate(591.40625 0.015625)"/>
      <use xlink:href="#Cmsy10-30" transform="translate(654.882812 0.015625)"/>
      <use xlink:href="#DejaVuSans-29" transform="translate(682.373047 0.015625)"/>
     </g>
    </g>
   </g>
   <g id="line2d_33">
    <path d="M 392.7925 174.028571 
L 635.04 174.028571 
" clip-path="url(#pa4ce7cc004)" style="fill: none; stroke-dasharray: 5.55,2.4; stroke-dashoffset: 0; stroke: #000000; stroke-opacity: 0.5; stroke-width: 1.5"/>
   </g>
   <g id="line2d_34">
    <path d="M 426.101531 93.419407 
L 516.944344 98.506091 
L 607.787156 92.758584 
" clip-path="url(#pa4ce7cc004)" style="fill: none; stroke: #512d6d; stroke-width: 1.5; stroke-linecap: square"/>
    <g clip-path="url(#pa4ce7cc004)">
     <use xlink:href="#m8fca518ad0" x="426.101531" y="93.419407" style="fill: #512d6d; stroke: #ffffff; stroke-width: 0.75"/>
     <use xlink:href="#m8fca518ad0" x="516.944344" y="98.506091" style="fill: #512d6d; stroke: #ffffff; stroke-width: 0.75"/>
     <use xlink:href="#m8fca518ad0" x="607.787156" y="92.758584" style="fill: #512d6d; stroke: #ffffff; stroke-width: 0.75"/>
    </g>
   </g>
   <g id="LineCollection_3">
    <path d="M 426.101531 103.375393 
L 426.101531 83.006616 
" clip-path="url(#pa4ce7cc004)" style="fill: none; stroke: #512d6d; stroke-width: 1.5; stroke-linecap: square"/>
    <path d="M 516.944344 106.214275 
L 516.944344 90.014604 
" clip-path="url(#pa4ce7cc004)" style="fill: none; stroke: #512d6d; stroke-width: 1.5; stroke-linecap: square"/>
    <path d="M 607.787156 102.429352 
L 607.787156 82.995294 
" clip-path="url(#pa4ce7cc004)" style="fill: none; stroke: #512d6d; stroke-width: 1.5; stroke-linecap: square"/>
   </g>
   <g id="line2d_35">
    <g clip-path="url(#pa4ce7cc004)">
     <use xlink:href="#m6ef96d57d8" x="426.101531" y="103.375393" style="fill: #512d6d; stroke: #512d6d; stroke-width: 1.5"/>
     <use xlink:href="#m6ef96d57d8" x="516.944344" y="106.214275" style="fill: #512d6d; stroke: #512d6d; stroke-width: 1.5"/>
     <use xlink:href="#m6ef96d57d8" x="607.787156" y="102.429352" style="fill: #512d6d; stroke: #512d6d; stroke-width: 1.5"/>
    </g>
   </g>
   <g id="line2d_36">
    <g clip-path="url(#pa4ce7cc004)">
     <use xlink:href="#m6ef96d57d8" x="426.101531" y="83.006616" style="fill: #512d6d; stroke: #512d6d; stroke-width: 1.5"/>
     <use xlink:href="#m6ef96d57d8" x="516.944344" y="90.014604" style="fill: #512d6d; stroke: #512d6d; stroke-width: 1.5"/>
     <use xlink:href="#m6ef96d57d8" x="607.787156" y="82.995294" style="fill: #512d6d; stroke: #512d6d; stroke-width: 1.5"/>
    </g>
   </g>
   <g id="line2d_37">
    <path d="M 420.045344 88.852627 
L 510.888156 88.95903 
L 601.730969 89.560823 
" clip-path="url(#pa4ce7cc004)" style="fill: none; stroke: #f8485e; stroke-width: 1.5; stroke-linecap: square"/>
    <g clip-path="url(#pa4ce7cc004)">
     <use xlink:href="#m6f217d0c2c" x="420.045344" y="88.852627" style="fill: #f8485e; stroke: #ffffff; stroke-width: 0.75"/>
     <use xlink:href="#m6f217d0c2c" x="510.888156" y="88.95903" style="fill: #f8485e; stroke: #ffffff; stroke-width: 0.75"/>
     <use xlink:href="#m6f217d0c2c" x="601.730969" y="89.560823" style="fill: #f8485e; stroke: #ffffff; stroke-width: 0.75"/>
    </g>
   </g>
   <g id="LineCollection_4">
    <path d="M 420.045344 99.485512 
L 420.045344 77.808664 
" clip-path="url(#pa4ce7cc004)" style="fill: none; stroke: #f8485e; stroke-width: 1.5; stroke-linecap: square"/>
    <path d="M 510.888156 98.108774 
L 510.888156 79.852354 
" clip-path="url(#pa4ce7cc004)" style="fill: none; stroke: #f8485e; stroke-width: 1.5; stroke-linecap: square"/>
    <path d="M 601.730969 97.20384 
L 601.730969 81.935496 
" clip-path="url(#pa4ce7cc004)" style="fill: none; stroke: #f8485e; stroke-width: 1.5; stroke-linecap: square"/>
   </g>
   <g id="line2d_38">
    <g clip-path="url(#pa4ce7cc004)">
     <use xlink:href="#m054d938681" x="420.045344" y="99.485512" style="fill: #f8485e; stroke: #f8485e; stroke-width: 1.5"/>
     <use xlink:href="#m054d938681" x="510.888156" y="98.108774" style="fill: #f8485e; stroke: #f8485e; stroke-width: 1.5"/>
     <use xlink:href="#m054d938681" x="601.730969" y="97.20384" style="fill: #f8485e; stroke: #f8485e; stroke-width: 1.5"/>
    </g>
   </g>
   <g id="line2d_39">
    <g clip-path="url(#pa4ce7cc004)">
     <use xlink:href="#m054d938681" x="420.045344" y="77.808664" style="fill: #f8485e; stroke: #f8485e; stroke-width: 1.5"/>
     <use xlink:href="#m054d938681" x="510.888156" y="79.852354" style="fill: #f8485e; stroke: #f8485e; stroke-width: 1.5"/>
     <use xlink:href="#m054d938681" x="601.730969" y="81.935496" style="fill: #f8485e; stroke: #f8485e; stroke-width: 1.5"/>
    </g>
   </g>
   <g id="line2d_40"/>
   <g id="line2d_41"/>
   <g id="patch_7">
    <path d="M 392.7925 200.04 
L 392.7925 17.96 
" style="fill: none; stroke: #000000; stroke-width: 0.8; stroke-linejoin: miter; stroke-linecap: square"/>
   </g>
   <g id="patch_8">
    <path d="M 392.7925 200.04 
L 635.04 200.04 
" style="fill: none; stroke: #000000; stroke-width: 0.8; stroke-linejoin: miter; stroke-linecap: square"/>
   </g>
   <g id="legend_2">
    <g id="patch_9">
     <path d="M 517.1775 62.7875 
L 626.64 62.7875 
Q 629.04 62.7875 629.04 60.3875 
L 629.04 26.36 
Q 629.04 23.96 626.64 23.96 
L 517.1775 23.96 
Q 514.7775 23.96 514.7775 26.36 
L 514.7775 60.3875 
Q 514.7775 62.7875 517.1775 62.7875 
z
" style="fill: #ffffff; opacity: 0.8; stroke: #cccccc; stroke-linejoin: miter"/>
    </g>
    <g id="line2d_42">
     <path d="M 519.5775 33.678125 
L 531.5775 33.678125 
L 543.5775 33.678125 
" style="fill: none; stroke: #512d6d; stroke-width: 1.5; stroke-linecap: square"/>
     <g>
      <use xlink:href="#m8fca518ad0" x="531.5775" y="33.678125" style="fill: #512d6d; stroke: #ffffff; stroke-width: 0.75"/>
     </g>
    </g>
    <g id="text_28">
     <!-- A3 (220 Hz) -->
     <g transform="translate(553.1775 37.878125)scale(0.12 -0.12)">
      <use xlink:href="#DejaVuSans-41"/>
      <use xlink:href="#DejaVuSans-33" x="68.408203"/>
      <use xlink:href="#DejaVuSans-20" x="132.03125"/>
      <use xlink:href="#DejaVuSans-28" x="163.818359"/>
      <use xlink:href="#DejaVuSans-32" x="202.832031"/>
      <use xlink:href="#DejaVuSans-32" x="266.455078"/>
      <use xlink:href="#DejaVuSans-30" x="330.078125"/>
      <use xlink:href="#DejaVuSans-20" x="393.701172"/>
      <use xlink:href="#DejaVuSans-48" x="425.488281"/>
      <use xlink:href="#DejaVuSans-7a" x="500.683594"/>
      <use xlink:href="#DejaVuSans-29" x="553.173828"/>
     </g>
    </g>
    <g id="line2d_43">
     <path d="M 519.5775 51.291875 
L 531.5775 51.291875 
L 543.5775 51.291875 
" style="fill: none; stroke: #f8485e; stroke-width: 1.5; stroke-linecap: square"/>
     <g>
      <use xlink:href="#m6f217d0c2c" x="531.5775" y="51.291875" style="fill: #f8485e; stroke: #ffffff; stroke-width: 0.75"/>
     </g>
    </g>
    <g id="text_29">
     <!-- A5 (880 Hz) -->
     <g transform="translate(553.1775 55.491875)scale(0.12 -0.12)">
      <use xlink:href="#DejaVuSans-41"/>
      <use xlink:href="#DejaVuSans-35" x="68.408203"/>
      <use xlink:href="#DejaVuSans-20" x="132.03125"/>
      <use xlink:href="#DejaVuSans-28" x="163.818359"/>
      <use xlink:href="#DejaVuSans-38" x="202.832031"/>
      <use xlink:href="#DejaVuSans-38" x="266.455078"/>
      <use xlink:href="#DejaVuSans-30" x="330.078125"/>
      <use xlink:href="#DejaVuSans-20" x="393.701172"/>
      <use xlink:href="#DejaVuSans-48" x="425.488281"/>
      <use xlink:href="#DejaVuSans-7a" x="500.683594"/>
      <use xlink:href="#DejaVuSans-29" x="553.173828"/>
     </g>
    </g>
   </g>
  </g>
 </g>
 <defs>
  <clipPath id="pc1f2dbbcca">
   <rect x="78.585" y="17.96" width="242.2475" height="182.08"/>
  </clipPath>
  <clipPath id="pa4ce7cc004">
   <rect x="392.7925" y="17.96" width="242.2475" height="182.08"/>
  </clipPath>
 </defs>
</svg>
