<?xml version="1.0" encoding="utf-8" standalone="no"?>
<!DOCTYPE svg PUBLIC "-//W3C//DTD SVG 1.1//EN"
  "http://www.w3.org/Graphics/SVG/1.1/DTD/svg11.dtd">
<svg xmlns:xlink="http://www.w3.org/1999/xlink" width="432pt" height="360pt" viewBox="0 0 432 360" xmlns="http://www.w3.org/2000/svg" version="1.1">
 <metadata>
  <rdf:RDF xmlns:dc="http://purl.org/dc/elements/1.1/" xmlns:cc="http://creativecommons.org/ns#" xmlns:rdf="http://www.w3.org/1999/02/22-rdf-syntax-ns#">
   <cc:Work>
    <dc:type rdf:resource="http://purl.org/dc/dcmitype/StillImage"/>
    <dc:date>2023-04-12T10:38:33.651889</dc:date>
    <dc:format>image/svg+xml</dc:format>
    <dc:creator>
     <cc:Agent>
      <dc:title>Matplotlib v3.5.1, https://matplotlib.org/</dc:title>
     </cc:Agent>
    </dc:creator>
   </cc:Work>
  </rdf:RDF>
 </metadata>
 <defs>
  <style type="text/css">*{stroke-linejoin: round; stroke-linecap: butt}</style>
 </defs>
 <g id="figure_1">
  <g id="patch_1">
   <path d="M 0 360 
L 432 360 
L 432 0 
L 0 0 
z
" style="fill: #ffffff"/>
  </g>
  <g id="axes_1">
   <g id="patch_2">
    <path d="M 64.21 218.289911 
L 419.04 218.289911 
L 419.04 12.96 
L 64.21 12.96 
z
" style="fill: #eaeaf2"/>
   </g>
   <g id="matplotlib.axis_1">
    <g id="xtick_1">
     <g id="line2d_1">
      <path d="M 96.786897 218.289911 
L 96.786897 12.96 
" clip-path="url(#pdc3f97e5de)" style="fill: none; stroke: #ffffff; stroke-width: 0.8; stroke-linecap: round"/>
     </g>
     <g id="text_1">
      <!-- 0 -->
      <g style="fill: #262626" transform="translate(93.450334 233.879286)scale(0.12 -0.12)">
       <defs>
        <path id="ArialMT-30" d="M 266 2259 
Q 266 3072 433 3567 
Q 600 4063 929 4331 
Q 1259 4600 1759 4600 
Q 2128 4600 2406 4451 
Q 2684 4303 2865 4023 
Q 3047 3744 3150 3342 
Q 3253 2941 3253 2259 
Q 3253 1453 3087 958 
Q 2922 463 2592 192 
Q 2263 -78 1759 -78 
Q 1097 -78 719 397 
Q 266 969 266 2259 
z
M 844 2259 
Q 844 1131 1108 757 
Q 1372 384 1759 384 
Q 2147 384 2411 759 
Q 2675 1134 2675 2259 
Q 2675 3391 2411 3762 
Q 2147 4134 1753 4134 
Q 1366 4134 1134 3806 
Q 844 3388 844 2259 
z
" transform="scale(0.015625)"/>
       </defs>
       <use xlink:href="#ArialMT-30"/>
      </g>
     </g>
    </g>
    <g id="xtick_2">
     <g id="line2d_2">
      <path d="M 175.19977 218.289911 
L 175.19977 12.96 
" clip-path="url(#pdc3f97e5de)" style="fill: none; stroke: #ffffff; stroke-width: 0.8; stroke-linecap: round"/>
     </g>
     <g id="text_2">
      <!-- 1 -->
      <g style="fill: #262626" transform="translate(171.863208 233.879286)scale(0.12 -0.12)">
       <defs>
        <path id="ArialMT-31" d="M 2384 0 
L 1822 0 
L 1822 3584 
Q 1619 3391 1289 3197 
Q 959 3003 697 2906 
L 697 3450 
Q 1169 3672 1522 3987 
Q 1875 4303 2022 4600 
L 2384 4600 
L 2384 0 
z
" transform="scale(0.015625)"/>
       </defs>
       <use xlink:href="#ArialMT-31"/>
      </g>
     </g>
    </g>
    <g id="xtick_3">
     <g id="line2d_3">
      <path d="M 253.612644 218.289911 
L 253.612644 12.96 
" clip-path="url(#pdc3f97e5de)" style="fill: none; stroke: #ffffff; stroke-width: 0.8; stroke-linecap: round"/>
     </g>
     <g id="text_3">
      <!-- 2 -->
      <g style="fill: #262626" transform="translate(250.276081 233.879286)scale(0.12 -0.12)">
       <defs>
        <path id="ArialMT-32" d="M 3222 541 
L 3222 0 
L 194 0 
Q 188 203 259 391 
Q 375 700 629 1000 
Q 884 1300 1366 1694 
Q 2113 2306 2375 2664 
Q 2638 3022 2638 3341 
Q 2638 3675 2398 3904 
Q 2159 4134 1775 4134 
Q 1369 4134 1125 3890 
Q 881 3647 878 3216 
L 300 3275 
Q 359 3922 746 4261 
Q 1134 4600 1788 4600 
Q 2447 4600 2831 4234 
Q 3216 3869 3216 3328 
Q 3216 3053 3103 2787 
Q 2991 2522 2730 2228 
Q 2469 1934 1863 1422 
Q 1356 997 1212 845 
Q 1069 694 975 541 
L 3222 541 
z
" transform="scale(0.015625)"/>
       </defs>
       <use xlink:href="#ArialMT-32"/>
      </g>
     </g>
    </g>
    <g id="xtick_4">
     <g id="line2d_4">
      <path d="M 332.025518 218.289911 
L 332.025518 12.96 
" clip-path="url(#pdc3f97e5de)" style="fill: none; stroke: #ffffff; stroke-width: 0.8; stroke-linecap: round"/>
     </g>
     <g id="text_4">
      <!-- 3 -->
      <g style="fill: #262626" transform="translate(328.688955 233.879286)scale(0.12 -0.12)">
       <defs>
        <path id="ArialMT-33" d="M 269 1209 
L 831 1284 
Q 928 806 1161 595 
Q 1394 384 1728 384 
Q 2125 384 2398 659 
Q 2672 934 2672 1341 
Q 2672 1728 2419 1979 
Q 2166 2231 1775 2231 
Q 1616 2231 1378 2169 
L 1441 2663 
Q 1497 2656 1531 2656 
Q 1891 2656 2178 2843 
Q 2466 3031 2466 3422 
Q 2466 3731 2256 3934 
Q 2047 4138 1716 4138 
Q 1388 4138 1169 3931 
Q 950 3725 888 3313 
L 325 3413 
Q 428 3978 793 4289 
Q 1159 4600 1703 4600 
Q 2078 4600 2393 4439 
Q 2709 4278 2876 4000 
Q 3044 3722 3044 3409 
Q 3044 3113 2884 2869 
Q 2725 2625 2413 2481 
Q 2819 2388 3044 2092 
Q 3269 1797 3269 1353 
Q 3269 753 2831 336 
Q 2394 -81 1725 -81 
Q 1122 -81 723 278 
Q 325 638 269 1209 
z
" transform="scale(0.015625)"/>
       </defs>
       <use xlink:href="#ArialMT-33"/>
      </g>
     </g>
    </g>
    <g id="xtick_5">
     <g id="line2d_5">
      <path d="M 410.438391 218.289911 
L 410.438391 12.96 
" clip-path="url(#pdc3f97e5de)" style="fill: none; stroke: #ffffff; stroke-width: 0.8; stroke-linecap: round"/>
     </g>
     <g id="text_5">
      <!-- 4 -->
      <g style="fill: #262626" transform="translate(407.101829 233.879286)scale(0.12 -0.12)">
       <defs>
        <path id="ArialMT-34" d="M 2069 0 
L 2069 1097 
L 81 1097 
L 81 1613 
L 2172 4581 
L 2631 4581 
L 2631 1613 
L 3250 1613 
L 3250 1097 
L 2631 1097 
L 2631 0 
L 2069 0 
z
M 2069 1613 
L 2069 3678 
L 634 1613 
L 2069 1613 
z
" transform="scale(0.015625)"/>
       </defs>
       <use xlink:href="#ArialMT-34"/>
      </g>
     </g>
    </g>
    <g id="text_6">
     <!-- Sensitivity ($d'$) -->
     <g style="fill: #262626" transform="translate(190.585 252.744286)scale(0.16 -0.16)">
      <defs>
       <path id="ArialMT-53" d="M 288 1472 
L 859 1522 
Q 900 1178 1048 958 
Q 1197 738 1509 602 
Q 1822 466 2213 466 
Q 2559 466 2825 569 
Q 3091 672 3220 851 
Q 3350 1031 3350 1244 
Q 3350 1459 3225 1620 
Q 3100 1781 2813 1891 
Q 2628 1963 1997 2114 
Q 1366 2266 1113 2400 
Q 784 2572 623 2826 
Q 463 3081 463 3397 
Q 463 3744 659 4045 
Q 856 4347 1234 4503 
Q 1613 4659 2075 4659 
Q 2584 4659 2973 4495 
Q 3363 4331 3572 4012 
Q 3781 3694 3797 3291 
L 3216 3247 
Q 3169 3681 2898 3903 
Q 2628 4125 2100 4125 
Q 1550 4125 1298 3923 
Q 1047 3722 1047 3438 
Q 1047 3191 1225 3031 
Q 1400 2872 2139 2705 
Q 2878 2538 3153 2413 
Q 3553 2228 3743 1945 
Q 3934 1663 3934 1294 
Q 3934 928 3725 604 
Q 3516 281 3123 101 
Q 2731 -78 2241 -78 
Q 1619 -78 1198 103 
Q 778 284 539 648 
Q 300 1013 288 1472 
z
" transform="scale(0.015625)"/>
       <path id="ArialMT-65" d="M 2694 1069 
L 3275 997 
Q 3138 488 2766 206 
Q 2394 -75 1816 -75 
Q 1088 -75 661 373 
Q 234 822 234 1631 
Q 234 2469 665 2931 
Q 1097 3394 1784 3394 
Q 2450 3394 2872 2941 
Q 3294 2488 3294 1666 
Q 3294 1616 3291 1516 
L 816 1516 
Q 847 969 1125 678 
Q 1403 388 1819 388 
Q 2128 388 2347 550 
Q 2566 713 2694 1069 
z
M 847 1978 
L 2700 1978 
Q 2663 2397 2488 2606 
Q 2219 2931 1791 2931 
Q 1403 2931 1139 2672 
Q 875 2413 847 1978 
z
" transform="scale(0.015625)"/>
       <path id="ArialMT-6e" d="M 422 0 
L 422 3319 
L 928 3319 
L 928 2847 
Q 1294 3394 1984 3394 
Q 2284 3394 2536 3286 
Q 2788 3178 2913 3003 
Q 3038 2828 3088 2588 
Q 3119 2431 3119 2041 
L 3119 0 
L 2556 0 
L 2556 2019 
Q 2556 2363 2490 2533 
Q 2425 2703 2258 2804 
Q 2091 2906 1866 2906 
Q 1506 2906 1245 2678 
Q 984 2450 984 1813 
L 984 0 
L 422 0 
z
" transform="scale(0.015625)"/>
       <path id="ArialMT-73" d="M 197 991 
L 753 1078 
Q 800 744 1014 566 
Q 1228 388 1613 388 
Q 2000 388 2187 545 
Q 2375 703 2375 916 
Q 2375 1106 2209 1216 
Q 2094 1291 1634 1406 
Q 1016 1563 777 1677 
Q 538 1791 414 1992 
Q 291 2194 291 2438 
Q 291 2659 392 2848 
Q 494 3038 669 3163 
Q 800 3259 1026 3326 
Q 1253 3394 1513 3394 
Q 1903 3394 2198 3281 
Q 2494 3169 2634 2976 
Q 2775 2784 2828 2463 
L 2278 2388 
Q 2241 2644 2061 2787 
Q 1881 2931 1553 2931 
Q 1166 2931 1000 2803 
Q 834 2675 834 2503 
Q 834 2394 903 2306 
Q 972 2216 1119 2156 
Q 1203 2125 1616 2013 
Q 2213 1853 2448 1751 
Q 2684 1650 2818 1456 
Q 2953 1263 2953 975 
Q 2953 694 2789 445 
Q 2625 197 2315 61 
Q 2006 -75 1616 -75 
Q 969 -75 630 194 
Q 291 463 197 991 
z
" transform="scale(0.015625)"/>
       <path id="ArialMT-69" d="M 425 3934 
L 425 4581 
L 988 4581 
L 988 3934 
L 425 3934 
z
M 425 0 
L 425 3319 
L 988 3319 
L 988 0 
L 425 0 
z
" transform="scale(0.015625)"/>
       <path id="ArialMT-74" d="M 1650 503 
L 1731 6 
Q 1494 -44 1306 -44 
Q 1000 -44 831 53 
Q 663 150 594 308 
Q 525 466 525 972 
L 525 2881 
L 113 2881 
L 113 3319 
L 525 3319 
L 525 4141 
L 1084 4478 
L 1084 3319 
L 1650 3319 
L 1650 2881 
L 1084 2881 
L 1084 941 
Q 1084 700 1114 631 
Q 1144 563 1211 522 
Q 1278 481 1403 481 
Q 1497 481 1650 503 
z
" transform="scale(0.015625)"/>
       <path id="ArialMT-76" d="M 1344 0 
L 81 3319 
L 675 3319 
L 1388 1331 
Q 1503 1009 1600 663 
Q 1675 925 1809 1294 
L 2547 3319 
L 3125 3319 
L 1869 0 
L 1344 0 
z
" transform="scale(0.015625)"/>
       <path id="ArialMT-79" d="M 397 -1278 
L 334 -750 
Q 519 -800 656 -800 
Q 844 -800 956 -737 
Q 1069 -675 1141 -563 
Q 1194 -478 1313 -144 
Q 1328 -97 1363 -6 
L 103 3319 
L 709 3319 
L 1400 1397 
Q 1534 1031 1641 628 
Q 1738 1016 1872 1384 
L 2581 3319 
L 3144 3319 
L 1881 -56 
Q 1678 -603 1566 -809 
Q 1416 -1088 1222 -1217 
Q 1028 -1347 759 -1347 
Q 597 -1347 397 -1278 
z
" transform="scale(0.015625)"/>
       <path id="ArialMT-20" transform="scale(0.015625)"/>
       <path id="ArialMT-28" d="M 1497 -1347 
Q 1031 -759 709 28 
Q 388 816 388 1659 
Q 388 2403 628 3084 
Q 909 3875 1497 4659 
L 1900 4659 
Q 1522 4009 1400 3731 
Q 1209 3300 1100 2831 
Q 966 2247 966 1656 
Q 966 153 1900 -1347 
L 1497 -1347 
z
" transform="scale(0.015625)"/>
       <path id="DejaVuSans-Oblique-64" d="M 2675 525 
Q 2444 222 2128 65 
Q 1813 -91 1428 -91 
Q 903 -91 598 267 
Q 294 625 294 1247 
Q 294 1766 478 2236 
Q 663 2706 1013 3078 
Q 1244 3325 1534 3454 
Q 1825 3584 2144 3584 
Q 2481 3584 2739 3421 
Q 2997 3259 3138 2956 
L 3513 4863 
L 4091 4863 
L 3144 0 
L 2566 0 
L 2675 525 
z
M 891 1350 
Q 891 897 1095 644 
Q 1300 391 1663 391 
Q 1931 391 2161 520 
Q 2391 650 2566 903 
Q 2750 1166 2856 1509 
Q 2963 1853 2963 2188 
Q 2963 2622 2758 2865 
Q 2553 3109 2194 3109 
Q 1922 3109 1687 2981 
Q 1453 2853 1288 2613 
Q 1106 2353 998 2009 
Q 891 1666 891 1350 
z
" transform="scale(0.015625)"/>
       <path id="Cmsy10-30" d="M 225 347 
Q 184 359 184 409 
L 966 3316 
Q 1003 3434 1093 3506 
Q 1184 3578 1300 3578 
Q 1450 3578 1564 3479 
Q 1678 3381 1678 3231 
Q 1678 3166 1644 3084 
L 488 319 
Q 466 275 428 275 
Q 394 275 320 306 
Q 247 338 225 347 
z
" transform="scale(0.015625)"/>
       <path id="ArialMT-29" d="M 791 -1347 
L 388 -1347 
Q 1322 153 1322 1656 
Q 1322 2244 1188 2822 
Q 1081 3291 891 3722 
Q 769 4003 388 4659 
L 791 4659 
Q 1378 3875 1659 3084 
Q 1900 2403 1900 1659 
Q 1900 816 1576 28 
Q 1253 -759 791 -1347 
z
" transform="scale(0.015625)"/>
      </defs>
      <use xlink:href="#ArialMT-53" transform="translate(0 0.584375)"/>
      <use xlink:href="#ArialMT-65" transform="translate(66.699219 0.584375)"/>
      <use xlink:href="#ArialMT-6e" transform="translate(122.314453 0.584375)"/>
      <use xlink:href="#ArialMT-73" transform="translate(177.929688 0.584375)"/>
      <use xlink:href="#ArialMT-69" transform="translate(227.929688 0.584375)"/>
      <use xlink:href="#ArialMT-74" transform="translate(250.146484 0.584375)"/>
      <use xlink:href="#ArialMT-69" transform="translate(277.929688 0.584375)"/>
      <use xlink:href="#ArialMT-76" transform="translate(300.146484 0.584375)"/>
      <use xlink:href="#ArialMT-69" transform="translate(350.146484 0.584375)"/>
      <use xlink:href="#ArialMT-74" transform="translate(372.363281 0.584375)"/>
      <use xlink:href="#ArialMT-79" transform="translate(400.146484 0.584375)"/>
      <use xlink:href="#ArialMT-20" transform="translate(450.146484 0.584375)"/>
      <use xlink:href="#ArialMT-28" transform="translate(477.929688 0.584375)"/>
      <use xlink:href="#DejaVuSans-Oblique-64" transform="translate(511.230469 0.584375)"/>
      <use xlink:href="#Cmsy10-30" transform="translate(582.15474 38.865625)scale(0.7)"/>
      <use xlink:href="#ArialMT-29" transform="translate(604.132279 0.584375)"/>
     </g>
    </g>
   </g>
   <g id="matplotlib.axis_2">
    <g id="ytick_1">
     <g id="line2d_6">
      <path d="M 64.21 191.400872 
L 419.04 191.400872 
" clip-path="url(#pdc3f97e5de)" style="fill: none; stroke: #ffffff; stroke-width: 0.8; stroke-linecap: round"/>
     </g>
     <g id="text_7">
      <!-- 0.05 -->
      <g style="fill: #262626" transform="translate(33.856875 195.695559)scale(0.12 -0.12)">
       <defs>
        <path id="ArialMT-2e" d="M 581 0 
L 581 641 
L 1222 641 
L 1222 0 
L 581 0 
z
" transform="scale(0.015625)"/>
        <path id="ArialMT-35" d="M 266 1200 
L 856 1250 
Q 922 819 1161 601 
Q 1400 384 1738 384 
Q 2144 384 2425 690 
Q 2706 997 2706 1503 
Q 2706 1984 2436 2262 
Q 2166 2541 1728 2541 
Q 1456 2541 1237 2417 
Q 1019 2294 894 2097 
L 366 2166 
L 809 4519 
L 3088 4519 
L 3088 3981 
L 1259 3981 
L 1013 2750 
Q 1425 3038 1878 3038 
Q 2478 3038 2890 2622 
Q 3303 2206 3303 1553 
Q 3303 931 2941 478 
Q 2500 -78 1738 -78 
Q 1113 -78 717 272 
Q 322 622 266 1200 
z
" transform="scale(0.015625)"/>
       </defs>
       <use xlink:href="#ArialMT-30"/>
       <use xlink:href="#ArialMT-2e" x="55.615234"/>
       <use xlink:href="#ArialMT-30" x="83.398438"/>
       <use xlink:href="#ArialMT-35" x="139.013672"/>
      </g>
     </g>
    </g>
    <g id="ytick_2">
     <g id="line2d_7">
      <path d="M 64.21 162.740061 
L 419.04 162.740061 
" clip-path="url(#pdc3f97e5de)" style="fill: none; stroke: #ffffff; stroke-width: 0.8; stroke-linecap: round"/>
     </g>
     <g id="text_8">
      <!-- 0.10 -->
      <g style="fill: #262626" transform="translate(33.856875 167.034748)scale(0.12 -0.12)">
       <use xlink:href="#ArialMT-30"/>
       <use xlink:href="#ArialMT-2e" x="55.615234"/>
       <use xlink:href="#ArialMT-31" x="83.398438"/>
       <use xlink:href="#ArialMT-30" x="139.013672"/>
      </g>
     </g>
    </g>
    <g id="ytick_3">
     <g id="line2d_8">
      <path d="M 64.21 134.07925 
L 419.04 134.07925 
" clip-path="url(#pdc3f97e5de)" style="fill: none; stroke: #ffffff; stroke-width: 0.8; stroke-linecap: round"/>
     </g>
     <g id="text_9">
      <!-- 0.15 -->
      <g style="fill: #262626" transform="translate(33.856875 138.373937)scale(0.12 -0.12)">
       <use xlink:href="#ArialMT-30"/>
       <use xlink:href="#ArialMT-2e" x="55.615234"/>
       <use xlink:href="#ArialMT-31" x="83.398438"/>
       <use xlink:href="#ArialMT-35" x="139.013672"/>
      </g>
     </g>
    </g>
    <g id="ytick_4">
     <g id="line2d_9">
      <path d="M 64.21 105.418439 
L 419.04 105.418439 
" clip-path="url(#pdc3f97e5de)" style="fill: none; stroke: #ffffff; stroke-width: 0.8; stroke-linecap: round"/>
     </g>
     <g id="text_10">
      <!-- 0.20 -->
      <g style="fill: #262626" transform="translate(33.856875 109.713126)scale(0.12 -0.12)">
       <use xlink:href="#ArialMT-30"/>
       <use xlink:href="#ArialMT-2e" x="55.615234"/>
       <use xlink:href="#ArialMT-32" x="83.398438"/>
       <use xlink:href="#ArialMT-30" x="139.013672"/>
      </g>
     </g>
    </g>
    <g id="ytick_5">
     <g id="line2d_10">
      <path d="M 64.21 76.757627 
L 419.04 76.757627 
" clip-path="url(#pdc3f97e5de)" style="fill: none; stroke: #ffffff; stroke-width: 0.8; stroke-linecap: round"/>
     </g>
     <g id="text_11">
      <!-- 0.25 -->
      <g style="fill: #262626" transform="translate(33.856875 81.052315)scale(0.12 -0.12)">
       <use xlink:href="#ArialMT-30"/>
       <use xlink:href="#ArialMT-2e" x="55.615234"/>
       <use xlink:href="#ArialMT-32" x="83.398438"/>
       <use xlink:href="#ArialMT-35" x="139.013672"/>
      </g>
     </g>
    </g>
    <g id="ytick_6">
     <g id="line2d_11">
      <path d="M 64.21 48.096816 
L 419.04 48.096816 
" clip-path="url(#pdc3f97e5de)" style="fill: none; stroke: #ffffff; stroke-width: 0.8; stroke-linecap: round"/>
     </g>
     <g id="text_12">
      <!-- 0.30 -->
      <g style="fill: #262626" transform="translate(33.856875 52.391504)scale(0.12 -0.12)">
       <use xlink:href="#ArialMT-30"/>
       <use xlink:href="#ArialMT-2e" x="55.615234"/>
       <use xlink:href="#ArialMT-33" x="83.398438"/>
       <use xlink:href="#ArialMT-30" x="139.013672"/>
      </g>
     </g>
    </g>
    <g id="ytick_7">
     <g id="line2d_12">
      <path d="M 64.21 19.436005 
L 419.04 19.436005 
" clip-path="url(#pdc3f97e5de)" style="fill: none; stroke: #ffffff; stroke-width: 0.8; stroke-linecap: round"/>
     </g>
     <g id="text_13">
      <!-- 0.35 -->
      <g style="fill: #262626" transform="translate(33.856875 23.730693)scale(0.12 -0.12)">
       <use xlink:href="#ArialMT-30"/>
       <use xlink:href="#ArialMT-2e" x="55.615234"/>
       <use xlink:href="#ArialMT-33" x="83.398438"/>
       <use xlink:href="#ArialMT-35" x="139.013672"/>
      </g>
     </g>
    </g>
    <g id="text_14">
     <!-- $SD$ of Bias Across Offsets -->
     <g style="fill: #262626" transform="translate(26.676875 207.784955)rotate(-90)scale(0.16 -0.16)">
      <defs>
       <path id="DejaVuSans-Oblique-53" d="M 3859 4513 
L 3738 3897 
Q 3422 4066 3111 4152 
Q 2800 4238 2509 4238 
Q 1944 4238 1609 3991 
Q 1275 3744 1275 3334 
Q 1275 3109 1398 2989 
Q 1522 2869 2034 2731 
L 2413 2638 
Q 3053 2472 3303 2217 
Q 3553 1963 3553 1503 
Q 3553 797 2998 353 
Q 2444 -91 1538 -91 
Q 1166 -91 791 -17 
Q 416 56 38 206 
L 166 856 
Q 513 641 861 531 
Q 1209 422 1556 422 
Q 2147 422 2503 684 
Q 2859 947 2859 1369 
Q 2859 1650 2717 1795 
Q 2575 1941 2106 2059 
L 1728 2156 
Q 1081 2325 845 2545 
Q 609 2766 609 3163 
Q 609 3859 1145 4304 
Q 1681 4750 2541 4750 
Q 2875 4750 3203 4690 
Q 3531 4631 3859 4513 
z
" transform="scale(0.015625)"/>
       <path id="DejaVuSans-Oblique-44" d="M 1081 4666 
L 2438 4666 
Q 3519 4666 4070 4208 
Q 4622 3750 4622 2847 
Q 4622 2250 4412 1698 
Q 4203 1147 3834 769 
Q 3463 381 2891 190 
Q 2319 0 1538 0 
L 172 0 
L 1081 4666 
z
M 1613 4147 
L 909 519 
L 1734 519 
Q 2794 519 3375 1128 
Q 3956 1738 3956 2847 
Q 3956 3519 3581 3833 
Q 3206 4147 2406 4147 
L 1613 4147 
z
" transform="scale(0.015625)"/>
       <path id="ArialMT-6f" d="M 213 1659 
Q 213 2581 725 3025 
Q 1153 3394 1769 3394 
Q 2453 3394 2887 2945 
Q 3322 2497 3322 1706 
Q 3322 1066 3130 698 
Q 2938 331 2570 128 
Q 2203 -75 1769 -75 
Q 1072 -75 642 372 
Q 213 819 213 1659 
z
M 791 1659 
Q 791 1022 1069 705 
Q 1347 388 1769 388 
Q 2188 388 2466 706 
Q 2744 1025 2744 1678 
Q 2744 2294 2464 2611 
Q 2184 2928 1769 2928 
Q 1347 2928 1069 2612 
Q 791 2297 791 1659 
z
" transform="scale(0.015625)"/>
       <path id="ArialMT-66" d="M 556 0 
L 556 2881 
L 59 2881 
L 59 3319 
L 556 3319 
L 556 3672 
Q 556 4006 616 4169 
Q 697 4388 901 4523 
Q 1106 4659 1475 4659 
Q 1713 4659 2000 4603 
L 1916 4113 
Q 1741 4144 1584 4144 
Q 1328 4144 1222 4034 
Q 1116 3925 1116 3625 
L 1116 3319 
L 1763 3319 
L 1763 2881 
L 1116 2881 
L 1116 0 
L 556 0 
z
" transform="scale(0.015625)"/>
       <path id="ArialMT-42" d="M 469 0 
L 469 4581 
L 2188 4581 
Q 2713 4581 3030 4442 
Q 3347 4303 3526 4014 
Q 3706 3725 3706 3409 
Q 3706 3116 3547 2856 
Q 3388 2597 3066 2438 
Q 3481 2316 3704 2022 
Q 3928 1728 3928 1328 
Q 3928 1006 3792 729 
Q 3656 453 3456 303 
Q 3256 153 2954 76 
Q 2653 0 2216 0 
L 469 0 
z
M 1075 2656 
L 2066 2656 
Q 2469 2656 2644 2709 
Q 2875 2778 2992 2937 
Q 3109 3097 3109 3338 
Q 3109 3566 3000 3739 
Q 2891 3913 2687 3977 
Q 2484 4041 1991 4041 
L 1075 4041 
L 1075 2656 
z
M 1075 541 
L 2216 541 
Q 2509 541 2628 563 
Q 2838 600 2978 687 
Q 3119 775 3209 942 
Q 3300 1109 3300 1328 
Q 3300 1584 3169 1773 
Q 3038 1963 2805 2039 
Q 2572 2116 2134 2116 
L 1075 2116 
L 1075 541 
z
" transform="scale(0.015625)"/>
       <path id="ArialMT-61" d="M 2588 409 
Q 2275 144 1986 34 
Q 1697 -75 1366 -75 
Q 819 -75 525 192 
Q 231 459 231 875 
Q 231 1119 342 1320 
Q 453 1522 633 1644 
Q 813 1766 1038 1828 
Q 1203 1872 1538 1913 
Q 2219 1994 2541 2106 
Q 2544 2222 2544 2253 
Q 2544 2597 2384 2738 
Q 2169 2928 1744 2928 
Q 1347 2928 1158 2789 
Q 969 2650 878 2297 
L 328 2372 
Q 403 2725 575 2942 
Q 747 3159 1072 3276 
Q 1397 3394 1825 3394 
Q 2250 3394 2515 3294 
Q 2781 3194 2906 3042 
Q 3031 2891 3081 2659 
Q 3109 2516 3109 2141 
L 3109 1391 
Q 3109 606 3145 398 
Q 3181 191 3288 0 
L 2700 0 
Q 2613 175 2588 409 
z
M 2541 1666 
Q 2234 1541 1622 1453 
Q 1275 1403 1131 1340 
Q 988 1278 909 1158 
Q 831 1038 831 891 
Q 831 666 1001 516 
Q 1172 366 1500 366 
Q 1825 366 2078 508 
Q 2331 650 2450 897 
Q 2541 1088 2541 1459 
L 2541 1666 
z
" transform="scale(0.015625)"/>
       <path id="ArialMT-41" d="M -9 0 
L 1750 4581 
L 2403 4581 
L 4278 0 
L 3588 0 
L 3053 1388 
L 1138 1388 
L 634 0 
L -9 0 
z
M 1313 1881 
L 2866 1881 
L 2388 3150 
Q 2169 3728 2063 4100 
Q 1975 3659 1816 3225 
L 1313 1881 
z
" transform="scale(0.015625)"/>
       <path id="ArialMT-63" d="M 2588 1216 
L 3141 1144 
Q 3050 572 2676 248 
Q 2303 -75 1759 -75 
Q 1078 -75 664 370 
Q 250 816 250 1647 
Q 250 2184 428 2587 
Q 606 2991 970 3192 
Q 1334 3394 1763 3394 
Q 2303 3394 2647 3120 
Q 2991 2847 3088 2344 
L 2541 2259 
Q 2463 2594 2264 2762 
Q 2066 2931 1784 2931 
Q 1359 2931 1093 2626 
Q 828 2322 828 1663 
Q 828 994 1084 691 
Q 1341 388 1753 388 
Q 2084 388 2306 591 
Q 2528 794 2588 1216 
z
" transform="scale(0.015625)"/>
       <path id="ArialMT-72" d="M 416 0 
L 416 3319 
L 922 3319 
L 922 2816 
Q 1116 3169 1280 3281 
Q 1444 3394 1641 3394 
Q 1925 3394 2219 3213 
L 2025 2691 
Q 1819 2813 1613 2813 
Q 1428 2813 1281 2702 
Q 1134 2591 1072 2394 
Q 978 2094 978 1738 
L 978 0 
L 416 0 
z
" transform="scale(0.015625)"/>
       <path id="ArialMT-4f" d="M 309 2231 
Q 309 3372 921 4017 
Q 1534 4663 2503 4663 
Q 3138 4663 3647 4359 
Q 4156 4056 4423 3514 
Q 4691 2972 4691 2284 
Q 4691 1588 4409 1038 
Q 4128 488 3612 205 
Q 3097 -78 2500 -78 
Q 1853 -78 1343 234 
Q 834 547 571 1087 
Q 309 1628 309 2231 
z
M 934 2222 
Q 934 1394 1379 917 
Q 1825 441 2497 441 
Q 3181 441 3623 922 
Q 4066 1403 4066 2288 
Q 4066 2847 3877 3264 
Q 3688 3681 3323 3911 
Q 2959 4141 2506 4141 
Q 1863 4141 1398 3698 
Q 934 3256 934 2222 
z
" transform="scale(0.015625)"/>
      </defs>
      <use xlink:href="#DejaVuSans-Oblique-53" transform="translate(0 0.78125)"/>
      <use xlink:href="#DejaVuSans-Oblique-44" transform="translate(63.476562 0.78125)"/>
      <use xlink:href="#ArialMT-20" transform="translate(140.478516 0.78125)"/>
      <use xlink:href="#ArialMT-6f" transform="translate(168.261719 0.78125)"/>
      <use xlink:href="#ArialMT-66" transform="translate(223.876953 0.78125)"/>
      <use xlink:href="#ArialMT-20" transform="translate(251.660156 0.78125)"/>
      <use xlink:href="#ArialMT-42" transform="translate(279.443359 0.78125)"/>
      <use xlink:href="#ArialMT-69" transform="translate(346.142578 0.78125)"/>
      <use xlink:href="#ArialMT-61" transform="translate(368.359375 0.78125)"/>
      <use xlink:href="#ArialMT-73" transform="translate(423.974609 0.78125)"/>
      <use xlink:href="#ArialMT-20" transform="translate(473.974609 0.78125)"/>
      <use xlink:href="#ArialMT-41" transform="translate(501.757812 0.78125)"/>
      <use xlink:href="#ArialMT-63" transform="translate(568.457031 0.78125)"/>
      <use xlink:href="#ArialMT-72" transform="translate(618.457031 0.78125)"/>
      <use xlink:href="#ArialMT-6f" transform="translate(651.757812 0.78125)"/>
      <use xlink:href="#ArialMT-73" transform="translate(707.373047 0.78125)"/>
      <use xlink:href="#ArialMT-73" transform="translate(757.373047 0.78125)"/>
      <use xlink:href="#ArialMT-20" transform="translate(807.373047 0.78125)"/>
      <use xlink:href="#ArialMT-4f" transform="translate(835.15625 0.78125)"/>
      <use xlink:href="#ArialMT-66" transform="translate(912.939453 0.78125)"/>
      <use xlink:href="#ArialMT-66" transform="translate(940.722656 0.78125)"/>
      <use xlink:href="#ArialMT-73" transform="translate(968.505859 0.78125)"/>
      <use xlink:href="#ArialMT-65" transform="translate(1018.505859 0.78125)"/>
      <use xlink:href="#ArialMT-74" transform="translate(1074.121094 0.78125)"/>
      <use xlink:href="#ArialMT-73" transform="translate(1101.904297 0.78125)"/>
     </g>
    </g>
   </g>
   <g id="PathCollection_1">
    <defs>
     <path id="m9ed8dd259b" d="M 0 3 
C 0.795609 3 1.55874 2.683901 2.12132 2.12132 
C 2.683901 1.55874 3 0.795609 3 0 
C 3 -0.795609 2.683901 -1.55874 2.12132 -2.12132 
C 1.55874 -2.683901 0.795609 -3 0 -3 
C -0.795609 -3 -1.55874 -2.683901 -2.12132 -2.12132 
C -2.683901 -1.55874 -3 -0.795609 -3 0 
C -3 0.795609 -2.683901 1.55874 -2.12132 2.12132 
C -1.55874 2.683901 -0.795609 3 0 3 
z
" style="stroke: #000000; stroke-opacity: 0.8"/>
    </defs>
    <g clip-path="url(#pdc3f97e5de)">
     <use xlink:href="#m9ed8dd259b" x="185.380456" y="176.450247" style="fill-opacity: 0.8; stroke: #000000; stroke-opacity: 0.8"/>
     <use xlink:href="#m9ed8dd259b" x="363.481208" y="193.642594" style="fill-opacity: 0.8; stroke: #000000; stroke-opacity: 0.8"/>
     <use xlink:href="#m9ed8dd259b" x="303.320309" y="61.671442" style="fill-opacity: 0.8; stroke: #000000; stroke-opacity: 0.8"/>
     <use xlink:href="#m9ed8dd259b" x="160.986906" y="181.108407" style="fill-opacity: 0.8; stroke: #000000; stroke-opacity: 0.8"/>
     <use xlink:href="#m9ed8dd259b" x="378.088777" y="87.456558" style="fill-opacity: 0.8; stroke: #000000; stroke-opacity: 0.8"/>
     <use xlink:href="#m9ed8dd259b" x="278.017549" y="80.015887" style="fill-opacity: 0.8; stroke: #000000; stroke-opacity: 0.8"/>
     <use xlink:href="#m9ed8dd259b" x="260.132769" y="203.344479" style="fill-opacity: 0.8; stroke: #000000; stroke-opacity: 0.8"/>
     <use xlink:href="#m9ed8dd259b" x="192.040797" y="63.289374" style="fill-opacity: 0.8; stroke: #000000; stroke-opacity: 0.8"/>
     <use xlink:href="#m9ed8dd259b" x="203.668242" y="93.251324" style="fill-opacity: 0.8; stroke: #000000; stroke-opacity: 0.8"/>
     <use xlink:href="#m9ed8dd259b" x="132.969714" y="196.992014" style="fill-opacity: 0.8; stroke: #000000; stroke-opacity: 0.8"/>
     <use xlink:href="#m9ed8dd259b" x="219.296394" y="135.847184" style="fill-opacity: 0.8; stroke: #000000; stroke-opacity: 0.8"/>
     <use xlink:href="#m9ed8dd259b" x="239.352483" y="28.342283" style="fill-opacity: 0.8; stroke: #000000; stroke-opacity: 0.8"/>
     <use xlink:href="#m9ed8dd259b" x="80.338636" y="116.019406" style="fill-opacity: 0.8; stroke: #000000; stroke-opacity: 0.8"/>
     <use xlink:href="#m9ed8dd259b" x="260.749365" y="68.983739" style="fill-opacity: 0.8; stroke: #000000; stroke-opacity: 0.8"/>
     <use xlink:href="#m9ed8dd259b" x="179.118681" y="104.948504" style="fill-opacity: 0.8; stroke: #000000; stroke-opacity: 0.8"/>
     <use xlink:href="#m9ed8dd259b" x="314.302759" y="178.873741" style="fill-opacity: 0.8; stroke: #000000; stroke-opacity: 0.8"/>
     <use xlink:href="#m9ed8dd259b" x="344.929815" y="62.638003" style="fill-opacity: 0.8; stroke: #000000; stroke-opacity: 0.8"/>
     <use xlink:href="#m9ed8dd259b" x="160.784385" y="83.314493" style="fill-opacity: 0.8; stroke: #000000; stroke-opacity: 0.8"/>
     <use xlink:href="#m9ed8dd259b" x="254.696305" y="130.418817" style="fill-opacity: 0.8; stroke: #000000; stroke-opacity: 0.8"/>
     <use xlink:href="#m9ed8dd259b" x="148.41481" y="197.636457" style="fill-opacity: 0.8; stroke: #000000; stroke-opacity: 0.8"/>
     <use xlink:href="#m9ed8dd259b" x="150.051847" y="94.126176" style="fill-opacity: 0.8; stroke: #000000; stroke-opacity: 0.8"/>
     <use xlink:href="#m9ed8dd259b" x="320.520574" y="115.694762" style="fill-opacity: 0.8; stroke: #000000; stroke-opacity: 0.8"/>
     <use xlink:href="#m9ed8dd259b" x="170.920569" y="150.539176" style="fill-opacity: 0.8; stroke: #000000; stroke-opacity: 0.8"/>
     <use xlink:href="#m9ed8dd259b" x="262.56565" y="146.788208" style="fill-opacity: 0.8; stroke: #000000; stroke-opacity: 0.8"/>
     <use xlink:href="#m9ed8dd259b" x="183.970174" y="100.19536" style="fill-opacity: 0.8; stroke: #000000; stroke-opacity: 0.8"/>
     <use xlink:href="#m9ed8dd259b" x="235.731747" y="150.501697" style="fill-opacity: 0.8; stroke: #000000; stroke-opacity: 0.8"/>
     <use xlink:href="#m9ed8dd259b" x="203.668242" y="72.383797" style="fill-opacity: 0.8; stroke: #000000; stroke-opacity: 0.8"/>
     <use xlink:href="#m9ed8dd259b" x="315.110422" y="22.293178" style="fill-opacity: 0.8; stroke: #000000; stroke-opacity: 0.8"/>
     <use xlink:href="#m9ed8dd259b" x="203.491967" y="208.956733" style="fill-opacity: 0.8; stroke: #000000; stroke-opacity: 0.8"/>
     <use xlink:href="#m9ed8dd259b" x="178.450903" y="140.154453" style="fill-opacity: 0.8; stroke: #000000; stroke-opacity: 0.8"/>
     <use xlink:href="#m9ed8dd259b" x="207.228391" y="152.895814" style="fill-opacity: 0.8; stroke: #000000; stroke-opacity: 0.8"/>
     <use xlink:href="#m9ed8dd259b" x="248.850282" y="184.184935" style="fill-opacity: 0.8; stroke: #000000; stroke-opacity: 0.8"/>
     <use xlink:href="#m9ed8dd259b" x="312.45181" y="98.734278" style="fill-opacity: 0.8; stroke: #000000; stroke-opacity: 0.8"/>
     <use xlink:href="#m9ed8dd259b" x="234.716891" y="126.739866" style="fill-opacity: 0.8; stroke: #000000; stroke-opacity: 0.8"/>
     <use xlink:href="#m9ed8dd259b" x="323.32922" y="119.248104" style="fill-opacity: 0.8; stroke: #000000; stroke-opacity: 0.8"/>
     <use xlink:href="#m9ed8dd259b" x="223.686026" y="40.148568" style="fill-opacity: 0.8; stroke: #000000; stroke-opacity: 0.8"/>
     <use xlink:href="#m9ed8dd259b" x="325.825385" y="76.280535" style="fill-opacity: 0.8; stroke: #000000; stroke-opacity: 0.8"/>
     <use xlink:href="#m9ed8dd259b" x="402.911364" y="155.8607" style="fill-opacity: 0.8; stroke: #000000; stroke-opacity: 0.8"/>
    </g>
   </g>
   <g id="PolyCollection_1">
    <defs>
     <path id="m6b2d88a82a" d="M 80.338636 -257.85817 
L 80.338636 -182.568387 
L 83.596947 -183.383835 
L 86.855257 -184.390735 
L 90.113567 -185.402371 
L 93.371878 -186.371893 
L 96.630188 -187.538431 
L 99.888499 -188.551069 
L 103.146809 -189.537409 
L 106.405119 -190.416806 
L 109.66343 -191.296203 
L 112.92174 -192.1756 
L 116.180051 -193.054997 
L 119.438361 -193.934394 
L 122.696671 -194.905836 
L 125.954982 -196.315848 
L 129.213292 -197.72918 
L 132.471602 -199.145766 
L 135.729913 -200.562352 
L 138.988223 -201.806119 
L 142.246534 -202.444325 
L 145.504844 -203.082677 
L 148.763154 -203.72256 
L 152.021465 -204.846864 
L 155.279775 -205.851057 
L 158.538085 -206.983673 
L 161.796396 -208.132239 
L 165.054706 -209.295284 
L 168.313017 -210.418499 
L 171.571327 -211.329937 
L 174.829637 -211.943201 
L 178.087948 -212.671389 
L 181.346258 -213.179643 
L 184.604568 -214.326922 
L 187.862879 -215.157137 
L 191.121189 -215.759567 
L 194.3795 -216.340455 
L 197.63781 -216.853846 
L 200.89612 -217.240897 
L 204.154431 -217.773521 
L 207.412741 -218.443628 
L 210.671051 -219.114267 
L 213.929362 -219.446937 
L 217.187672 -220.010904 
L 220.445983 -220.569508 
L 223.704293 -221.226596 
L 226.962603 -221.561537 
L 230.220914 -222.103536 
L 233.479224 -222.439532 
L 236.737534 -223.021879 
L 239.995845 -223.714899 
L 243.254155 -224.187761 
L 246.512466 -224.362796 
L 249.770776 -224.397582 
L 253.029086 -224.597495 
L 256.287397 -224.680077 
L 259.545707 -225.125022 
L 262.804017 -225.488108 
L 266.062328 -225.732175 
L 269.320638 -225.831884 
L 272.578949 -226.181916 
L 275.837259 -226.588523 
L 279.095569 -226.655178 
L 282.35388 -226.578611 
L 285.61219 -226.435252 
L 288.8705 -226.291892 
L 292.128811 -225.963378 
L 295.387121 -225.982265 
L 298.645432 -225.863892 
L 301.903742 -225.718456 
L 305.162052 -225.58013 
L 308.420363 -225.446272 
L 311.678673 -225.443518 
L 314.936983 -225.273974 
L 318.195294 -225.030655 
L 321.453604 -224.877016 
L 324.711915 -224.734757 
L 327.970225 -224.50016 
L 331.228535 -224.418173 
L 334.486846 -224.243689 
L 337.745156 -224.07701 
L 341.003466 -223.897697 
L 344.261777 -223.716148 
L 347.520087 -223.567282 
L 350.778398 -223.397682 
L 354.036708 -223.242139 
L 357.295018 -223.066362 
L 360.553329 -223.165664 
L 363.811639 -223.025118 
L 367.069949 -222.88242 
L 370.32826 -222.637032 
L 373.58657 -222.212264 
L 376.844881 -222.035438 
L 380.103191 -221.866847 
L 383.361501 -221.623759 
L 386.619812 -221.449927 
L 389.878122 -221.094027 
L 393.136433 -220.739658 
L 396.394743 -220.391992 
L 399.653053 -220.281647 
L 402.911364 -220.204534 
L 402.911364 -300.258103 
L 402.911364 -300.258103 
L 399.653053 -299.228751 
L 396.394743 -298.186792 
L 393.136433 -296.988859 
L 389.878122 -296.040984 
L 386.619812 -295.115727 
L 383.361501 -294.033659 
L 380.103191 -292.854644 
L 376.844881 -291.7444 
L 373.58657 -290.517255 
L 370.32826 -289.593017 
L 367.069949 -288.719465 
L 363.811639 -287.919843 
L 360.553329 -286.891935 
L 357.295018 -285.897424 
L 354.036708 -284.877821 
L 350.778398 -283.83934 
L 347.520087 -282.797259 
L 344.261777 -281.750885 
L 341.003466 -280.709746 
L 337.745156 -279.668608 
L 334.486846 -278.538097 
L 331.228535 -277.586291 
L 327.970225 -276.545193 
L 324.711915 -275.504054 
L 321.453604 -274.462916 
L 318.195294 -273.421777 
L 314.936983 -272.380639 
L 311.678673 -271.3395 
L 308.420363 -270.298362 
L 305.162052 -269.257223 
L 301.903742 -268.390046 
L 298.645432 -267.674157 
L 295.387121 -267.001785 
L 292.128811 -266.31998 
L 288.8705 -265.305052 
L 285.61219 -264.619149 
L 282.35388 -263.841732 
L 279.095569 -262.860959 
L 275.837259 -261.81894 
L 272.578949 -261.096091 
L 269.320638 -260.495091 
L 266.062328 -259.677715 
L 262.804017 -258.781302 
L 259.545707 -257.951281 
L 256.287397 -257.347164 
L 253.029086 -256.720595 
L 249.770776 -256.154072 
L 246.512466 -255.74676 
L 243.254155 -255.405251 
L 239.995845 -255.471798 
L 236.737534 -255.019951 
L 233.479224 -254.786161 
L 230.220914 -254.332999 
L 226.962603 -253.717044 
L 223.704293 -253.896303 
L 220.445983 -253.345312 
L 217.187672 -253.287074 
L 213.929362 -252.74142 
L 210.671051 -252.660978 
L 207.412741 -252.21307 
L 204.154431 -251.948093 
L 200.89612 -251.695785 
L 197.63781 -251.296335 
L 194.3795 -251.195514 
L 191.121189 -251.256752 
L 187.862879 -251.34445 
L 184.604568 -251.539798 
L 181.346258 -251.762127 
L 178.087948 -251.697425 
L 174.829637 -251.784265 
L 171.571327 -251.71009 
L 168.313017 -252.030338 
L 165.054706 -252.142668 
L 161.796396 -252.226175 
L 158.538085 -252.482029 
L 155.279775 -252.52802 
L 152.021465 -252.512381 
L 148.763154 -252.498844 
L 145.504844 -252.547489 
L 142.246534 -252.977653 
L 138.988223 -253.363013 
L 135.729913 -253.44284 
L 132.471602 -253.517247 
L 129.213292 -253.614288 
L 125.954982 -254.099197 
L 122.696671 -254.281589 
L 119.438361 -254.662792 
L 116.180051 -254.83121 
L 112.92174 -254.999627 
L 109.66343 -255.159798 
L 106.405119 -255.534517 
L 103.146809 -255.928405 
L 99.888499 -256.317766 
L 96.630188 -256.527569 
L 93.371878 -256.651963 
L 90.113567 -257.189077 
L 86.855257 -257.489665 
L 83.596947 -257.678485 
L 80.338636 -257.85817 
z
" style="stroke: #ffffff; stroke-opacity: 0.15"/>
    </defs>
    <g clip-path="url(#pdc3f97e5de)">
     <use xlink:href="#m6b2d88a82a" x="0" y="360" style="fill-opacity: 0.15; stroke: #ffffff; stroke-opacity: 0.15"/>
    </g>
   </g>
   <g id="line2d_13">
    <path d="M 80.338636 139.799139 
L 83.596947 139.419279 
L 86.855257 139.039418 
L 90.113567 138.659558 
L 93.371878 138.279697 
L 96.630188 137.899837 
L 99.888499 137.519976 
L 103.146809 137.140116 
L 106.405119 136.760255 
L 109.66343 136.380395 
L 112.92174 136.000534 
L 116.180051 135.620674 
L 119.438361 135.240813 
L 122.696671 134.860953 
L 125.954982 134.481092 
L 129.213292 134.101232 
L 132.471602 133.721371 
L 135.729913 133.341511 
L 138.988223 132.96165 
L 142.246534 132.58179 
L 145.504844 132.201929 
L 148.763154 131.822069 
L 152.021465 131.442208 
L 155.279775 131.062348 
L 158.538085 130.682487 
L 161.796396 130.302627 
L 165.054706 129.922766 
L 168.313017 129.542906 
L 171.571327 129.163045 
L 174.829637 128.783185 
L 178.087948 128.403324 
L 181.346258 128.023464 
L 184.604568 127.643604 
L 187.862879 127.263743 
L 191.121189 126.883883 
L 194.3795 126.504022 
L 197.63781 126.124162 
L 200.89612 125.744301 
L 204.154431 125.364441 
L 207.412741 124.98458 
L 210.671051 124.60472 
L 213.929362 124.224859 
L 217.187672 123.844999 
L 220.445983 123.465138 
L 223.704293 123.085278 
L 226.962603 122.705417 
L 230.220914 122.325557 
L 233.479224 121.945696 
L 236.737534 121.565836 
L 239.995845 121.185975 
L 243.254155 120.806115 
L 246.512466 120.426254 
L 249.770776 120.046394 
L 253.029086 119.666533 
L 256.287397 119.286673 
L 259.545707 118.906812 
L 262.804017 118.526952 
L 266.062328 118.147091 
L 269.320638 117.767231 
L 272.578949 117.38737 
L 275.837259 117.00751 
L 279.095569 116.627649 
L 282.35388 116.247789 
L 285.61219 115.867928 
L 288.8705 115.488068 
L 292.128811 115.108208 
L 295.387121 114.728347 
L 298.645432 114.348487 
L 301.903742 113.968626 
L 305.162052 113.588766 
L 308.420363 113.208905 
L 311.678673 112.829045 
L 314.936983 112.449184 
L 318.195294 112.069324 
L 321.453604 111.689463 
L 324.711915 111.309603 
L 327.970225 110.929742 
L 331.228535 110.549882 
L 334.486846 110.170021 
L 337.745156 109.790161 
L 341.003466 109.4103 
L 344.261777 109.03044 
L 347.520087 108.650579 
L 350.778398 108.270719 
L 354.036708 107.890858 
L 357.295018 107.510998 
L 360.553329 107.131137 
L 363.811639 106.751277 
L 367.069949 106.371416 
L 370.32826 105.991556 
L 373.58657 105.611695 
L 376.844881 105.231835 
L 380.103191 104.851974 
L 383.361501 104.472114 
L 386.619812 104.092253 
L 389.878122 103.712393 
L 393.136433 103.332533 
L 396.394743 102.952672 
L 399.653053 102.572812 
L 402.911364 102.192951 
" clip-path="url(#pdc3f97e5de)" style="fill: none; stroke: #000000; stroke-width: 2.25; stroke-linecap: round"/>
   </g>
   <g id="patch_3">
    <path d="M 64.21 218.289911 
L 64.21 12.96 
" style="fill: none; stroke: #ffffff; stroke-width: 0.8; stroke-linejoin: miter; stroke-linecap: square"/>
   </g>
   <g id="patch_4">
    <path d="M 64.21 218.289911 
L 419.04 218.289911 
" style="fill: none; stroke: #ffffff; stroke-width: 0.8; stroke-linejoin: miter; stroke-linecap: square"/>
   </g>
   <g id="text_15">
    <!-- $r=$0.168,  $p=$0.312 -->
    <g style="fill: #262626" transform="translate(57.58046 311.776279)scale(0.14 -0.14)">
     <defs>
      <path id="DejaVuSans-Oblique-72" d="M 2853 2969 
Q 2766 3016 2653 3041 
Q 2541 3066 2413 3066 
Q 1953 3066 1609 2717 
Q 1266 2369 1153 1784 
L 800 0 
L 225 0 
L 909 3500 
L 1484 3500 
L 1375 2956 
Q 1603 3259 1920 3421 
Q 2238 3584 2597 3584 
Q 2691 3584 2781 3573 
Q 2872 3563 2963 3538 
L 2853 2969 
z
" transform="scale(0.015625)"/>
      <path id="DejaVuSans-3d" d="M 678 2906 
L 4684 2906 
L 4684 2381 
L 678 2381 
L 678 2906 
z
M 678 1631 
L 4684 1631 
L 4684 1100 
L 678 1100 
L 678 1631 
z
" transform="scale(0.015625)"/>
      <path id="ArialMT-36" d="M 3184 3459 
L 2625 3416 
Q 2550 3747 2413 3897 
Q 2184 4138 1850 4138 
Q 1581 4138 1378 3988 
Q 1113 3794 959 3422 
Q 806 3050 800 2363 
Q 1003 2672 1297 2822 
Q 1591 2972 1913 2972 
Q 2475 2972 2870 2558 
Q 3266 2144 3266 1488 
Q 3266 1056 3080 686 
Q 2894 316 2569 119 
Q 2244 -78 1831 -78 
Q 1128 -78 684 439 
Q 241 956 241 2144 
Q 241 3472 731 4075 
Q 1159 4600 1884 4600 
Q 2425 4600 2770 4297 
Q 3116 3994 3184 3459 
z
M 888 1484 
Q 888 1194 1011 928 
Q 1134 663 1356 523 
Q 1578 384 1822 384 
Q 2178 384 2434 671 
Q 2691 959 2691 1453 
Q 2691 1928 2437 2201 
Q 2184 2475 1800 2475 
Q 1419 2475 1153 2201 
Q 888 1928 888 1484 
z
" transform="scale(0.015625)"/>
      <path id="ArialMT-38" d="M 1131 2484 
Q 781 2613 612 2850 
Q 444 3088 444 3419 
Q 444 3919 803 4259 
Q 1163 4600 1759 4600 
Q 2359 4600 2725 4251 
Q 3091 3903 3091 3403 
Q 3091 3084 2923 2848 
Q 2756 2613 2416 2484 
Q 2838 2347 3058 2040 
Q 3278 1734 3278 1309 
Q 3278 722 2862 322 
Q 2447 -78 1769 -78 
Q 1091 -78 675 323 
Q 259 725 259 1325 
Q 259 1772 486 2073 
Q 713 2375 1131 2484 
z
M 1019 3438 
Q 1019 3113 1228 2906 
Q 1438 2700 1772 2700 
Q 2097 2700 2305 2904 
Q 2513 3109 2513 3406 
Q 2513 3716 2298 3927 
Q 2084 4138 1766 4138 
Q 1444 4138 1231 3931 
Q 1019 3725 1019 3438 
z
M 838 1322 
Q 838 1081 952 856 
Q 1066 631 1291 507 
Q 1516 384 1775 384 
Q 2178 384 2440 643 
Q 2703 903 2703 1303 
Q 2703 1709 2433 1975 
Q 2163 2241 1756 2241 
Q 1359 2241 1098 1978 
Q 838 1716 838 1322 
z
" transform="scale(0.015625)"/>
      <path id="ArialMT-2c" d="M 569 0 
L 569 641 
L 1209 641 
L 1209 0 
Q 1209 -353 1084 -570 
Q 959 -788 688 -906 
L 531 -666 
Q 709 -588 793 -436 
Q 878 -284 888 0 
L 569 0 
z
" transform="scale(0.015625)"/>
      <path id="DejaVuSans-Oblique-70" d="M 3175 2156 
Q 3175 2616 2975 2859 
Q 2775 3103 2400 3103 
Q 2144 3103 1911 2972 
Q 1678 2841 1497 2591 
Q 1319 2344 1212 1994 
Q 1106 1644 1106 1300 
Q 1106 863 1306 627 
Q 1506 391 1875 391 
Q 2147 391 2380 519 
Q 2613 647 2778 891 
Q 2956 1147 3065 1494 
Q 3175 1841 3175 2156 
z
M 1394 2969 
Q 1625 3272 1939 3428 
Q 2253 3584 2638 3584 
Q 3175 3584 3472 3232 
Q 3769 2881 3769 2247 
Q 3769 1728 3584 1258 
Q 3400 788 3053 416 
Q 2822 169 2531 39 
Q 2241 -91 1919 -91 
Q 1547 -91 1294 64 
Q 1041 219 916 525 
L 556 -1331 
L -19 -1331 
L 922 3500 
L 1497 3500 
L 1394 2969 
z
" transform="scale(0.015625)"/>
     </defs>
     <use xlink:href="#DejaVuSans-Oblique-72" transform="translate(0 0.125)"/>
     <use xlink:href="#DejaVuSans-3d" transform="translate(60.595703 0.125)"/>
     <use xlink:href="#ArialMT-30" transform="translate(163.867188 0.125)"/>
     <use xlink:href="#ArialMT-2e" transform="translate(219.482422 0.125)"/>
     <use xlink:href="#ArialMT-31" transform="translate(247.265625 0.125)"/>
     <use xlink:href="#ArialMT-36" transform="translate(302.880859 0.125)"/>
     <use xlink:href="#ArialMT-38" transform="translate(358.496094 0.125)"/>
     <use xlink:href="#ArialMT-2c" transform="translate(414.111328 0.125)"/>
     <use xlink:href="#ArialMT-20" transform="translate(441.894531 0.125)"/>
     <use xlink:href="#ArialMT-20" transform="translate(469.677734 0.125)"/>
     <use xlink:href="#DejaVuSans-Oblique-70" transform="translate(497.460938 0.125)"/>
     <use xlink:href="#DejaVuSans-3d" transform="translate(580.419922 0.125)"/>
     <use xlink:href="#ArialMT-30" transform="translate(683.691406 0.125)"/>
     <use xlink:href="#ArialMT-2e" transform="translate(739.306641 0.125)"/>
     <use xlink:href="#ArialMT-33" transform="translate(767.089844 0.125)"/>
     <use xlink:href="#ArialMT-31" transform="translate(822.705078 0.125)"/>
     <use xlink:href="#ArialMT-32" transform="translate(878.320312 0.125)"/>
    </g>
   </g>
  </g>
 </g>
 <defs>
  <clipPath id="pdc3f97e5de">
   <rect x="64.21" y="12.96" width="354.83" height="205.329911"/>
  </clipPath>
 </defs>
</svg>
