<?xml version="1.0" encoding="utf-8" standalone="no"?>
<!DOCTYPE svg PUBLIC "-//W3C//DTD SVG 1.1//EN"
  "http://www.w3.org/Graphics/SVG/1.1/DTD/svg11.dtd">
<svg xmlns:xlink="http://www.w3.org/1999/xlink" width="432pt" height="324pt" viewBox="0 0 432 324" xmlns="http://www.w3.org/2000/svg" version="1.1">
 <metadata>
  <rdf:RDF xmlns:dc="http://purl.org/dc/elements/1.1/" xmlns:cc="http://creativecommons.org/ns#" xmlns:rdf="http://www.w3.org/1999/02/22-rdf-syntax-ns#">
   <cc:Work>
    <dc:type rdf:resource="http://purl.org/dc/dcmitype/StillImage"/>
    <dc:date>2024-06-28T13:29:22.829497</dc:date>
    <dc:format>image/svg+xml</dc:format>
    <dc:creator>
     <cc:Agent>
      <dc:title>Matplotlib v3.8.0, https://matplotlib.org/</dc:title>
     </cc:Agent>
    </dc:creator>
   </cc:Work>
  </rdf:RDF>
 </metadata>
 <defs>
  <style type="text/css">*{stroke-linejoin: round; stroke-linecap: butt}</style>
 </defs>
 <g id="figure_1">
  <g id="patch_1">
   <path d="M 0 324 
L 432 324 
L 432 0 
L 0 0 
z
" style="fill: #ffffff"/>
  </g>
  <g id="axes_1">
   <g id="patch_2">
    <path d="M 77.33 269.656 
L 415.411192 269.656 
L 415.411192 17.28 
L 77.33 17.28 
z
" style="fill: #ffffff"/>
   </g>
   <g id="PathCollection_1">
    <defs>
     <path id="m95d8b50151" d="M 0 3 
C 0.795609 3 1.55874 2.683901 2.12132 2.12132 
C 2.683901 1.55874 3 0.795609 3 0 
C 3 -0.795609 2.683901 -1.55874 2.12132 -2.12132 
C 1.55874 -2.683901 0.795609 -3 0 -3 
C -0.795609 -3 -1.55874 -2.683901 -2.12132 -2.12132 
C -2.683901 -1.55874 -3 -0.795609 -3 0 
C -3 0.795609 -2.683901 1.55874 -2.12132 2.12132 
C -1.55874 2.683901 -0.795609 3 0 3 
z
" style="stroke: #000000; stroke-opacity: 0.8"/>
    </defs>
    <g clip-path="url(#pc0f312975c)">
     <use xlink:href="#m95d8b50151" x="342.589182" y="72.841195" style="fill-opacity: 0.8; stroke: #000000; stroke-opacity: 0.8"/>
     <use xlink:href="#m95d8b50151" x="214.976637" y="135.961268" style="fill-opacity: 0.8; stroke: #000000; stroke-opacity: 0.8"/>
     <use xlink:href="#m95d8b50151" x="245.167832" y="76.596725" style="fill-opacity: 0.8; stroke: #000000; stroke-opacity: 0.8"/>
     <use xlink:href="#m95d8b50151" x="313.045957" y="120.515732" style="fill-opacity: 0.8; stroke: #000000; stroke-opacity: 0.8"/>
     <use xlink:href="#m95d8b50151" x="400.043865" y="124.788461" style="fill-opacity: 0.8; stroke: #000000; stroke-opacity: 0.8"/>
     <use xlink:href="#m95d8b50151" x="290.226966" y="92.582205" style="fill-opacity: 0.8; stroke: #000000; stroke-opacity: 0.8"/>
     <use xlink:href="#m95d8b50151" x="92.697327" y="57.70967" style="fill-opacity: 0.8; stroke: #000000; stroke-opacity: 0.8"/>
     <use xlink:href="#m95d8b50151" x="174.142665" y="160.138794" style="fill-opacity: 0.8; stroke: #000000; stroke-opacity: 0.8"/>
     <use xlink:href="#m95d8b50151" x="329.412732" y="121.654256" style="fill-opacity: 0.8; stroke: #000000; stroke-opacity: 0.8"/>
     <use xlink:href="#m95d8b50151" x="200.723836" y="42.67681" style="fill-opacity: 0.8; stroke: #000000; stroke-opacity: 0.8"/>
     <use xlink:href="#m95d8b50151" x="239.367548" y="199.641447" style="fill-opacity: 0.8; stroke: #000000; stroke-opacity: 0.8"/>
     <use xlink:href="#m95d8b50151" x="153.240609" y="170.113521" style="fill-opacity: 0.8; stroke: #000000; stroke-opacity: 0.8"/>
     <use xlink:href="#m95d8b50151" x="398.674228" y="135.034082" style="fill-opacity: 0.8; stroke: #000000; stroke-opacity: 0.8"/>
     <use xlink:href="#m95d8b50151" x="138.503267" y="123.125173" style="fill-opacity: 0.8; stroke: #000000; stroke-opacity: 0.8"/>
     <use xlink:href="#m95d8b50151" x="292.077189" y="239.4502" style="fill-opacity: 0.8; stroke: #000000; stroke-opacity: 0.8"/>
     <use xlink:href="#m95d8b50151" x="173.502275" y="185.070657" style="fill-opacity: 0.8; stroke: #000000; stroke-opacity: 0.8"/>
     <use xlink:href="#m95d8b50151" x="258.161921" y="201.013927" style="fill-opacity: 0.8; stroke: #000000; stroke-opacity: 0.8"/>
     <use xlink:href="#m95d8b50151" x="171.977565" y="184.053362" style="fill-opacity: 0.8; stroke: #000000; stroke-opacity: 0.8"/>
     <use xlink:href="#m95d8b50151" x="324.092523" y="78.618789" style="fill-opacity: 0.8; stroke: #000000; stroke-opacity: 0.8"/>
     <use xlink:href="#m95d8b50151" x="143.268531" y="187.920668" style="fill-opacity: 0.8; stroke: #000000; stroke-opacity: 0.8"/>
     <use xlink:href="#m95d8b50151" x="196.35881" y="206.42548" style="fill-opacity: 0.8; stroke: #000000; stroke-opacity: 0.8"/>
     <use xlink:href="#m95d8b50151" x="293.033135" y="176.453992" style="fill-opacity: 0.8; stroke: #000000; stroke-opacity: 0.8"/>
     <use xlink:href="#m95d8b50151" x="267.546061" y="123.869623" style="fill-opacity: 0.8; stroke: #000000; stroke-opacity: 0.8"/>
     <use xlink:href="#m95d8b50151" x="301.542599" y="146.840786" style="fill-opacity: 0.8; stroke: #000000; stroke-opacity: 0.8"/>
     <use xlink:href="#m95d8b50151" x="139.444103" y="208.313699" style="fill-opacity: 0.8; stroke: #000000; stroke-opacity: 0.8"/>
     <use xlink:href="#m95d8b50151" x="191.353251" y="139.196256" style="fill-opacity: 0.8; stroke: #000000; stroke-opacity: 0.8"/>
     <use xlink:href="#m95d8b50151" x="262.829701" y="211.756924" style="fill-opacity: 0.8; stroke: #000000; stroke-opacity: 0.8"/>
    </g>
   </g>
   <g id="PolyCollection_1">
    <path d="M 92.697327 116.810971 
L 92.697327 208.750707 
L 95.801837 207.689024 
L 98.906348 206.619616 
L 102.010858 205.545739 
L 105.115369 204.471862 
L 108.219879 203.397986 
L 111.32439 202.324109 
L 114.4289 201.018695 
L 117.533411 199.687591 
L 120.637921 198.356487 
L 123.742432 197.464315 
L 126.846942 196.694522 
L 129.951453 195.921609 
L 133.055963 194.857836 
L 136.160474 193.790352 
L 139.264984 192.772952 
L 142.369495 191.662322 
L 145.474005 190.758547 
L 148.578516 189.982993 
L 151.683026 188.978828 
L 154.787537 187.919406 
L 157.892047 187.123167 
L 160.996558 186.15435 
L 164.101068 184.564525 
L 167.205579 183.609023 
L 170.310089 182.492022 
L 173.4146 181.538254 
L 176.51911 180.629673 
L 179.623621 179.477278 
L 182.728131 178.474436 
L 185.832642 177.673547 
L 188.937152 176.950115 
L 192.041663 176.326047 
L 195.146173 175.696859 
L 198.250683 175.068107 
L 201.355194 174.386411 
L 204.459704 173.225486 
L 207.564215 172.295707 
L 210.668725 171.711422 
L 213.773236 171.190563 
L 216.877746 170.597663 
L 219.982257 169.750524 
L 223.086767 169.662547 
L 226.191278 168.8199 
L 229.295788 168.533677 
L 232.400299 167.801541 
L 235.504809 166.86832 
L 238.60932 166.476032 
L 241.71383 166.140499 
L 244.818341 165.869209 
L 247.922851 165.120433 
L 251.027362 164.803021 
L 254.131872 164.096969 
L 257.236383 163.772295 
L 260.340893 163.116637 
L 263.445404 162.785089 
L 266.549914 162.45292 
L 269.654425 162.54745 
L 272.758935 162.445279 
L 275.863446 162.32434 
L 278.967956 162.503034 
L 282.072467 162.388244 
L 285.176977 162.351183 
L 288.281488 162.302917 
L 291.385998 162.506826 
L 294.490509 162.521177 
L 297.595019 162.497066 
L 300.69953 162.196048 
L 303.80404 162.105101 
L 306.908551 162.461544 
L 310.013061 162.817987 
L 313.117572 163.170194 
L 316.222082 163.246858 
L 319.326592 163.319664 
L 322.431103 163.39247 
L 325.535613 163.60929 
L 328.640124 163.815096 
L 331.744634 164.071687 
L 334.849145 164.317809 
L 337.953655 164.559433 
L 341.058166 164.801057 
L 344.162676 165.04268 
L 347.267187 165.284304 
L 350.371697 165.525928 
L 353.476208 165.767551 
L 356.580718 166.009175 
L 359.685229 166.25289 
L 362.789739 166.703368 
L 365.89425 167.161098 
L 368.99876 167.624729 
L 372.103271 168.076344 
L 375.207781 167.869493 
L 378.312292 168.374514 
L 381.416802 168.964222 
L 384.521313 169.55393 
L 387.625823 170.143638 
L 390.730334 170.733346 
L 393.834844 171.285752 
L 396.939355 171.747507 
L 400.043865 172.209262 
L 400.043865 90.119352 
L 400.043865 90.119352 
L 396.939355 91.077463 
L 393.834844 92.042128 
L 390.730334 93.098039 
L 387.625823 94.230292 
L 384.521313 95.137435 
L 381.416802 96.392039 
L 378.312292 97.648368 
L 375.207781 98.803751 
L 372.103271 99.671195 
L 368.99876 100.494363 
L 365.89425 101.321593 
L 362.789739 102.153714 
L 359.685229 103.117514 
L 356.580718 104.014516 
L 353.476208 105.182783 
L 350.371697 106.228588 
L 347.267187 106.906549 
L 344.162676 107.584509 
L 341.058166 108.313893 
L 337.953655 109.408452 
L 334.849145 110.230261 
L 331.744634 111.177425 
L 328.640124 112.102789 
L 325.535613 112.756599 
L 322.431103 113.570668 
L 319.326592 114.653993 
L 316.222082 115.455619 
L 313.117572 116.185885 
L 310.013061 116.918103 
L 306.908551 117.778495 
L 303.80404 118.759678 
L 300.69953 119.545452 
L 297.595019 120.046779 
L 294.490509 121.09832 
L 291.385998 121.642469 
L 288.281488 122.142062 
L 285.176977 122.664254 
L 282.072467 123.321129 
L 278.967956 123.531815 
L 275.863446 123.870809 
L 272.758935 124.374303 
L 269.654425 124.739062 
L 266.549914 125.012136 
L 263.445404 125.32695 
L 260.340893 125.764739 
L 257.236383 126.33871 
L 254.131872 126.445617 
L 251.027362 126.611039 
L 247.922851 126.923806 
L 244.818341 126.885763 
L 241.71383 126.918327 
L 238.60932 127.066058 
L 235.504809 127.100013 
L 232.400299 127.175664 
L 229.295788 127.544949 
L 226.191278 127.123924 
L 223.086767 127.189902 
L 219.982257 127.389825 
L 216.877746 127.285995 
L 213.773236 127.53625 
L 210.668725 127.434428 
L 207.564215 127.490222 
L 204.459704 127.290524 
L 201.355194 127.24954 
L 198.250683 127.259682 
L 195.146173 127.033297 
L 192.041663 126.800223 
L 188.937152 126.572126 
L 185.832642 126.809856 
L 182.728131 127.087107 
L 179.623621 126.849627 
L 176.51911 126.472701 
L 173.4146 125.807379 
L 170.310089 125.189004 
L 167.205579 124.87831 
L 164.101068 124.629229 
L 160.996558 124.392429 
L 157.892047 124.049205 
L 154.787537 123.916554 
L 151.683026 123.049526 
L 148.578516 122.076138 
L 145.474005 121.719011 
L 142.369495 121.632956 
L 139.264984 121.549693 
L 136.160474 120.830388 
L 133.055963 120.444906 
L 129.951453 120.154038 
L 126.846942 119.875834 
L 123.742432 119.598628 
L 120.637921 119.122749 
L 117.533411 118.539536 
L 114.4289 118.308457 
L 111.32439 118.294257 
L 108.219879 117.949855 
L 105.115369 117.711559 
L 102.010858 117.513704 
L 98.906348 117.301074 
L 95.801837 117.09495 
L 92.697327 116.810971 
z
" clip-path="url(#pc0f312975c)" style="fill-opacity: 0.15"/>
   </g>
   <g id="matplotlib.axis_1">
    <g id="xtick_1">
     <g id="line2d_1">
      <defs>
       <path id="m3db68f611a" d="M 0 0 
L 0 3.5 
" style="stroke: #000000; stroke-width: 0.8"/>
      </defs>
      <g>
       <use xlink:href="#m3db68f611a" x="123.591908" y="269.656" style="stroke: #000000; stroke-width: 0.8"/>
      </g>
     </g>
     <g id="text_1">
      <!-- −2.0 -->
      <g transform="translate(109.022221 285.774125) scale(0.12 -0.12)">
       <defs>
        <path id="DejaVuSans-2212" d="M 678 2272 
L 4684 2272 
L 4684 1741 
L 678 1741 
L 678 2272 
z
" transform="scale(0.015625)"/>
        <path id="DejaVuSans-32" d="M 1228 531 
L 3431 531 
L 3431 0 
L 469 0 
L 469 531 
Q 828 903 1448 1529 
Q 2069 2156 2228 2338 
Q 2531 2678 2651 2914 
Q 2772 3150 2772 3378 
Q 2772 3750 2511 3984 
Q 2250 4219 1831 4219 
Q 1534 4219 1204 4116 
Q 875 4013 500 3803 
L 500 4441 
Q 881 4594 1212 4672 
Q 1544 4750 1819 4750 
Q 2544 4750 2975 4387 
Q 3406 4025 3406 3419 
Q 3406 3131 3298 2873 
Q 3191 2616 2906 2266 
Q 2828 2175 2409 1742 
Q 1991 1309 1228 531 
z
" transform="scale(0.015625)"/>
        <path id="DejaVuSans-2e" d="M 684 794 
L 1344 794 
L 1344 0 
L 684 0 
L 684 794 
z
" transform="scale(0.015625)"/>
        <path id="DejaVuSans-30" d="M 2034 4250 
Q 1547 4250 1301 3770 
Q 1056 3291 1056 2328 
Q 1056 1369 1301 889 
Q 1547 409 2034 409 
Q 2525 409 2770 889 
Q 3016 1369 3016 2328 
Q 3016 3291 2770 3770 
Q 2525 4250 2034 4250 
z
M 2034 4750 
Q 2819 4750 3233 4129 
Q 3647 3509 3647 2328 
Q 3647 1150 3233 529 
Q 2819 -91 2034 -91 
Q 1250 -91 836 529 
Q 422 1150 422 2328 
Q 422 3509 836 4129 
Q 1250 4750 2034 4750 
z
" transform="scale(0.015625)"/>
       </defs>
       <use xlink:href="#DejaVuSans-2212"/>
       <use xlink:href="#DejaVuSans-32" x="83.789062"/>
       <use xlink:href="#DejaVuSans-2e" x="147.412109"/>
       <use xlink:href="#DejaVuSans-30" x="179.199219"/>
      </g>
     </g>
    </g>
    <g id="xtick_2">
     <g id="line2d_2">
      <g>
       <use xlink:href="#m3db68f611a" x="180.76194" y="269.656" style="stroke: #000000; stroke-width: 0.8"/>
      </g>
     </g>
     <g id="text_2">
      <!-- −1.5 -->
      <g transform="translate(166.192253 285.774125) scale(0.12 -0.12)">
       <defs>
        <path id="DejaVuSans-31" d="M 794 531 
L 1825 531 
L 1825 4091 
L 703 3866 
L 703 4441 
L 1819 4666 
L 2450 4666 
L 2450 531 
L 3481 531 
L 3481 0 
L 794 0 
L 794 531 
z
" transform="scale(0.015625)"/>
        <path id="DejaVuSans-35" d="M 691 4666 
L 3169 4666 
L 3169 4134 
L 1269 4134 
L 1269 2991 
Q 1406 3038 1543 3061 
Q 1681 3084 1819 3084 
Q 2600 3084 3056 2656 
Q 3513 2228 3513 1497 
Q 3513 744 3044 326 
Q 2575 -91 1722 -91 
Q 1428 -91 1123 -41 
Q 819 9 494 109 
L 494 744 
Q 775 591 1075 516 
Q 1375 441 1709 441 
Q 2250 441 2565 725 
Q 2881 1009 2881 1497 
Q 2881 1984 2565 2268 
Q 2250 2553 1709 2553 
Q 1456 2553 1204 2497 
Q 953 2441 691 2322 
L 691 4666 
z
" transform="scale(0.015625)"/>
       </defs>
       <use xlink:href="#DejaVuSans-2212"/>
       <use xlink:href="#DejaVuSans-31" x="83.789062"/>
       <use xlink:href="#DejaVuSans-2e" x="147.412109"/>
       <use xlink:href="#DejaVuSans-35" x="179.199219"/>
      </g>
     </g>
    </g>
    <g id="xtick_3">
     <g id="line2d_3">
      <g>
       <use xlink:href="#m3db68f611a" x="237.931972" y="269.656" style="stroke: #000000; stroke-width: 0.8"/>
      </g>
     </g>
     <g id="text_3">
      <!-- −1.0 -->
      <g transform="translate(223.362285 285.774125) scale(0.12 -0.12)">
       <use xlink:href="#DejaVuSans-2212"/>
       <use xlink:href="#DejaVuSans-31" x="83.789062"/>
       <use xlink:href="#DejaVuSans-2e" x="147.412109"/>
       <use xlink:href="#DejaVuSans-30" x="179.199219"/>
      </g>
     </g>
    </g>
    <g id="xtick_4">
     <g id="line2d_4">
      <g>
       <use xlink:href="#m3db68f611a" x="295.102004" y="269.656" style="stroke: #000000; stroke-width: 0.8"/>
      </g>
     </g>
     <g id="text_4">
      <!-- −0.5 -->
      <g transform="translate(280.532316 285.774125) scale(0.12 -0.12)">
       <use xlink:href="#DejaVuSans-2212"/>
       <use xlink:href="#DejaVuSans-30" x="83.789062"/>
       <use xlink:href="#DejaVuSans-2e" x="147.412109"/>
       <use xlink:href="#DejaVuSans-35" x="179.199219"/>
      </g>
     </g>
    </g>
    <g id="xtick_5">
     <g id="line2d_5">
      <g>
       <use xlink:href="#m3db68f611a" x="352.272036" y="269.656" style="stroke: #000000; stroke-width: 0.8"/>
      </g>
     </g>
     <g id="text_5">
      <!-- 0.0 -->
      <g transform="translate(342.730161 285.774125) scale(0.12 -0.12)">
       <use xlink:href="#DejaVuSans-30"/>
       <use xlink:href="#DejaVuSans-2e" x="63.623047"/>
       <use xlink:href="#DejaVuSans-30" x="95.410156"/>
      </g>
     </g>
    </g>
    <g id="xtick_6">
     <g id="line2d_6">
      <g>
       <use xlink:href="#m3db68f611a" x="409.442068" y="269.656" style="stroke: #000000; stroke-width: 0.8"/>
      </g>
     </g>
     <g id="text_6">
      <!-- 0.5 -->
      <g transform="translate(399.900193 285.774125) scale(0.12 -0.12)">
       <use xlink:href="#DejaVuSans-30"/>
       <use xlink:href="#DejaVuSans-2e" x="63.623047"/>
       <use xlink:href="#DejaVuSans-35" x="95.410156"/>
      </g>
     </g>
    </g>
    <g id="text_7">
     <!-- Difficulty-Based Change in $d^\prime$ -->
     <g transform="translate(130.130596 304.74975) scale(0.16 -0.16)">
      <defs>
       <path id="DejaVuSans-44" d="M 1259 4147 
L 1259 519 
L 2022 519 
Q 2988 519 3436 956 
Q 3884 1394 3884 2338 
Q 3884 3275 3436 3711 
Q 2988 4147 2022 4147 
L 1259 4147 
z
M 628 4666 
L 1925 4666 
Q 3281 4666 3915 4102 
Q 4550 3538 4550 2338 
Q 4550 1131 3912 565 
Q 3275 0 1925 0 
L 628 0 
L 628 4666 
z
" transform="scale(0.015625)"/>
       <path id="DejaVuSans-69" d="M 603 3500 
L 1178 3500 
L 1178 0 
L 603 0 
L 603 3500 
z
M 603 4863 
L 1178 4863 
L 1178 4134 
L 603 4134 
L 603 4863 
z
" transform="scale(0.015625)"/>
       <path id="DejaVuSans-66" d="M 2375 4863 
L 2375 4384 
L 1825 4384 
Q 1516 4384 1395 4259 
Q 1275 4134 1275 3809 
L 1275 3500 
L 2222 3500 
L 2222 3053 
L 1275 3053 
L 1275 0 
L 697 0 
L 697 3053 
L 147 3053 
L 147 3500 
L 697 3500 
L 697 3744 
Q 697 4328 969 4595 
Q 1241 4863 1831 4863 
L 2375 4863 
z
" transform="scale(0.015625)"/>
       <path id="DejaVuSans-63" d="M 3122 3366 
L 3122 2828 
Q 2878 2963 2633 3030 
Q 2388 3097 2138 3097 
Q 1578 3097 1268 2742 
Q 959 2388 959 1747 
Q 959 1106 1268 751 
Q 1578 397 2138 397 
Q 2388 397 2633 464 
Q 2878 531 3122 666 
L 3122 134 
Q 2881 22 2623 -34 
Q 2366 -91 2075 -91 
Q 1284 -91 818 406 
Q 353 903 353 1747 
Q 353 2603 823 3093 
Q 1294 3584 2113 3584 
Q 2378 3584 2631 3529 
Q 2884 3475 3122 3366 
z
" transform="scale(0.015625)"/>
       <path id="DejaVuSans-75" d="M 544 1381 
L 544 3500 
L 1119 3500 
L 1119 1403 
Q 1119 906 1312 657 
Q 1506 409 1894 409 
Q 2359 409 2629 706 
Q 2900 1003 2900 1516 
L 2900 3500 
L 3475 3500 
L 3475 0 
L 2900 0 
L 2900 538 
Q 2691 219 2414 64 
Q 2138 -91 1772 -91 
Q 1169 -91 856 284 
Q 544 659 544 1381 
z
M 1991 3584 
L 1991 3584 
z
" transform="scale(0.015625)"/>
       <path id="DejaVuSans-6c" d="M 603 4863 
L 1178 4863 
L 1178 0 
L 603 0 
L 603 4863 
z
" transform="scale(0.015625)"/>
       <path id="DejaVuSans-74" d="M 1172 4494 
L 1172 3500 
L 2356 3500 
L 2356 3053 
L 1172 3053 
L 1172 1153 
Q 1172 725 1289 603 
Q 1406 481 1766 481 
L 2356 481 
L 2356 0 
L 1766 0 
Q 1100 0 847 248 
Q 594 497 594 1153 
L 594 3053 
L 172 3053 
L 172 3500 
L 594 3500 
L 594 4494 
L 1172 4494 
z
" transform="scale(0.015625)"/>
       <path id="DejaVuSans-79" d="M 2059 -325 
Q 1816 -950 1584 -1140 
Q 1353 -1331 966 -1331 
L 506 -1331 
L 506 -850 
L 844 -850 
Q 1081 -850 1212 -737 
Q 1344 -625 1503 -206 
L 1606 56 
L 191 3500 
L 800 3500 
L 1894 763 
L 2988 3500 
L 3597 3500 
L 2059 -325 
z
" transform="scale(0.015625)"/>
       <path id="DejaVuSans-2d" d="M 313 2009 
L 1997 2009 
L 1997 1497 
L 313 1497 
L 313 2009 
z
" transform="scale(0.015625)"/>
       <path id="DejaVuSans-42" d="M 1259 2228 
L 1259 519 
L 2272 519 
Q 2781 519 3026 730 
Q 3272 941 3272 1375 
Q 3272 1813 3026 2020 
Q 2781 2228 2272 2228 
L 1259 2228 
z
M 1259 4147 
L 1259 2741 
L 2194 2741 
Q 2656 2741 2882 2914 
Q 3109 3088 3109 3444 
Q 3109 3797 2882 3972 
Q 2656 4147 2194 4147 
L 1259 4147 
z
M 628 4666 
L 2241 4666 
Q 2963 4666 3353 4366 
Q 3744 4066 3744 3513 
Q 3744 3084 3544 2831 
Q 3344 2578 2956 2516 
Q 3422 2416 3680 2098 
Q 3938 1781 3938 1306 
Q 3938 681 3513 340 
Q 3088 0 2303 0 
L 628 0 
L 628 4666 
z
" transform="scale(0.015625)"/>
       <path id="DejaVuSans-61" d="M 2194 1759 
Q 1497 1759 1228 1600 
Q 959 1441 959 1056 
Q 959 750 1161 570 
Q 1363 391 1709 391 
Q 2188 391 2477 730 
Q 2766 1069 2766 1631 
L 2766 1759 
L 2194 1759 
z
M 3341 1997 
L 3341 0 
L 2766 0 
L 2766 531 
Q 2569 213 2275 61 
Q 1981 -91 1556 -91 
Q 1019 -91 701 211 
Q 384 513 384 1019 
Q 384 1609 779 1909 
Q 1175 2209 1959 2209 
L 2766 2209 
L 2766 2266 
Q 2766 2663 2505 2880 
Q 2244 3097 1772 3097 
Q 1472 3097 1187 3025 
Q 903 2953 641 2809 
L 641 3341 
Q 956 3463 1253 3523 
Q 1550 3584 1831 3584 
Q 2591 3584 2966 3190 
Q 3341 2797 3341 1997 
z
" transform="scale(0.015625)"/>
       <path id="DejaVuSans-73" d="M 2834 3397 
L 2834 2853 
Q 2591 2978 2328 3040 
Q 2066 3103 1784 3103 
Q 1356 3103 1142 2972 
Q 928 2841 928 2578 
Q 928 2378 1081 2264 
Q 1234 2150 1697 2047 
L 1894 2003 
Q 2506 1872 2764 1633 
Q 3022 1394 3022 966 
Q 3022 478 2636 193 
Q 2250 -91 1575 -91 
Q 1294 -91 989 -36 
Q 684 19 347 128 
L 347 722 
Q 666 556 975 473 
Q 1284 391 1588 391 
Q 1994 391 2212 530 
Q 2431 669 2431 922 
Q 2431 1156 2273 1281 
Q 2116 1406 1581 1522 
L 1381 1569 
Q 847 1681 609 1914 
Q 372 2147 372 2553 
Q 372 3047 722 3315 
Q 1072 3584 1716 3584 
Q 2034 3584 2315 3537 
Q 2597 3491 2834 3397 
z
" transform="scale(0.015625)"/>
       <path id="DejaVuSans-65" d="M 3597 1894 
L 3597 1613 
L 953 1613 
Q 991 1019 1311 708 
Q 1631 397 2203 397 
Q 2534 397 2845 478 
Q 3156 559 3463 722 
L 3463 178 
Q 3153 47 2828 -22 
Q 2503 -91 2169 -91 
Q 1331 -91 842 396 
Q 353 884 353 1716 
Q 353 2575 817 3079 
Q 1281 3584 2069 3584 
Q 2775 3584 3186 3129 
Q 3597 2675 3597 1894 
z
M 3022 2063 
Q 3016 2534 2758 2815 
Q 2500 3097 2075 3097 
Q 1594 3097 1305 2825 
Q 1016 2553 972 2059 
L 3022 2063 
z
" transform="scale(0.015625)"/>
       <path id="DejaVuSans-64" d="M 2906 2969 
L 2906 4863 
L 3481 4863 
L 3481 0 
L 2906 0 
L 2906 525 
Q 2725 213 2448 61 
Q 2172 -91 1784 -91 
Q 1150 -91 751 415 
Q 353 922 353 1747 
Q 353 2572 751 3078 
Q 1150 3584 1784 3584 
Q 2172 3584 2448 3432 
Q 2725 3281 2906 2969 
z
M 947 1747 
Q 947 1113 1208 752 
Q 1469 391 1925 391 
Q 2381 391 2643 752 
Q 2906 1113 2906 1747 
Q 2906 2381 2643 2742 
Q 2381 3103 1925 3103 
Q 1469 3103 1208 2742 
Q 947 2381 947 1747 
z
" transform="scale(0.015625)"/>
       <path id="DejaVuSans-20" transform="scale(0.015625)"/>
       <path id="DejaVuSans-43" d="M 4122 4306 
L 4122 3641 
Q 3803 3938 3442 4084 
Q 3081 4231 2675 4231 
Q 1875 4231 1450 3742 
Q 1025 3253 1025 2328 
Q 1025 1406 1450 917 
Q 1875 428 2675 428 
Q 3081 428 3442 575 
Q 3803 722 4122 1019 
L 4122 359 
Q 3791 134 3420 21 
Q 3050 -91 2638 -91 
Q 1578 -91 968 557 
Q 359 1206 359 2328 
Q 359 3453 968 4101 
Q 1578 4750 2638 4750 
Q 3056 4750 3426 4639 
Q 3797 4528 4122 4306 
z
" transform="scale(0.015625)"/>
       <path id="DejaVuSans-68" d="M 3513 2113 
L 3513 0 
L 2938 0 
L 2938 2094 
Q 2938 2591 2744 2837 
Q 2550 3084 2163 3084 
Q 1697 3084 1428 2787 
Q 1159 2491 1159 1978 
L 1159 0 
L 581 0 
L 581 4863 
L 1159 4863 
L 1159 2956 
Q 1366 3272 1645 3428 
Q 1925 3584 2291 3584 
Q 2894 3584 3203 3211 
Q 3513 2838 3513 2113 
z
" transform="scale(0.015625)"/>
       <path id="DejaVuSans-6e" d="M 3513 2113 
L 3513 0 
L 2938 0 
L 2938 2094 
Q 2938 2591 2744 2837 
Q 2550 3084 2163 3084 
Q 1697 3084 1428 2787 
Q 1159 2491 1159 1978 
L 1159 0 
L 581 0 
L 581 3500 
L 1159 3500 
L 1159 2956 
Q 1366 3272 1645 3428 
Q 1925 3584 2291 3584 
Q 2894 3584 3203 3211 
Q 3513 2838 3513 2113 
z
" transform="scale(0.015625)"/>
       <path id="DejaVuSans-67" d="M 2906 1791 
Q 2906 2416 2648 2759 
Q 2391 3103 1925 3103 
Q 1463 3103 1205 2759 
Q 947 2416 947 1791 
Q 947 1169 1205 825 
Q 1463 481 1925 481 
Q 2391 481 2648 825 
Q 2906 1169 2906 1791 
z
M 3481 434 
Q 3481 -459 3084 -895 
Q 2688 -1331 1869 -1331 
Q 1566 -1331 1297 -1286 
Q 1028 -1241 775 -1147 
L 775 -588 
Q 1028 -725 1275 -790 
Q 1522 -856 1778 -856 
Q 2344 -856 2625 -561 
Q 2906 -266 2906 331 
L 2906 616 
Q 2728 306 2450 153 
Q 2172 0 1784 0 
Q 1141 0 747 490 
Q 353 981 353 1791 
Q 353 2603 747 3093 
Q 1141 3584 1784 3584 
Q 2172 3584 2450 3431 
Q 2728 3278 2906 2969 
L 2906 3500 
L 3481 3500 
L 3481 434 
z
" transform="scale(0.015625)"/>
       <path id="DejaVuSans-Oblique-64" d="M 2675 525 
Q 2444 222 2128 65 
Q 1813 -91 1428 -91 
Q 903 -91 598 267 
Q 294 625 294 1247 
Q 294 1766 478 2236 
Q 663 2706 1013 3078 
Q 1244 3325 1534 3454 
Q 1825 3584 2144 3584 
Q 2481 3584 2739 3421 
Q 2997 3259 3138 2956 
L 3513 4863 
L 4091 4863 
L 3144 0 
L 2566 0 
L 2675 525 
z
M 891 1350 
Q 891 897 1095 644 
Q 1300 391 1663 391 
Q 1931 391 2161 520 
Q 2391 650 2566 903 
Q 2750 1166 2856 1509 
Q 2963 1853 2963 2188 
Q 2963 2622 2758 2865 
Q 2553 3109 2194 3109 
Q 1922 3109 1687 2981 
Q 1453 2853 1288 2613 
Q 1106 2353 998 2009 
Q 891 1666 891 1350 
z
" transform="scale(0.015625)"/>
       <path id="Cmsy10-30" d="M 225 347 
Q 184 359 184 409 
L 966 3316 
Q 1003 3434 1093 3506 
Q 1184 3578 1300 3578 
Q 1450 3578 1564 3479 
Q 1678 3381 1678 3231 
Q 1678 3166 1644 3084 
L 488 319 
Q 466 275 428 275 
Q 394 275 320 306 
Q 247 338 225 347 
z
" transform="scale(0.015625)"/>
      </defs>
      <use xlink:href="#DejaVuSans-44" transform="translate(0 0.584375)"/>
      <use xlink:href="#DejaVuSans-69" transform="translate(77.001953 0.584375)"/>
      <use xlink:href="#DejaVuSans-66" transform="translate(104.785156 0.584375)"/>
      <use xlink:href="#DejaVuSans-66" transform="translate(139.990234 0.584375)"/>
      <use xlink:href="#DejaVuSans-69" transform="translate(175.195312 0.584375)"/>
      <use xlink:href="#DejaVuSans-63" transform="translate(202.978516 0.584375)"/>
      <use xlink:href="#DejaVuSans-75" transform="translate(257.958984 0.584375)"/>
      <use xlink:href="#DejaVuSans-6c" transform="translate(321.337891 0.584375)"/>
      <use xlink:href="#DejaVuSans-74" transform="translate(349.121094 0.584375)"/>
      <use xlink:href="#DejaVuSans-79" transform="translate(388.330078 0.584375)"/>
      <use xlink:href="#DejaVuSans-2d" transform="translate(447.509766 0.584375)"/>
      <use xlink:href="#DejaVuSans-42" transform="translate(483.59375 0.584375)"/>
      <use xlink:href="#DejaVuSans-61" transform="translate(552.197266 0.584375)"/>
      <use xlink:href="#DejaVuSans-73" transform="translate(613.476562 0.584375)"/>
      <use xlink:href="#DejaVuSans-65" transform="translate(665.576172 0.584375)"/>
      <use xlink:href="#DejaVuSans-64" transform="translate(727.099609 0.584375)"/>
      <use xlink:href="#DejaVuSans-20" transform="translate(790.576172 0.584375)"/>
      <use xlink:href="#DejaVuSans-43" transform="translate(822.363281 0.584375)"/>
      <use xlink:href="#DejaVuSans-68" transform="translate(892.1875 0.584375)"/>
      <use xlink:href="#DejaVuSans-61" transform="translate(955.566406 0.584375)"/>
      <use xlink:href="#DejaVuSans-6e" transform="translate(1016.845703 0.584375)"/>
      <use xlink:href="#DejaVuSans-67" transform="translate(1080.224609 0.584375)"/>
      <use xlink:href="#DejaVuSans-65" transform="translate(1143.701172 0.584375)"/>
      <use xlink:href="#DejaVuSans-20" transform="translate(1205.224609 0.584375)"/>
      <use xlink:href="#DejaVuSans-69" transform="translate(1237.011719 0.584375)"/>
      <use xlink:href="#DejaVuSans-6e" transform="translate(1264.794922 0.584375)"/>
      <use xlink:href="#DejaVuSans-20" transform="translate(1328.173828 0.584375)"/>
      <use xlink:href="#DejaVuSans-Oblique-64" transform="translate(1359.960938 0.584375)"/>
      <use xlink:href="#Cmsy10-30" transform="translate(1430.885208 38.865625) scale(0.7)"/>
     </g>
    </g>
   </g>
   <g id="matplotlib.axis_2">
    <g id="ytick_1">
     <g id="line2d_7">
      <defs>
       <path id="m2b445bc6da" d="M 0 0 
L -3.5 0 
" style="stroke: #000000; stroke-width: 0.8"/>
      </defs>
      <g>
       <use xlink:href="#m2b445bc6da" x="77.33" y="269.656" style="stroke: #000000; stroke-width: 0.8"/>
      </g>
     </g>
     <g id="text_8">
      <!-- −0.04 -->
      <g transform="translate(33.555625 274.215063) scale(0.12 -0.12)">
       <defs>
        <path id="DejaVuSans-34" d="M 2419 4116 
L 825 1625 
L 2419 1625 
L 2419 4116 
z
M 2253 4666 
L 3047 4666 
L 3047 1625 
L 3713 1625 
L 3713 1100 
L 3047 1100 
L 3047 0 
L 2419 0 
L 2419 1100 
L 313 1100 
L 313 1709 
L 2253 4666 
z
" transform="scale(0.015625)"/>
       </defs>
       <use xlink:href="#DejaVuSans-2212"/>
       <use xlink:href="#DejaVuSans-30" x="83.789062"/>
       <use xlink:href="#DejaVuSans-2e" x="147.412109"/>
       <use xlink:href="#DejaVuSans-30" x="179.199219"/>
       <use xlink:href="#DejaVuSans-34" x="242.822266"/>
      </g>
     </g>
    </g>
    <g id="ytick_2">
     <g id="line2d_8">
      <g>
       <use xlink:href="#m2b445bc6da" x="77.33" y="238.109" style="stroke: #000000; stroke-width: 0.8"/>
      </g>
     </g>
     <g id="text_9">
      <!-- −0.03 -->
      <g transform="translate(33.555625 242.668063) scale(0.12 -0.12)">
       <defs>
        <path id="DejaVuSans-33" d="M 2597 2516 
Q 3050 2419 3304 2112 
Q 3559 1806 3559 1356 
Q 3559 666 3084 287 
Q 2609 -91 1734 -91 
Q 1441 -91 1130 -33 
Q 819 25 488 141 
L 488 750 
Q 750 597 1062 519 
Q 1375 441 1716 441 
Q 2309 441 2620 675 
Q 2931 909 2931 1356 
Q 2931 1769 2642 2001 
Q 2353 2234 1838 2234 
L 1294 2234 
L 1294 2753 
L 1863 2753 
Q 2328 2753 2575 2939 
Q 2822 3125 2822 3475 
Q 2822 3834 2567 4026 
Q 2313 4219 1838 4219 
Q 1578 4219 1281 4162 
Q 984 4106 628 3988 
L 628 4550 
Q 988 4650 1302 4700 
Q 1616 4750 1894 4750 
Q 2613 4750 3031 4423 
Q 3450 4097 3450 3541 
Q 3450 3153 3228 2886 
Q 3006 2619 2597 2516 
z
" transform="scale(0.015625)"/>
       </defs>
       <use xlink:href="#DejaVuSans-2212"/>
       <use xlink:href="#DejaVuSans-30" x="83.789062"/>
       <use xlink:href="#DejaVuSans-2e" x="147.412109"/>
       <use xlink:href="#DejaVuSans-30" x="179.199219"/>
       <use xlink:href="#DejaVuSans-33" x="242.822266"/>
      </g>
     </g>
    </g>
    <g id="ytick_3">
     <g id="line2d_9">
      <g>
       <use xlink:href="#m2b445bc6da" x="77.33" y="206.562" style="stroke: #000000; stroke-width: 0.8"/>
      </g>
     </g>
     <g id="text_10">
      <!-- −0.02 -->
      <g transform="translate(33.555625 211.121062) scale(0.12 -0.12)">
       <use xlink:href="#DejaVuSans-2212"/>
       <use xlink:href="#DejaVuSans-30" x="83.789062"/>
       <use xlink:href="#DejaVuSans-2e" x="147.412109"/>
       <use xlink:href="#DejaVuSans-30" x="179.199219"/>
       <use xlink:href="#DejaVuSans-32" x="242.822266"/>
      </g>
     </g>
    </g>
    <g id="ytick_4">
     <g id="line2d_10">
      <g>
       <use xlink:href="#m2b445bc6da" x="77.33" y="175.015" style="stroke: #000000; stroke-width: 0.8"/>
      </g>
     </g>
     <g id="text_11">
      <!-- −0.01 -->
      <g transform="translate(33.555625 179.574063) scale(0.12 -0.12)">
       <use xlink:href="#DejaVuSans-2212"/>
       <use xlink:href="#DejaVuSans-30" x="83.789062"/>
       <use xlink:href="#DejaVuSans-2e" x="147.412109"/>
       <use xlink:href="#DejaVuSans-30" x="179.199219"/>
       <use xlink:href="#DejaVuSans-31" x="242.822266"/>
      </g>
     </g>
    </g>
    <g id="ytick_5">
     <g id="line2d_11">
      <g>
       <use xlink:href="#m2b445bc6da" x="77.33" y="143.468" style="stroke: #000000; stroke-width: 0.8"/>
      </g>
     </g>
     <g id="text_12">
      <!-- 0.00 -->
      <g transform="translate(43.61125 148.027063) scale(0.12 -0.12)">
       <use xlink:href="#DejaVuSans-30"/>
       <use xlink:href="#DejaVuSans-2e" x="63.623047"/>
       <use xlink:href="#DejaVuSans-30" x="95.410156"/>
       <use xlink:href="#DejaVuSans-30" x="159.033203"/>
      </g>
     </g>
    </g>
    <g id="ytick_6">
     <g id="line2d_12">
      <g>
       <use xlink:href="#m2b445bc6da" x="77.33" y="111.921" style="stroke: #000000; stroke-width: 0.8"/>
      </g>
     </g>
     <g id="text_13">
      <!-- 0.01 -->
      <g transform="translate(43.61125 116.480063) scale(0.12 -0.12)">
       <use xlink:href="#DejaVuSans-30"/>
       <use xlink:href="#DejaVuSans-2e" x="63.623047"/>
       <use xlink:href="#DejaVuSans-30" x="95.410156"/>
       <use xlink:href="#DejaVuSans-31" x="159.033203"/>
      </g>
     </g>
    </g>
    <g id="ytick_7">
     <g id="line2d_13">
      <g>
       <use xlink:href="#m2b445bc6da" x="77.33" y="80.374" style="stroke: #000000; stroke-width: 0.8"/>
      </g>
     </g>
     <g id="text_14">
      <!-- 0.02 -->
      <g transform="translate(43.61125 84.933063) scale(0.12 -0.12)">
       <use xlink:href="#DejaVuSans-30"/>
       <use xlink:href="#DejaVuSans-2e" x="63.623047"/>
       <use xlink:href="#DejaVuSans-30" x="95.410156"/>
       <use xlink:href="#DejaVuSans-32" x="159.033203"/>
      </g>
     </g>
    </g>
    <g id="ytick_8">
     <g id="line2d_14">
      <g>
       <use xlink:href="#m2b445bc6da" x="77.33" y="48.827" style="stroke: #000000; stroke-width: 0.8"/>
      </g>
     </g>
     <g id="text_15">
      <!-- 0.03 -->
      <g transform="translate(43.61125 53.386062) scale(0.12 -0.12)">
       <use xlink:href="#DejaVuSans-30"/>
       <use xlink:href="#DejaVuSans-2e" x="63.623047"/>
       <use xlink:href="#DejaVuSans-30" x="95.410156"/>
       <use xlink:href="#DejaVuSans-33" x="159.033203"/>
      </g>
     </g>
    </g>
    <g id="ytick_9">
     <g id="line2d_15">
      <g>
       <use xlink:href="#m2b445bc6da" x="77.33" y="17.28" style="stroke: #000000; stroke-width: 0.8"/>
      </g>
     </g>
     <g id="text_16">
      <!-- 0.04 -->
      <g transform="translate(43.61125 21.839063) scale(0.12 -0.12)">
       <use xlink:href="#DejaVuSans-30"/>
       <use xlink:href="#DejaVuSans-2e" x="63.623047"/>
       <use xlink:href="#DejaVuSans-30" x="95.410156"/>
       <use xlink:href="#DejaVuSans-34" x="159.033203"/>
      </g>
     </g>
    </g>
    <g id="text_17">
     <!-- Change in Timing-Induced Bias -->
     <g transform="translate(26.228125 267.68675) rotate(-90) scale(0.16 -0.16)">
      <defs>
       <path id="DejaVuSans-54" d="M -19 4666 
L 3928 4666 
L 3928 4134 
L 2272 4134 
L 2272 0 
L 1638 0 
L 1638 4134 
L -19 4134 
L -19 4666 
z
" transform="scale(0.015625)"/>
       <path id="DejaVuSans-6d" d="M 3328 2828 
Q 3544 3216 3844 3400 
Q 4144 3584 4550 3584 
Q 5097 3584 5394 3201 
Q 5691 2819 5691 2113 
L 5691 0 
L 5113 0 
L 5113 2094 
Q 5113 2597 4934 2840 
Q 4756 3084 4391 3084 
Q 3944 3084 3684 2787 
Q 3425 2491 3425 1978 
L 3425 0 
L 2847 0 
L 2847 2094 
Q 2847 2600 2669 2842 
Q 2491 3084 2119 3084 
Q 1678 3084 1418 2786 
Q 1159 2488 1159 1978 
L 1159 0 
L 581 0 
L 581 3500 
L 1159 3500 
L 1159 2956 
Q 1356 3278 1631 3431 
Q 1906 3584 2284 3584 
Q 2666 3584 2933 3390 
Q 3200 3197 3328 2828 
z
" transform="scale(0.015625)"/>
       <path id="DejaVuSans-49" d="M 628 4666 
L 1259 4666 
L 1259 0 
L 628 0 
L 628 4666 
z
" transform="scale(0.015625)"/>
      </defs>
      <use xlink:href="#DejaVuSans-43"/>
      <use xlink:href="#DejaVuSans-68" x="69.824219"/>
      <use xlink:href="#DejaVuSans-61" x="133.203125"/>
      <use xlink:href="#DejaVuSans-6e" x="194.482422"/>
      <use xlink:href="#DejaVuSans-67" x="257.861328"/>
      <use xlink:href="#DejaVuSans-65" x="321.337891"/>
      <use xlink:href="#DejaVuSans-20" x="382.861328"/>
      <use xlink:href="#DejaVuSans-69" x="414.648438"/>
      <use xlink:href="#DejaVuSans-6e" x="442.431641"/>
      <use xlink:href="#DejaVuSans-20" x="505.810547"/>
      <use xlink:href="#DejaVuSans-54" x="537.597656"/>
      <use xlink:href="#DejaVuSans-69" x="595.556641"/>
      <use xlink:href="#DejaVuSans-6d" x="623.339844"/>
      <use xlink:href="#DejaVuSans-69" x="720.751953"/>
      <use xlink:href="#DejaVuSans-6e" x="748.535156"/>
      <use xlink:href="#DejaVuSans-67" x="811.914062"/>
      <use xlink:href="#DejaVuSans-2d" x="875.390625"/>
      <use xlink:href="#DejaVuSans-49" x="911.474609"/>
      <use xlink:href="#DejaVuSans-6e" x="940.966797"/>
      <use xlink:href="#DejaVuSans-64" x="1004.345703"/>
      <use xlink:href="#DejaVuSans-75" x="1067.822266"/>
      <use xlink:href="#DejaVuSans-63" x="1131.201172"/>
      <use xlink:href="#DejaVuSans-65" x="1186.181641"/>
      <use xlink:href="#DejaVuSans-64" x="1247.705078"/>
      <use xlink:href="#DejaVuSans-20" x="1311.181641"/>
      <use xlink:href="#DejaVuSans-42" x="1342.96875"/>
      <use xlink:href="#DejaVuSans-69" x="1411.572266"/>
      <use xlink:href="#DejaVuSans-61" x="1439.355469"/>
      <use xlink:href="#DejaVuSans-73" x="1500.634766"/>
     </g>
    </g>
   </g>
   <g id="line2d_16">
    <path d="M 92.697327 160.912528 
L 95.801837 160.588449 
L 98.906348 160.26437 
L 102.010858 159.940291 
L 105.115369 159.616212 
L 108.219879 159.292133 
L 111.32439 158.968054 
L 114.4289 158.643975 
L 117.533411 158.319896 
L 120.637921 157.995817 
L 123.742432 157.671738 
L 126.846942 157.347658 
L 129.951453 157.023579 
L 133.055963 156.6995 
L 136.160474 156.375421 
L 139.264984 156.051342 
L 142.369495 155.727263 
L 145.474005 155.403184 
L 148.578516 155.079105 
L 151.683026 154.755026 
L 154.787537 154.430947 
L 157.892047 154.106868 
L 160.996558 153.782788 
L 164.101068 153.458709 
L 167.205579 153.13463 
L 170.310089 152.810551 
L 173.4146 152.486472 
L 176.51911 152.162393 
L 179.623621 151.838314 
L 182.728131 151.514235 
L 185.832642 151.190156 
L 188.937152 150.866077 
L 192.041663 150.541998 
L 195.146173 150.217918 
L 198.250683 149.893839 
L 201.355194 149.56976 
L 204.459704 149.245681 
L 207.564215 148.921602 
L 210.668725 148.597523 
L 213.773236 148.273444 
L 216.877746 147.949365 
L 219.982257 147.625286 
L 223.086767 147.301207 
L 226.191278 146.977128 
L 229.295788 146.653048 
L 232.400299 146.328969 
L 235.504809 146.00489 
L 238.60932 145.680811 
L 241.71383 145.356732 
L 244.818341 145.032653 
L 247.922851 144.708574 
L 251.027362 144.384495 
L 254.131872 144.060416 
L 257.236383 143.736337 
L 260.340893 143.412258 
L 263.445404 143.088179 
L 266.549914 142.764099 
L 269.654425 142.44002 
L 272.758935 142.115941 
L 275.863446 141.791862 
L 278.967956 141.467783 
L 282.072467 141.143704 
L 285.176977 140.819625 
L 288.281488 140.495546 
L 291.385998 140.171467 
L 294.490509 139.847388 
L 297.595019 139.523309 
L 300.69953 139.199229 
L 303.80404 138.87515 
L 306.908551 138.551071 
L 310.013061 138.226992 
L 313.117572 137.902913 
L 316.222082 137.578834 
L 319.326592 137.254755 
L 322.431103 136.930676 
L 325.535613 136.606597 
L 328.640124 136.282518 
L 331.744634 135.958439 
L 334.849145 135.634359 
L 337.953655 135.31028 
L 341.058166 134.986201 
L 344.162676 134.662122 
L 347.267187 134.338043 
L 350.371697 134.013964 
L 353.476208 133.689885 
L 356.580718 133.365806 
L 359.685229 133.041727 
L 362.789739 132.717648 
L 365.89425 132.393569 
L 368.99876 132.069489 
L 372.103271 131.74541 
L 375.207781 131.421331 
L 378.312292 131.097252 
L 381.416802 130.773173 
L 384.521313 130.449094 
L 387.625823 130.125015 
L 390.730334 129.800936 
L 393.834844 129.476857 
L 396.939355 129.152778 
L 400.043865 128.828699 
" clip-path="url(#pc0f312975c)" style="fill: none; stroke: #000000; stroke-width: 2.25; stroke-linecap: square"/>
   </g>
   <g id="line2d_17">
    <path d="M 77.33 143.468 
L 415.411192 143.468 
" clip-path="url(#pc0f312975c)" style="fill: none; stroke-dasharray: 5.55,2.4; stroke-dashoffset: 0; stroke: #000000; stroke-opacity: 0.5; stroke-width: 1.5"/>
   </g>
   <g id="line2d_18">
    <path d="M 352.272036 269.656 
L 352.272036 17.28 
" clip-path="url(#pc0f312975c)" style="fill: none; stroke-dasharray: 5.55,2.4; stroke-dashoffset: 0; stroke: #000000; stroke-opacity: 0.5; stroke-width: 1.5"/>
   </g>
   <g id="patch_3">
    <path d="M 77.33 269.656 
L 77.33 17.28 
" style="fill: none; stroke: #000000; stroke-width: 0.8; stroke-linejoin: miter; stroke-linecap: square"/>
   </g>
   <g id="patch_4">
    <path d="M 77.33 269.656 
L 415.411192 269.656 
" style="fill: none; stroke: #000000; stroke-width: 0.8; stroke-linejoin: miter; stroke-linecap: square"/>
   </g>
   <g id="text_18">
    <!-- $r=0.162$, $p=0.419$ -->
    <g transform="translate(85.859687 261.76925) scale(0.14 -0.14)">
     <defs>
      <path id="DejaVuSans-Oblique-72" d="M 2853 2969 
Q 2766 3016 2653 3041 
Q 2541 3066 2413 3066 
Q 1953 3066 1609 2717 
Q 1266 2369 1153 1784 
L 800 0 
L 225 0 
L 909 3500 
L 1484 3500 
L 1375 2956 
Q 1603 3259 1920 3421 
Q 2238 3584 2597 3584 
Q 2691 3584 2781 3573 
Q 2872 3563 2963 3538 
L 2853 2969 
z
" transform="scale(0.015625)"/>
      <path id="DejaVuSans-3d" d="M 678 2906 
L 4684 2906 
L 4684 2381 
L 678 2381 
L 678 2906 
z
M 678 1631 
L 4684 1631 
L 4684 1100 
L 678 1100 
L 678 1631 
z
" transform="scale(0.015625)"/>
      <path id="DejaVuSans-36" d="M 2113 2584 
Q 1688 2584 1439 2293 
Q 1191 2003 1191 1497 
Q 1191 994 1439 701 
Q 1688 409 2113 409 
Q 2538 409 2786 701 
Q 3034 994 3034 1497 
Q 3034 2003 2786 2293 
Q 2538 2584 2113 2584 
z
M 3366 4563 
L 3366 3988 
Q 3128 4100 2886 4159 
Q 2644 4219 2406 4219 
Q 1781 4219 1451 3797 
Q 1122 3375 1075 2522 
Q 1259 2794 1537 2939 
Q 1816 3084 2150 3084 
Q 2853 3084 3261 2657 
Q 3669 2231 3669 1497 
Q 3669 778 3244 343 
Q 2819 -91 2113 -91 
Q 1303 -91 875 529 
Q 447 1150 447 2328 
Q 447 3434 972 4092 
Q 1497 4750 2381 4750 
Q 2619 4750 2861 4703 
Q 3103 4656 3366 4563 
z
" transform="scale(0.015625)"/>
      <path id="DejaVuSans-2c" d="M 750 794 
L 1409 794 
L 1409 256 
L 897 -744 
L 494 -744 
L 750 256 
L 750 794 
z
" transform="scale(0.015625)"/>
      <path id="DejaVuSans-Oblique-70" d="M 3175 2156 
Q 3175 2616 2975 2859 
Q 2775 3103 2400 3103 
Q 2144 3103 1911 2972 
Q 1678 2841 1497 2591 
Q 1319 2344 1212 1994 
Q 1106 1644 1106 1300 
Q 1106 863 1306 627 
Q 1506 391 1875 391 
Q 2147 391 2380 519 
Q 2613 647 2778 891 
Q 2956 1147 3065 1494 
Q 3175 1841 3175 2156 
z
M 1394 2969 
Q 1625 3272 1939 3428 
Q 2253 3584 2638 3584 
Q 3175 3584 3472 3232 
Q 3769 2881 3769 2247 
Q 3769 1728 3584 1258 
Q 3400 788 3053 416 
Q 2822 169 2531 39 
Q 2241 -91 1919 -91 
Q 1547 -91 1294 64 
Q 1041 219 916 525 
L 556 -1331 
L -19 -1331 
L 922 3500 
L 1497 3500 
L 1394 2969 
z
" transform="scale(0.015625)"/>
      <path id="DejaVuSans-39" d="M 703 97 
L 703 672 
Q 941 559 1184 500 
Q 1428 441 1663 441 
Q 2288 441 2617 861 
Q 2947 1281 2994 2138 
Q 2813 1869 2534 1725 
Q 2256 1581 1919 1581 
Q 1219 1581 811 2004 
Q 403 2428 403 3163 
Q 403 3881 828 4315 
Q 1253 4750 1959 4750 
Q 2769 4750 3195 4129 
Q 3622 3509 3622 2328 
Q 3622 1225 3098 567 
Q 2575 -91 1691 -91 
Q 1453 -91 1209 -44 
Q 966 3 703 97 
z
M 1959 2075 
Q 2384 2075 2632 2365 
Q 2881 2656 2881 3163 
Q 2881 3666 2632 3958 
Q 2384 4250 1959 4250 
Q 1534 4250 1286 3958 
Q 1038 3666 1038 3163 
Q 1038 2656 1286 2365 
Q 1534 2075 1959 2075 
z
" transform="scale(0.015625)"/>
     </defs>
     <use xlink:href="#DejaVuSans-Oblique-72" transform="translate(0 0.78125)"/>
     <use xlink:href="#DejaVuSans-3d" transform="translate(60.595703 0.78125)"/>
     <use xlink:href="#DejaVuSans-30" transform="translate(163.867188 0.78125)"/>
     <use xlink:href="#DejaVuSans-2e" transform="translate(227.490234 0.78125)"/>
     <use xlink:href="#DejaVuSans-31" transform="translate(259.277344 0.78125)"/>
     <use xlink:href="#DejaVuSans-36" transform="translate(322.900391 0.78125)"/>
     <use xlink:href="#DejaVuSans-32" transform="translate(386.523438 0.78125)"/>
     <use xlink:href="#DejaVuSans-2c" transform="translate(450.146484 0.78125)"/>
     <use xlink:href="#DejaVuSans-20" transform="translate(481.933594 0.78125)"/>
     <use xlink:href="#DejaVuSans-Oblique-70" transform="translate(513.720703 0.78125)"/>
     <use xlink:href="#DejaVuSans-3d" transform="translate(596.679688 0.78125)"/>
     <use xlink:href="#DejaVuSans-30" transform="translate(699.951172 0.78125)"/>
     <use xlink:href="#DejaVuSans-2e" transform="translate(763.574219 0.78125)"/>
     <use xlink:href="#DejaVuSans-34" transform="translate(795.361328 0.78125)"/>
     <use xlink:href="#DejaVuSans-31" transform="translate(858.984375 0.78125)"/>
     <use xlink:href="#DejaVuSans-39" transform="translate(922.607422 0.78125)"/>
    </g>
   </g>
  </g>
 </g>
 <defs>
  <clipPath id="pc0f312975c">
   <rect x="77.33" y="17.28" width="338.081192" height="252.376"/>
  </clipPath>
 </defs>
</svg>
