<?xml version="1.0" encoding="utf-8" standalone="no"?>
<!DOCTYPE svg PUBLIC "-//W3C//DTD SVG 1.1//EN"
  "http://www.w3.org/Graphics/SVG/1.1/DTD/svg11.dtd">
<svg xmlns:xlink="http://www.w3.org/1999/xlink" width="432pt" height="360pt" viewBox="0 0 432 360" xmlns="http://www.w3.org/2000/svg" version="1.1">
 <metadata>
  <rdf:RDF xmlns:dc="http://purl.org/dc/elements/1.1/" xmlns:cc="http://creativecommons.org/ns#" xmlns:rdf="http://www.w3.org/1999/02/22-rdf-syntax-ns#">
   <cc:Work>
    <dc:type rdf:resource="http://purl.org/dc/dcmitype/StillImage"/>
    <dc:date>2023-04-12T10:58:07.355463</dc:date>
    <dc:format>image/svg+xml</dc:format>
    <dc:creator>
     <cc:Agent>
      <dc:title>Matplotlib v3.5.1, https://matplotlib.org/</dc:title>
     </cc:Agent>
    </dc:creator>
   </cc:Work>
  </rdf:RDF>
 </metadata>
 <defs>
  <style type="text/css">*{stroke-linejoin: round; stroke-linecap: butt}</style>
 </defs>
 <g id="figure_1">
  <g id="patch_1">
   <path d="M 0 360 
L 432 360 
L 432 0 
L 0 0 
z
" style="fill: #ffffff"/>
  </g>
  <g id="axes_1">
   <g id="patch_2">
    <path d="M 64.21 235.449624 
L 419.04 235.449624 
L 419.04 12.96 
L 64.21 12.96 
z
" style="fill: #eaeaf2"/>
   </g>
   <g id="matplotlib.axis_1">
    <g id="xtick_1">
     <g id="line2d_1">
      <path d="M 99.588944 235.449624 
L 99.588944 12.96 
" clip-path="url(#p5e9f0f3a12)" style="fill: none; stroke: #ffffff; stroke-width: 0.8; stroke-linecap: round"/>
     </g>
     <g id="text_1">
      <!-- 5 -->
      <g style="fill: #262626" transform="translate(96.252382 251.038999)scale(0.12 -0.12)">
       <defs>
        <path id="ArialMT-35" d="M 266 1200 
L 856 1250 
Q 922 819 1161 601 
Q 1400 384 1738 384 
Q 2144 384 2425 690 
Q 2706 997 2706 1503 
Q 2706 1984 2436 2262 
Q 2166 2541 1728 2541 
Q 1456 2541 1237 2417 
Q 1019 2294 894 2097 
L 366 2166 
L 809 4519 
L 3088 4519 
L 3088 3981 
L 1259 3981 
L 1013 2750 
Q 1425 3038 1878 3038 
Q 2478 3038 2890 2622 
Q 3303 2206 3303 1553 
Q 3303 931 2941 478 
Q 2500 -78 1738 -78 
Q 1113 -78 717 272 
Q 322 622 266 1200 
z
" transform="scale(0.015625)"/>
       </defs>
       <use xlink:href="#ArialMT-35"/>
      </g>
     </g>
    </g>
    <g id="xtick_2">
     <g id="line2d_2">
      <path d="M 141.211232 235.449624 
L 141.211232 12.96 
" clip-path="url(#p5e9f0f3a12)" style="fill: none; stroke: #ffffff; stroke-width: 0.8; stroke-linecap: round"/>
     </g>
     <g id="text_2">
      <!-- 10 -->
      <g style="fill: #262626" transform="translate(134.538107 251.038999)scale(0.12 -0.12)">
       <defs>
        <path id="ArialMT-31" d="M 2384 0 
L 1822 0 
L 1822 3584 
Q 1619 3391 1289 3197 
Q 959 3003 697 2906 
L 697 3450 
Q 1169 3672 1522 3987 
Q 1875 4303 2022 4600 
L 2384 4600 
L 2384 0 
z
" transform="scale(0.015625)"/>
        <path id="ArialMT-30" d="M 266 2259 
Q 266 3072 433 3567 
Q 600 4063 929 4331 
Q 1259 4600 1759 4600 
Q 2128 4600 2406 4451 
Q 2684 4303 2865 4023 
Q 3047 3744 3150 3342 
Q 3253 2941 3253 2259 
Q 3253 1453 3087 958 
Q 2922 463 2592 192 
Q 2263 -78 1759 -78 
Q 1097 -78 719 397 
Q 266 969 266 2259 
z
M 844 2259 
Q 844 1131 1108 757 
Q 1372 384 1759 384 
Q 2147 384 2411 759 
Q 2675 1134 2675 2259 
Q 2675 3391 2411 3762 
Q 2147 4134 1753 4134 
Q 1366 4134 1134 3806 
Q 844 3388 844 2259 
z
" transform="scale(0.015625)"/>
       </defs>
       <use xlink:href="#ArialMT-31"/>
       <use xlink:href="#ArialMT-30" x="55.615234"/>
      </g>
     </g>
    </g>
    <g id="xtick_3">
     <g id="line2d_3">
      <path d="M 182.833519 235.449624 
L 182.833519 12.96 
" clip-path="url(#p5e9f0f3a12)" style="fill: none; stroke: #ffffff; stroke-width: 0.8; stroke-linecap: round"/>
     </g>
     <g id="text_3">
      <!-- 15 -->
      <g style="fill: #262626" transform="translate(176.160394 251.038999)scale(0.12 -0.12)">
       <use xlink:href="#ArialMT-31"/>
       <use xlink:href="#ArialMT-35" x="55.615234"/>
      </g>
     </g>
    </g>
    <g id="xtick_4">
     <g id="line2d_4">
      <path d="M 224.455806 235.449624 
L 224.455806 12.96 
" clip-path="url(#p5e9f0f3a12)" style="fill: none; stroke: #ffffff; stroke-width: 0.8; stroke-linecap: round"/>
     </g>
     <g id="text_4">
      <!-- 20 -->
      <g style="fill: #262626" transform="translate(217.782681 251.038999)scale(0.12 -0.12)">
       <defs>
        <path id="ArialMT-32" d="M 3222 541 
L 3222 0 
L 194 0 
Q 188 203 259 391 
Q 375 700 629 1000 
Q 884 1300 1366 1694 
Q 2113 2306 2375 2664 
Q 2638 3022 2638 3341 
Q 2638 3675 2398 3904 
Q 2159 4134 1775 4134 
Q 1369 4134 1125 3890 
Q 881 3647 878 3216 
L 300 3275 
Q 359 3922 746 4261 
Q 1134 4600 1788 4600 
Q 2447 4600 2831 4234 
Q 3216 3869 3216 3328 
Q 3216 3053 3103 2787 
Q 2991 2522 2730 2228 
Q 2469 1934 1863 1422 
Q 1356 997 1212 845 
Q 1069 694 975 541 
L 3222 541 
z
" transform="scale(0.015625)"/>
       </defs>
       <use xlink:href="#ArialMT-32"/>
       <use xlink:href="#ArialMT-30" x="55.615234"/>
      </g>
     </g>
    </g>
    <g id="xtick_5">
     <g id="line2d_5">
      <path d="M 266.078094 235.449624 
L 266.078094 12.96 
" clip-path="url(#p5e9f0f3a12)" style="fill: none; stroke: #ffffff; stroke-width: 0.8; stroke-linecap: round"/>
     </g>
     <g id="text_5">
      <!-- 25 -->
      <g style="fill: #262626" transform="translate(259.404969 251.038999)scale(0.12 -0.12)">
       <use xlink:href="#ArialMT-32"/>
       <use xlink:href="#ArialMT-35" x="55.615234"/>
      </g>
     </g>
    </g>
    <g id="xtick_6">
     <g id="line2d_6">
      <path d="M 307.700381 235.449624 
L 307.700381 12.96 
" clip-path="url(#p5e9f0f3a12)" style="fill: none; stroke: #ffffff; stroke-width: 0.8; stroke-linecap: round"/>
     </g>
     <g id="text_6">
      <!-- 30 -->
      <g style="fill: #262626" transform="translate(301.027256 251.038999)scale(0.12 -0.12)">
       <defs>
        <path id="ArialMT-33" d="M 269 1209 
L 831 1284 
Q 928 806 1161 595 
Q 1394 384 1728 384 
Q 2125 384 2398 659 
Q 2672 934 2672 1341 
Q 2672 1728 2419 1979 
Q 2166 2231 1775 2231 
Q 1616 2231 1378 2169 
L 1441 2663 
Q 1497 2656 1531 2656 
Q 1891 2656 2178 2843 
Q 2466 3031 2466 3422 
Q 2466 3731 2256 3934 
Q 2047 4138 1716 4138 
Q 1388 4138 1169 3931 
Q 950 3725 888 3313 
L 325 3413 
Q 428 3978 793 4289 
Q 1159 4600 1703 4600 
Q 2078 4600 2393 4439 
Q 2709 4278 2876 4000 
Q 3044 3722 3044 3409 
Q 3044 3113 2884 2869 
Q 2725 2625 2413 2481 
Q 2819 2388 3044 2092 
Q 3269 1797 3269 1353 
Q 3269 753 2831 336 
Q 2394 -81 1725 -81 
Q 1122 -81 723 278 
Q 325 638 269 1209 
z
" transform="scale(0.015625)"/>
       </defs>
       <use xlink:href="#ArialMT-33"/>
       <use xlink:href="#ArialMT-30" x="55.615234"/>
      </g>
     </g>
    </g>
    <g id="xtick_7">
     <g id="line2d_7">
      <path d="M 349.322669 235.449624 
L 349.322669 12.96 
" clip-path="url(#p5e9f0f3a12)" style="fill: none; stroke: #ffffff; stroke-width: 0.8; stroke-linecap: round"/>
     </g>
     <g id="text_7">
      <!-- 35 -->
      <g style="fill: #262626" transform="translate(342.649544 251.038999)scale(0.12 -0.12)">
       <use xlink:href="#ArialMT-33"/>
       <use xlink:href="#ArialMT-35" x="55.615234"/>
      </g>
     </g>
    </g>
    <g id="xtick_8">
     <g id="line2d_8">
      <path d="M 390.944956 235.449624 
L 390.944956 12.96 
" clip-path="url(#p5e9f0f3a12)" style="fill: none; stroke: #ffffff; stroke-width: 0.8; stroke-linecap: round"/>
     </g>
     <g id="text_8">
      <!-- 40 -->
      <g style="fill: #262626" transform="translate(384.271831 251.038999)scale(0.12 -0.12)">
       <defs>
        <path id="ArialMT-34" d="M 2069 0 
L 2069 1097 
L 81 1097 
L 81 1613 
L 2172 4581 
L 2631 4581 
L 2631 1613 
L 3250 1613 
L 3250 1097 
L 2631 1097 
L 2631 0 
L 2069 0 
z
M 2069 1613 
L 2069 3678 
L 634 1613 
L 2069 1613 
z
" transform="scale(0.015625)"/>
       </defs>
       <use xlink:href="#ArialMT-34"/>
       <use xlink:href="#ArialMT-30" x="55.615234"/>
      </g>
     </g>
    </g>
    <g id="text_9">
     <!-- JND (cents) -->
     <g style="fill: #262626" transform="translate(199.4 269.071499)scale(0.16 -0.16)">
      <defs>
       <path id="ArialMT-4a" d="M 184 1300 
L 731 1375 
Q 753 850 928 656 
Q 1103 463 1413 463 
Q 1641 463 1806 567 
Q 1972 672 2034 851 
Q 2097 1031 2097 1425 
L 2097 4581 
L 2703 4581 
L 2703 1459 
Q 2703 884 2564 568 
Q 2425 253 2123 87 
Q 1822 -78 1416 -78 
Q 813 -78 492 269 
Q 172 616 184 1300 
z
" transform="scale(0.015625)"/>
       <path id="ArialMT-4e" d="M 488 0 
L 488 4581 
L 1109 4581 
L 3516 984 
L 3516 4581 
L 4097 4581 
L 4097 0 
L 3475 0 
L 1069 3600 
L 1069 0 
L 488 0 
z
" transform="scale(0.015625)"/>
       <path id="ArialMT-44" d="M 494 0 
L 494 4581 
L 2072 4581 
Q 2606 4581 2888 4516 
Q 3281 4425 3559 4188 
Q 3922 3881 4101 3404 
Q 4281 2928 4281 2316 
Q 4281 1794 4159 1391 
Q 4038 988 3847 723 
Q 3656 459 3429 307 
Q 3203 156 2883 78 
Q 2563 0 2147 0 
L 494 0 
z
M 1100 541 
L 2078 541 
Q 2531 541 2789 625 
Q 3047 709 3200 863 
Q 3416 1078 3536 1442 
Q 3656 1806 3656 2325 
Q 3656 3044 3420 3430 
Q 3184 3816 2847 3947 
Q 2603 4041 2063 4041 
L 1100 4041 
L 1100 541 
z
" transform="scale(0.015625)"/>
       <path id="ArialMT-20" transform="scale(0.015625)"/>
       <path id="ArialMT-28" d="M 1497 -1347 
Q 1031 -759 709 28 
Q 388 816 388 1659 
Q 388 2403 628 3084 
Q 909 3875 1497 4659 
L 1900 4659 
Q 1522 4009 1400 3731 
Q 1209 3300 1100 2831 
Q 966 2247 966 1656 
Q 966 153 1900 -1347 
L 1497 -1347 
z
" transform="scale(0.015625)"/>
       <path id="ArialMT-63" d="M 2588 1216 
L 3141 1144 
Q 3050 572 2676 248 
Q 2303 -75 1759 -75 
Q 1078 -75 664 370 
Q 250 816 250 1647 
Q 250 2184 428 2587 
Q 606 2991 970 3192 
Q 1334 3394 1763 3394 
Q 2303 3394 2647 3120 
Q 2991 2847 3088 2344 
L 2541 2259 
Q 2463 2594 2264 2762 
Q 2066 2931 1784 2931 
Q 1359 2931 1093 2626 
Q 828 2322 828 1663 
Q 828 994 1084 691 
Q 1341 388 1753 388 
Q 2084 388 2306 591 
Q 2528 794 2588 1216 
z
" transform="scale(0.015625)"/>
       <path id="ArialMT-65" d="M 2694 1069 
L 3275 997 
Q 3138 488 2766 206 
Q 2394 -75 1816 -75 
Q 1088 -75 661 373 
Q 234 822 234 1631 
Q 234 2469 665 2931 
Q 1097 3394 1784 3394 
Q 2450 3394 2872 2941 
Q 3294 2488 3294 1666 
Q 3294 1616 3291 1516 
L 816 1516 
Q 847 969 1125 678 
Q 1403 388 1819 388 
Q 2128 388 2347 550 
Q 2566 713 2694 1069 
z
M 847 1978 
L 2700 1978 
Q 2663 2397 2488 2606 
Q 2219 2931 1791 2931 
Q 1403 2931 1139 2672 
Q 875 2413 847 1978 
z
" transform="scale(0.015625)"/>
       <path id="ArialMT-6e" d="M 422 0 
L 422 3319 
L 928 3319 
L 928 2847 
Q 1294 3394 1984 3394 
Q 2284 3394 2536 3286 
Q 2788 3178 2913 3003 
Q 3038 2828 3088 2588 
Q 3119 2431 3119 2041 
L 3119 0 
L 2556 0 
L 2556 2019 
Q 2556 2363 2490 2533 
Q 2425 2703 2258 2804 
Q 2091 2906 1866 2906 
Q 1506 2906 1245 2678 
Q 984 2450 984 1813 
L 984 0 
L 422 0 
z
" transform="scale(0.015625)"/>
       <path id="ArialMT-74" d="M 1650 503 
L 1731 6 
Q 1494 -44 1306 -44 
Q 1000 -44 831 53 
Q 663 150 594 308 
Q 525 466 525 972 
L 525 2881 
L 113 2881 
L 113 3319 
L 525 3319 
L 525 4141 
L 1084 4478 
L 1084 3319 
L 1650 3319 
L 1650 2881 
L 1084 2881 
L 1084 941 
Q 1084 700 1114 631 
Q 1144 563 1211 522 
Q 1278 481 1403 481 
Q 1497 481 1650 503 
z
" transform="scale(0.015625)"/>
       <path id="ArialMT-73" d="M 197 991 
L 753 1078 
Q 800 744 1014 566 
Q 1228 388 1613 388 
Q 2000 388 2187 545 
Q 2375 703 2375 916 
Q 2375 1106 2209 1216 
Q 2094 1291 1634 1406 
Q 1016 1563 777 1677 
Q 538 1791 414 1992 
Q 291 2194 291 2438 
Q 291 2659 392 2848 
Q 494 3038 669 3163 
Q 800 3259 1026 3326 
Q 1253 3394 1513 3394 
Q 1903 3394 2198 3281 
Q 2494 3169 2634 2976 
Q 2775 2784 2828 2463 
L 2278 2388 
Q 2241 2644 2061 2787 
Q 1881 2931 1553 2931 
Q 1166 2931 1000 2803 
Q 834 2675 834 2503 
Q 834 2394 903 2306 
Q 972 2216 1119 2156 
Q 1203 2125 1616 2013 
Q 2213 1853 2448 1751 
Q 2684 1650 2818 1456 
Q 2953 1263 2953 975 
Q 2953 694 2789 445 
Q 2625 197 2315 61 
Q 2006 -75 1616 -75 
Q 969 -75 630 194 
Q 291 463 197 991 
z
" transform="scale(0.015625)"/>
       <path id="ArialMT-29" d="M 791 -1347 
L 388 -1347 
Q 1322 153 1322 1656 
Q 1322 2244 1188 2822 
Q 1081 3291 891 3722 
Q 769 4003 388 4659 
L 791 4659 
Q 1378 3875 1659 3084 
Q 1900 2403 1900 1659 
Q 1900 816 1576 28 
Q 1253 -759 791 -1347 
z
" transform="scale(0.015625)"/>
      </defs>
      <use xlink:href="#ArialMT-4a"/>
      <use xlink:href="#ArialMT-4e" x="50"/>
      <use xlink:href="#ArialMT-44" x="122.216797"/>
      <use xlink:href="#ArialMT-20" x="194.433594"/>
      <use xlink:href="#ArialMT-28" x="222.216797"/>
      <use xlink:href="#ArialMT-63" x="255.517578"/>
      <use xlink:href="#ArialMT-65" x="305.517578"/>
      <use xlink:href="#ArialMT-6e" x="361.132812"/>
      <use xlink:href="#ArialMT-74" x="416.748047"/>
      <use xlink:href="#ArialMT-73" x="444.53125"/>
      <use xlink:href="#ArialMT-29" x="494.53125"/>
     </g>
    </g>
   </g>
   <g id="matplotlib.axis_2">
    <g id="ytick_1">
     <g id="line2d_9">
      <path d="M 64.21 208.711804 
L 419.04 208.711804 
" clip-path="url(#p5e9f0f3a12)" style="fill: none; stroke: #ffffff; stroke-width: 0.8; stroke-linecap: round"/>
     </g>
     <g id="text_10">
      <!-- 0.05 -->
      <g style="fill: #262626" transform="translate(33.856875 213.006491)scale(0.12 -0.12)">
       <defs>
        <path id="ArialMT-2e" d="M 581 0 
L 581 641 
L 1222 641 
L 1222 0 
L 581 0 
z
" transform="scale(0.015625)"/>
       </defs>
       <use xlink:href="#ArialMT-30"/>
       <use xlink:href="#ArialMT-2e" x="55.615234"/>
       <use xlink:href="#ArialMT-30" x="83.398438"/>
       <use xlink:href="#ArialMT-35" x="139.013672"/>
      </g>
     </g>
    </g>
    <g id="ytick_2">
     <g id="line2d_10">
      <path d="M 64.21 181.571231 
L 419.04 181.571231 
" clip-path="url(#p5e9f0f3a12)" style="fill: none; stroke: #ffffff; stroke-width: 0.8; stroke-linecap: round"/>
     </g>
     <g id="text_11">
      <!-- 0.10 -->
      <g style="fill: #262626" transform="translate(33.856875 185.865918)scale(0.12 -0.12)">
       <use xlink:href="#ArialMT-30"/>
       <use xlink:href="#ArialMT-2e" x="55.615234"/>
       <use xlink:href="#ArialMT-31" x="83.398438"/>
       <use xlink:href="#ArialMT-30" x="139.013672"/>
      </g>
     </g>
    </g>
    <g id="ytick_3">
     <g id="line2d_11">
      <path d="M 64.21 154.430658 
L 419.04 154.430658 
" clip-path="url(#p5e9f0f3a12)" style="fill: none; stroke: #ffffff; stroke-width: 0.8; stroke-linecap: round"/>
     </g>
     <g id="text_12">
      <!-- 0.15 -->
      <g style="fill: #262626" transform="translate(33.856875 158.725345)scale(0.12 -0.12)">
       <use xlink:href="#ArialMT-30"/>
       <use xlink:href="#ArialMT-2e" x="55.615234"/>
       <use xlink:href="#ArialMT-31" x="83.398438"/>
       <use xlink:href="#ArialMT-35" x="139.013672"/>
      </g>
     </g>
    </g>
    <g id="ytick_4">
     <g id="line2d_12">
      <path d="M 64.21 127.290085 
L 419.04 127.290085 
" clip-path="url(#p5e9f0f3a12)" style="fill: none; stroke: #ffffff; stroke-width: 0.8; stroke-linecap: round"/>
     </g>
     <g id="text_13">
      <!-- 0.20 -->
      <g style="fill: #262626" transform="translate(33.856875 131.584773)scale(0.12 -0.12)">
       <use xlink:href="#ArialMT-30"/>
       <use xlink:href="#ArialMT-2e" x="55.615234"/>
       <use xlink:href="#ArialMT-32" x="83.398438"/>
       <use xlink:href="#ArialMT-30" x="139.013672"/>
      </g>
     </g>
    </g>
    <g id="ytick_5">
     <g id="line2d_13">
      <path d="M 64.21 100.149512 
L 419.04 100.149512 
" clip-path="url(#p5e9f0f3a12)" style="fill: none; stroke: #ffffff; stroke-width: 0.8; stroke-linecap: round"/>
     </g>
     <g id="text_14">
      <!-- 0.25 -->
      <g style="fill: #262626" transform="translate(33.856875 104.4442)scale(0.12 -0.12)">
       <use xlink:href="#ArialMT-30"/>
       <use xlink:href="#ArialMT-2e" x="55.615234"/>
       <use xlink:href="#ArialMT-32" x="83.398438"/>
       <use xlink:href="#ArialMT-35" x="139.013672"/>
      </g>
     </g>
    </g>
    <g id="ytick_6">
     <g id="line2d_14">
      <path d="M 64.21 73.008939 
L 419.04 73.008939 
" clip-path="url(#p5e9f0f3a12)" style="fill: none; stroke: #ffffff; stroke-width: 0.8; stroke-linecap: round"/>
     </g>
     <g id="text_15">
      <!-- 0.30 -->
      <g style="fill: #262626" transform="translate(33.856875 77.303627)scale(0.12 -0.12)">
       <use xlink:href="#ArialMT-30"/>
       <use xlink:href="#ArialMT-2e" x="55.615234"/>
       <use xlink:href="#ArialMT-33" x="83.398438"/>
       <use xlink:href="#ArialMT-30" x="139.013672"/>
      </g>
     </g>
    </g>
    <g id="ytick_7">
     <g id="line2d_15">
      <path d="M 64.21 45.868366 
L 419.04 45.868366 
" clip-path="url(#p5e9f0f3a12)" style="fill: none; stroke: #ffffff; stroke-width: 0.8; stroke-linecap: round"/>
     </g>
     <g id="text_16">
      <!-- 0.35 -->
      <g style="fill: #262626" transform="translate(33.856875 50.163054)scale(0.12 -0.12)">
       <use xlink:href="#ArialMT-30"/>
       <use xlink:href="#ArialMT-2e" x="55.615234"/>
       <use xlink:href="#ArialMT-33" x="83.398438"/>
       <use xlink:href="#ArialMT-35" x="139.013672"/>
      </g>
     </g>
    </g>
    <g id="ytick_8">
     <g id="line2d_16">
      <path d="M 64.21 18.727794 
L 419.04 18.727794 
" clip-path="url(#p5e9f0f3a12)" style="fill: none; stroke: #ffffff; stroke-width: 0.8; stroke-linecap: round"/>
     </g>
     <g id="text_17">
      <!-- 0.40 -->
      <g style="fill: #262626" transform="translate(33.856875 23.022481)scale(0.12 -0.12)">
       <use xlink:href="#ArialMT-30"/>
       <use xlink:href="#ArialMT-2e" x="55.615234"/>
       <use xlink:href="#ArialMT-34" x="83.398438"/>
       <use xlink:href="#ArialMT-30" x="139.013672"/>
      </g>
     </g>
    </g>
    <g id="text_18">
     <!-- $SD$ of Bias Across Offsets -->
     <g style="fill: #262626" transform="translate(26.676875 216.364812)rotate(-90)scale(0.16 -0.16)">
      <defs>
       <path id="DejaVuSans-Oblique-53" d="M 3859 4513 
L 3738 3897 
Q 3422 4066 3111 4152 
Q 2800 4238 2509 4238 
Q 1944 4238 1609 3991 
Q 1275 3744 1275 3334 
Q 1275 3109 1398 2989 
Q 1522 2869 2034 2731 
L 2413 2638 
Q 3053 2472 3303 2217 
Q 3553 1963 3553 1503 
Q 3553 797 2998 353 
Q 2444 -91 1538 -91 
Q 1166 -91 791 -17 
Q 416 56 38 206 
L 166 856 
Q 513 641 861 531 
Q 1209 422 1556 422 
Q 2147 422 2503 684 
Q 2859 947 2859 1369 
Q 2859 1650 2717 1795 
Q 2575 1941 2106 2059 
L 1728 2156 
Q 1081 2325 845 2545 
Q 609 2766 609 3163 
Q 609 3859 1145 4304 
Q 1681 4750 2541 4750 
Q 2875 4750 3203 4690 
Q 3531 4631 3859 4513 
z
" transform="scale(0.015625)"/>
       <path id="DejaVuSans-Oblique-44" d="M 1081 4666 
L 2438 4666 
Q 3519 4666 4070 4208 
Q 4622 3750 4622 2847 
Q 4622 2250 4412 1698 
Q 4203 1147 3834 769 
Q 3463 381 2891 190 
Q 2319 0 1538 0 
L 172 0 
L 1081 4666 
z
M 1613 4147 
L 909 519 
L 1734 519 
Q 2794 519 3375 1128 
Q 3956 1738 3956 2847 
Q 3956 3519 3581 3833 
Q 3206 4147 2406 4147 
L 1613 4147 
z
" transform="scale(0.015625)"/>
       <path id="ArialMT-6f" d="M 213 1659 
Q 213 2581 725 3025 
Q 1153 3394 1769 3394 
Q 2453 3394 2887 2945 
Q 3322 2497 3322 1706 
Q 3322 1066 3130 698 
Q 2938 331 2570 128 
Q 2203 -75 1769 -75 
Q 1072 -75 642 372 
Q 213 819 213 1659 
z
M 791 1659 
Q 791 1022 1069 705 
Q 1347 388 1769 388 
Q 2188 388 2466 706 
Q 2744 1025 2744 1678 
Q 2744 2294 2464 2611 
Q 2184 2928 1769 2928 
Q 1347 2928 1069 2612 
Q 791 2297 791 1659 
z
" transform="scale(0.015625)"/>
       <path id="ArialMT-66" d="M 556 0 
L 556 2881 
L 59 2881 
L 59 3319 
L 556 3319 
L 556 3672 
Q 556 4006 616 4169 
Q 697 4388 901 4523 
Q 1106 4659 1475 4659 
Q 1713 4659 2000 4603 
L 1916 4113 
Q 1741 4144 1584 4144 
Q 1328 4144 1222 4034 
Q 1116 3925 1116 3625 
L 1116 3319 
L 1763 3319 
L 1763 2881 
L 1116 2881 
L 1116 0 
L 556 0 
z
" transform="scale(0.015625)"/>
       <path id="ArialMT-42" d="M 469 0 
L 469 4581 
L 2188 4581 
Q 2713 4581 3030 4442 
Q 3347 4303 3526 4014 
Q 3706 3725 3706 3409 
Q 3706 3116 3547 2856 
Q 3388 2597 3066 2438 
Q 3481 2316 3704 2022 
Q 3928 1728 3928 1328 
Q 3928 1006 3792 729 
Q 3656 453 3456 303 
Q 3256 153 2954 76 
Q 2653 0 2216 0 
L 469 0 
z
M 1075 2656 
L 2066 2656 
Q 2469 2656 2644 2709 
Q 2875 2778 2992 2937 
Q 3109 3097 3109 3338 
Q 3109 3566 3000 3739 
Q 2891 3913 2687 3977 
Q 2484 4041 1991 4041 
L 1075 4041 
L 1075 2656 
z
M 1075 541 
L 2216 541 
Q 2509 541 2628 563 
Q 2838 600 2978 687 
Q 3119 775 3209 942 
Q 3300 1109 3300 1328 
Q 3300 1584 3169 1773 
Q 3038 1963 2805 2039 
Q 2572 2116 2134 2116 
L 1075 2116 
L 1075 541 
z
" transform="scale(0.015625)"/>
       <path id="ArialMT-69" d="M 425 3934 
L 425 4581 
L 988 4581 
L 988 3934 
L 425 3934 
z
M 425 0 
L 425 3319 
L 988 3319 
L 988 0 
L 425 0 
z
" transform="scale(0.015625)"/>
       <path id="ArialMT-61" d="M 2588 409 
Q 2275 144 1986 34 
Q 1697 -75 1366 -75 
Q 819 -75 525 192 
Q 231 459 231 875 
Q 231 1119 342 1320 
Q 453 1522 633 1644 
Q 813 1766 1038 1828 
Q 1203 1872 1538 1913 
Q 2219 1994 2541 2106 
Q 2544 2222 2544 2253 
Q 2544 2597 2384 2738 
Q 2169 2928 1744 2928 
Q 1347 2928 1158 2789 
Q 969 2650 878 2297 
L 328 2372 
Q 403 2725 575 2942 
Q 747 3159 1072 3276 
Q 1397 3394 1825 3394 
Q 2250 3394 2515 3294 
Q 2781 3194 2906 3042 
Q 3031 2891 3081 2659 
Q 3109 2516 3109 2141 
L 3109 1391 
Q 3109 606 3145 398 
Q 3181 191 3288 0 
L 2700 0 
Q 2613 175 2588 409 
z
M 2541 1666 
Q 2234 1541 1622 1453 
Q 1275 1403 1131 1340 
Q 988 1278 909 1158 
Q 831 1038 831 891 
Q 831 666 1001 516 
Q 1172 366 1500 366 
Q 1825 366 2078 508 
Q 2331 650 2450 897 
Q 2541 1088 2541 1459 
L 2541 1666 
z
" transform="scale(0.015625)"/>
       <path id="ArialMT-41" d="M -9 0 
L 1750 4581 
L 2403 4581 
L 4278 0 
L 3588 0 
L 3053 1388 
L 1138 1388 
L 634 0 
L -9 0 
z
M 1313 1881 
L 2866 1881 
L 2388 3150 
Q 2169 3728 2063 4100 
Q 1975 3659 1816 3225 
L 1313 1881 
z
" transform="scale(0.015625)"/>
       <path id="ArialMT-72" d="M 416 0 
L 416 3319 
L 922 3319 
L 922 2816 
Q 1116 3169 1280 3281 
Q 1444 3394 1641 3394 
Q 1925 3394 2219 3213 
L 2025 2691 
Q 1819 2813 1613 2813 
Q 1428 2813 1281 2702 
Q 1134 2591 1072 2394 
Q 978 2094 978 1738 
L 978 0 
L 416 0 
z
" transform="scale(0.015625)"/>
       <path id="ArialMT-4f" d="M 309 2231 
Q 309 3372 921 4017 
Q 1534 4663 2503 4663 
Q 3138 4663 3647 4359 
Q 4156 4056 4423 3514 
Q 4691 2972 4691 2284 
Q 4691 1588 4409 1038 
Q 4128 488 3612 205 
Q 3097 -78 2500 -78 
Q 1853 -78 1343 234 
Q 834 547 571 1087 
Q 309 1628 309 2231 
z
M 934 2222 
Q 934 1394 1379 917 
Q 1825 441 2497 441 
Q 3181 441 3623 922 
Q 4066 1403 4066 2288 
Q 4066 2847 3877 3264 
Q 3688 3681 3323 3911 
Q 2959 4141 2506 4141 
Q 1863 4141 1398 3698 
Q 934 3256 934 2222 
z
" transform="scale(0.015625)"/>
      </defs>
      <use xlink:href="#DejaVuSans-Oblique-53" transform="translate(0 0.78125)"/>
      <use xlink:href="#DejaVuSans-Oblique-44" transform="translate(63.476562 0.78125)"/>
      <use xlink:href="#ArialMT-20" transform="translate(140.478516 0.78125)"/>
      <use xlink:href="#ArialMT-6f" transform="translate(168.261719 0.78125)"/>
      <use xlink:href="#ArialMT-66" transform="translate(223.876953 0.78125)"/>
      <use xlink:href="#ArialMT-20" transform="translate(251.660156 0.78125)"/>
      <use xlink:href="#ArialMT-42" transform="translate(279.443359 0.78125)"/>
      <use xlink:href="#ArialMT-69" transform="translate(346.142578 0.78125)"/>
      <use xlink:href="#ArialMT-61" transform="translate(368.359375 0.78125)"/>
      <use xlink:href="#ArialMT-73" transform="translate(423.974609 0.78125)"/>
      <use xlink:href="#ArialMT-20" transform="translate(473.974609 0.78125)"/>
      <use xlink:href="#ArialMT-41" transform="translate(501.757812 0.78125)"/>
      <use xlink:href="#ArialMT-63" transform="translate(568.457031 0.78125)"/>
      <use xlink:href="#ArialMT-72" transform="translate(618.457031 0.78125)"/>
      <use xlink:href="#ArialMT-6f" transform="translate(651.757812 0.78125)"/>
      <use xlink:href="#ArialMT-73" transform="translate(707.373047 0.78125)"/>
      <use xlink:href="#ArialMT-73" transform="translate(757.373047 0.78125)"/>
      <use xlink:href="#ArialMT-20" transform="translate(807.373047 0.78125)"/>
      <use xlink:href="#ArialMT-4f" transform="translate(835.15625 0.78125)"/>
      <use xlink:href="#ArialMT-66" transform="translate(912.939453 0.78125)"/>
      <use xlink:href="#ArialMT-66" transform="translate(940.722656 0.78125)"/>
      <use xlink:href="#ArialMT-73" transform="translate(968.505859 0.78125)"/>
      <use xlink:href="#ArialMT-65" transform="translate(1018.505859 0.78125)"/>
      <use xlink:href="#ArialMT-74" transform="translate(1074.121094 0.78125)"/>
      <use xlink:href="#ArialMT-73" transform="translate(1101.904297 0.78125)"/>
     </g>
    </g>
   </g>
   <g id="PathCollection_1">
    <defs>
     <path id="m1c69faf1dd" d="M 0 3 
C 0.795609 3 1.55874 2.683901 2.12132 2.12132 
C 2.683901 1.55874 3 0.795609 3 0 
C 3 -0.795609 2.683901 -1.55874 2.12132 -2.12132 
C 1.55874 -2.683901 0.795609 -3 0 -3 
C -0.795609 -3 -1.55874 -2.683901 -2.12132 -2.12132 
C -2.683901 -1.55874 -3 -0.795609 -3 0 
C -3 0.795609 -2.683901 1.55874 -2.12132 2.12132 
C -1.55874 2.683901 -0.795609 3 0 3 
z
" style="stroke: #000000; stroke-opacity: 0.8"/>
    </defs>
    <g clip-path="url(#p5e9f0f3a12)">
     <use xlink:href="#m1c69faf1dd" x="80.338636" y="194.554196" style="fill-opacity: 0.8; stroke: #000000; stroke-opacity: 0.8"/>
     <use xlink:href="#m1c69faf1dd" x="162.022375" y="210.834619" style="fill-opacity: 0.8; stroke: #000000; stroke-opacity: 0.8"/>
     <use xlink:href="#m1c69faf1dd" x="104.79173" y="85.863534" style="fill-opacity: 0.8; stroke: #000000; stroke-opacity: 0.8"/>
     <use xlink:href="#m1c69faf1dd" x="102.190337" y="198.965276" style="fill-opacity: 0.8; stroke: #000000; stroke-opacity: 0.8"/>
     <use xlink:href="#m1c69faf1dd" x="111.555352" y="110.280946" style="fill-opacity: 0.8; stroke: #000000; stroke-opacity: 0.8"/>
     <use xlink:href="#m1c69faf1dd" x="223.415249" y="103.234946" style="fill-opacity: 0.8; stroke: #000000; stroke-opacity: 0.8"/>
     <use xlink:href="#m1c69faf1dd" x="106.872845" y="220.021893" style="fill-opacity: 0.8; stroke: #000000; stroke-opacity: 0.8"/>
     <use xlink:href="#m1c69faf1dd" x="100.109223" y="87.395647" style="fill-opacity: 0.8; stroke: #000000; stroke-opacity: 0.8"/>
     <use xlink:href="#m1c69faf1dd" x="182.31324" y="115.768343" style="fill-opacity: 0.8; stroke: #000000; stroke-opacity: 0.8"/>
     <use xlink:href="#m1c69faf1dd" x="402.911364" y="214.006378" style="fill-opacity: 0.8; stroke: #000000; stroke-opacity: 0.8"/>
     <use xlink:href="#m1c69faf1dd" x="91.264487" y="156.104816" style="fill-opacity: 0.8; stroke: #000000; stroke-opacity: 0.8"/>
     <use xlink:href="#m1c69faf1dd" x="228.097757" y="54.302234" style="fill-opacity: 0.8; stroke: #000000; stroke-opacity: 0.8"/>
     <use xlink:href="#m1c69faf1dd" x="380.019106" y="137.328752" style="fill-opacity: 0.8; stroke: #000000; stroke-opacity: 0.8"/>
     <use xlink:href="#m1c69faf1dd" x="142.251789" y="92.787969" style="fill-opacity: 0.8; stroke: #000000; stroke-opacity: 0.8"/>
     <use xlink:href="#m1c69faf1dd" x="92.825323" y="126.845077" style="fill-opacity: 0.8; stroke: #000000; stroke-opacity: 0.8"/>
     <use xlink:href="#m1c69faf1dd" x="122.481202" y="196.849142" style="fill-opacity: 0.8; stroke: #000000; stroke-opacity: 0.8"/>
     <use xlink:href="#m1c69faf1dd" x="152.657361" y="86.778826" style="fill-opacity: 0.8; stroke: #000000; stroke-opacity: 0.8"/>
     <use xlink:href="#m1c69faf1dd" x="93.345601" y="106.358586" style="fill-opacity: 0.8; stroke: #000000; stroke-opacity: 0.8"/>
     <use xlink:href="#m1c69faf1dd" x="166.704883" y="150.964383" style="fill-opacity: 0.8; stroke: #000000; stroke-opacity: 0.8"/>
     <use xlink:href="#m1c69faf1dd" x="81.899472" y="214.616639" style="fill-opacity: 0.8; stroke: #000000; stroke-opacity: 0.8"/>
     <use xlink:href="#m1c69faf1dd" x="131.325938" y="116.596791" style="fill-opacity: 0.8; stroke: #000000; stroke-opacity: 0.8"/>
     <use xlink:href="#m1c69faf1dd" x="117.278416" y="137.021327" style="fill-opacity: 0.8; stroke: #000000; stroke-opacity: 0.8"/>
     <use xlink:href="#m1c69faf1dd" x="96.987551" y="170.01751" style="fill-opacity: 0.8; stroke: #000000; stroke-opacity: 0.8"/>
     <use xlink:href="#m1c69faf1dd" x="113.636466" y="166.465502" style="fill-opacity: 0.8; stroke: #000000; stroke-opacity: 0.8"/>
     <use xlink:href="#m1c69faf1dd" x="107.393123" y="122.344051" style="fill-opacity: 0.8; stroke: #000000; stroke-opacity: 0.8"/>
     <use xlink:href="#m1c69faf1dd" x="140.170674" y="169.982019" style="fill-opacity: 0.8; stroke: #000000; stroke-opacity: 0.8"/>
     <use xlink:href="#m1c69faf1dd" x="121.440645" y="96.00768" style="fill-opacity: 0.8; stroke: #000000; stroke-opacity: 0.8"/>
     <use xlink:href="#m1c69faf1dd" x="124.042038" y="48.573988" style="fill-opacity: 0.8; stroke: #000000; stroke-opacity: 0.8"/>
     <use xlink:href="#m1c69faf1dd" x="87.622537" y="225.33646" style="fill-opacity: 0.8; stroke: #000000; stroke-opacity: 0.8"/>
     <use xlink:href="#m1c69faf1dd" x="144.853182" y="160.183618" style="fill-opacity: 0.8; stroke: #000000; stroke-opacity: 0.8"/>
     <use xlink:href="#m1c69faf1dd" x="138.609839" y="172.249146" style="fill-opacity: 0.8; stroke: #000000; stroke-opacity: 0.8"/>
     <use xlink:href="#m1c69faf1dd" x="191.678255" y="201.878618" style="fill-opacity: 0.8; stroke: #000000; stroke-opacity: 0.8"/>
     <use xlink:href="#m1c69faf1dd" x="272.841716" y="120.960468" style="fill-opacity: 0.8; stroke: #000000; stroke-opacity: 0.8"/>
     <use xlink:href="#m1c69faf1dd" x="131.846217" y="147.480573" style="fill-opacity: 0.8; stroke: #000000; stroke-opacity: 0.8"/>
     <use xlink:href="#m1c69faf1dd" x="94.906437" y="140.386192" style="fill-opacity: 0.8; stroke: #000000; stroke-opacity: 0.8"/>
     <use xlink:href="#m1c69faf1dd" x="295.213695" y="65.482285" style="fill-opacity: 0.8; stroke: #000000; stroke-opacity: 0.8"/>
     <use xlink:href="#m1c69faf1dd" x="114.677023" y="99.697726" style="fill-opacity: 0.8; stroke: #000000; stroke-opacity: 0.8"/>
     <use xlink:href="#m1c69faf1dd" x="122.481202" y="175.056768" style="fill-opacity: 0.8; stroke: #000000; stroke-opacity: 0.8"/>
    </g>
   </g>
   <g id="PolyCollection_1">
    <defs>
     <path id="mf33d213a6f" d="M 80.338636 -233.804082 
L 80.338636 -187.038297 
L 83.596947 -188.837282 
L 86.855257 -190.427542 
L 90.113567 -191.703406 
L 93.371878 -192.899873 
L 96.630188 -194.413904 
L 99.888499 -195.208399 
L 103.146809 -196.137082 
L 106.405119 -197.259289 
L 109.66343 -198.046359 
L 112.92174 -198.387486 
L 116.180051 -199.285857 
L 119.438361 -200.36303 
L 122.696671 -200.275569 
L 125.954982 -200.534425 
L 129.213292 -200.746455 
L 132.471602 -200.771615 
L 135.729913 -200.948407 
L 138.988223 -201.769623 
L 142.246534 -201.606361 
L 145.504844 -201.817576 
L 148.763154 -201.761501 
L 152.021465 -202.014364 
L 155.279775 -202.732733 
L 158.538085 -202.7734 
L 161.796396 -202.540865 
L 165.054706 -202.697599 
L 168.313017 -202.378759 
L 171.571327 -202.274002 
L 174.829637 -202.344132 
L 178.087948 -202.22084 
L 181.346258 -202.059866 
L 184.604568 -201.689718 
L 187.862879 -201.561251 
L 191.121189 -201.224704 
L 194.3795 -201.032784 
L 197.63781 -200.611684 
L 200.89612 -200.208638 
L 204.154431 -199.867113 
L 207.412741 -199.592052 
L 210.671051 -199.470751 
L 213.929362 -199.38148 
L 217.187672 -199.030551 
L 220.445983 -198.686193 
L 223.704293 -198.336437 
L 226.962603 -198.006982 
L 230.220914 -197.878928 
L 233.479224 -197.381215 
L 236.737534 -196.974548 
L 239.995845 -196.631533 
L 243.254155 -196.286835 
L 246.512466 -195.943401 
L 249.770776 -195.719916 
L 253.029086 -195.562013 
L 256.287397 -195.31446 
L 259.545707 -195.109784 
L 262.804017 -194.925194 
L 266.062328 -194.566128 
L 269.320638 -194.311035 
L 272.578949 -193.719731 
L 275.837259 -193.071572 
L 279.095569 -192.674357 
L 282.35388 -192.488891 
L 285.61219 -192.305502 
L 288.8705 -192.122744 
L 292.128811 -191.56344 
L 295.387121 -191.208414 
L 298.645432 -190.634575 
L 301.903742 -190.436996 
L 305.162052 -190.243638 
L 308.420363 -190.050279 
L 311.678673 -189.813547 
L 314.936983 -189.383811 
L 318.195294 -188.894311 
L 321.453604 -188.40481 
L 324.711915 -187.915309 
L 327.970225 -187.425809 
L 331.228535 -187.010254 
L 334.486846 -186.662901 
L 337.745156 -186.315676 
L 341.003466 -185.972169 
L 344.261777 -185.587471 
L 347.520087 -185.120162 
L 350.778398 -184.652853 
L 354.036708 -184.25403 
L 357.295018 -183.91132 
L 360.553329 -183.571583 
L 363.811639 -183.187538 
L 367.069949 -182.746525 
L 370.32826 -182.391889 
L 373.58657 -182.067679 
L 376.844881 -181.744775 
L 380.103191 -181.421872 
L 383.361501 -181.098969 
L 386.619812 -180.657246 
L 389.878122 -180.19927 
L 393.136433 -179.849408 
L 396.394743 -179.28043 
L 399.653053 -178.667082 
L 402.911364 -178.053735 
L 402.911364 -336.926835 
L 402.911364 -336.926835 
L 399.653053 -335.525584 
L 396.394743 -334.124333 
L 393.136433 -332.723081 
L 389.878122 -331.32183 
L 386.619812 -330.015847 
L 383.361501 -328.760675 
L 380.103191 -327.505503 
L 376.844881 -326.25033 
L 373.58657 -324.995158 
L 370.32826 -323.739985 
L 367.069949 -322.484813 
L 363.811639 -321.229641 
L 360.553329 -319.974468 
L 357.295018 -318.719296 
L 354.036708 -317.464123 
L 350.778398 -316.073614 
L 347.520087 -314.395158 
L 344.261777 -312.716703 
L 341.003466 -311.038247 
L 337.745156 -309.359792 
L 334.486846 -307.847504 
L 331.228535 -306.48509 
L 327.970225 -305.122676 
L 324.711915 -303.760263 
L 321.453604 -302.397849 
L 318.195294 -301.035436 
L 314.936983 -299.673022 
L 311.678673 -298.310609 
L 308.420363 -297.031677 
L 305.162052 -295.791267 
L 301.903742 -294.550858 
L 298.645432 -293.303802 
L 295.387121 -292.056278 
L 292.128811 -290.808753 
L 288.8705 -289.561229 
L 285.61219 -288.311588 
L 282.35388 -287.060197 
L 279.095569 -285.808805 
L 275.837259 -284.557413 
L 272.578949 -283.114633 
L 269.320638 -281.442377 
L 266.062328 -279.768256 
L 262.804017 -278.088792 
L 259.545707 -276.676685 
L 256.287397 -275.472282 
L 253.029086 -274.277568 
L 249.770776 -273.063477 
L 246.512466 -271.591065 
L 243.254155 -270.370358 
L 239.995845 -269.229359 
L 236.737534 -268.084476 
L 233.479224 -266.31363 
L 230.220914 -264.497247 
L 226.962603 -262.75655 
L 223.704293 -261.380796 
L 220.445983 -260.005043 
L 217.187672 -258.383138 
L 213.929362 -257.096193 
L 210.671051 -255.361684 
L 207.412741 -254.014066 
L 204.154431 -252.839677 
L 200.89612 -251.50118 
L 197.63781 -250.085236 
L 194.3795 -248.573427 
L 191.121189 -247.345848 
L 187.862879 -246.463901 
L 184.604568 -245.007197 
L 181.346258 -243.87663 
L 178.087948 -242.694816 
L 174.829637 -241.230927 
L 171.571327 -240.177635 
L 168.313017 -239.236462 
L 165.054706 -238.259037 
L 161.796396 -237.676175 
L 158.538085 -237.017362 
L 155.279775 -236.355641 
L 152.021465 -235.752344 
L 148.763154 -235.252976 
L 145.504844 -234.574585 
L 142.246534 -233.889708 
L 138.988223 -233.329353 
L 135.729913 -233.241549 
L 132.471602 -232.935393 
L 129.213292 -232.76666 
L 125.954982 -232.601673 
L 122.696671 -232.130754 
L 119.438361 -231.991531 
L 116.180051 -232.298121 
L 112.92174 -232.492397 
L 109.66343 -232.614775 
L 106.405119 -232.924129 
L 103.146809 -232.947214 
L 99.888499 -232.975333 
L 96.630188 -232.995447 
L 93.371878 -233.02119 
L 90.113567 -233.076956 
L 86.855257 -233.359118 
L 83.596947 -233.579458 
L 80.338636 -233.804082 
z
" style="stroke: #ffffff; stroke-opacity: 0.15"/>
    </defs>
    <g clip-path="url(#p5e9f0f3a12)">
     <use xlink:href="#mf33d213a6f" x="0" y="360" style="fill-opacity: 0.15; stroke: #ffffff; stroke-opacity: 0.15"/>
    </g>
   </g>
   <g id="line2d_17">
    <path d="M 80.338636 146.41509 
L 83.596947 146.211069 
L 86.855257 146.007048 
L 90.113567 145.803028 
L 93.371878 145.599007 
L 96.630188 145.394987 
L 99.888499 145.190966 
L 103.146809 144.986946 
L 106.405119 144.782925 
L 109.66343 144.578905 
L 112.92174 144.374884 
L 116.180051 144.170863 
L 119.438361 143.966843 
L 122.696671 143.762822 
L 125.954982 143.558802 
L 129.213292 143.354781 
L 132.471602 143.150761 
L 135.729913 142.94674 
L 138.988223 142.74272 
L 142.246534 142.538699 
L 145.504844 142.334678 
L 148.763154 142.130658 
L 152.021465 141.926637 
L 155.279775 141.722617 
L 158.538085 141.518596 
L 161.796396 141.314576 
L 165.054706 141.110555 
L 168.313017 140.906535 
L 171.571327 140.702514 
L 174.829637 140.498493 
L 178.087948 140.294473 
L 181.346258 140.090452 
L 184.604568 139.886432 
L 187.862879 139.682411 
L 191.121189 139.478391 
L 194.3795 139.27437 
L 197.63781 139.07035 
L 200.89612 138.866329 
L 204.154431 138.662308 
L 207.412741 138.458288 
L 210.671051 138.254267 
L 213.929362 138.050247 
L 217.187672 137.846226 
L 220.445983 137.642206 
L 223.704293 137.438185 
L 226.962603 137.234165 
L 230.220914 137.030144 
L 233.479224 136.826123 
L 236.737534 136.622103 
L 239.995845 136.418082 
L 243.254155 136.214062 
L 246.512466 136.010041 
L 249.770776 135.806021 
L 253.029086 135.602 
L 256.287397 135.39798 
L 259.545707 135.193959 
L 262.804017 134.989938 
L 266.062328 134.785918 
L 269.320638 134.581897 
L 272.578949 134.377877 
L 275.837259 134.173856 
L 279.095569 133.969836 
L 282.35388 133.765815 
L 285.61219 133.561795 
L 288.8705 133.357774 
L 292.128811 133.153754 
L 295.387121 132.949733 
L 298.645432 132.745712 
L 301.903742 132.541692 
L 305.162052 132.337671 
L 308.420363 132.133651 
L 311.678673 131.92963 
L 314.936983 131.72561 
L 318.195294 131.521589 
L 321.453604 131.317569 
L 324.711915 131.113548 
L 327.970225 130.909527 
L 331.228535 130.705507 
L 334.486846 130.501486 
L 337.745156 130.297466 
L 341.003466 130.093445 
L 344.261777 129.889425 
L 347.520087 129.685404 
L 350.778398 129.481384 
L 354.036708 129.277363 
L 357.295018 129.073342 
L 360.553329 128.869322 
L 363.811639 128.665301 
L 367.069949 128.461281 
L 370.32826 128.25726 
L 373.58657 128.05324 
L 376.844881 127.849219 
L 380.103191 127.645199 
L 383.361501 127.441178 
L 386.619812 127.237157 
L 389.878122 127.033137 
L 393.136433 126.829116 
L 396.394743 126.625096 
L 399.653053 126.421075 
L 402.911364 126.217055 
" clip-path="url(#p5e9f0f3a12)" style="fill: none; stroke: #000000; stroke-width: 2.25; stroke-linecap: round"/>
   </g>
   <g id="patch_3">
    <path d="M 64.21 235.449624 
L 64.21 12.96 
" style="fill: none; stroke: #ffffff; stroke-width: 0.8; stroke-linejoin: miter; stroke-linecap: square"/>
   </g>
   <g id="patch_4">
    <path d="M 64.21 235.449624 
L 419.04 235.449624 
" style="fill: none; stroke: #ffffff; stroke-width: 0.8; stroke-linejoin: miter; stroke-linecap: square"/>
   </g>
   <g id="text_19">
    <!-- $r=$0.097,  $p=$0.561 -->
    <g style="fill: #262626" transform="translate(53.804428 322.70221)scale(0.14 -0.14)">
     <defs>
      <path id="DejaVuSans-Oblique-72" d="M 2853 2969 
Q 2766 3016 2653 3041 
Q 2541 3066 2413 3066 
Q 1953 3066 1609 2717 
Q 1266 2369 1153 1784 
L 800 0 
L 225 0 
L 909 3500 
L 1484 3500 
L 1375 2956 
Q 1603 3259 1920 3421 
Q 2238 3584 2597 3584 
Q 2691 3584 2781 3573 
Q 2872 3563 2963 3538 
L 2853 2969 
z
" transform="scale(0.015625)"/>
      <path id="DejaVuSans-3d" d="M 678 2906 
L 4684 2906 
L 4684 2381 
L 678 2381 
L 678 2906 
z
M 678 1631 
L 4684 1631 
L 4684 1100 
L 678 1100 
L 678 1631 
z
" transform="scale(0.015625)"/>
      <path id="ArialMT-39" d="M 350 1059 
L 891 1109 
Q 959 728 1153 556 
Q 1347 384 1650 384 
Q 1909 384 2104 503 
Q 2300 622 2425 820 
Q 2550 1019 2634 1356 
Q 2719 1694 2719 2044 
Q 2719 2081 2716 2156 
Q 2547 1888 2255 1720 
Q 1963 1553 1622 1553 
Q 1053 1553 659 1965 
Q 266 2378 266 3053 
Q 266 3750 677 4175 
Q 1088 4600 1706 4600 
Q 2153 4600 2523 4359 
Q 2894 4119 3086 3673 
Q 3278 3228 3278 2384 
Q 3278 1506 3087 986 
Q 2897 466 2520 194 
Q 2144 -78 1638 -78 
Q 1100 -78 759 220 
Q 419 519 350 1059 
z
M 2653 3081 
Q 2653 3566 2395 3850 
Q 2138 4134 1775 4134 
Q 1400 4134 1122 3828 
Q 844 3522 844 3034 
Q 844 2597 1108 2323 
Q 1372 2050 1759 2050 
Q 2150 2050 2401 2323 
Q 2653 2597 2653 3081 
z
" transform="scale(0.015625)"/>
      <path id="ArialMT-37" d="M 303 3981 
L 303 4522 
L 3269 4522 
L 3269 4084 
Q 2831 3619 2401 2847 
Q 1972 2075 1738 1259 
Q 1569 684 1522 0 
L 944 0 
Q 953 541 1156 1306 
Q 1359 2072 1739 2783 
Q 2119 3494 2547 3981 
L 303 3981 
z
" transform="scale(0.015625)"/>
      <path id="ArialMT-2c" d="M 569 0 
L 569 641 
L 1209 641 
L 1209 0 
Q 1209 -353 1084 -570 
Q 959 -788 688 -906 
L 531 -666 
Q 709 -588 793 -436 
Q 878 -284 888 0 
L 569 0 
z
" transform="scale(0.015625)"/>
      <path id="DejaVuSans-Oblique-70" d="M 3175 2156 
Q 3175 2616 2975 2859 
Q 2775 3103 2400 3103 
Q 2144 3103 1911 2972 
Q 1678 2841 1497 2591 
Q 1319 2344 1212 1994 
Q 1106 1644 1106 1300 
Q 1106 863 1306 627 
Q 1506 391 1875 391 
Q 2147 391 2380 519 
Q 2613 647 2778 891 
Q 2956 1147 3065 1494 
Q 3175 1841 3175 2156 
z
M 1394 2969 
Q 1625 3272 1939 3428 
Q 2253 3584 2638 3584 
Q 3175 3584 3472 3232 
Q 3769 2881 3769 2247 
Q 3769 1728 3584 1258 
Q 3400 788 3053 416 
Q 2822 169 2531 39 
Q 2241 -91 1919 -91 
Q 1547 -91 1294 64 
Q 1041 219 916 525 
L 556 -1331 
L -19 -1331 
L 922 3500 
L 1497 3500 
L 1394 2969 
z
" transform="scale(0.015625)"/>
      <path id="ArialMT-36" d="M 3184 3459 
L 2625 3416 
Q 2550 3747 2413 3897 
Q 2184 4138 1850 4138 
Q 1581 4138 1378 3988 
Q 1113 3794 959 3422 
Q 806 3050 800 2363 
Q 1003 2672 1297 2822 
Q 1591 2972 1913 2972 
Q 2475 2972 2870 2558 
Q 3266 2144 3266 1488 
Q 3266 1056 3080 686 
Q 2894 316 2569 119 
Q 2244 -78 1831 -78 
Q 1128 -78 684 439 
Q 241 956 241 2144 
Q 241 3472 731 4075 
Q 1159 4600 1884 4600 
Q 2425 4600 2770 4297 
Q 3116 3994 3184 3459 
z
M 888 1484 
Q 888 1194 1011 928 
Q 1134 663 1356 523 
Q 1578 384 1822 384 
Q 2178 384 2434 671 
Q 2691 959 2691 1453 
Q 2691 1928 2437 2201 
Q 2184 2475 1800 2475 
Q 1419 2475 1153 2201 
Q 888 1928 888 1484 
z
" transform="scale(0.015625)"/>
     </defs>
     <use xlink:href="#DejaVuSans-Oblique-72" transform="translate(0 0.125)"/>
     <use xlink:href="#DejaVuSans-3d" transform="translate(60.595703 0.125)"/>
     <use xlink:href="#ArialMT-30" transform="translate(163.867188 0.125)"/>
     <use xlink:href="#ArialMT-2e" transform="translate(219.482422 0.125)"/>
     <use xlink:href="#ArialMT-30" transform="translate(247.265625 0.125)"/>
     <use xlink:href="#ArialMT-39" transform="translate(302.880859 0.125)"/>
     <use xlink:href="#ArialMT-37" transform="translate(358.496094 0.125)"/>
     <use xlink:href="#ArialMT-2c" transform="translate(414.111328 0.125)"/>
     <use xlink:href="#ArialMT-20" transform="translate(441.894531 0.125)"/>
     <use xlink:href="#ArialMT-20" transform="translate(469.677734 0.125)"/>
     <use xlink:href="#DejaVuSans-Oblique-70" transform="translate(497.460938 0.125)"/>
     <use xlink:href="#DejaVuSans-3d" transform="translate(580.419922 0.125)"/>
     <use xlink:href="#ArialMT-30" transform="translate(683.691406 0.125)"/>
     <use xlink:href="#ArialMT-2e" transform="translate(739.306641 0.125)"/>
     <use xlink:href="#ArialMT-35" transform="translate(767.089844 0.125)"/>
     <use xlink:href="#ArialMT-36" transform="translate(822.705078 0.125)"/>
     <use xlink:href="#ArialMT-31" transform="translate(878.320312 0.125)"/>
    </g>
   </g>
  </g>
 </g>
 <defs>
  <clipPath id="p5e9f0f3a12">
   <rect x="64.21" y="12.96" width="354.83" height="222.489624"/>
  </clipPath>
 </defs>
</svg>
