<?xml version="1.0" encoding="utf-8" standalone="no"?>
<!DOCTYPE svg PUBLIC "-//W3C//DTD SVG 1.1//EN"
  "http://www.w3.org/Graphics/SVG/1.1/DTD/svg11.dtd">
<svg xmlns:xlink="http://www.w3.org/1999/xlink" width="432pt" height="360pt" viewBox="0 0 432 360" xmlns="http://www.w3.org/2000/svg" version="1.1">
 <metadata>
  <rdf:RDF xmlns:dc="http://purl.org/dc/elements/1.1/" xmlns:cc="http://creativecommons.org/ns#" xmlns:rdf="http://www.w3.org/1999/02/22-rdf-syntax-ns#">
   <cc:Work>
    <dc:type rdf:resource="http://purl.org/dc/dcmitype/StillImage"/>
    <dc:date>2023-04-12T11:48:55.414746</dc:date>
    <dc:format>image/svg+xml</dc:format>
    <dc:creator>
     <cc:Agent>
      <dc:title>Matplotlib v3.5.1, https://matplotlib.org/</dc:title>
     </cc:Agent>
    </dc:creator>
   </cc:Work>
  </rdf:RDF>
 </metadata>
 <defs>
  <style type="text/css">*{stroke-linejoin: round; stroke-linecap: butt}</style>
 </defs>
 <g id="figure_1">
  <g id="patch_1">
   <path d="M 0 360 
L 432 360 
L 432 0 
L 0 0 
z
" style="fill: #ffffff"/>
  </g>
  <g id="axes_1">
   <g id="patch_2">
    <path d="M 69.288125 310.961875 
L 419.04 310.961875 
L 419.04 16.831581 
L 69.288125 16.831581 
z
" style="fill: #eaeaf2"/>
   </g>
   <g id="matplotlib.axis_1">
    <g id="xtick_1">
     <g id="line2d_1">
      <path d="M 104.160746 310.961875 
L 104.160746 16.831581 
" clip-path="url(#p9b17446d34)" style="fill: none; stroke: #ffffff; stroke-width: 0.8; stroke-linecap: round"/>
     </g>
     <g id="text_1">
      <!-- 5 -->
      <g style="fill: #262626" transform="translate(100.824183 326.55125)scale(0.12 -0.12)">
       <defs>
        <path id="ArialMT-35" d="M 266 1200 
L 856 1250 
Q 922 819 1161 601 
Q 1400 384 1738 384 
Q 2144 384 2425 690 
Q 2706 997 2706 1503 
Q 2706 1984 2436 2262 
Q 2166 2541 1728 2541 
Q 1456 2541 1237 2417 
Q 1019 2294 894 2097 
L 366 2166 
L 809 4519 
L 3088 4519 
L 3088 3981 
L 1259 3981 
L 1013 2750 
Q 1425 3038 1878 3038 
Q 2478 3038 2890 2622 
Q 3303 2206 3303 1553 
Q 3303 931 2941 478 
Q 2500 -78 1738 -78 
Q 1113 -78 717 272 
Q 322 622 266 1200 
z
" transform="scale(0.015625)"/>
       </defs>
       <use xlink:href="#ArialMT-35"/>
      </g>
     </g>
    </g>
    <g id="xtick_2">
     <g id="line2d_2">
      <path d="M 145.187359 310.961875 
L 145.187359 16.831581 
" clip-path="url(#p9b17446d34)" style="fill: none; stroke: #ffffff; stroke-width: 0.8; stroke-linecap: round"/>
     </g>
     <g id="text_2">
      <!-- 10 -->
      <g style="fill: #262626" transform="translate(138.514234 326.55125)scale(0.12 -0.12)">
       <defs>
        <path id="ArialMT-31" d="M 2384 0 
L 1822 0 
L 1822 3584 
Q 1619 3391 1289 3197 
Q 959 3003 697 2906 
L 697 3450 
Q 1169 3672 1522 3987 
Q 1875 4303 2022 4600 
L 2384 4600 
L 2384 0 
z
" transform="scale(0.015625)"/>
        <path id="ArialMT-30" d="M 266 2259 
Q 266 3072 433 3567 
Q 600 4063 929 4331 
Q 1259 4600 1759 4600 
Q 2128 4600 2406 4451 
Q 2684 4303 2865 4023 
Q 3047 3744 3150 3342 
Q 3253 2941 3253 2259 
Q 3253 1453 3087 958 
Q 2922 463 2592 192 
Q 2263 -78 1759 -78 
Q 1097 -78 719 397 
Q 266 969 266 2259 
z
M 844 2259 
Q 844 1131 1108 757 
Q 1372 384 1759 384 
Q 2147 384 2411 759 
Q 2675 1134 2675 2259 
Q 2675 3391 2411 3762 
Q 2147 4134 1753 4134 
Q 1366 4134 1134 3806 
Q 844 3388 844 2259 
z
" transform="scale(0.015625)"/>
       </defs>
       <use xlink:href="#ArialMT-31"/>
       <use xlink:href="#ArialMT-30" x="55.615234"/>
      </g>
     </g>
    </g>
    <g id="xtick_3">
     <g id="line2d_3">
      <path d="M 186.213972 310.961875 
L 186.213972 16.831581 
" clip-path="url(#p9b17446d34)" style="fill: none; stroke: #ffffff; stroke-width: 0.8; stroke-linecap: round"/>
     </g>
     <g id="text_3">
      <!-- 15 -->
      <g style="fill: #262626" transform="translate(179.540847 326.55125)scale(0.12 -0.12)">
       <use xlink:href="#ArialMT-31"/>
       <use xlink:href="#ArialMT-35" x="55.615234"/>
      </g>
     </g>
    </g>
    <g id="xtick_4">
     <g id="line2d_4">
      <path d="M 227.240585 310.961875 
L 227.240585 16.831581 
" clip-path="url(#p9b17446d34)" style="fill: none; stroke: #ffffff; stroke-width: 0.8; stroke-linecap: round"/>
     </g>
     <g id="text_4">
      <!-- 20 -->
      <g style="fill: #262626" transform="translate(220.56746 326.55125)scale(0.12 -0.12)">
       <defs>
        <path id="ArialMT-32" d="M 3222 541 
L 3222 0 
L 194 0 
Q 188 203 259 391 
Q 375 700 629 1000 
Q 884 1300 1366 1694 
Q 2113 2306 2375 2664 
Q 2638 3022 2638 3341 
Q 2638 3675 2398 3904 
Q 2159 4134 1775 4134 
Q 1369 4134 1125 3890 
Q 881 3647 878 3216 
L 300 3275 
Q 359 3922 746 4261 
Q 1134 4600 1788 4600 
Q 2447 4600 2831 4234 
Q 3216 3869 3216 3328 
Q 3216 3053 3103 2787 
Q 2991 2522 2730 2228 
Q 2469 1934 1863 1422 
Q 1356 997 1212 845 
Q 1069 694 975 541 
L 3222 541 
z
" transform="scale(0.015625)"/>
       </defs>
       <use xlink:href="#ArialMT-32"/>
       <use xlink:href="#ArialMT-30" x="55.615234"/>
      </g>
     </g>
    </g>
    <g id="xtick_5">
     <g id="line2d_5">
      <path d="M 268.267198 310.961875 
L 268.267198 16.831581 
" clip-path="url(#p9b17446d34)" style="fill: none; stroke: #ffffff; stroke-width: 0.8; stroke-linecap: round"/>
     </g>
     <g id="text_5">
      <!-- 25 -->
      <g style="fill: #262626" transform="translate(261.594073 326.55125)scale(0.12 -0.12)">
       <use xlink:href="#ArialMT-32"/>
       <use xlink:href="#ArialMT-35" x="55.615234"/>
      </g>
     </g>
    </g>
    <g id="xtick_6">
     <g id="line2d_6">
      <path d="M 309.29381 310.961875 
L 309.29381 16.831581 
" clip-path="url(#p9b17446d34)" style="fill: none; stroke: #ffffff; stroke-width: 0.8; stroke-linecap: round"/>
     </g>
     <g id="text_6">
      <!-- 30 -->
      <g style="fill: #262626" transform="translate(302.620685 326.55125)scale(0.12 -0.12)">
       <defs>
        <path id="ArialMT-33" d="M 269 1209 
L 831 1284 
Q 928 806 1161 595 
Q 1394 384 1728 384 
Q 2125 384 2398 659 
Q 2672 934 2672 1341 
Q 2672 1728 2419 1979 
Q 2166 2231 1775 2231 
Q 1616 2231 1378 2169 
L 1441 2663 
Q 1497 2656 1531 2656 
Q 1891 2656 2178 2843 
Q 2466 3031 2466 3422 
Q 2466 3731 2256 3934 
Q 2047 4138 1716 4138 
Q 1388 4138 1169 3931 
Q 950 3725 888 3313 
L 325 3413 
Q 428 3978 793 4289 
Q 1159 4600 1703 4600 
Q 2078 4600 2393 4439 
Q 2709 4278 2876 4000 
Q 3044 3722 3044 3409 
Q 3044 3113 2884 2869 
Q 2725 2625 2413 2481 
Q 2819 2388 3044 2092 
Q 3269 1797 3269 1353 
Q 3269 753 2831 336 
Q 2394 -81 1725 -81 
Q 1122 -81 723 278 
Q 325 638 269 1209 
z
" transform="scale(0.015625)"/>
       </defs>
       <use xlink:href="#ArialMT-33"/>
       <use xlink:href="#ArialMT-30" x="55.615234"/>
      </g>
     </g>
    </g>
    <g id="xtick_7">
     <g id="line2d_7">
      <path d="M 350.320423 310.961875 
L 350.320423 16.831581 
" clip-path="url(#p9b17446d34)" style="fill: none; stroke: #ffffff; stroke-width: 0.8; stroke-linecap: round"/>
     </g>
     <g id="text_7">
      <!-- 35 -->
      <g style="fill: #262626" transform="translate(343.647298 326.55125)scale(0.12 -0.12)">
       <use xlink:href="#ArialMT-33"/>
       <use xlink:href="#ArialMT-35" x="55.615234"/>
      </g>
     </g>
    </g>
    <g id="xtick_8">
     <g id="line2d_8">
      <path d="M 391.347036 310.961875 
L 391.347036 16.831581 
" clip-path="url(#p9b17446d34)" style="fill: none; stroke: #ffffff; stroke-width: 0.8; stroke-linecap: round"/>
     </g>
     <g id="text_8">
      <!-- 40 -->
      <g style="fill: #262626" transform="translate(384.673911 326.55125)scale(0.12 -0.12)">
       <defs>
        <path id="ArialMT-34" d="M 2069 0 
L 2069 1097 
L 81 1097 
L 81 1613 
L 2172 4581 
L 2631 4581 
L 2631 1613 
L 3250 1613 
L 3250 1097 
L 2631 1097 
L 2631 0 
L 2069 0 
z
M 2069 1613 
L 2069 3678 
L 634 1613 
L 2069 1613 
z
" transform="scale(0.015625)"/>
       </defs>
       <use xlink:href="#ArialMT-34"/>
       <use xlink:href="#ArialMT-30" x="55.615234"/>
      </g>
     </g>
    </g>
    <g id="text_9">
     <!-- JND (cents) -->
     <g style="fill: #262626" transform="translate(201.939062 344.58375)scale(0.16 -0.16)">
      <defs>
       <path id="ArialMT-4a" d="M 184 1300 
L 731 1375 
Q 753 850 928 656 
Q 1103 463 1413 463 
Q 1641 463 1806 567 
Q 1972 672 2034 851 
Q 2097 1031 2097 1425 
L 2097 4581 
L 2703 4581 
L 2703 1459 
Q 2703 884 2564 568 
Q 2425 253 2123 87 
Q 1822 -78 1416 -78 
Q 813 -78 492 269 
Q 172 616 184 1300 
z
" transform="scale(0.015625)"/>
       <path id="ArialMT-4e" d="M 488 0 
L 488 4581 
L 1109 4581 
L 3516 984 
L 3516 4581 
L 4097 4581 
L 4097 0 
L 3475 0 
L 1069 3600 
L 1069 0 
L 488 0 
z
" transform="scale(0.015625)"/>
       <path id="ArialMT-44" d="M 494 0 
L 494 4581 
L 2072 4581 
Q 2606 4581 2888 4516 
Q 3281 4425 3559 4188 
Q 3922 3881 4101 3404 
Q 4281 2928 4281 2316 
Q 4281 1794 4159 1391 
Q 4038 988 3847 723 
Q 3656 459 3429 307 
Q 3203 156 2883 78 
Q 2563 0 2147 0 
L 494 0 
z
M 1100 541 
L 2078 541 
Q 2531 541 2789 625 
Q 3047 709 3200 863 
Q 3416 1078 3536 1442 
Q 3656 1806 3656 2325 
Q 3656 3044 3420 3430 
Q 3184 3816 2847 3947 
Q 2603 4041 2063 4041 
L 1100 4041 
L 1100 541 
z
" transform="scale(0.015625)"/>
       <path id="ArialMT-20" transform="scale(0.015625)"/>
       <path id="ArialMT-28" d="M 1497 -1347 
Q 1031 -759 709 28 
Q 388 816 388 1659 
Q 388 2403 628 3084 
Q 909 3875 1497 4659 
L 1900 4659 
Q 1522 4009 1400 3731 
Q 1209 3300 1100 2831 
Q 966 2247 966 1656 
Q 966 153 1900 -1347 
L 1497 -1347 
z
" transform="scale(0.015625)"/>
       <path id="ArialMT-63" d="M 2588 1216 
L 3141 1144 
Q 3050 572 2676 248 
Q 2303 -75 1759 -75 
Q 1078 -75 664 370 
Q 250 816 250 1647 
Q 250 2184 428 2587 
Q 606 2991 970 3192 
Q 1334 3394 1763 3394 
Q 2303 3394 2647 3120 
Q 2991 2847 3088 2344 
L 2541 2259 
Q 2463 2594 2264 2762 
Q 2066 2931 1784 2931 
Q 1359 2931 1093 2626 
Q 828 2322 828 1663 
Q 828 994 1084 691 
Q 1341 388 1753 388 
Q 2084 388 2306 591 
Q 2528 794 2588 1216 
z
" transform="scale(0.015625)"/>
       <path id="ArialMT-65" d="M 2694 1069 
L 3275 997 
Q 3138 488 2766 206 
Q 2394 -75 1816 -75 
Q 1088 -75 661 373 
Q 234 822 234 1631 
Q 234 2469 665 2931 
Q 1097 3394 1784 3394 
Q 2450 3394 2872 2941 
Q 3294 2488 3294 1666 
Q 3294 1616 3291 1516 
L 816 1516 
Q 847 969 1125 678 
Q 1403 388 1819 388 
Q 2128 388 2347 550 
Q 2566 713 2694 1069 
z
M 847 1978 
L 2700 1978 
Q 2663 2397 2488 2606 
Q 2219 2931 1791 2931 
Q 1403 2931 1139 2672 
Q 875 2413 847 1978 
z
" transform="scale(0.015625)"/>
       <path id="ArialMT-6e" d="M 422 0 
L 422 3319 
L 928 3319 
L 928 2847 
Q 1294 3394 1984 3394 
Q 2284 3394 2536 3286 
Q 2788 3178 2913 3003 
Q 3038 2828 3088 2588 
Q 3119 2431 3119 2041 
L 3119 0 
L 2556 0 
L 2556 2019 
Q 2556 2363 2490 2533 
Q 2425 2703 2258 2804 
Q 2091 2906 1866 2906 
Q 1506 2906 1245 2678 
Q 984 2450 984 1813 
L 984 0 
L 422 0 
z
" transform="scale(0.015625)"/>
       <path id="ArialMT-74" d="M 1650 503 
L 1731 6 
Q 1494 -44 1306 -44 
Q 1000 -44 831 53 
Q 663 150 594 308 
Q 525 466 525 972 
L 525 2881 
L 113 2881 
L 113 3319 
L 525 3319 
L 525 4141 
L 1084 4478 
L 1084 3319 
L 1650 3319 
L 1650 2881 
L 1084 2881 
L 1084 941 
Q 1084 700 1114 631 
Q 1144 563 1211 522 
Q 1278 481 1403 481 
Q 1497 481 1650 503 
z
" transform="scale(0.015625)"/>
       <path id="ArialMT-73" d="M 197 991 
L 753 1078 
Q 800 744 1014 566 
Q 1228 388 1613 388 
Q 2000 388 2187 545 
Q 2375 703 2375 916 
Q 2375 1106 2209 1216 
Q 2094 1291 1634 1406 
Q 1016 1563 777 1677 
Q 538 1791 414 1992 
Q 291 2194 291 2438 
Q 291 2659 392 2848 
Q 494 3038 669 3163 
Q 800 3259 1026 3326 
Q 1253 3394 1513 3394 
Q 1903 3394 2198 3281 
Q 2494 3169 2634 2976 
Q 2775 2784 2828 2463 
L 2278 2388 
Q 2241 2644 2061 2787 
Q 1881 2931 1553 2931 
Q 1166 2931 1000 2803 
Q 834 2675 834 2503 
Q 834 2394 903 2306 
Q 972 2216 1119 2156 
Q 1203 2125 1616 2013 
Q 2213 1853 2448 1751 
Q 2684 1650 2818 1456 
Q 2953 1263 2953 975 
Q 2953 694 2789 445 
Q 2625 197 2315 61 
Q 2006 -75 1616 -75 
Q 969 -75 630 194 
Q 291 463 197 991 
z
" transform="scale(0.015625)"/>
       <path id="ArialMT-29" d="M 791 -1347 
L 388 -1347 
Q 1322 153 1322 1656 
Q 1322 2244 1188 2822 
Q 1081 3291 891 3722 
Q 769 4003 388 4659 
L 791 4659 
Q 1378 3875 1659 3084 
Q 1900 2403 1900 1659 
Q 1900 816 1576 28 
Q 1253 -759 791 -1347 
z
" transform="scale(0.015625)"/>
      </defs>
      <use xlink:href="#ArialMT-4a"/>
      <use xlink:href="#ArialMT-4e" x="50"/>
      <use xlink:href="#ArialMT-44" x="122.216797"/>
      <use xlink:href="#ArialMT-20" x="194.433594"/>
      <use xlink:href="#ArialMT-28" x="222.216797"/>
      <use xlink:href="#ArialMT-63" x="255.517578"/>
      <use xlink:href="#ArialMT-65" x="305.517578"/>
      <use xlink:href="#ArialMT-6e" x="361.132812"/>
      <use xlink:href="#ArialMT-74" x="416.748047"/>
      <use xlink:href="#ArialMT-73" x="444.53125"/>
      <use xlink:href="#ArialMT-29" x="494.53125"/>
     </g>
    </g>
   </g>
   <g id="matplotlib.axis_2">
    <g id="ytick_1">
     <g id="line2d_9">
      <path d="M 69.288125 304.290171 
L 419.04 304.290171 
" clip-path="url(#p9b17446d34)" style="fill: none; stroke: #ffffff; stroke-width: 0.8; stroke-linecap: round"/>
     </g>
     <g id="text_10">
      <!-- −1.00 -->
      <g style="fill: #262626" transform="translate(31.92625 308.584859)scale(0.12 -0.12)">
       <defs>
        <path id="ArialMT-2212" d="M 3381 1997 
L 356 1997 
L 356 2522 
L 3381 2522 
L 3381 1997 
z
" transform="scale(0.015625)"/>
        <path id="ArialMT-2e" d="M 581 0 
L 581 641 
L 1222 641 
L 1222 0 
L 581 0 
z
" transform="scale(0.015625)"/>
       </defs>
       <use xlink:href="#ArialMT-2212"/>
       <use xlink:href="#ArialMT-31" x="58.398438"/>
       <use xlink:href="#ArialMT-2e" x="114.013672"/>
       <use xlink:href="#ArialMT-30" x="141.796875"/>
       <use xlink:href="#ArialMT-30" x="197.412109"/>
      </g>
     </g>
    </g>
    <g id="ytick_2">
     <g id="line2d_10">
      <path d="M 69.288125 268.375219 
L 419.04 268.375219 
" clip-path="url(#p9b17446d34)" style="fill: none; stroke: #ffffff; stroke-width: 0.8; stroke-linecap: round"/>
     </g>
     <g id="text_11">
      <!-- −0.75 -->
      <g style="fill: #262626" transform="translate(31.92625 272.669906)scale(0.12 -0.12)">
       <defs>
        <path id="ArialMT-37" d="M 303 3981 
L 303 4522 
L 3269 4522 
L 3269 4084 
Q 2831 3619 2401 2847 
Q 1972 2075 1738 1259 
Q 1569 684 1522 0 
L 944 0 
Q 953 541 1156 1306 
Q 1359 2072 1739 2783 
Q 2119 3494 2547 3981 
L 303 3981 
z
" transform="scale(0.015625)"/>
       </defs>
       <use xlink:href="#ArialMT-2212"/>
       <use xlink:href="#ArialMT-30" x="58.398438"/>
       <use xlink:href="#ArialMT-2e" x="114.013672"/>
       <use xlink:href="#ArialMT-37" x="141.796875"/>
       <use xlink:href="#ArialMT-35" x="197.412109"/>
      </g>
     </g>
    </g>
    <g id="ytick_3">
     <g id="line2d_11">
      <path d="M 69.288125 232.460266 
L 419.04 232.460266 
" clip-path="url(#p9b17446d34)" style="fill: none; stroke: #ffffff; stroke-width: 0.8; stroke-linecap: round"/>
     </g>
     <g id="text_12">
      <!-- −0.50 -->
      <g style="fill: #262626" transform="translate(31.92625 236.754954)scale(0.12 -0.12)">
       <use xlink:href="#ArialMT-2212"/>
       <use xlink:href="#ArialMT-30" x="58.398438"/>
       <use xlink:href="#ArialMT-2e" x="114.013672"/>
       <use xlink:href="#ArialMT-35" x="141.796875"/>
       <use xlink:href="#ArialMT-30" x="197.412109"/>
      </g>
     </g>
    </g>
    <g id="ytick_4">
     <g id="line2d_12">
      <path d="M 69.288125 196.545314 
L 419.04 196.545314 
" clip-path="url(#p9b17446d34)" style="fill: none; stroke: #ffffff; stroke-width: 0.8; stroke-linecap: round"/>
     </g>
     <g id="text_13">
      <!-- −0.25 -->
      <g style="fill: #262626" transform="translate(31.92625 200.840001)scale(0.12 -0.12)">
       <use xlink:href="#ArialMT-2212"/>
       <use xlink:href="#ArialMT-30" x="58.398438"/>
       <use xlink:href="#ArialMT-2e" x="114.013672"/>
       <use xlink:href="#ArialMT-32" x="141.796875"/>
       <use xlink:href="#ArialMT-35" x="197.412109"/>
      </g>
     </g>
    </g>
    <g id="ytick_5">
     <g id="line2d_13">
      <path d="M 69.288125 160.630361 
L 419.04 160.630361 
" clip-path="url(#p9b17446d34)" style="fill: none; stroke: #ffffff; stroke-width: 0.8; stroke-linecap: round"/>
     </g>
     <g id="text_14">
      <!-- 0.00 -->
      <g style="fill: #262626" transform="translate(38.935 164.925048)scale(0.12 -0.12)">
       <use xlink:href="#ArialMT-30"/>
       <use xlink:href="#ArialMT-2e" x="55.615234"/>
       <use xlink:href="#ArialMT-30" x="83.398438"/>
       <use xlink:href="#ArialMT-30" x="139.013672"/>
      </g>
     </g>
    </g>
    <g id="ytick_6">
     <g id="line2d_14">
      <path d="M 69.288125 124.715408 
L 419.04 124.715408 
" clip-path="url(#p9b17446d34)" style="fill: none; stroke: #ffffff; stroke-width: 0.8; stroke-linecap: round"/>
     </g>
     <g id="text_15">
      <!-- 0.25 -->
      <g style="fill: #262626" transform="translate(38.935 129.010096)scale(0.12 -0.12)">
       <use xlink:href="#ArialMT-30"/>
       <use xlink:href="#ArialMT-2e" x="55.615234"/>
       <use xlink:href="#ArialMT-32" x="83.398438"/>
       <use xlink:href="#ArialMT-35" x="139.013672"/>
      </g>
     </g>
    </g>
    <g id="ytick_7">
     <g id="line2d_15">
      <path d="M 69.288125 88.800456 
L 419.04 88.800456 
" clip-path="url(#p9b17446d34)" style="fill: none; stroke: #ffffff; stroke-width: 0.8; stroke-linecap: round"/>
     </g>
     <g id="text_16">
      <!-- 0.50 -->
      <g style="fill: #262626" transform="translate(38.935 93.095143)scale(0.12 -0.12)">
       <use xlink:href="#ArialMT-30"/>
       <use xlink:href="#ArialMT-2e" x="55.615234"/>
       <use xlink:href="#ArialMT-35" x="83.398438"/>
       <use xlink:href="#ArialMT-30" x="139.013672"/>
      </g>
     </g>
    </g>
    <g id="ytick_8">
     <g id="line2d_16">
      <path d="M 69.288125 52.885503 
L 419.04 52.885503 
" clip-path="url(#p9b17446d34)" style="fill: none; stroke: #ffffff; stroke-width: 0.8; stroke-linecap: round"/>
     </g>
     <g id="text_17">
      <!-- 0.75 -->
      <g style="fill: #262626" transform="translate(38.935 57.180191)scale(0.12 -0.12)">
       <use xlink:href="#ArialMT-30"/>
       <use xlink:href="#ArialMT-2e" x="55.615234"/>
       <use xlink:href="#ArialMT-37" x="83.398438"/>
       <use xlink:href="#ArialMT-35" x="139.013672"/>
      </g>
     </g>
    </g>
    <g id="ytick_9">
     <g id="line2d_17">
      <path d="M 69.288125 16.970551 
L 419.04 16.970551 
" clip-path="url(#p9b17446d34)" style="fill: none; stroke: #ffffff; stroke-width: 0.8; stroke-linecap: round"/>
     </g>
     <g id="text_18">
      <!-- 1.00 -->
      <g style="fill: #262626" transform="translate(38.935 21.265238)scale(0.12 -0.12)">
       <use xlink:href="#ArialMT-31"/>
       <use xlink:href="#ArialMT-2e" x="55.615234"/>
       <use xlink:href="#ArialMT-30" x="83.398438"/>
       <use xlink:href="#ArialMT-30" x="139.013672"/>
      </g>
     </g>
    </g>
    <g id="text_19">
     <!-- C(Late) - C(Early) -->
     <g style="fill: #262626" transform="translate(24.55875 227.010478)rotate(-90)scale(0.16 -0.16)">
      <defs>
       <path id="ArialMT-43" d="M 3763 1606 
L 4369 1453 
Q 4178 706 3683 314 
Q 3188 -78 2472 -78 
Q 1731 -78 1267 223 
Q 803 525 561 1097 
Q 319 1669 319 2325 
Q 319 3041 592 3573 
Q 866 4106 1370 4382 
Q 1875 4659 2481 4659 
Q 3169 4659 3637 4309 
Q 4106 3959 4291 3325 
L 3694 3184 
Q 3534 3684 3231 3912 
Q 2928 4141 2469 4141 
Q 1941 4141 1586 3887 
Q 1231 3634 1087 3207 
Q 944 2781 944 2328 
Q 944 1744 1114 1308 
Q 1284 872 1643 656 
Q 2003 441 2422 441 
Q 2931 441 3284 734 
Q 3638 1028 3763 1606 
z
" transform="scale(0.015625)"/>
       <path id="ArialMT-4c" d="M 469 0 
L 469 4581 
L 1075 4581 
L 1075 541 
L 3331 541 
L 3331 0 
L 469 0 
z
" transform="scale(0.015625)"/>
       <path id="ArialMT-61" d="M 2588 409 
Q 2275 144 1986 34 
Q 1697 -75 1366 -75 
Q 819 -75 525 192 
Q 231 459 231 875 
Q 231 1119 342 1320 
Q 453 1522 633 1644 
Q 813 1766 1038 1828 
Q 1203 1872 1538 1913 
Q 2219 1994 2541 2106 
Q 2544 2222 2544 2253 
Q 2544 2597 2384 2738 
Q 2169 2928 1744 2928 
Q 1347 2928 1158 2789 
Q 969 2650 878 2297 
L 328 2372 
Q 403 2725 575 2942 
Q 747 3159 1072 3276 
Q 1397 3394 1825 3394 
Q 2250 3394 2515 3294 
Q 2781 3194 2906 3042 
Q 3031 2891 3081 2659 
Q 3109 2516 3109 2141 
L 3109 1391 
Q 3109 606 3145 398 
Q 3181 191 3288 0 
L 2700 0 
Q 2613 175 2588 409 
z
M 2541 1666 
Q 2234 1541 1622 1453 
Q 1275 1403 1131 1340 
Q 988 1278 909 1158 
Q 831 1038 831 891 
Q 831 666 1001 516 
Q 1172 366 1500 366 
Q 1825 366 2078 508 
Q 2331 650 2450 897 
Q 2541 1088 2541 1459 
L 2541 1666 
z
" transform="scale(0.015625)"/>
       <path id="ArialMT-2d" d="M 203 1375 
L 203 1941 
L 1931 1941 
L 1931 1375 
L 203 1375 
z
" transform="scale(0.015625)"/>
       <path id="ArialMT-45" d="M 506 0 
L 506 4581 
L 3819 4581 
L 3819 4041 
L 1113 4041 
L 1113 2638 
L 3647 2638 
L 3647 2100 
L 1113 2100 
L 1113 541 
L 3925 541 
L 3925 0 
L 506 0 
z
" transform="scale(0.015625)"/>
       <path id="ArialMT-72" d="M 416 0 
L 416 3319 
L 922 3319 
L 922 2816 
Q 1116 3169 1280 3281 
Q 1444 3394 1641 3394 
Q 1925 3394 2219 3213 
L 2025 2691 
Q 1819 2813 1613 2813 
Q 1428 2813 1281 2702 
Q 1134 2591 1072 2394 
Q 978 2094 978 1738 
L 978 0 
L 416 0 
z
" transform="scale(0.015625)"/>
       <path id="ArialMT-6c" d="M 409 0 
L 409 4581 
L 972 4581 
L 972 0 
L 409 0 
z
" transform="scale(0.015625)"/>
       <path id="ArialMT-79" d="M 397 -1278 
L 334 -750 
Q 519 -800 656 -800 
Q 844 -800 956 -737 
Q 1069 -675 1141 -563 
Q 1194 -478 1313 -144 
Q 1328 -97 1363 -6 
L 103 3319 
L 709 3319 
L 1400 1397 
Q 1534 1031 1641 628 
Q 1738 1016 1872 1384 
L 2581 3319 
L 3144 3319 
L 1881 -56 
Q 1678 -603 1566 -809 
Q 1416 -1088 1222 -1217 
Q 1028 -1347 759 -1347 
Q 597 -1347 397 -1278 
z
" transform="scale(0.015625)"/>
      </defs>
      <use xlink:href="#ArialMT-43"/>
      <use xlink:href="#ArialMT-28" x="72.216797"/>
      <use xlink:href="#ArialMT-4c" x="105.517578"/>
      <use xlink:href="#ArialMT-61" x="161.132812"/>
      <use xlink:href="#ArialMT-74" x="216.748047"/>
      <use xlink:href="#ArialMT-65" x="244.53125"/>
      <use xlink:href="#ArialMT-29" x="300.146484"/>
      <use xlink:href="#ArialMT-20" x="333.447266"/>
      <use xlink:href="#ArialMT-2d" x="361.230469"/>
      <use xlink:href="#ArialMT-20" x="394.53125"/>
      <use xlink:href="#ArialMT-43" x="422.314453"/>
      <use xlink:href="#ArialMT-28" x="494.53125"/>
      <use xlink:href="#ArialMT-45" x="527.832031"/>
      <use xlink:href="#ArialMT-61" x="594.53125"/>
      <use xlink:href="#ArialMT-72" x="650.146484"/>
      <use xlink:href="#ArialMT-6c" x="683.447266"/>
      <use xlink:href="#ArialMT-79" x="705.664062"/>
      <use xlink:href="#ArialMT-29" x="755.664062"/>
     </g>
    </g>
   </g>
   <g id="PathCollection_1">
    <defs>
     <path id="m1a56e27665" d="M 0 3 
C 0.795609 3 1.55874 2.683901 2.12132 2.12132 
C 2.683901 1.55874 3 0.795609 3 0 
C 3 -0.795609 2.683901 -1.55874 2.12132 -2.12132 
C 1.55874 -2.683901 0.795609 -3 0 -3 
C -0.795609 -3 -1.55874 -2.683901 -2.12132 -2.12132 
C -2.683901 -1.55874 -3 -0.795609 -3 0 
C -3 0.795609 -2.683901 1.55874 -2.12132 2.12132 
C -1.55874 2.683901 -0.795609 3 0 3 
z
" style="stroke: #1f77b4; stroke-opacity: 0.8"/>
    </defs>
    <g clip-path="url(#p9b17446d34)">
     <use xlink:href="#m1a56e27665" x="85.185937" y="173.205525" style="fill: #1f77b4; fill-opacity: 0.8; stroke: #1f77b4; stroke-opacity: 0.8"/>
     <use xlink:href="#m1a56e27665" x="165.700665" y="151.951629" style="fill: #1f77b4; fill-opacity: 0.8; stroke: #1f77b4; stroke-opacity: 0.8"/>
     <use xlink:href="#m1a56e27665" x="109.289073" y="63.900019" style="fill: #1f77b4; fill-opacity: 0.8; stroke: #1f77b4; stroke-opacity: 0.8"/>
     <use xlink:href="#m1a56e27665" x="106.724909" y="177.641389" style="fill: #1f77b4; fill-opacity: 0.8; stroke: #1f77b4; stroke-opacity: 0.8"/>
     <use xlink:href="#m1a56e27665" x="115.955897" y="84.645239" style="fill: #1f77b4; fill-opacity: 0.8; stroke: #1f77b4; stroke-opacity: 0.8"/>
     <use xlink:href="#m1a56e27665" x="226.214919" y="132.751558" style="fill: #1f77b4; fill-opacity: 0.8; stroke: #1f77b4; stroke-opacity: 0.8"/>
     <use xlink:href="#m1a56e27665" x="111.340403" y="161.902208" style="fill: #1f77b4; fill-opacity: 0.8; stroke: #1f77b4; stroke-opacity: 0.8"/>
     <use xlink:href="#m1a56e27665" x="104.673579" y="140.124886" style="fill: #1f77b4; fill-opacity: 0.8; stroke: #1f77b4; stroke-opacity: 0.8"/>
     <use xlink:href="#m1a56e27665" x="185.701139" y="102.829598" style="fill: #1f77b4; fill-opacity: 0.8; stroke: #1f77b4; stroke-opacity: 0.8"/>
     <use xlink:href="#m1a56e27665" x="403.142187" y="177.555106" style="fill: #1f77b4; fill-opacity: 0.8; stroke: #1f77b4; stroke-opacity: 0.8"/>
     <use xlink:href="#m1a56e27665" x="95.955423" y="118.056121" style="fill: #1f77b4; fill-opacity: 0.8; stroke: #1f77b4; stroke-opacity: 0.8"/>
     <use xlink:href="#m1a56e27665" x="230.830413" y="112.511718" style="fill: #1f77b4; fill-opacity: 0.8; stroke: #1f77b4; stroke-opacity: 0.8"/>
     <use xlink:href="#m1a56e27665" x="146.213024" y="181.135836" style="fill: #1f77b4; fill-opacity: 0.8; stroke: #1f77b4; stroke-opacity: 0.8"/>
     <use xlink:href="#m1a56e27665" x="97.493921" y="75.844297" style="fill: #1f77b4; fill-opacity: 0.8; stroke: #1f77b4; stroke-opacity: 0.8"/>
     <use xlink:href="#m1a56e27665" x="126.725383" y="151.479512" style="fill: #1f77b4; fill-opacity: 0.8; stroke: #1f77b4; stroke-opacity: 0.8"/>
     <use xlink:href="#m1a56e27665" x="156.469677" y="197.660013" style="fill: #1f77b4; fill-opacity: 0.8; stroke: #1f77b4; stroke-opacity: 0.8"/>
     <use xlink:href="#m1a56e27665" x="98.006754" y="30.20114" style="fill: #1f77b4; fill-opacity: 0.8; stroke: #1f77b4; stroke-opacity: 0.8"/>
     <use xlink:href="#m1a56e27665" x="170.316159" y="145.378031" style="fill: #1f77b4; fill-opacity: 0.8; stroke: #1f77b4; stroke-opacity: 0.8"/>
     <use xlink:href="#m1a56e27665" x="86.724435" y="169.349957" style="fill: #1f77b4; fill-opacity: 0.8; stroke: #1f77b4; stroke-opacity: 0.8"/>
     <use xlink:href="#m1a56e27665" x="135.443538" y="244.462874" style="fill: #1f77b4; fill-opacity: 0.8; stroke: #1f77b4; stroke-opacity: 0.8"/>
     <use xlink:href="#m1a56e27665" x="121.597056" y="106.729302" style="fill: #1f77b4; fill-opacity: 0.8; stroke: #1f77b4; stroke-opacity: 0.8"/>
     <use xlink:href="#m1a56e27665" x="101.596583" y="60.57462" style="fill: #1f77b4; fill-opacity: 0.8; stroke: #1f77b4; stroke-opacity: 0.8"/>
     <use xlink:href="#m1a56e27665" x="118.007228" y="140.124886" style="fill: #1f77b4; fill-opacity: 0.8; stroke: #1f77b4; stroke-opacity: 0.8"/>
     <use xlink:href="#m1a56e27665" x="111.853236" y="42.728439" style="fill: #1f77b4; fill-opacity: 0.8; stroke: #1f77b4; stroke-opacity: 0.8"/>
     <use xlink:href="#m1a56e27665" x="144.161694" y="90.46876" style="fill: #1f77b4; fill-opacity: 0.8; stroke: #1f77b4; stroke-opacity: 0.8"/>
     <use xlink:href="#m1a56e27665" x="125.699718" y="297.592316" style="fill: #1f77b4; fill-opacity: 0.8; stroke: #1f77b4; stroke-opacity: 0.8"/>
     <use xlink:href="#m1a56e27665" x="128.263881" y="160.630361" style="fill: #1f77b4; fill-opacity: 0.8; stroke: #1f77b4; stroke-opacity: 0.8"/>
     <use xlink:href="#m1a56e27665" x="92.365595" y="111.602102" style="fill: #1f77b4; fill-opacity: 0.8; stroke: #1f77b4; stroke-opacity: 0.8"/>
     <use xlink:href="#m1a56e27665" x="148.777187" y="89.658317" style="fill: #1f77b4; fill-opacity: 0.8; stroke: #1f77b4; stroke-opacity: 0.8"/>
     <use xlink:href="#m1a56e27665" x="142.623196" y="134.332976" style="fill: #1f77b4; fill-opacity: 0.8; stroke: #1f77b4; stroke-opacity: 0.8"/>
     <use xlink:href="#m1a56e27665" x="194.932127" y="137.499029" style="fill: #1f77b4; fill-opacity: 0.8; stroke: #1f77b4; stroke-opacity: 0.8"/>
     <use xlink:href="#m1a56e27665" x="274.934022" y="173.899128" style="fill: #1f77b4; fill-opacity: 0.8; stroke: #1f77b4; stroke-opacity: 0.8"/>
     <use xlink:href="#m1a56e27665" x="135.956371" y="179.30152" style="fill: #1f77b4; fill-opacity: 0.8; stroke: #1f77b4; stroke-opacity: 0.8"/>
     <use xlink:href="#m1a56e27665" x="99.545252" y="98.74601" style="fill: #1f77b4; fill-opacity: 0.8; stroke: #1f77b4; stroke-opacity: 0.8"/>
     <use xlink:href="#m1a56e27665" x="296.985827" y="52.425997" style="fill: #1f77b4; fill-opacity: 0.8; stroke: #1f77b4; stroke-opacity: 0.8"/>
     <use xlink:href="#m1a56e27665" x="119.032893" y="186.916687" style="fill: #1f77b4; fill-opacity: 0.8; stroke: #1f77b4; stroke-opacity: 0.8"/>
     <use xlink:href="#m1a56e27665" x="126.725383" y="121.400837" style="fill: #1f77b4; fill-opacity: 0.8; stroke: #1f77b4; stroke-opacity: 0.8"/>
    </g>
   </g>
   <g id="PolyCollection_1">
    <defs>
     <path id="m143a53b607" d="M 85.185937 -254.4714 
L 85.185937 -202.639898 
L 88.397617 -203.248477 
L 91.609296 -203.707432 
L 94.820975 -204.333661 
L 98.032655 -204.750852 
L 101.244334 -205.169755 
L 104.456013 -205.604135 
L 107.667693 -205.81628 
L 110.879372 -205.786317 
L 114.091051 -206.217357 
L 117.30273 -206.391965 
L 120.51441 -206.696356 
L 123.726089 -207.034804 
L 126.937768 -206.919297 
L 130.149448 -206.709209 
L 133.361127 -206.598601 
L 136.572806 -206.344311 
L 139.784485 -206.069747 
L 142.996165 -205.945609 
L 146.207844 -205.604287 
L 149.419523 -205.464252 
L 152.631203 -205.469971 
L 155.842882 -205.226126 
L 159.054561 -205.028291 
L 162.266241 -204.866563 
L 165.47792 -204.452523 
L 168.689599 -203.972912 
L 171.901278 -203.788956 
L 175.112958 -204.069803 
L 178.324637 -203.192669 
L 181.536316 -202.957196 
L 184.747996 -202.481071 
L 187.959675 -202.122864 
L 191.171354 -201.61172 
L 194.383033 -200.575044 
L 197.594713 -200.226385 
L 200.806392 -199.731959 
L 204.018071 -199.253156 
L 207.229751 -198.411652 
L 210.44143 -197.636417 
L 213.653109 -197.32184 
L 216.864789 -196.430036 
L 220.076468 -195.538233 
L 223.288147 -194.632908 
L 226.499826 -193.722721 
L 229.711506 -192.81703 
L 232.923185 -191.81212 
L 236.134864 -190.950433 
L 239.346544 -190.125361 
L 242.558223 -189.48688 
L 245.769902 -188.48001 
L 248.981581 -187.538877 
L 252.193261 -186.511511 
L 255.40494 -185.60095 
L 258.616619 -184.701794 
L 261.828299 -183.804298 
L 265.039978 -182.906802 
L 268.251657 -181.997881 
L 271.463336 -180.848531 
L 274.675016 -179.64055 
L 277.886695 -178.436836 
L 281.098374 -177.320422 
L 284.310054 -176.555389 
L 287.521733 -175.790357 
L 290.733412 -175.025325 
L 293.945092 -174.115816 
L 297.156771 -172.913787 
L 300.36845 -171.711758 
L 303.580129 -170.469614 
L 306.791809 -169.002783 
L 310.003488 -167.538553 
L 313.215167 -166.077594 
L 316.426847 -164.616635 
L 319.638526 -163.56597 
L 322.850205 -162.600053 
L 326.061884 -161.831434 
L 329.273564 -160.931332 
L 332.485243 -159.735175 
L 335.696922 -158.709978 
L 338.908602 -157.732729 
L 342.120281 -156.755479 
L 345.33196 -155.778229 
L 348.54364 -154.80098 
L 351.755319 -153.82373 
L 354.966998 -152.846481 
L 358.178677 -151.869231 
L 361.390357 -150.891981 
L 364.602036 -149.822834 
L 367.813715 -148.691253 
L 371.025395 -147.559673 
L 374.237074 -146.433481 
L 377.448753 -145.307306 
L 380.660432 -144.181131 
L 383.872112 -143.054956 
L 387.083791 -141.928782 
L 390.29547 -140.802607 
L 393.50715 -139.676432 
L 396.718829 -138.550257 
L 399.930508 -137.424082 
L 403.142187 -136.297908 
L 403.142187 -287.863465 
L 403.142187 -287.863465 
L 399.930508 -287.256325 
L 396.718829 -286.649186 
L 393.50715 -285.950032 
L 390.29547 -285.097097 
L 387.083791 -284.238034 
L 383.872112 -283.378972 
L 380.660432 -282.51991 
L 377.448753 -281.660847 
L 374.237074 -280.801785 
L 371.025395 -279.942723 
L 367.813715 -279.08366 
L 364.602036 -278.224598 
L 361.390357 -277.365536 
L 358.178677 -276.506473 
L 354.966998 -275.647411 
L 351.755319 -274.772382 
L 348.54364 -273.887103 
L 345.33196 -273.001823 
L 342.120281 -272.116543 
L 338.908602 -271.305585 
L 335.696922 -270.497895 
L 332.485243 -269.641785 
L 329.273564 -268.785675 
L 326.061884 -268.122614 
L 322.850205 -267.46671 
L 319.638526 -266.703465 
L 316.426847 -265.940221 
L 313.215167 -265.176976 
L 310.003488 -264.47305 
L 306.791809 -263.914517 
L 303.580129 -263.35326 
L 300.36845 -262.780679 
L 297.156771 -261.835817 
L 293.945092 -261.418463 
L 290.733412 -261.001109 
L 287.521733 -260.585906 
L 284.310054 -259.995327 
L 281.098374 -259.437939 
L 277.886695 -258.880686 
L 274.675016 -258.160523 
L 271.463336 -257.239083 
L 268.251657 -256.654274 
L 265.039978 -255.741091 
L 261.828299 -255.098983 
L 258.616619 -254.351271 
L 255.40494 -253.681219 
L 252.193261 -253.120068 
L 248.981581 -252.550082 
L 245.769902 -252.140488 
L 242.558223 -251.471117 
L 239.346544 -251.334391 
L 236.134864 -250.713631 
L 232.923185 -250.463637 
L 229.711506 -250.029617 
L 226.499826 -249.10037 
L 223.288147 -248.419332 
L 220.076468 -247.76745 
L 216.864789 -247.121552 
L 213.653109 -246.334595 
L 210.44143 -245.726503 
L 207.229751 -245.208363 
L 204.018071 -245.025701 
L 200.806392 -244.524122 
L 197.594713 -244.046857 
L 194.383033 -244.246114 
L 191.171354 -243.931897 
L 187.959675 -244.108876 
L 184.747996 -244.050351 
L 181.536316 -243.448094 
L 178.324637 -243.482722 
L 175.112958 -243.509656 
L 171.901278 -243.346157 
L 168.689599 -243.148579 
L 165.47792 -243.020987 
L 162.266241 -242.81255 
L 159.054561 -243.122547 
L 155.842882 -242.997689 
L 152.631203 -243.315976 
L 149.419523 -243.372399 
L 146.207844 -243.472321 
L 142.996165 -243.784456 
L 139.784485 -243.704242 
L 136.572806 -244.126586 
L 133.361127 -244.695447 
L 130.149448 -245.160573 
L 126.937768 -245.551168 
L 123.726089 -246.12103 
L 120.51441 -246.508917 
L 117.30273 -247.107481 
L 114.091051 -247.604402 
L 110.879372 -248.090501 
L 107.667693 -248.857855 
L 104.456013 -249.256797 
L 101.244334 -250.444846 
L 98.032655 -251.53467 
L 94.820975 -251.702927 
L 91.609296 -252.062271 
L 88.397617 -253.564879 
L 85.185937 -254.4714 
z
" style="stroke: #ffffff; stroke-opacity: 0.15"/>
    </defs>
    <g clip-path="url(#p9b17446d34)">
     <use xlink:href="#m143a53b607" x="0" y="360" style="fill: #1f77b4; fill-opacity: 0.15; stroke: #ffffff; stroke-opacity: 0.15"/>
    </g>
   </g>
   <g id="line2d_18">
    <path d="M 85.185937 130.467434 
L 88.397617 130.677764 
L 91.609296 130.888093 
L 94.820975 131.098423 
L 98.032655 131.308752 
L 101.244334 131.519082 
L 104.456013 131.729411 
L 107.667693 131.939741 
L 110.879372 132.15007 
L 114.091051 132.3604 
L 117.30273 132.570729 
L 120.51441 132.781059 
L 123.726089 132.991388 
L 126.937768 133.201718 
L 130.149448 133.412047 
L 133.361127 133.622377 
L 136.572806 133.832706 
L 139.784485 134.043036 
L 142.996165 134.253365 
L 146.207844 134.463695 
L 149.419523 134.674024 
L 152.631203 134.884354 
L 155.842882 135.094683 
L 159.054561 135.305013 
L 162.266241 135.515342 
L 165.47792 135.725672 
L 168.689599 135.936001 
L 171.901278 136.146331 
L 175.112958 136.35666 
L 178.324637 136.56699 
L 181.536316 136.777319 
L 184.747996 136.987649 
L 187.959675 137.197978 
L 191.171354 137.408308 
L 194.383033 137.618637 
L 197.594713 137.828967 
L 200.806392 138.039296 
L 204.018071 138.249626 
L 207.229751 138.459955 
L 210.44143 138.670285 
L 213.653109 138.880615 
L 216.864789 139.090944 
L 220.076468 139.301274 
L 223.288147 139.511603 
L 226.499826 139.721933 
L 229.711506 139.932262 
L 232.923185 140.142592 
L 236.134864 140.352921 
L 239.346544 140.563251 
L 242.558223 140.77358 
L 245.769902 140.98391 
L 248.981581 141.194239 
L 252.193261 141.404569 
L 255.40494 141.614898 
L 258.616619 141.825228 
L 261.828299 142.035557 
L 265.039978 142.245887 
L 268.251657 142.456216 
L 271.463336 142.666546 
L 274.675016 142.876875 
L 277.886695 143.087205 
L 281.098374 143.297534 
L 284.310054 143.507864 
L 287.521733 143.718193 
L 290.733412 143.928523 
L 293.945092 144.138852 
L 297.156771 144.349182 
L 300.36845 144.559511 
L 303.580129 144.769841 
L 306.791809 144.98017 
L 310.003488 145.1905 
L 313.215167 145.400829 
L 316.426847 145.611159 
L 319.638526 145.821488 
L 322.850205 146.031818 
L 326.061884 146.242147 
L 329.273564 146.452477 
L 332.485243 146.662806 
L 335.696922 146.873136 
L 338.908602 147.083465 
L 342.120281 147.293795 
L 345.33196 147.504124 
L 348.54364 147.714454 
L 351.755319 147.924783 
L 354.966998 148.135113 
L 358.178677 148.345442 
L 361.390357 148.555772 
L 364.602036 148.766101 
L 367.813715 148.976431 
L 371.025395 149.18676 
L 374.237074 149.39709 
L 377.448753 149.607419 
L 380.660432 149.817749 
L 383.872112 150.028078 
L 387.083791 150.238408 
L 390.29547 150.448737 
L 393.50715 150.659067 
L 396.718829 150.869396 
L 399.930508 151.079726 
L 403.142187 151.290055 
" clip-path="url(#p9b17446d34)" style="fill: none; stroke: #1f77b4; stroke-width: 2.25; stroke-linecap: round"/>
   </g>
   <g id="patch_3">
    <path d="M 69.288125 310.961875 
L 69.288125 16.831581 
" style="fill: none; stroke: #ffffff; stroke-width: 0.8; stroke-linejoin: miter; stroke-linecap: square"/>
   </g>
   <g id="patch_4">
    <path d="M 69.288125 310.961875 
L 419.04 310.961875 
" style="fill: none; stroke: #ffffff; stroke-width: 0.8; stroke-linejoin: miter; stroke-linecap: square"/>
   </g>
   <g id="text_20">
    <!-- $r=$-0.078,  $p=$0.646 -->
    <g style="fill: #262626" transform="translate(268.267198 289.92419)scale(0.14 -0.14)">
     <defs>
      <path id="DejaVuSans-Oblique-72" d="M 2853 2969 
Q 2766 3016 2653 3041 
Q 2541 3066 2413 3066 
Q 1953 3066 1609 2717 
Q 1266 2369 1153 1784 
L 800 0 
L 225 0 
L 909 3500 
L 1484 3500 
L 1375 2956 
Q 1603 3259 1920 3421 
Q 2238 3584 2597 3584 
Q 2691 3584 2781 3573 
Q 2872 3563 2963 3538 
L 2853 2969 
z
" transform="scale(0.015625)"/>
      <path id="DejaVuSans-3d" d="M 678 2906 
L 4684 2906 
L 4684 2381 
L 678 2381 
L 678 2906 
z
M 678 1631 
L 4684 1631 
L 4684 1100 
L 678 1100 
L 678 1631 
z
" transform="scale(0.015625)"/>
      <path id="ArialMT-38" d="M 1131 2484 
Q 781 2613 612 2850 
Q 444 3088 444 3419 
Q 444 3919 803 4259 
Q 1163 4600 1759 4600 
Q 2359 4600 2725 4251 
Q 3091 3903 3091 3403 
Q 3091 3084 2923 2848 
Q 2756 2613 2416 2484 
Q 2838 2347 3058 2040 
Q 3278 1734 3278 1309 
Q 3278 722 2862 322 
Q 2447 -78 1769 -78 
Q 1091 -78 675 323 
Q 259 725 259 1325 
Q 259 1772 486 2073 
Q 713 2375 1131 2484 
z
M 1019 3438 
Q 1019 3113 1228 2906 
Q 1438 2700 1772 2700 
Q 2097 2700 2305 2904 
Q 2513 3109 2513 3406 
Q 2513 3716 2298 3927 
Q 2084 4138 1766 4138 
Q 1444 4138 1231 3931 
Q 1019 3725 1019 3438 
z
M 838 1322 
Q 838 1081 952 856 
Q 1066 631 1291 507 
Q 1516 384 1775 384 
Q 2178 384 2440 643 
Q 2703 903 2703 1303 
Q 2703 1709 2433 1975 
Q 2163 2241 1756 2241 
Q 1359 2241 1098 1978 
Q 838 1716 838 1322 
z
" transform="scale(0.015625)"/>
      <path id="ArialMT-2c" d="M 569 0 
L 569 641 
L 1209 641 
L 1209 0 
Q 1209 -353 1084 -570 
Q 959 -788 688 -906 
L 531 -666 
Q 709 -588 793 -436 
Q 878 -284 888 0 
L 569 0 
z
" transform="scale(0.015625)"/>
      <path id="DejaVuSans-Oblique-70" d="M 3175 2156 
Q 3175 2616 2975 2859 
Q 2775 3103 2400 3103 
Q 2144 3103 1911 2972 
Q 1678 2841 1497 2591 
Q 1319 2344 1212 1994 
Q 1106 1644 1106 1300 
Q 1106 863 1306 627 
Q 1506 391 1875 391 
Q 2147 391 2380 519 
Q 2613 647 2778 891 
Q 2956 1147 3065 1494 
Q 3175 1841 3175 2156 
z
M 1394 2969 
Q 1625 3272 1939 3428 
Q 2253 3584 2638 3584 
Q 3175 3584 3472 3232 
Q 3769 2881 3769 2247 
Q 3769 1728 3584 1258 
Q 3400 788 3053 416 
Q 2822 169 2531 39 
Q 2241 -91 1919 -91 
Q 1547 -91 1294 64 
Q 1041 219 916 525 
L 556 -1331 
L -19 -1331 
L 922 3500 
L 1497 3500 
L 1394 2969 
z
" transform="scale(0.015625)"/>
      <path id="ArialMT-36" d="M 3184 3459 
L 2625 3416 
Q 2550 3747 2413 3897 
Q 2184 4138 1850 4138 
Q 1581 4138 1378 3988 
Q 1113 3794 959 3422 
Q 806 3050 800 2363 
Q 1003 2672 1297 2822 
Q 1591 2972 1913 2972 
Q 2475 2972 2870 2558 
Q 3266 2144 3266 1488 
Q 3266 1056 3080 686 
Q 2894 316 2569 119 
Q 2244 -78 1831 -78 
Q 1128 -78 684 439 
Q 241 956 241 2144 
Q 241 3472 731 4075 
Q 1159 4600 1884 4600 
Q 2425 4600 2770 4297 
Q 3116 3994 3184 3459 
z
M 888 1484 
Q 888 1194 1011 928 
Q 1134 663 1356 523 
Q 1578 384 1822 384 
Q 2178 384 2434 671 
Q 2691 959 2691 1453 
Q 2691 1928 2437 2201 
Q 2184 2475 1800 2475 
Q 1419 2475 1153 2201 
Q 888 1928 888 1484 
z
" transform="scale(0.015625)"/>
     </defs>
     <use xlink:href="#DejaVuSans-Oblique-72" transform="translate(0 0.125)"/>
     <use xlink:href="#DejaVuSans-3d" transform="translate(60.595703 0.125)"/>
     <use xlink:href="#ArialMT-2d" transform="translate(163.867188 0.125)"/>
     <use xlink:href="#ArialMT-30" transform="translate(197.167969 0.125)"/>
     <use xlink:href="#ArialMT-2e" transform="translate(252.783203 0.125)"/>
     <use xlink:href="#ArialMT-30" transform="translate(280.566406 0.125)"/>
     <use xlink:href="#ArialMT-37" transform="translate(336.181641 0.125)"/>
     <use xlink:href="#ArialMT-38" transform="translate(391.796875 0.125)"/>
     <use xlink:href="#ArialMT-2c" transform="translate(447.412109 0.125)"/>
     <use xlink:href="#ArialMT-20" transform="translate(475.195312 0.125)"/>
     <use xlink:href="#ArialMT-20" transform="translate(502.978516 0.125)"/>
     <use xlink:href="#DejaVuSans-Oblique-70" transform="translate(530.761719 0.125)"/>
     <use xlink:href="#DejaVuSans-3d" transform="translate(613.720703 0.125)"/>
     <use xlink:href="#ArialMT-30" transform="translate(716.992188 0.125)"/>
     <use xlink:href="#ArialMT-2e" transform="translate(772.607422 0.125)"/>
     <use xlink:href="#ArialMT-36" transform="translate(800.390625 0.125)"/>
     <use xlink:href="#ArialMT-34" transform="translate(856.005859 0.125)"/>
     <use xlink:href="#ArialMT-36" transform="translate(911.621094 0.125)"/>
    </g>
   </g>
  </g>
 </g>
 <defs>
  <clipPath id="p9b17446d34">
   <rect x="69.288125" y="16.831581" width="349.751875" height="294.130294"/>
  </clipPath>
 </defs>
</svg>
