<?xml version="1.0" encoding="utf-8" standalone="no"?>
<!DOCTYPE svg PUBLIC "-//W3C//DTD SVG 1.1//EN"
  "http://www.w3.org/Graphics/SVG/1.1/DTD/svg11.dtd">
<svg xmlns:xlink="http://www.w3.org/1999/xlink" width="648pt" height="288pt" viewBox="0 0 648 288" xmlns="http://www.w3.org/2000/svg" version="1.1">
 <metadata>
  <rdf:RDF xmlns:dc="http://purl.org/dc/elements/1.1/" xmlns:cc="http://creativecommons.org/ns#" xmlns:rdf="http://www.w3.org/1999/02/22-rdf-syntax-ns#">
   <cc:Work>
    <dc:type rdf:resource="http://purl.org/dc/dcmitype/StillImage"/>
    <dc:date>2023-04-12T10:38:32.861595</dc:date>
    <dc:format>image/svg+xml</dc:format>
    <dc:creator>
     <cc:Agent>
      <dc:title>Matplotlib v3.5.1, https://matplotlib.org/</dc:title>
     </cc:Agent>
    </dc:creator>
   </cc:Work>
  </rdf:RDF>
 </metadata>
 <defs>
  <style type="text/css">*{stroke-linejoin: round; stroke-linecap: butt}</style>
 </defs>
 <g id="figure_1">
  <g id="patch_1">
   <path d="M 0 288 
L 648 288 
L 648 0 
L 0 0 
z
" style="fill: #ffffff"/>
  </g>
  <g id="axes_1">
   <g id="patch_2">
    <path d="M 57.585 238.961875 
L 313.02 238.961875 
L 313.02 16.96 
L 57.585 16.96 
z
" style="fill: #eaeaf2"/>
   </g>
   <g id="matplotlib.axis_1">
    <g id="xtick_1">
     <g id="line2d_1">
      <path d="M 78.87125 238.961875 
L 78.87125 16.96 
" clip-path="url(#p6360d76eb7)" style="fill: none; stroke: #ffffff; stroke-width: 0.8; stroke-linecap: round"/>
     </g>
     <g id="text_1">
      <!-- -15 -->
      <g style="fill: #262626" transform="translate(70.200313 254.55125)scale(0.12 -0.12)">
       <defs>
        <path id="ArialMT-2d" d="M 203 1375 
L 203 1941 
L 1931 1941 
L 1931 1375 
L 203 1375 
z
" transform="scale(0.015625)"/>
        <path id="ArialMT-31" d="M 2384 0 
L 1822 0 
L 1822 3584 
Q 1619 3391 1289 3197 
Q 959 3003 697 2906 
L 697 3450 
Q 1169 3672 1522 3987 
Q 1875 4303 2022 4600 
L 2384 4600 
L 2384 0 
z
" transform="scale(0.015625)"/>
        <path id="ArialMT-35" d="M 266 1200 
L 856 1250 
Q 922 819 1161 601 
Q 1400 384 1738 384 
Q 2144 384 2425 690 
Q 2706 997 2706 1503 
Q 2706 1984 2436 2262 
Q 2166 2541 1728 2541 
Q 1456 2541 1237 2417 
Q 1019 2294 894 2097 
L 366 2166 
L 809 4519 
L 3088 4519 
L 3088 3981 
L 1259 3981 
L 1013 2750 
Q 1425 3038 1878 3038 
Q 2478 3038 2890 2622 
Q 3303 2206 3303 1553 
Q 3303 931 2941 478 
Q 2500 -78 1738 -78 
Q 1113 -78 717 272 
Q 322 622 266 1200 
z
" transform="scale(0.015625)"/>
       </defs>
       <use xlink:href="#ArialMT-2d"/>
       <use xlink:href="#ArialMT-31" x="33.300781"/>
       <use xlink:href="#ArialMT-35" x="88.916016"/>
      </g>
     </g>
    </g>
    <g id="xtick_2">
     <g id="line2d_2">
      <path d="M 185.3025 238.961875 
L 185.3025 16.96 
" clip-path="url(#p6360d76eb7)" style="fill: none; stroke: #ffffff; stroke-width: 0.8; stroke-linecap: round"/>
     </g>
     <g id="text_2">
      <!-- 0 -->
      <g style="fill: #262626" transform="translate(181.965938 254.55125)scale(0.12 -0.12)">
       <defs>
        <path id="ArialMT-30" d="M 266 2259 
Q 266 3072 433 3567 
Q 600 4063 929 4331 
Q 1259 4600 1759 4600 
Q 2128 4600 2406 4451 
Q 2684 4303 2865 4023 
Q 3047 3744 3150 3342 
Q 3253 2941 3253 2259 
Q 3253 1453 3087 958 
Q 2922 463 2592 192 
Q 2263 -78 1759 -78 
Q 1097 -78 719 397 
Q 266 969 266 2259 
z
M 844 2259 
Q 844 1131 1108 757 
Q 1372 384 1759 384 
Q 2147 384 2411 759 
Q 2675 1134 2675 2259 
Q 2675 3391 2411 3762 
Q 2147 4134 1753 4134 
Q 1366 4134 1134 3806 
Q 844 3388 844 2259 
z
" transform="scale(0.015625)"/>
       </defs>
       <use xlink:href="#ArialMT-30"/>
      </g>
     </g>
    </g>
    <g id="xtick_3">
     <g id="line2d_3">
      <path d="M 291.73375 238.961875 
L 291.73375 16.96 
" clip-path="url(#p6360d76eb7)" style="fill: none; stroke: #ffffff; stroke-width: 0.8; stroke-linecap: round"/>
     </g>
     <g id="text_3">
      <!-- +15 -->
      <g style="fill: #262626" transform="translate(281.55625 254.55125)scale(0.12 -0.12)">
       <defs>
        <path id="ArialMT-2b" d="M 1603 741 
L 1603 1997 
L 356 1997 
L 356 2522 
L 1603 2522 
L 1603 3769 
L 2134 3769 
L 2134 2522 
L 3381 2522 
L 3381 1997 
L 2134 1997 
L 2134 741 
L 1603 741 
z
" transform="scale(0.015625)"/>
       </defs>
       <use xlink:href="#ArialMT-2b"/>
       <use xlink:href="#ArialMT-31" x="58.398438"/>
       <use xlink:href="#ArialMT-35" x="114.013672"/>
      </g>
     </g>
    </g>
    <g id="text_4">
     <!-- Probe Timing Offset (%) -->
     <g style="fill: #262626" transform="translate(100.08625 272.59375)scale(0.16 -0.16)">
      <defs>
       <path id="ArialMT-50" d="M 494 0 
L 494 4581 
L 2222 4581 
Q 2678 4581 2919 4538 
Q 3256 4481 3484 4323 
Q 3713 4166 3852 3881 
Q 3991 3597 3991 3256 
Q 3991 2672 3619 2267 
Q 3247 1863 2275 1863 
L 1100 1863 
L 1100 0 
L 494 0 
z
M 1100 2403 
L 2284 2403 
Q 2872 2403 3119 2622 
Q 3366 2841 3366 3238 
Q 3366 3525 3220 3729 
Q 3075 3934 2838 4000 
Q 2684 4041 2272 4041 
L 1100 4041 
L 1100 2403 
z
" transform="scale(0.015625)"/>
       <path id="ArialMT-72" d="M 416 0 
L 416 3319 
L 922 3319 
L 922 2816 
Q 1116 3169 1280 3281 
Q 1444 3394 1641 3394 
Q 1925 3394 2219 3213 
L 2025 2691 
Q 1819 2813 1613 2813 
Q 1428 2813 1281 2702 
Q 1134 2591 1072 2394 
Q 978 2094 978 1738 
L 978 0 
L 416 0 
z
" transform="scale(0.015625)"/>
       <path id="ArialMT-6f" d="M 213 1659 
Q 213 2581 725 3025 
Q 1153 3394 1769 3394 
Q 2453 3394 2887 2945 
Q 3322 2497 3322 1706 
Q 3322 1066 3130 698 
Q 2938 331 2570 128 
Q 2203 -75 1769 -75 
Q 1072 -75 642 372 
Q 213 819 213 1659 
z
M 791 1659 
Q 791 1022 1069 705 
Q 1347 388 1769 388 
Q 2188 388 2466 706 
Q 2744 1025 2744 1678 
Q 2744 2294 2464 2611 
Q 2184 2928 1769 2928 
Q 1347 2928 1069 2612 
Q 791 2297 791 1659 
z
" transform="scale(0.015625)"/>
       <path id="ArialMT-62" d="M 941 0 
L 419 0 
L 419 4581 
L 981 4581 
L 981 2947 
Q 1338 3394 1891 3394 
Q 2197 3394 2470 3270 
Q 2744 3147 2920 2923 
Q 3097 2700 3197 2384 
Q 3297 2069 3297 1709 
Q 3297 856 2875 390 
Q 2453 -75 1863 -75 
Q 1275 -75 941 416 
L 941 0 
z
M 934 1684 
Q 934 1088 1097 822 
Q 1363 388 1816 388 
Q 2184 388 2453 708 
Q 2722 1028 2722 1663 
Q 2722 2313 2464 2622 
Q 2206 2931 1841 2931 
Q 1472 2931 1203 2611 
Q 934 2291 934 1684 
z
" transform="scale(0.015625)"/>
       <path id="ArialMT-65" d="M 2694 1069 
L 3275 997 
Q 3138 488 2766 206 
Q 2394 -75 1816 -75 
Q 1088 -75 661 373 
Q 234 822 234 1631 
Q 234 2469 665 2931 
Q 1097 3394 1784 3394 
Q 2450 3394 2872 2941 
Q 3294 2488 3294 1666 
Q 3294 1616 3291 1516 
L 816 1516 
Q 847 969 1125 678 
Q 1403 388 1819 388 
Q 2128 388 2347 550 
Q 2566 713 2694 1069 
z
M 847 1978 
L 2700 1978 
Q 2663 2397 2488 2606 
Q 2219 2931 1791 2931 
Q 1403 2931 1139 2672 
Q 875 2413 847 1978 
z
" transform="scale(0.015625)"/>
       <path id="ArialMT-20" transform="scale(0.015625)"/>
       <path id="ArialMT-54" d="M 1659 0 
L 1659 4041 
L 150 4041 
L 150 4581 
L 3781 4581 
L 3781 4041 
L 2266 4041 
L 2266 0 
L 1659 0 
z
" transform="scale(0.015625)"/>
       <path id="ArialMT-69" d="M 425 3934 
L 425 4581 
L 988 4581 
L 988 3934 
L 425 3934 
z
M 425 0 
L 425 3319 
L 988 3319 
L 988 0 
L 425 0 
z
" transform="scale(0.015625)"/>
       <path id="ArialMT-6d" d="M 422 0 
L 422 3319 
L 925 3319 
L 925 2853 
Q 1081 3097 1340 3245 
Q 1600 3394 1931 3394 
Q 2300 3394 2536 3241 
Q 2772 3088 2869 2813 
Q 3263 3394 3894 3394 
Q 4388 3394 4653 3120 
Q 4919 2847 4919 2278 
L 4919 0 
L 4359 0 
L 4359 2091 
Q 4359 2428 4304 2576 
Q 4250 2725 4106 2815 
Q 3963 2906 3769 2906 
Q 3419 2906 3187 2673 
Q 2956 2441 2956 1928 
L 2956 0 
L 2394 0 
L 2394 2156 
Q 2394 2531 2256 2718 
Q 2119 2906 1806 2906 
Q 1569 2906 1367 2781 
Q 1166 2656 1075 2415 
Q 984 2175 984 1722 
L 984 0 
L 422 0 
z
" transform="scale(0.015625)"/>
       <path id="ArialMT-6e" d="M 422 0 
L 422 3319 
L 928 3319 
L 928 2847 
Q 1294 3394 1984 3394 
Q 2284 3394 2536 3286 
Q 2788 3178 2913 3003 
Q 3038 2828 3088 2588 
Q 3119 2431 3119 2041 
L 3119 0 
L 2556 0 
L 2556 2019 
Q 2556 2363 2490 2533 
Q 2425 2703 2258 2804 
Q 2091 2906 1866 2906 
Q 1506 2906 1245 2678 
Q 984 2450 984 1813 
L 984 0 
L 422 0 
z
" transform="scale(0.015625)"/>
       <path id="ArialMT-67" d="M 319 -275 
L 866 -356 
Q 900 -609 1056 -725 
Q 1266 -881 1628 -881 
Q 2019 -881 2231 -725 
Q 2444 -569 2519 -288 
Q 2563 -116 2559 434 
Q 2191 0 1641 0 
Q 956 0 581 494 
Q 206 988 206 1678 
Q 206 2153 378 2554 
Q 550 2956 876 3175 
Q 1203 3394 1644 3394 
Q 2231 3394 2613 2919 
L 2613 3319 
L 3131 3319 
L 3131 450 
Q 3131 -325 2973 -648 
Q 2816 -972 2473 -1159 
Q 2131 -1347 1631 -1347 
Q 1038 -1347 672 -1080 
Q 306 -813 319 -275 
z
M 784 1719 
Q 784 1066 1043 766 
Q 1303 466 1694 466 
Q 2081 466 2343 764 
Q 2606 1063 2606 1700 
Q 2606 2309 2336 2618 
Q 2066 2928 1684 2928 
Q 1309 2928 1046 2623 
Q 784 2319 784 1719 
z
" transform="scale(0.015625)"/>
       <path id="ArialMT-4f" d="M 309 2231 
Q 309 3372 921 4017 
Q 1534 4663 2503 4663 
Q 3138 4663 3647 4359 
Q 4156 4056 4423 3514 
Q 4691 2972 4691 2284 
Q 4691 1588 4409 1038 
Q 4128 488 3612 205 
Q 3097 -78 2500 -78 
Q 1853 -78 1343 234 
Q 834 547 571 1087 
Q 309 1628 309 2231 
z
M 934 2222 
Q 934 1394 1379 917 
Q 1825 441 2497 441 
Q 3181 441 3623 922 
Q 4066 1403 4066 2288 
Q 4066 2847 3877 3264 
Q 3688 3681 3323 3911 
Q 2959 4141 2506 4141 
Q 1863 4141 1398 3698 
Q 934 3256 934 2222 
z
" transform="scale(0.015625)"/>
       <path id="ArialMT-66" d="M 556 0 
L 556 2881 
L 59 2881 
L 59 3319 
L 556 3319 
L 556 3672 
Q 556 4006 616 4169 
Q 697 4388 901 4523 
Q 1106 4659 1475 4659 
Q 1713 4659 2000 4603 
L 1916 4113 
Q 1741 4144 1584 4144 
Q 1328 4144 1222 4034 
Q 1116 3925 1116 3625 
L 1116 3319 
L 1763 3319 
L 1763 2881 
L 1116 2881 
L 1116 0 
L 556 0 
z
" transform="scale(0.015625)"/>
       <path id="ArialMT-73" d="M 197 991 
L 753 1078 
Q 800 744 1014 566 
Q 1228 388 1613 388 
Q 2000 388 2187 545 
Q 2375 703 2375 916 
Q 2375 1106 2209 1216 
Q 2094 1291 1634 1406 
Q 1016 1563 777 1677 
Q 538 1791 414 1992 
Q 291 2194 291 2438 
Q 291 2659 392 2848 
Q 494 3038 669 3163 
Q 800 3259 1026 3326 
Q 1253 3394 1513 3394 
Q 1903 3394 2198 3281 
Q 2494 3169 2634 2976 
Q 2775 2784 2828 2463 
L 2278 2388 
Q 2241 2644 2061 2787 
Q 1881 2931 1553 2931 
Q 1166 2931 1000 2803 
Q 834 2675 834 2503 
Q 834 2394 903 2306 
Q 972 2216 1119 2156 
Q 1203 2125 1616 2013 
Q 2213 1853 2448 1751 
Q 2684 1650 2818 1456 
Q 2953 1263 2953 975 
Q 2953 694 2789 445 
Q 2625 197 2315 61 
Q 2006 -75 1616 -75 
Q 969 -75 630 194 
Q 291 463 197 991 
z
" transform="scale(0.015625)"/>
       <path id="ArialMT-74" d="M 1650 503 
L 1731 6 
Q 1494 -44 1306 -44 
Q 1000 -44 831 53 
Q 663 150 594 308 
Q 525 466 525 972 
L 525 2881 
L 113 2881 
L 113 3319 
L 525 3319 
L 525 4141 
L 1084 4478 
L 1084 3319 
L 1650 3319 
L 1650 2881 
L 1084 2881 
L 1084 941 
Q 1084 700 1114 631 
Q 1144 563 1211 522 
Q 1278 481 1403 481 
Q 1497 481 1650 503 
z
" transform="scale(0.015625)"/>
       <path id="ArialMT-28" d="M 1497 -1347 
Q 1031 -759 709 28 
Q 388 816 388 1659 
Q 388 2403 628 3084 
Q 909 3875 1497 4659 
L 1900 4659 
Q 1522 4009 1400 3731 
Q 1209 3300 1100 2831 
Q 966 2247 966 1656 
Q 966 153 1900 -1347 
L 1497 -1347 
z
" transform="scale(0.015625)"/>
       <path id="ArialMT-25" d="M 372 3481 
Q 372 3972 619 4315 
Q 866 4659 1334 4659 
Q 1766 4659 2048 4351 
Q 2331 4044 2331 3447 
Q 2331 2866 2045 2552 
Q 1759 2238 1341 2238 
Q 925 2238 648 2547 
Q 372 2856 372 3481 
z
M 1350 4272 
Q 1141 4272 1002 4090 
Q 863 3909 863 3425 
Q 863 2984 1003 2804 
Q 1144 2625 1350 2625 
Q 1563 2625 1702 2806 
Q 1841 2988 1841 3469 
Q 1841 3913 1700 4092 
Q 1559 4272 1350 4272 
z
M 1353 -169 
L 3859 4659 
L 4316 4659 
L 1819 -169 
L 1353 -169 
z
M 3334 1075 
Q 3334 1569 3581 1911 
Q 3828 2253 4300 2253 
Q 4731 2253 5014 1945 
Q 5297 1638 5297 1041 
Q 5297 459 5011 145 
Q 4725 -169 4303 -169 
Q 3888 -169 3611 142 
Q 3334 453 3334 1075 
z
M 4316 1866 
Q 4103 1866 3964 1684 
Q 3825 1503 3825 1019 
Q 3825 581 3965 400 
Q 4106 219 4313 219 
Q 4528 219 4667 400 
Q 4806 581 4806 1063 
Q 4806 1506 4665 1686 
Q 4525 1866 4316 1866 
z
" transform="scale(0.015625)"/>
       <path id="ArialMT-29" d="M 791 -1347 
L 388 -1347 
Q 1322 153 1322 1656 
Q 1322 2244 1188 2822 
Q 1081 3291 891 3722 
Q 769 4003 388 4659 
L 791 4659 
Q 1378 3875 1659 3084 
Q 1900 2403 1900 1659 
Q 1900 816 1576 28 
Q 1253 -759 791 -1347 
z
" transform="scale(0.015625)"/>
      </defs>
      <use xlink:href="#ArialMT-50"/>
      <use xlink:href="#ArialMT-72" x="66.699219"/>
      <use xlink:href="#ArialMT-6f" x="100"/>
      <use xlink:href="#ArialMT-62" x="155.615234"/>
      <use xlink:href="#ArialMT-65" x="211.230469"/>
      <use xlink:href="#ArialMT-20" x="266.845703"/>
      <use xlink:href="#ArialMT-54" x="292.878906"/>
      <use xlink:href="#ArialMT-69" x="350.212891"/>
      <use xlink:href="#ArialMT-6d" x="372.429688"/>
      <use xlink:href="#ArialMT-69" x="455.730469"/>
      <use xlink:href="#ArialMT-6e" x="477.947266"/>
      <use xlink:href="#ArialMT-67" x="533.5625"/>
      <use xlink:href="#ArialMT-20" x="589.177734"/>
      <use xlink:href="#ArialMT-4f" x="616.960938"/>
      <use xlink:href="#ArialMT-66" x="694.744141"/>
      <use xlink:href="#ArialMT-66" x="720.777344"/>
      <use xlink:href="#ArialMT-73" x="748.560547"/>
      <use xlink:href="#ArialMT-65" x="798.560547"/>
      <use xlink:href="#ArialMT-74" x="854.175781"/>
      <use xlink:href="#ArialMT-20" x="881.958984"/>
      <use xlink:href="#ArialMT-28" x="909.742188"/>
      <use xlink:href="#ArialMT-25" x="943.042969"/>
      <use xlink:href="#ArialMT-29" x="1031.958984"/>
     </g>
    </g>
   </g>
   <g id="matplotlib.axis_2">
    <g id="ytick_1">
     <g id="line2d_4">
      <path d="M 57.585 238.961875 
L 313.02 238.961875 
" clip-path="url(#p6360d76eb7)" style="fill: none; stroke: #ffffff; stroke-width: 0.8; stroke-linecap: round"/>
     </g>
     <g id="text_5">
      <!-- −1 -->
      <g style="fill: #262626" transform="translate(36.903125 243.256563)scale(0.12 -0.12)">
       <defs>
        <path id="ArialMT-2212" d="M 3381 1997 
L 356 1997 
L 356 2522 
L 3381 2522 
L 3381 1997 
z
" transform="scale(0.015625)"/>
       </defs>
       <use xlink:href="#ArialMT-2212"/>
       <use xlink:href="#ArialMT-31" x="58.398438"/>
      </g>
     </g>
    </g>
    <g id="ytick_2">
     <g id="line2d_5">
      <path d="M 57.585 194.5615 
L 313.02 194.5615 
" clip-path="url(#p6360d76eb7)" style="fill: none; stroke: #ffffff; stroke-width: 0.8; stroke-linecap: round"/>
     </g>
     <g id="text_6">
      <!-- 0 -->
      <g style="fill: #262626" transform="translate(43.911875 198.856188)scale(0.12 -0.12)">
       <use xlink:href="#ArialMT-30"/>
      </g>
     </g>
    </g>
    <g id="ytick_3">
     <g id="line2d_6">
      <path d="M 57.585 150.161125 
L 313.02 150.161125 
" clip-path="url(#p6360d76eb7)" style="fill: none; stroke: #ffffff; stroke-width: 0.8; stroke-linecap: round"/>
     </g>
     <g id="text_7">
      <!-- 1 -->
      <g style="fill: #262626" transform="translate(43.911875 154.455813)scale(0.12 -0.12)">
       <use xlink:href="#ArialMT-31"/>
      </g>
     </g>
    </g>
    <g id="ytick_4">
     <g id="line2d_7">
      <path d="M 57.585 105.76075 
L 313.02 105.76075 
" clip-path="url(#p6360d76eb7)" style="fill: none; stroke: #ffffff; stroke-width: 0.8; stroke-linecap: round"/>
     </g>
     <g id="text_8">
      <!-- 2 -->
      <g style="fill: #262626" transform="translate(43.911875 110.055438)scale(0.12 -0.12)">
       <defs>
        <path id="ArialMT-32" d="M 3222 541 
L 3222 0 
L 194 0 
Q 188 203 259 391 
Q 375 700 629 1000 
Q 884 1300 1366 1694 
Q 2113 2306 2375 2664 
Q 2638 3022 2638 3341 
Q 2638 3675 2398 3904 
Q 2159 4134 1775 4134 
Q 1369 4134 1125 3890 
Q 881 3647 878 3216 
L 300 3275 
Q 359 3922 746 4261 
Q 1134 4600 1788 4600 
Q 2447 4600 2831 4234 
Q 3216 3869 3216 3328 
Q 3216 3053 3103 2787 
Q 2991 2522 2730 2228 
Q 2469 1934 1863 1422 
Q 1356 997 1212 845 
Q 1069 694 975 541 
L 3222 541 
z
" transform="scale(0.015625)"/>
       </defs>
       <use xlink:href="#ArialMT-32"/>
      </g>
     </g>
    </g>
    <g id="ytick_5">
     <g id="line2d_8">
      <path d="M 57.585 61.360375 
L 313.02 61.360375 
" clip-path="url(#p6360d76eb7)" style="fill: none; stroke: #ffffff; stroke-width: 0.8; stroke-linecap: round"/>
     </g>
     <g id="text_9">
      <!-- 3 -->
      <g style="fill: #262626" transform="translate(43.911875 65.655063)scale(0.12 -0.12)">
       <defs>
        <path id="ArialMT-33" d="M 269 1209 
L 831 1284 
Q 928 806 1161 595 
Q 1394 384 1728 384 
Q 2125 384 2398 659 
Q 2672 934 2672 1341 
Q 2672 1728 2419 1979 
Q 2166 2231 1775 2231 
Q 1616 2231 1378 2169 
L 1441 2663 
Q 1497 2656 1531 2656 
Q 1891 2656 2178 2843 
Q 2466 3031 2466 3422 
Q 2466 3731 2256 3934 
Q 2047 4138 1716 4138 
Q 1388 4138 1169 3931 
Q 950 3725 888 3313 
L 325 3413 
Q 428 3978 793 4289 
Q 1159 4600 1703 4600 
Q 2078 4600 2393 4439 
Q 2709 4278 2876 4000 
Q 3044 3722 3044 3409 
Q 3044 3113 2884 2869 
Q 2725 2625 2413 2481 
Q 2819 2388 3044 2092 
Q 3269 1797 3269 1353 
Q 3269 753 2831 336 
Q 2394 -81 1725 -81 
Q 1122 -81 723 278 
Q 325 638 269 1209 
z
" transform="scale(0.015625)"/>
       </defs>
       <use xlink:href="#ArialMT-33"/>
      </g>
     </g>
    </g>
    <g id="ytick_6">
     <g id="line2d_9">
      <path d="M 57.585 16.96 
L 313.02 16.96 
" clip-path="url(#p6360d76eb7)" style="fill: none; stroke: #ffffff; stroke-width: 0.8; stroke-linecap: round"/>
     </g>
     <g id="text_10">
      <!-- 4 -->
      <g style="fill: #262626" transform="translate(43.911875 21.254688)scale(0.12 -0.12)">
       <defs>
        <path id="ArialMT-34" d="M 2069 0 
L 2069 1097 
L 81 1097 
L 81 1613 
L 2172 4581 
L 2631 4581 
L 2631 1613 
L 3250 1613 
L 3250 1097 
L 2631 1097 
L 2631 0 
L 2069 0 
z
M 2069 1613 
L 2069 3678 
L 634 1613 
L 2069 1613 
z
" transform="scale(0.015625)"/>
       </defs>
       <use xlink:href="#ArialMT-34"/>
      </g>
     </g>
    </g>
    <g id="text_11">
     <!-- Sensitivity ($d\prime$) -->
     <g style="fill: #262626" transform="translate(29.383125 178.840937)rotate(-90)scale(0.16 -0.16)">
      <defs>
       <path id="ArialMT-53" d="M 288 1472 
L 859 1522 
Q 900 1178 1048 958 
Q 1197 738 1509 602 
Q 1822 466 2213 466 
Q 2559 466 2825 569 
Q 3091 672 3220 851 
Q 3350 1031 3350 1244 
Q 3350 1459 3225 1620 
Q 3100 1781 2813 1891 
Q 2628 1963 1997 2114 
Q 1366 2266 1113 2400 
Q 784 2572 623 2826 
Q 463 3081 463 3397 
Q 463 3744 659 4045 
Q 856 4347 1234 4503 
Q 1613 4659 2075 4659 
Q 2584 4659 2973 4495 
Q 3363 4331 3572 4012 
Q 3781 3694 3797 3291 
L 3216 3247 
Q 3169 3681 2898 3903 
Q 2628 4125 2100 4125 
Q 1550 4125 1298 3923 
Q 1047 3722 1047 3438 
Q 1047 3191 1225 3031 
Q 1400 2872 2139 2705 
Q 2878 2538 3153 2413 
Q 3553 2228 3743 1945 
Q 3934 1663 3934 1294 
Q 3934 928 3725 604 
Q 3516 281 3123 101 
Q 2731 -78 2241 -78 
Q 1619 -78 1198 103 
Q 778 284 539 648 
Q 300 1013 288 1472 
z
" transform="scale(0.015625)"/>
       <path id="ArialMT-76" d="M 1344 0 
L 81 3319 
L 675 3319 
L 1388 1331 
Q 1503 1009 1600 663 
Q 1675 925 1809 1294 
L 2547 3319 
L 3125 3319 
L 1869 0 
L 1344 0 
z
" transform="scale(0.015625)"/>
       <path id="ArialMT-79" d="M 397 -1278 
L 334 -750 
Q 519 -800 656 -800 
Q 844 -800 956 -737 
Q 1069 -675 1141 -563 
Q 1194 -478 1313 -144 
Q 1328 -97 1363 -6 
L 103 3319 
L 709 3319 
L 1400 1397 
Q 1534 1031 1641 628 
Q 1738 1016 1872 1384 
L 2581 3319 
L 3144 3319 
L 1881 -56 
Q 1678 -603 1566 -809 
Q 1416 -1088 1222 -1217 
Q 1028 -1347 759 -1347 
Q 597 -1347 397 -1278 
z
" transform="scale(0.015625)"/>
       <path id="DejaVuSans-Oblique-64" d="M 2675 525 
Q 2444 222 2128 65 
Q 1813 -91 1428 -91 
Q 903 -91 598 267 
Q 294 625 294 1247 
Q 294 1766 478 2236 
Q 663 2706 1013 3078 
Q 1244 3325 1534 3454 
Q 1825 3584 2144 3584 
Q 2481 3584 2739 3421 
Q 2997 3259 3138 2956 
L 3513 4863 
L 4091 4863 
L 3144 0 
L 2566 0 
L 2675 525 
z
M 891 1350 
Q 891 897 1095 644 
Q 1300 391 1663 391 
Q 1931 391 2161 520 
Q 2391 650 2566 903 
Q 2750 1166 2856 1509 
Q 2963 1853 2963 2188 
Q 2963 2622 2758 2865 
Q 2553 3109 2194 3109 
Q 1922 3109 1687 2981 
Q 1453 2853 1288 2613 
Q 1106 2353 998 2009 
Q 891 1666 891 1350 
z
" transform="scale(0.015625)"/>
       <path id="Cmsy10-30" d="M 225 347 
Q 184 359 184 409 
L 966 3316 
Q 1003 3434 1093 3506 
Q 1184 3578 1300 3578 
Q 1450 3578 1564 3479 
Q 1678 3381 1678 3231 
Q 1678 3166 1644 3084 
L 488 319 
Q 466 275 428 275 
Q 394 275 320 306 
Q 247 338 225 347 
z
" transform="scale(0.015625)"/>
      </defs>
      <use xlink:href="#ArialMT-53" transform="translate(0 0.015625)"/>
      <use xlink:href="#ArialMT-65" transform="translate(66.699219 0.015625)"/>
      <use xlink:href="#ArialMT-6e" transform="translate(122.314453 0.015625)"/>
      <use xlink:href="#ArialMT-73" transform="translate(177.929688 0.015625)"/>
      <use xlink:href="#ArialMT-69" transform="translate(227.929688 0.015625)"/>
      <use xlink:href="#ArialMT-74" transform="translate(250.146484 0.015625)"/>
      <use xlink:href="#ArialMT-69" transform="translate(277.929688 0.015625)"/>
      <use xlink:href="#ArialMT-76" transform="translate(300.146484 0.015625)"/>
      <use xlink:href="#ArialMT-69" transform="translate(350.146484 0.015625)"/>
      <use xlink:href="#ArialMT-74" transform="translate(372.363281 0.015625)"/>
      <use xlink:href="#ArialMT-79" transform="translate(400.146484 0.015625)"/>
      <use xlink:href="#ArialMT-20" transform="translate(450.146484 0.015625)"/>
      <use xlink:href="#ArialMT-28" transform="translate(477.929688 0.015625)"/>
      <use xlink:href="#DejaVuSans-Oblique-64" transform="translate(511.230469 0.015625)"/>
      <use xlink:href="#Cmsy10-30" transform="translate(574.707031 0.015625)"/>
      <use xlink:href="#ArialMT-29" transform="translate(602.197266 0.015625)"/>
     </g>
    </g>
   </g>
   <g id="line2d_10">
    <path d="M 77.452167 101.251277 
L 183.883417 95.28801 
L 290.314667 95.419012 
" clip-path="url(#p6360d76eb7)" style="fill: none; stroke: #06113c; stroke-width: 2; stroke-linecap: round"/>
    <defs>
     <path id="m17b6525266" d="M 0 3.5 
C 0.928211 3.5 1.81853 3.131218 2.474874 2.474874 
C 3.131218 1.81853 3.5 0.928211 3.5 0 
C 3.5 -0.928211 3.131218 -1.81853 2.474874 -2.474874 
C 1.81853 -3.131218 0.928211 -3.5 0 -3.5 
C -0.928211 -3.5 -1.81853 -3.131218 -2.474874 -2.474874 
C -3.131218 -1.81853 -3.5 -0.928211 -3.5 0 
C -3.5 0.928211 -3.131218 1.81853 -2.474874 2.474874 
C -1.81853 3.131218 -0.928211 3.5 0 3.5 
z
" style="stroke: #ffffff; stroke-width: 0.75"/>
    </defs>
    <g clip-path="url(#p6360d76eb7)">
     <use xlink:href="#m17b6525266" x="77.452167" y="101.251277" style="fill: #06113c; stroke: #ffffff; stroke-width: 0.75"/>
     <use xlink:href="#m17b6525266" x="183.883417" y="95.28801" style="fill: #06113c; stroke: #ffffff; stroke-width: 0.75"/>
     <use xlink:href="#m17b6525266" x="290.314667" y="95.419012" style="fill: #06113c; stroke: #ffffff; stroke-width: 0.75"/>
    </g>
   </g>
   <g id="LineCollection_1">
    <path d="M 77.452167 114.888864 
L 77.452167 87.33356 
" clip-path="url(#p6360d76eb7)" style="fill: none; stroke: #06113c; stroke-width: 1.5; stroke-linecap: round"/>
    <path d="M 183.883417 109.390774 
L 183.883417 80.676017 
" clip-path="url(#p6360d76eb7)" style="fill: none; stroke: #06113c; stroke-width: 1.5; stroke-linecap: round"/>
    <path d="M 290.314667 107.323507 
L 290.314667 82.485546 
" clip-path="url(#p6360d76eb7)" style="fill: none; stroke: #06113c; stroke-width: 1.5; stroke-linecap: round"/>
   </g>
   <g id="line2d_11">
    <defs>
     <path id="m5f54bcc90f" d="M 3 0 
L -3 -0 
" style="stroke: #06113c"/>
    </defs>
    <g clip-path="url(#p6360d76eb7)">
     <use xlink:href="#m5f54bcc90f" x="77.452167" y="114.888864" style="fill: #06113c; stroke: #06113c"/>
     <use xlink:href="#m5f54bcc90f" x="183.883417" y="109.390774" style="fill: #06113c; stroke: #06113c"/>
     <use xlink:href="#m5f54bcc90f" x="290.314667" y="107.323507" style="fill: #06113c; stroke: #06113c"/>
    </g>
   </g>
   <g id="line2d_12">
    <g clip-path="url(#p6360d76eb7)">
     <use xlink:href="#m5f54bcc90f" x="77.452167" y="87.33356" style="fill: #06113c; stroke: #06113c"/>
     <use xlink:href="#m5f54bcc90f" x="183.883417" y="80.676017" style="fill: #06113c; stroke: #06113c"/>
     <use xlink:href="#m5f54bcc90f" x="290.314667" y="82.485546" style="fill: #06113c; stroke: #06113c"/>
    </g>
   </g>
   <g id="line2d_13">
    <path d="M 80.290333 143.014131 
L 186.721583 142.804326 
L 293.152833 134.408034 
" clip-path="url(#p6360d76eb7)" style="fill: none; stroke: #ff8c32; stroke-width: 2; stroke-linecap: round"/>
    <defs>
     <path id="m9976c7f19f" d="M 0 3.5 
C 0.928211 3.5 1.81853 3.131218 2.474874 2.474874 
C 3.131218 1.81853 3.5 0.928211 3.5 0 
C 3.5 -0.928211 3.131218 -1.81853 2.474874 -2.474874 
C 1.81853 -3.131218 0.928211 -3.5 0 -3.5 
C -0.928211 -3.5 -1.81853 -3.131218 -2.474874 -2.474874 
C -3.131218 -1.81853 -3.5 -0.928211 -3.5 0 
C -3.5 0.928211 -3.131218 1.81853 -2.474874 2.474874 
C -1.81853 3.131218 -0.928211 3.5 0 3.5 
z
" style="stroke: #ffffff; stroke-width: 0.75"/>
    </defs>
    <g clip-path="url(#p6360d76eb7)">
     <use xlink:href="#m9976c7f19f" x="80.290333" y="143.014131" style="fill: #ff8c32; stroke: #ffffff; stroke-width: 0.75"/>
     <use xlink:href="#m9976c7f19f" x="186.721583" y="142.804326" style="fill: #ff8c32; stroke: #ffffff; stroke-width: 0.75"/>
     <use xlink:href="#m9976c7f19f" x="293.152833" y="134.408034" style="fill: #ff8c32; stroke: #ffffff; stroke-width: 0.75"/>
    </g>
   </g>
   <g id="LineCollection_2">
    <path d="M 80.290333 154.512912 
L 80.290333 130.016827 
" clip-path="url(#p6360d76eb7)" style="fill: none; stroke: #ff8c32; stroke-width: 1.5; stroke-linecap: round"/>
    <path d="M 186.721583 155.747462 
L 186.721583 128.583978 
" clip-path="url(#p6360d76eb7)" style="fill: none; stroke: #ff8c32; stroke-width: 1.5; stroke-linecap: round"/>
    <path d="M 293.152833 149.056201 
L 293.152833 120.661867 
" clip-path="url(#p6360d76eb7)" style="fill: none; stroke: #ff8c32; stroke-width: 1.5; stroke-linecap: round"/>
   </g>
   <g id="line2d_14">
    <defs>
     <path id="m2f4ecec8c7" d="M 3 0 
L -3 -0 
" style="stroke: #ff8c32"/>
    </defs>
    <g clip-path="url(#p6360d76eb7)">
     <use xlink:href="#m2f4ecec8c7" x="80.290333" y="154.512912" style="fill: #ff8c32; stroke: #ff8c32"/>
     <use xlink:href="#m2f4ecec8c7" x="186.721583" y="155.747462" style="fill: #ff8c32; stroke: #ff8c32"/>
     <use xlink:href="#m2f4ecec8c7" x="293.152833" y="149.056201" style="fill: #ff8c32; stroke: #ff8c32"/>
    </g>
   </g>
   <g id="line2d_15">
    <g clip-path="url(#p6360d76eb7)">
     <use xlink:href="#m2f4ecec8c7" x="80.290333" y="130.016827" style="fill: #ff8c32; stroke: #ff8c32"/>
     <use xlink:href="#m2f4ecec8c7" x="186.721583" y="128.583978" style="fill: #ff8c32; stroke: #ff8c32"/>
     <use xlink:href="#m2f4ecec8c7" x="293.152833" y="120.661867" style="fill: #ff8c32; stroke: #ff8c32"/>
    </g>
   </g>
   <g id="line2d_16">
    <path d="M 57.585 194.5615 
L 313.02 194.5615 
" clip-path="url(#p6360d76eb7)" style="fill: none; stroke-dasharray: 5.55,2.4; stroke-dashoffset: 0; stroke: #000000; stroke-opacity: 0.5; stroke-width: 1.5"/>
   </g>
   <g id="line2d_17"/>
   <g id="line2d_18"/>
   <g id="patch_3">
    <path d="M 57.585 238.961875 
L 57.585 16.96 
" style="fill: none; stroke: #ffffff; stroke-width: 0.8; stroke-linejoin: miter; stroke-linecap: square"/>
   </g>
   <g id="patch_4">
    <path d="M 57.585 238.961875 
L 313.02 238.961875 
" style="fill: none; stroke: #ffffff; stroke-width: 0.8; stroke-linejoin: miter; stroke-linecap: square"/>
   </g>
   <g id="legend_1">
    <g id="patch_5">
     <path d="M 239.5425 60.649375 
L 304.62 60.649375 
Q 307.02 60.649375 307.02 58.249375 
L 307.02 25.36 
Q 307.02 22.96 304.62 22.96 
L 239.5425 22.96 
Q 237.1425 22.96 237.1425 25.36 
L 237.1425 58.249375 
Q 237.1425 60.649375 239.5425 60.649375 
z
" style="fill: #eaeaf2; opacity: 0.8; stroke: #cccccc; stroke-linejoin: miter"/>
    </g>
    <g id="line2d_19">
     <path d="M 241.9425 32.149375 
L 253.9425 32.149375 
L 265.9425 32.149375 
" style="fill: none; stroke: #06113c; stroke-width: 2; stroke-linecap: round"/>
     <g>
      <use xlink:href="#m17b6525266" x="253.9425" y="32.149375" style="fill: #06113c; stroke: #ffffff; stroke-width: 0.75"/>
     </g>
    </g>
    <g id="text_12">
     <!-- Easy -->
     <g style="fill: #262626" transform="translate(275.5425 36.349375)scale(0.12 -0.12)">
      <defs>
       <path id="ArialMT-45" d="M 506 0 
L 506 4581 
L 3819 4581 
L 3819 4041 
L 1113 4041 
L 1113 2638 
L 3647 2638 
L 3647 2100 
L 1113 2100 
L 1113 541 
L 3925 541 
L 3925 0 
L 506 0 
z
" transform="scale(0.015625)"/>
       <path id="ArialMT-61" d="M 2588 409 
Q 2275 144 1986 34 
Q 1697 -75 1366 -75 
Q 819 -75 525 192 
Q 231 459 231 875 
Q 231 1119 342 1320 
Q 453 1522 633 1644 
Q 813 1766 1038 1828 
Q 1203 1872 1538 1913 
Q 2219 1994 2541 2106 
Q 2544 2222 2544 2253 
Q 2544 2597 2384 2738 
Q 2169 2928 1744 2928 
Q 1347 2928 1158 2789 
Q 969 2650 878 2297 
L 328 2372 
Q 403 2725 575 2942 
Q 747 3159 1072 3276 
Q 1397 3394 1825 3394 
Q 2250 3394 2515 3294 
Q 2781 3194 2906 3042 
Q 3031 2891 3081 2659 
Q 3109 2516 3109 2141 
L 3109 1391 
Q 3109 606 3145 398 
Q 3181 191 3288 0 
L 2700 0 
Q 2613 175 2588 409 
z
M 2541 1666 
Q 2234 1541 1622 1453 
Q 1275 1403 1131 1340 
Q 988 1278 909 1158 
Q 831 1038 831 891 
Q 831 666 1001 516 
Q 1172 366 1500 366 
Q 1825 366 2078 508 
Q 2331 650 2450 897 
Q 2541 1088 2541 1459 
L 2541 1666 
z
" transform="scale(0.015625)"/>
      </defs>
      <use xlink:href="#ArialMT-45"/>
      <use xlink:href="#ArialMT-61" x="66.699219"/>
      <use xlink:href="#ArialMT-73" x="122.314453"/>
      <use xlink:href="#ArialMT-79" x="172.314453"/>
     </g>
    </g>
    <g id="line2d_20">
     <path d="M 241.9425 49.264375 
L 253.9425 49.264375 
L 265.9425 49.264375 
" style="fill: none; stroke: #ff8c32; stroke-width: 2; stroke-linecap: round"/>
     <g>
      <use xlink:href="#m9976c7f19f" x="253.9425" y="49.264375" style="fill: #ff8c32; stroke: #ffffff; stroke-width: 0.75"/>
     </g>
    </g>
    <g id="text_13">
     <!-- Hard -->
     <g style="fill: #262626" transform="translate(275.5425 53.464375)scale(0.12 -0.12)">
      <defs>
       <path id="ArialMT-48" d="M 513 0 
L 513 4581 
L 1119 4581 
L 1119 2700 
L 3500 2700 
L 3500 4581 
L 4106 4581 
L 4106 0 
L 3500 0 
L 3500 2159 
L 1119 2159 
L 1119 0 
L 513 0 
z
" transform="scale(0.015625)"/>
       <path id="ArialMT-64" d="M 2575 0 
L 2575 419 
Q 2259 -75 1647 -75 
Q 1250 -75 917 144 
Q 584 363 401 755 
Q 219 1147 219 1656 
Q 219 2153 384 2558 
Q 550 2963 881 3178 
Q 1213 3394 1622 3394 
Q 1922 3394 2156 3267 
Q 2391 3141 2538 2938 
L 2538 4581 
L 3097 4581 
L 3097 0 
L 2575 0 
z
M 797 1656 
Q 797 1019 1065 703 
Q 1334 388 1700 388 
Q 2069 388 2326 689 
Q 2584 991 2584 1609 
Q 2584 2291 2321 2609 
Q 2059 2928 1675 2928 
Q 1300 2928 1048 2622 
Q 797 2316 797 1656 
z
" transform="scale(0.015625)"/>
      </defs>
      <use xlink:href="#ArialMT-48"/>
      <use xlink:href="#ArialMT-61" x="72.216797"/>
      <use xlink:href="#ArialMT-72" x="127.832031"/>
      <use xlink:href="#ArialMT-64" x="161.132812"/>
     </g>
    </g>
   </g>
  </g>
  <g id="axes_2">
   <g id="patch_6">
    <path d="M 379.605 238.961875 
L 635.04 238.961875 
L 635.04 16.96 
L 379.605 16.96 
z
" style="fill: #eaeaf2"/>
   </g>
   <g id="matplotlib.axis_3">
    <g id="xtick_4">
     <g id="line2d_21">
      <path d="M 400.89125 238.961875 
L 400.89125 16.96 
" clip-path="url(#pe9bd87541c)" style="fill: none; stroke: #ffffff; stroke-width: 0.8; stroke-linecap: round"/>
     </g>
     <g id="text_14">
      <!-- -15 -->
      <g style="fill: #262626" transform="translate(392.220313 254.55125)scale(0.12 -0.12)">
       <use xlink:href="#ArialMT-2d"/>
       <use xlink:href="#ArialMT-31" x="33.300781"/>
       <use xlink:href="#ArialMT-35" x="88.916016"/>
      </g>
     </g>
    </g>
    <g id="xtick_5">
     <g id="line2d_22">
      <path d="M 507.3225 238.961875 
L 507.3225 16.96 
" clip-path="url(#pe9bd87541c)" style="fill: none; stroke: #ffffff; stroke-width: 0.8; stroke-linecap: round"/>
     </g>
     <g id="text_15">
      <!-- 0 -->
      <g style="fill: #262626" transform="translate(503.985937 254.55125)scale(0.12 -0.12)">
       <use xlink:href="#ArialMT-30"/>
      </g>
     </g>
    </g>
    <g id="xtick_6">
     <g id="line2d_23">
      <path d="M 613.75375 238.961875 
L 613.75375 16.96 
" clip-path="url(#pe9bd87541c)" style="fill: none; stroke: #ffffff; stroke-width: 0.8; stroke-linecap: round"/>
     </g>
     <g id="text_16">
      <!-- +15 -->
      <g style="fill: #262626" transform="translate(603.57625 254.55125)scale(0.12 -0.12)">
       <use xlink:href="#ArialMT-2b"/>
       <use xlink:href="#ArialMT-31" x="58.398438"/>
       <use xlink:href="#ArialMT-35" x="114.013672"/>
      </g>
     </g>
    </g>
    <g id="text_17">
     <!-- Probe Timing Offset (%) -->
     <g style="fill: #262626" transform="translate(422.10625 272.59375)scale(0.16 -0.16)">
      <use xlink:href="#ArialMT-50"/>
      <use xlink:href="#ArialMT-72" x="66.699219"/>
      <use xlink:href="#ArialMT-6f" x="100"/>
      <use xlink:href="#ArialMT-62" x="155.615234"/>
      <use xlink:href="#ArialMT-65" x="211.230469"/>
      <use xlink:href="#ArialMT-20" x="266.845703"/>
      <use xlink:href="#ArialMT-54" x="292.878906"/>
      <use xlink:href="#ArialMT-69" x="350.212891"/>
      <use xlink:href="#ArialMT-6d" x="372.429688"/>
      <use xlink:href="#ArialMT-69" x="455.730469"/>
      <use xlink:href="#ArialMT-6e" x="477.947266"/>
      <use xlink:href="#ArialMT-67" x="533.5625"/>
      <use xlink:href="#ArialMT-20" x="589.177734"/>
      <use xlink:href="#ArialMT-4f" x="616.960938"/>
      <use xlink:href="#ArialMT-66" x="694.744141"/>
      <use xlink:href="#ArialMT-66" x="720.777344"/>
      <use xlink:href="#ArialMT-73" x="748.560547"/>
      <use xlink:href="#ArialMT-65" x="798.560547"/>
      <use xlink:href="#ArialMT-74" x="854.175781"/>
      <use xlink:href="#ArialMT-20" x="881.958984"/>
      <use xlink:href="#ArialMT-28" x="909.742188"/>
      <use xlink:href="#ArialMT-25" x="943.042969"/>
      <use xlink:href="#ArialMT-29" x="1031.958984"/>
     </g>
    </g>
   </g>
   <g id="matplotlib.axis_4">
    <g id="ytick_7">
     <g id="line2d_24">
      <path d="M 379.605 238.961875 
L 635.04 238.961875 
" clip-path="url(#pe9bd87541c)" style="fill: none; stroke: #ffffff; stroke-width: 0.8; stroke-linecap: round"/>
     </g>
     <g id="text_18">
      <!-- −0.6 -->
      <g style="fill: #262626" transform="translate(348.91625 243.256563)scale(0.12 -0.12)">
       <defs>
        <path id="ArialMT-2e" d="M 581 0 
L 581 641 
L 1222 641 
L 1222 0 
L 581 0 
z
" transform="scale(0.015625)"/>
        <path id="ArialMT-36" d="M 3184 3459 
L 2625 3416 
Q 2550 3747 2413 3897 
Q 2184 4138 1850 4138 
Q 1581 4138 1378 3988 
Q 1113 3794 959 3422 
Q 806 3050 800 2363 
Q 1003 2672 1297 2822 
Q 1591 2972 1913 2972 
Q 2475 2972 2870 2558 
Q 3266 2144 3266 1488 
Q 3266 1056 3080 686 
Q 2894 316 2569 119 
Q 2244 -78 1831 -78 
Q 1128 -78 684 439 
Q 241 956 241 2144 
Q 241 3472 731 4075 
Q 1159 4600 1884 4600 
Q 2425 4600 2770 4297 
Q 3116 3994 3184 3459 
z
M 888 1484 
Q 888 1194 1011 928 
Q 1134 663 1356 523 
Q 1578 384 1822 384 
Q 2178 384 2434 671 
Q 2691 959 2691 1453 
Q 2691 1928 2437 2201 
Q 2184 2475 1800 2475 
Q 1419 2475 1153 2201 
Q 888 1928 888 1484 
z
" transform="scale(0.015625)"/>
       </defs>
       <use xlink:href="#ArialMT-2212"/>
       <use xlink:href="#ArialMT-30" x="58.398438"/>
       <use xlink:href="#ArialMT-2e" x="114.013672"/>
       <use xlink:href="#ArialMT-36" x="141.796875"/>
      </g>
     </g>
    </g>
    <g id="ytick_8">
     <g id="line2d_25">
      <path d="M 379.605 201.961563 
L 635.04 201.961563 
" clip-path="url(#pe9bd87541c)" style="fill: none; stroke: #ffffff; stroke-width: 0.8; stroke-linecap: round"/>
     </g>
     <g id="text_19">
      <!-- −0.4 -->
      <g style="fill: #262626" transform="translate(348.91625 206.25625)scale(0.12 -0.12)">
       <use xlink:href="#ArialMT-2212"/>
       <use xlink:href="#ArialMT-30" x="58.398438"/>
       <use xlink:href="#ArialMT-2e" x="114.013672"/>
       <use xlink:href="#ArialMT-34" x="141.796875"/>
      </g>
     </g>
    </g>
    <g id="ytick_9">
     <g id="line2d_26">
      <path d="M 379.605 164.96125 
L 635.04 164.96125 
" clip-path="url(#pe9bd87541c)" style="fill: none; stroke: #ffffff; stroke-width: 0.8; stroke-linecap: round"/>
     </g>
     <g id="text_20">
      <!-- −0.2 -->
      <g style="fill: #262626" transform="translate(348.91625 169.255938)scale(0.12 -0.12)">
       <use xlink:href="#ArialMT-2212"/>
       <use xlink:href="#ArialMT-30" x="58.398438"/>
       <use xlink:href="#ArialMT-2e" x="114.013672"/>
       <use xlink:href="#ArialMT-32" x="141.796875"/>
      </g>
     </g>
    </g>
    <g id="ytick_10">
     <g id="line2d_27">
      <path d="M 379.605 127.960938 
L 635.04 127.960938 
" clip-path="url(#pe9bd87541c)" style="fill: none; stroke: #ffffff; stroke-width: 0.8; stroke-linecap: round"/>
     </g>
     <g id="text_21">
      <!-- 0.0 -->
      <g style="fill: #262626" transform="translate(355.925 132.255625)scale(0.12 -0.12)">
       <use xlink:href="#ArialMT-30"/>
       <use xlink:href="#ArialMT-2e" x="55.615234"/>
       <use xlink:href="#ArialMT-30" x="83.398438"/>
      </g>
     </g>
    </g>
    <g id="ytick_11">
     <g id="line2d_28">
      <path d="M 379.605 90.960625 
L 635.04 90.960625 
" clip-path="url(#pe9bd87541c)" style="fill: none; stroke: #ffffff; stroke-width: 0.8; stroke-linecap: round"/>
     </g>
     <g id="text_22">
      <!-- 0.2 -->
      <g style="fill: #262626" transform="translate(355.925 95.255313)scale(0.12 -0.12)">
       <use xlink:href="#ArialMT-30"/>
       <use xlink:href="#ArialMT-2e" x="55.615234"/>
       <use xlink:href="#ArialMT-32" x="83.398438"/>
      </g>
     </g>
    </g>
    <g id="ytick_12">
     <g id="line2d_29">
      <path d="M 379.605 53.960313 
L 635.04 53.960313 
" clip-path="url(#pe9bd87541c)" style="fill: none; stroke: #ffffff; stroke-width: 0.8; stroke-linecap: round"/>
     </g>
     <g id="text_23">
      <!-- 0.4 -->
      <g style="fill: #262626" transform="translate(355.925 58.255)scale(0.12 -0.12)">
       <use xlink:href="#ArialMT-30"/>
       <use xlink:href="#ArialMT-2e" x="55.615234"/>
       <use xlink:href="#ArialMT-34" x="83.398438"/>
      </g>
     </g>
    </g>
    <g id="ytick_13">
     <g id="line2d_30">
      <path d="M 379.605 16.96 
L 635.04 16.96 
" clip-path="url(#pe9bd87541c)" style="fill: none; stroke: #ffffff; stroke-width: 0.8; stroke-linecap: round"/>
     </g>
     <g id="text_24">
      <!-- 0.6 -->
      <g style="fill: #262626" transform="translate(355.925 21.254687)scale(0.12 -0.12)">
       <use xlink:href="#ArialMT-30"/>
       <use xlink:href="#ArialMT-2e" x="55.615234"/>
       <use xlink:href="#ArialMT-36" x="83.398438"/>
      </g>
     </g>
    </g>
    <g id="text_25">
     <!-- Bias ($C$) Towards "Low" -->
     <g style="fill: #262626" transform="translate(341.39625 212.200938)rotate(-90)scale(0.16 -0.16)">
      <defs>
       <path id="ArialMT-42" d="M 469 0 
L 469 4581 
L 2188 4581 
Q 2713 4581 3030 4442 
Q 3347 4303 3526 4014 
Q 3706 3725 3706 3409 
Q 3706 3116 3547 2856 
Q 3388 2597 3066 2438 
Q 3481 2316 3704 2022 
Q 3928 1728 3928 1328 
Q 3928 1006 3792 729 
Q 3656 453 3456 303 
Q 3256 153 2954 76 
Q 2653 0 2216 0 
L 469 0 
z
M 1075 2656 
L 2066 2656 
Q 2469 2656 2644 2709 
Q 2875 2778 2992 2937 
Q 3109 3097 3109 3338 
Q 3109 3566 3000 3739 
Q 2891 3913 2687 3977 
Q 2484 4041 1991 4041 
L 1075 4041 
L 1075 2656 
z
M 1075 541 
L 2216 541 
Q 2509 541 2628 563 
Q 2838 600 2978 687 
Q 3119 775 3209 942 
Q 3300 1109 3300 1328 
Q 3300 1584 3169 1773 
Q 3038 1963 2805 2039 
Q 2572 2116 2134 2116 
L 1075 2116 
L 1075 541 
z
" transform="scale(0.015625)"/>
       <path id="DejaVuSans-Oblique-43" d="M 4447 4306 
L 4319 3641 
Q 4019 3944 3683 4091 
Q 3347 4238 2956 4238 
Q 2422 4238 2017 3981 
Q 1613 3725 1319 3200 
Q 1131 2863 1032 2486 
Q 934 2109 934 1728 
Q 934 1091 1264 756 
Q 1594 422 2222 422 
Q 2656 422 3056 561 
Q 3456 700 3834 978 
L 3688 231 
Q 3316 72 2936 -9 
Q 2556 -91 2175 -91 
Q 1278 -91 773 396 
Q 269 884 269 1753 
Q 269 2309 461 2846 
Q 653 3384 1013 3828 
Q 1394 4300 1883 4525 
Q 2372 4750 3022 4750 
Q 3422 4750 3780 4639 
Q 4138 4528 4447 4306 
z
" transform="scale(0.015625)"/>
       <path id="ArialMT-77" d="M 1034 0 
L 19 3319 
L 600 3319 
L 1128 1403 
L 1325 691 
Q 1338 744 1497 1375 
L 2025 3319 
L 2603 3319 
L 3100 1394 
L 3266 759 
L 3456 1400 
L 4025 3319 
L 4572 3319 
L 3534 0 
L 2950 0 
L 2422 1988 
L 2294 2553 
L 1622 0 
L 1034 0 
z
" transform="scale(0.015625)"/>
       <path id="ArialMT-22" d="M 450 2959 
L 294 3831 
L 294 4581 
L 934 4581 
L 934 3831 
L 794 2959 
L 450 2959 
z
M 1484 2959 
L 1331 3831 
L 1331 4581 
L 1972 4581 
L 1972 3831 
L 1822 2959 
L 1484 2959 
z
" transform="scale(0.015625)"/>
       <path id="ArialMT-4c" d="M 469 0 
L 469 4581 
L 1075 4581 
L 1075 541 
L 3331 541 
L 3331 0 
L 469 0 
z
" transform="scale(0.015625)"/>
      </defs>
      <use xlink:href="#ArialMT-42" transform="translate(0 0.78125)"/>
      <use xlink:href="#ArialMT-69" transform="translate(66.699219 0.78125)"/>
      <use xlink:href="#ArialMT-61" transform="translate(88.916016 0.78125)"/>
      <use xlink:href="#ArialMT-73" transform="translate(144.53125 0.78125)"/>
      <use xlink:href="#ArialMT-20" transform="translate(194.53125 0.78125)"/>
      <use xlink:href="#ArialMT-28" transform="translate(222.314453 0.78125)"/>
      <use xlink:href="#DejaVuSans-Oblique-43" transform="translate(255.615234 0.78125)"/>
      <use xlink:href="#ArialMT-29" transform="translate(325.439453 0.78125)"/>
      <use xlink:href="#ArialMT-20" transform="translate(358.740234 0.78125)"/>
      <use xlink:href="#ArialMT-54" transform="translate(386.523438 0.78125)"/>
      <use xlink:href="#ArialMT-6f" transform="translate(447.607422 0.78125)"/>
      <use xlink:href="#ArialMT-77" transform="translate(503.222656 0.78125)"/>
      <use xlink:href="#ArialMT-61" transform="translate(575.439453 0.78125)"/>
      <use xlink:href="#ArialMT-72" transform="translate(631.054688 0.78125)"/>
      <use xlink:href="#ArialMT-64" transform="translate(664.355469 0.78125)"/>
      <use xlink:href="#ArialMT-73" transform="translate(719.970703 0.78125)"/>
      <use xlink:href="#ArialMT-20" transform="translate(769.970703 0.78125)"/>
      <use xlink:href="#ArialMT-22" transform="translate(797.753906 0.78125)"/>
      <use xlink:href="#ArialMT-4c" transform="translate(833.251953 0.78125)"/>
      <use xlink:href="#ArialMT-6f" transform="translate(888.867188 0.78125)"/>
      <use xlink:href="#ArialMT-77" transform="translate(944.482422 0.78125)"/>
      <use xlink:href="#ArialMT-22" transform="translate(1016.699219 0.78125)"/>
     </g>
    </g>
   </g>
   <g id="line2d_31">
    <path d="M 379.605 127.960938 
L 635.04 127.960938 
" clip-path="url(#pe9bd87541c)" style="fill: none; stroke-dasharray: 5.55,2.4; stroke-dashoffset: 0; stroke: #000000; stroke-opacity: 0.5; stroke-width: 1.5"/>
   </g>
   <g id="line2d_32">
    <path d="M 399.472167 120.305015 
L 505.903417 104.636719 
L 612.334667 86.679968 
" clip-path="url(#pe9bd87541c)" style="fill: none; stroke: #06113c; stroke-width: 2; stroke-linecap: round"/>
    <g clip-path="url(#pe9bd87541c)">
     <use xlink:href="#m17b6525266" x="399.472167" y="120.305015" style="fill: #06113c; stroke: #ffffff; stroke-width: 0.75"/>
     <use xlink:href="#m17b6525266" x="505.903417" y="104.636719" style="fill: #06113c; stroke: #ffffff; stroke-width: 0.75"/>
     <use xlink:href="#m17b6525266" x="612.334667" y="86.679968" style="fill: #06113c; stroke: #ffffff; stroke-width: 0.75"/>
    </g>
   </g>
   <g id="LineCollection_3">
    <path d="M 399.472167 142.593673 
L 399.472167 96.677783 
" clip-path="url(#pe9bd87541c)" style="fill: none; stroke: #06113c; stroke-width: 1.5; stroke-linecap: round"/>
    <path d="M 505.903417 122.72449 
L 505.903417 86.612351 
" clip-path="url(#pe9bd87541c)" style="fill: none; stroke: #06113c; stroke-width: 1.5; stroke-linecap: round"/>
    <path d="M 612.334667 106.216507 
L 612.334667 67.110091 
" clip-path="url(#pe9bd87541c)" style="fill: none; stroke: #06113c; stroke-width: 1.5; stroke-linecap: round"/>
   </g>
   <g id="line2d_33">
    <g clip-path="url(#pe9bd87541c)">
     <use xlink:href="#m5f54bcc90f" x="399.472167" y="142.593673" style="fill: #06113c; stroke: #06113c"/>
     <use xlink:href="#m5f54bcc90f" x="505.903417" y="122.72449" style="fill: #06113c; stroke: #06113c"/>
     <use xlink:href="#m5f54bcc90f" x="612.334667" y="106.216507" style="fill: #06113c; stroke: #06113c"/>
    </g>
   </g>
   <g id="line2d_34">
    <g clip-path="url(#pe9bd87541c)">
     <use xlink:href="#m5f54bcc90f" x="399.472167" y="96.677783" style="fill: #06113c; stroke: #06113c"/>
     <use xlink:href="#m5f54bcc90f" x="505.903417" y="86.612351" style="fill: #06113c; stroke: #06113c"/>
     <use xlink:href="#m5f54bcc90f" x="612.334667" y="67.110091" style="fill: #06113c; stroke: #06113c"/>
    </g>
   </g>
   <g id="line2d_35">
    <path d="M 402.310333 139.88181 
L 508.741583 152.161148 
L 615.172833 103.598374 
" clip-path="url(#pe9bd87541c)" style="fill: none; stroke: #ff8c32; stroke-width: 2; stroke-linecap: round"/>
    <g clip-path="url(#pe9bd87541c)">
     <use xlink:href="#m9976c7f19f" x="402.310333" y="139.88181" style="fill: #ff8c32; stroke: #ffffff; stroke-width: 0.75"/>
     <use xlink:href="#m9976c7f19f" x="508.741583" y="152.161148" style="fill: #ff8c32; stroke: #ffffff; stroke-width: 0.75"/>
     <use xlink:href="#m9976c7f19f" x="615.172833" y="103.598374" style="fill: #ff8c32; stroke: #ffffff; stroke-width: 0.75"/>
    </g>
   </g>
   <g id="LineCollection_4">
    <path d="M 402.310333 171.309848 
L 402.310333 106.141724 
" clip-path="url(#pe9bd87541c)" style="fill: none; stroke: #ff8c32; stroke-width: 1.5; stroke-linecap: round"/>
    <path d="M 508.741583 178.213268 
L 508.741583 124.831285 
" clip-path="url(#pe9bd87541c)" style="fill: none; stroke: #ff8c32; stroke-width: 1.5; stroke-linecap: round"/>
    <path d="M 615.172833 131.530767 
L 615.172833 76.970275 
" clip-path="url(#pe9bd87541c)" style="fill: none; stroke: #ff8c32; stroke-width: 1.5; stroke-linecap: round"/>
   </g>
   <g id="line2d_36">
    <g clip-path="url(#pe9bd87541c)">
     <use xlink:href="#m2f4ecec8c7" x="402.310333" y="171.309848" style="fill: #ff8c32; stroke: #ff8c32"/>
     <use xlink:href="#m2f4ecec8c7" x="508.741583" y="178.213268" style="fill: #ff8c32; stroke: #ff8c32"/>
     <use xlink:href="#m2f4ecec8c7" x="615.172833" y="131.530767" style="fill: #ff8c32; stroke: #ff8c32"/>
    </g>
   </g>
   <g id="line2d_37">
    <g clip-path="url(#pe9bd87541c)">
     <use xlink:href="#m2f4ecec8c7" x="402.310333" y="106.141724" style="fill: #ff8c32; stroke: #ff8c32"/>
     <use xlink:href="#m2f4ecec8c7" x="508.741583" y="124.831285" style="fill: #ff8c32; stroke: #ff8c32"/>
     <use xlink:href="#m2f4ecec8c7" x="615.172833" y="76.970275" style="fill: #ff8c32; stroke: #ff8c32"/>
    </g>
   </g>
   <g id="line2d_38"/>
   <g id="line2d_39"/>
   <g id="patch_7">
    <path d="M 379.605 238.961875 
L 379.605 16.96 
" style="fill: none; stroke: #ffffff; stroke-width: 0.8; stroke-linejoin: miter; stroke-linecap: square"/>
   </g>
   <g id="patch_8">
    <path d="M 379.605 238.961875 
L 635.04 238.961875 
" style="fill: none; stroke: #ffffff; stroke-width: 0.8; stroke-linejoin: miter; stroke-linecap: square"/>
   </g>
   <g id="legend_2">
    <g id="patch_9">
     <path d="M 561.5625 60.649375 
L 626.64 60.649375 
Q 629.04 60.649375 629.04 58.249375 
L 629.04 25.36 
Q 629.04 22.96 626.64 22.96 
L 561.5625 22.96 
Q 559.1625 22.96 559.1625 25.36 
L 559.1625 58.249375 
Q 559.1625 60.649375 561.5625 60.649375 
z
" style="fill: #eaeaf2; opacity: 0.8; stroke: #cccccc; stroke-linejoin: miter"/>
    </g>
    <g id="line2d_40">
     <path d="M 563.9625 32.149375 
L 575.9625 32.149375 
L 587.9625 32.149375 
" style="fill: none; stroke: #06113c; stroke-width: 2; stroke-linecap: round"/>
     <g>
      <use xlink:href="#m17b6525266" x="575.9625" y="32.149375" style="fill: #06113c; stroke: #ffffff; stroke-width: 0.75"/>
     </g>
    </g>
    <g id="text_26">
     <!-- Easy -->
     <g style="fill: #262626" transform="translate(597.5625 36.349375)scale(0.12 -0.12)">
      <use xlink:href="#ArialMT-45"/>
      <use xlink:href="#ArialMT-61" x="66.699219"/>
      <use xlink:href="#ArialMT-73" x="122.314453"/>
      <use xlink:href="#ArialMT-79" x="172.314453"/>
     </g>
    </g>
    <g id="line2d_41">
     <path d="M 563.9625 49.264375 
L 575.9625 49.264375 
L 587.9625 49.264375 
" style="fill: none; stroke: #ff8c32; stroke-width: 2; stroke-linecap: round"/>
     <g>
      <use xlink:href="#m9976c7f19f" x="575.9625" y="49.264375" style="fill: #ff8c32; stroke: #ffffff; stroke-width: 0.75"/>
     </g>
    </g>
    <g id="text_27">
     <!-- Hard -->
     <g style="fill: #262626" transform="translate(597.5625 53.464375)scale(0.12 -0.12)">
      <use xlink:href="#ArialMT-48"/>
      <use xlink:href="#ArialMT-61" x="72.216797"/>
      <use xlink:href="#ArialMT-72" x="127.832031"/>
      <use xlink:href="#ArialMT-64" x="161.132812"/>
     </g>
    </g>
   </g>
  </g>
 </g>
 <defs>
  <clipPath id="p6360d76eb7">
   <rect x="57.585" y="16.96" width="255.435" height="222.001875"/>
  </clipPath>
  <clipPath id="pe9bd87541c">
   <rect x="379.605" y="16.96" width="255.435" height="222.001875"/>
  </clipPath>
 </defs>
</svg>
